<?xml version="1.0" encoding="utf-8"?>
<!-- Generator: Adobe Illustrator 24.1.2, SVG Export Plug-In . SVG Version: 6.00 Build 0)  -->
<svg version="1.1" id="Layer_1" xmlns="http://www.w3.org/2000/svg" xmlns:xlink="http://www.w3.org/1999/xlink" x="0px" y="0px"
	 viewBox="0 0 1080 1080" style="enable-background:new 0 0 1080 1080;" xml:space="preserve">
<style type="text/css">
	.st0{fill:#0D0D0D;}
	.st1{fill:#0B0B0B;}
	.st2{fill:#151515;}
	.st3{fill:#F6F6F6;}
	.st4{fill:#C2C2C2;}
	.st5{fill:#161616;}
	.st6{fill:#BBBBBB;}
	.st7{fill:#141414;}
	.st8{fill:#AFAFAF;}
	.st9{fill:#B5B5B5;}
	.st10{fill:#1C1C1C;}
	.st11{fill:#363636;}
	.st12{fill:#C5C5C5;}
	.st13{fill:#1F1F1F;}
	.st14{fill:#ADADAD;}
	.st15{fill:#9D9D9D;}
	.st16{fill:#ABABAB;}
	.st17{fill:#464646;}
	.st18{fill:#393939;}
	.st19{fill:#8E8E8E;}
	.st20{fill:#6C6C6C;}
	.st21{fill:#808080;}
	.st22{fill:#D3D3D3;}
	.st23{fill:#0C0C0C;}
	.st24{fill:#606060;}
	.st25{fill:#565656;}
	.st26{fill:#E6E6E6;}
	.st27{fill:#6B6B6B;}
	.st28{fill:#EFEFEF;}
	.st29{fill:#9A9A9A;}
	.st30{fill:#AEAEAE;}
	.st31{fill:#5B5B5B;}
	.st32{fill:#989898;}
	.st33{fill:#131313;}
	.st34{fill:#797979;}
	.st35{fill:#353535;}
	.st36{fill:#1B1B1B;}
	.st37{fill:#232323;}
	.st38{fill:#2F2F2F;}
	.st39{fill:#5C5C5C;}
	.st40{fill:#373737;}
	.st41{fill:#9E9E9E;}
	.st42{fill:#B1B1B1;}
	.st43{fill:#9F9F9F;}
	.st44{fill:#A6A6A6;}
	.st45{fill:#CECECE;}
	.st46{fill:#A8A8A8;}
	.st47{fill:#9C9C9C;}
	.st48{fill:#DBDBDB;}
	.st49{fill:#A0A0A0;}
	.st50{fill:#B9B9B9;}
	.st51{fill:#3F3F3F;}
	.st52{fill:#2B2B2B;}
	.st53{fill:#878787;}
	.st54{fill:#949494;}
	.st55{fill:#292929;}
	.st56{fill:#E8E8E8;}
	.st57{fill:#909090;}
	.st58{fill:#C9C9C9;}
	.st59{fill:#2A2A2A;}
	.st60{fill:#262626;}
	.st61{fill:#1A1A1A;}
	.st62{fill:#333333;}
	.st63{fill:#AAAAAA;}
	.st64{fill:#787878;}
	.st65{fill:#434343;}
	.st66{fill:#181818;}
	.st67{fill:#8C8C8C;}
	.st68{fill:#727272;}
	.st69{fill:#676767;}
	.st70{fill:#8F8F8F;}
	.st71{fill:#9B9B9B;}
	.st72{fill:#484848;}
	.st73{fill:#3E3E3E;}
	.st74{fill:#0E0E0E;}
	.st75{fill:#737373;}
	.st76{fill:#A1A1A1;}
	.st77{fill:#A2A2A2;}
	.st78{fill:#818181;}
	.st79{fill:#3B3B3B;}
	.st80{fill:#717171;}
	.st81{fill:#898989;}
	.st82{fill:#959595;}
	.st83{fill:#E5E5E5;}
	.st84{fill:#555555;}
	.st85{fill:#FAFAFA;}
	.st86{fill:#F9F9F9;}
	.st87{fill:#4E4E4E;}
	.st88{fill:#8A8A8A;}
	.st89{fill:#DDDDDD;}
	.st90{fill:#414141;}
	.st91{fill:#EBEBEB;}
	.st92{fill:#CFCFCF;}
	.st93{fill:#EEEEEE;}
	.st94{fill:#242424;}
	.st95{fill:#C1C1C1;}
	.st96{fill:#E3E3E3;}
	.st97{fill:#525252;}
	.st98{fill:#E9E9E9;}
	.st99{fill:#202020;}
	.st100{fill:#FEFEFE;}
	.st101{fill:#DEDEDE;}
	.st102{fill:#FBFBFB;}
	.st103{fill:#BCBCBC;}
	.st104{fill:#BEBEBE;}
	.st105{fill:#101010;}
	.st106{fill:#B3B3B3;}
	.st107{fill:#171717;}
	.st108{fill:#2D2D2D;}
	.st109{fill:#C0C0C0;}
	.st110{fill:#B0B0B0;}
	.st111{fill:#212121;}
	.st112{fill:#323232;}
	.st113{fill:#CBCBCB;}
	.st114{fill:#E1E1E1;}
	.st115{fill:#121212;}
	.st116{fill:#8D8D8D;}
	.st117{fill:#B2B2B2;}
	.st118{fill:#1D1D1D;}
	.st119{fill:#A9A9A9;}
	.st120{fill:#7C7C7C;}
	.st121{fill:#BABABA;}
	.st122{fill:#595959;}
	.st123{fill:#1E1E1E;}
	.st124{fill:#929292;}
	.st125{fill:#2E2E2E;}
	.st126{fill:#282828;}
	.st127{fill:#848484;}
	.st128{fill:#4F4F4F;}
	.st129{fill:#A3A3A3;}
	.st130{fill:#919191;}
	.st131{fill:#7D7D7D;}
	.st132{fill:#979797;}
	.st133{fill:#767676;}
	.st134{fill:#090909;}
	.st135{fill:#F0F0F0;}
	.st136{fill:#4A4A4A;}
	.st137{fill:#585858;}
	.st138{fill:#A4A4A4;}
	.st139{fill:#828282;}
	.st140{fill:#B4B4B4;}
	.st141{fill:#E7E7E7;}
	.st142{fill:#C3C3C3;}
	.st143{fill:#494949;}
	.st144{fill:#D9D9D9;}
	.st145{fill:#313131;}
	.st146{fill:#636363;}
	.st147{fill:#696969;}
	.st148{fill:#838383;}
	.st149{fill:#383838;}
	.st150{fill:#505050;}
	.st151{fill:#999999;}
	.st152{fill:#ACACAC;}
	.st153{fill:#454545;}
	.st154{fill:#616161;}
	.st155{fill:#252525;}
	.st156{fill:#6A6A6A;}
	.st157{fill:#747474;}
	.st158{fill:#EAEAEA;}
	.st159{fill:#BDBDBD;}
	.st160{fill:#D0D0D0;}
	.st161{fill:#D5D5D5;}
	.st162{fill:#686868;}
	.st163{fill:#646464;}
	.st164{fill:#2C2C2C;}
	.st165{fill:#3C3C3C;}
	.st166{fill:#545454;}
	.st167{fill:#F1F1F1;}
	.st168{fill:#FDFDFD;}
	.st169{fill:#FCFCFC;}
	.st170{fill:#A7A7A7;}
	.st171{fill:#272727;}
	.st172{fill:#B8B8B8;}
	.st173{fill:#0F0F0F;}
	.st174{fill:#191919;}
	.st175{fill:#707070;}
	.st176{fill:#111111;}
	.st177{fill:#F3F3F3;}
	.st178{fill:#4C4C4C;}
	.st179{fill:#4D4D4D;}
	.st180{fill:#222222;}
	.st181{fill:#626262;}
	.st182{fill:#777777;}
	.st183{fill:#A5A5A5;}
	.st184{fill:#868686;}
	.st185{fill:#C6C6C6;}
	.st186{fill:#EDEDED;}
	.st187{fill:#757575;}
	.st188{fill:#CACACA;}
	.st189{fill:#5E5E5E;}
	.st190{fill:#E0E0E0;}
	.st191{fill:#575757;}
	.st192{fill:#7F7F7F;}
	.st193{fill:#B6B6B6;}
	.st194{fill:#F8F8F8;}
	.st195{fill:#D1D1D1;}
	.st196{fill:#D8D8D8;}
	.st197{fill:#C4C4C4;}
	.st198{fill:#F4F4F4;}
	.st199{fill:#6E6E6E;}
	.st200{fill:#BFBFBF;}
	.st201{fill:#5D5D5D;}
	.st202{fill:#7E7E7E;}
	.st203{fill:#4B4B4B;}
	.st204{fill:#888888;}
	.st205{fill:#C8C8C8;}
	.st206{fill:#303030;}
	.st207{fill:#939393;}
	.st208{fill:#C7C7C7;}
	.st209{fill:#F7F7F7;}
	.st210{fill:#070707;}
	.st211{fill:#5A5A5A;}
	.st212{fill:#515151;}
	.st213{fill:#858585;}
	.st214{fill:#7A7A7A;}
	.st215{fill:#535353;}
	.st216{fill:#E2E2E2;}
	.st217{fill:#666666;}
	.st218{fill:#DFDFDF;}
	.st219{fill:#060606;}
	.st220{fill:#DCDCDC;}
	.st221{fill:#DADADA;}
	.st222{fill:#F2F2F2;}
	.st223{fill:#3D3D3D;}
	.st224{fill:#D4D4D4;}
	.st225{fill:#424242;}
	.st226{fill:#3A3A3A;}
	.st227{fill:#404040;}
	.st228{fill:#7B7B7B;}
	.st229{fill:#969696;}
	.st230{fill:#6F6F6F;}
	.st231{fill:#D2D2D2;}
	.st232{fill:#D6D6D6;}
	.st233{fill:#D7D7D7;}
	.st234{fill:#F5F5F5;}
	.st235{fill:#5F5F5F;}
	.st236{fill:#080808;}
	.st237{fill:#8B8B8B;}
	.st238{fill:#ECECEC;}
	.st239{fill:#343434;}
	.st240{fill:#CCCCCC;}
	.st241{fill:#0A0A0A;}
	.st242{fill:#B7B7B7;}
	.st243{fill:#040404;}
	.st244{fill:#E4E4E4;}
	.st245{fill:#CDCDCD;}
	.st246{fill:#6D6D6D;}
	.st247{fill:#444444;}
</style>
<g>
	<path class="st0" d="M169.72,602.76c-2.88-1.12-5.75-2.25-8.63-3.37c-1.44-3.34,0.27-5.2,3.09-6.54
		c23.41,7.87,39.2-0.03,48.51-22.72c2.72-6.62,8.35-10.64,16.18-9.64c7.57,0.97,9.77,6.26,11.18,13.03
		c1.55,7.47,15.66,8.05,22.55-0.35c14.85-18.1,35.95-26.67,54.95-38.5c5.01-0.26,8.65-2.29,9.76-7.57
		c5.83-5.74,12.81-10.13,17.57-17.16c9.9-14.64,21.26-23.94,41.89-21.34c15.4,1.94,23.34-15.25,33.38-24.96
		c12.44-12.02,22.8-26.2,34.06-39.44c2.63-1.34,5.24-2.77,8.38-2.08c2.13,0.51,3.88,1.57,4.93,3.55c1.39,8.51-7.18,7.15-10.68,10.84
		c-9.4,16.14-16,34.68-35.44,41.86c9.51,2.71,18.58-7.25,28.71-2.14c2.15,13.28-8.75,10.87-13.91,12.84
		c-3.8,0.55-0.67,3.11-1.68,1.45c-0.19-0.32,0.26-0.91,1.19-0.75c8.59,1.5,12.73-7.98,20.56-8.26c-2.71,9.44-4.69,18.92-14.45,24.7
		c-6.85,4.05,0.84,7.71,1.92,11.56c0.11,5.26-2.66,4.76-6.06,3.03c-2.5-5.47-2.58-12.14-9.34-15.4c-3.42-1.65-7.49-3.43-8.7,0.11
		c-3.85,11.33-12.68,9.84-21.3,9.88c-9.31,0.04-12.53,3.78-6.36,11.93c12.05,15.92,10.83,32.11,1.5,48.61
		c-2.53,0.42-3.65-1.16-4.51-3.14c-4.26-14.1,4.92-29.71-4.88-43.18c-0.71-1.06-1.4-2.14-2.16-3.17
		c-7.77-5.35-15.28-10.94-19.19,3.93c-2.04,7.78-9.62,6.37-15.38,7.72c-17.82,0.29-30.75,14.84-48.24,16.51
		c-5.09,0.49-10.09,3.21-13.67,7.52c-1.85,2.23-3.48,4.73-5.66,6.56c-12.45,10.45-21.78,22.76-25.11,39.49
		c-1.3-4.41-3.22-8.76-3.7-13.26c-0.43-4,6.24-10.69-4.65-9.56c-6.62,0.69-14.55-0.24-11.93,10.69c0.61,3.09-0.98,3.93-3.7,3.63
		c-4.93-5.97-2.35-12.4-1.14-18.73c0.07-1.29,0.11-2.61,0.05-3.89c-1.73-5.33-4.43-3.73-7.01-0.83c-2.83,3.18-3.32,7.82-6.48,10.86
		C203.06,599.5,188.69,607.98,169.72,602.76z"/>
	<path class="st1" d="M466.69,427.93c-1.01-1.11-2.02-2.22-3.03-3.33c-1.46-1.72-1.59-3.62-0.72-5.64
		c5.76-2.72,9.15-15.74,18.18-4.28c2.42-0.08,4.01-1.66,5.69-3.12c5.85-7.63,9.28-16.63,13.97-24.43c1.84-1.5-2.78-1.53-1.07-0.6
		c0.69,0.38,0.82,1.21,0.1,1.39c-7.96,2.01-2.17,11.64-8.2,14.68c-4.84,4.94-10.35,3.99-16.02,1.85c-1.37-0.57-2.56-1.41-3.58-2.48
		c-0.78-1.42-0.68-2.77,0.31-4.05c2.02-2.63,4.93-4.96,5.93-7.93c11.31-33.57,38.9-33.67,66.96-32.93c0.7,0.63,0.96,1.29,0.77,1.97
		c-0.19,0.69-0.4,1.04-0.62,1.04c-9.05,0.83-12.5,5.78-11.06,14.64c1.16,7.12,2.04,14.3,5.46,20.81
		c9.61,11.61,12.53,25.49,12.78,39.97c0.16,9.02,1.16,18.13-0.88,27.11c-0.59,0.62-0.94,1.35-1.07,2.2
		c-1.29,2.3,0.07,5.83-3.33,7.15c-4.27-1.24-4.51-4.73-4.64-8.27c0.24-3.92-0.65-7.42-4.83-10.6c2.58,4.27,4.53,7.93,3.3,12.22
		c-3.56,6.59,6.44,18.25-7.77,20.88c-12.3-26.92-12.72-13.48-8.72-93.12c-4.16,13.14-3.94,24.72-4.4,36.23
		c-0.16,3.88-0.5,8.99-4.84,9.5c-5.65,0.68-6.93-4.9-6.76-9.06c0.26-6.48-1.19-11.3-7.56-13.82c2.77-10.08,7.48-19.53,9.47-29.87
		c-4.81,17.71-11.86,34.43-22.38,49.54c-6.85,9.84-8.12,21.38-11,32.54c-2.36,9.12,8.51,12.62,7.41,20.74
		c-7.72,0.49-12.1-3.58-15.23-10.26c-2.78-5.93-6.7-8.42-11.1-1.01c-2.39,0.74-3.87-0.51-5.08-2.33
		c-4.74-13.82,3.71-23.43,10.65-33.53C466.75,437.54,465.93,432.56,466.69,427.93z"/>
	<path class="st2" d="M545.37,360.04c-0.05-1-0.1-2-0.16-3c14.35-0.32,24.57,6.58,33.4,17.44c19.44,23.91,35.79,50.23,57.2,72.6
		c9.38,9.79,17.98,20.22,33.51,19.98c6.73-0.11,11.41,4.66,15.3,9.84c11.24,14.95,24.68,28.38,29.88,47.33
		c2.4,8.73,11.52,12.75,16.87,19.54c4.1,5.2,9.75,10,3.46,17.25c1.16,1.75,0.92,3.29-0.72,4.6c-14.73-24.92-29.35-49.9-44.34-74.67
		c-2.09-3.45-4.11-9.65-10.7-5.47c-7.41-10.27-20.26-5.81-29.59-10.88c-4.82-2.57-8.73-6.34-12.88-9.79
		c-4.5-4.72-7.39-10.47-10.15-16.29c-5.86-8.68-11.71-17.35-17.57-26.03c-1.89-3.15-6.2-0.75-8.22-3.6
		c-10.2-14.37-22.18-27.39-30.52-43.19C565.2,366.31,555.03,363.08,545.37,360.04z"/>
	<path class="st3" d="M484.57,488.84c-13.27-12.09-15.79-24.44-4.25-45.93c10.46-19.48,22.59-37.93,27.98-59.77
		c0.82-3.31,3.41-6.5,9.34-8.69c-6.98,14.39-4.69,30.03-15.61,41.13c4.11,3.13,3.9,6.95,1.79,11.08
		c-3.96,7.28-3.99,15.48-5.39,23.35c-3.24,8.35,0.4,16.8-0.26,25.19c-0.06,4.85-1.27,9.48-2.68,14.08c-0.6,1.32-1.44,2.44-2.57,3.36
		c-2.2,0.77-4.2,0.6-5.83-1.26C486.25,490.53,485.41,489.69,484.57,488.84z"/>
	<path class="st4" d="M493.05,491.17l-0.72-0.57l0.37-0.84c2.79-7.03,5.84-13.94,8.28-18.38c2.81-3.5-1.13-3.05,0.56-2.1
		c0.25,0.14,0.06,0.56-0.44,1.35c-1.18,1.86-1.63,4.7-4.96,3.57c-1.71-7.77-6.52-15.45-0.6-23.41c2.81-0.66,3.43-3.39,4.95-5.28
		c3.39-3.28,5.52-10.41,12.13-4.05c3.28,5.85,1.7,12.28,2.12,18.46c0.41,6.07,4.04,0.91,5.92,1.84c8.31,8.21-1.27,16.33-0.07,24.52
		c-5.03,10.59,2.5,20.48,1.74,30.85c-5.38,11.19-7.44,11.67-17.46,4.03c-1.02-4.07-2.04-8.13-3.05-12.2
		C503.88,500.55,490.36,499.86,493.05,491.17z"/>
	<path class="st5" d="M830.73,599.34c-2.13-3.74-3.4,7.6-6.49,0.17c-2.05-4.94-6.39-8.94-9.84-13.56
		c-5.85,5.79,3.37,8.84,0.38,13.37c-6.43,0.64-6.33-4.54-7.91-8.28c-1.3-3.08-0.5-9.91-5.84-7.33c-4.83,2.33-11.44,6.41-8.33,14.45
		c1.36,3.53,3.16,6.9,4.76,10.34c-1.23,0.76-2.56,1.06-4,0.92c-7.01-3.01-8.23-9.84-10.32-15.98c-2.61-7.68-7.54-14.04-11.38-21.03
		c-0.37-2.71,1.38-3.71,3.54-4.37c3.02,1.35,6.94,1.94,8.88,4.21c5.2,6.09,8.76,9.21,17.53,3.41c6.91-4.57,14.24,4.03,20,8.05
		c21.26,14.86,46.21,19.66,69.95,27.81c0.32,5.88-5.26,2.88-7.47,4.97c-1.99,0.53-4.01,0.55-6.02,0.24
		c-3.1-0.52-5.93-1.89-8.83-2.96c-1.64-0.38-3.25-0.57-4.66,0.71c-2.22,10.13-1.02,20.29-0.7,30.4c0.17,5.39,0.6,10.66-3,15.25
		c-1.24,1.1-2.42,0.98-3.55-0.17c-0.53-7.94-10.41-15.13-1.1-24.18c2.17-2.11-0.4-8.47,0.54-12.57c3.41-14.96-4.06-20.56-17.5-21.58
		C836.02,602.66,833.1,602.02,830.73,599.34z"/>
	<path class="st6" d="M353.82,637.25c-4.39,0.66-8.77,1.32-13.38,2.02c-0.6-6.14,6.21-6.84,7.21-11.32
		c-2.66-7.42,5.62-9.97,6.94-15.61c2.81-4.23,2.06-9.59,4.36-14.01c2.54-2.35,5.59-3.39,8.98-3.56c5.72,1.72,14.09-6.27,16.8,1.21
		c2.58,7.12,6.94,15.5,3.08,23.81c-2.23,4.79-3.25,9.98-5.67,14.64c-1.69,4.21-6.64,2.57-9.25,5.16
		C365.79,644.84,360.11,638.59,353.82,637.25z"/>
	<path class="st7" d="M603.61,663.44c-2.42,1.06-3.87,5.61-7.71,1.13c-2.35-2.75-2.84-4.74-0.84-7.3
		c3.75-4.81,7.69-9.46,11.56-14.18c4.29-5.28-2.52-9.41-1.5-14.36c2.51-5.17,6.62-9.44,8.54-14.97c1.1-1.72,2.57-3.02,4.48-3.77
		c1.34-0.19,2.62,0.03,3.84,0.6c6.35,5.19,17.73-0.78,21.68,9.74c0.31,7.54,5.13,14.26,3.97,22.07c1.85,5.7,0.79,8.44-5.72,5.66
		c-3.17-4.89-8.02-4.14-12.78-3.74c-2.76-1.27-3.27-3.17-1.59-5.67c-1.71,0.99-1.78,2.96-2.67,4.43
		c-3.55,5.85-8.88,10.06-13.57,14.86C608.95,660.06,606.72,662.36,603.61,663.44z"/>
	<path class="st8" d="M411.63,552.67c5.78-3.7,12.38-3.18,12.5,3.83c0.27,15.64,6.73,29.13,12.5,42.74
		c2.31,5.44-4.41,10.22,0.91,14.58c1.59,3.34,2.67,6.9,3.96,10.35c1.01,2.7,0.34,5.77-4.06,3.98c-3.39-2.65-6.9-5.16-10.11-8.01
		c-1.8-1.61-4.49-2.46-1.7-6.58c3.52-5.19,1-7.94-5.28-5.36c-6.75-7.39-9.88-15.98-8.65-26.02c-0.6-3.4-8.4-3.82-3.88-9.35
		C417,567.59,406.02,558.57,411.63,552.67z"/>
	<path class="st9" d="M233.15,576.16c0.09,0.92,0.17,1.84,0.26,2.76c-4.24,7.67-7.09,16.51-16.8,19.84
		c2.81,1.88,5.71-0.03,8.26,1.03c1.27,0.35,2.43,0.93,3.45,1.76c1.37,2.54,0.48,4.91-0.52,7.28c-1.19,2.2-4.49,4.8,1.13,5.67
		c0.14,1.27-0.25,2.34-1.18,3.21c-1.25,0.12-2.39-0.17-3.43-0.86c-12.91,3.05-26.04,7.83-35.06-7.71
		c-4.4-7.57-14.27-0.39-19.55-6.39c19.19,3.55,31.72-9.59,45.99-18.35c3.41-2.61,5.51-6.33,8.12-9.63
		C227.66,569.92,230.77,570.79,233.15,576.16z"/>
	<path class="st10" d="M734.12,565.61c0.24-1.53,0.48-3.07,0.72-4.6c4.9,4.88,10.06-7.92,14.91,0.22c-0.26,1.21-0.59,2.4-0.98,3.58
		c0.77,7.64,5.01,14.67,4.03,22.6c-0.01,4.98,0.8,9.65,4.98,12.99c3.8-0.41,8.2-2.02,8.88,4.19c0.45-4.96-2.61-9.28-2.61-14.13
		c-0.01-4.28-0.62-9.07,5.65-9.87c13.46,8.58,15,31.73,5.5,48.39c-19.61-4.81-27.78-20.91-33.59-37.32
		C738.67,583.37,736.24,574.41,734.12,565.61z"/>
	<path class="st11" d="M641.35,645.92c3.83,1.93,5.76,0.48,6.29-3.51c-1.39,14.6,12.71,21.08,17.12,32.64
		c-1,1.22-2.18,1.37-3.51,0.6c-4.65,1.31-5.39,7.71-10.86,8.4c-1.29-6.54,7.69-8.09,6.76-15.2c-7.38,1.06-8.96,7.88-12.96,11.82
		c-4.84,1.11-5.69-2.77-7.24-5.78c-1.2-4.77,3.24-8.92,0.74-15.08c-2.71,5.51-7.75,8.79-7.24,15.26c-3.8,8.51-15.3,6.42-18.5,15.33
		c-7.02-5.31,1.73-15.84-8.48-18.2c8.71-4.4,14.84-11.52,20.33-19.32C629.93,651.28,632.89,641.63,641.35,645.92z"/>
	<path class="st12" d="M344.41,575.82c-1.1-7.9-1.07-15.66,2.92-22.91c5.3-6.21,9.42-13.47,14.83-19.38
		c5.76-6.29,11.66-17.5,23.13-6.96l-0.12,0.17c3.7,7.57-5.24,12.99-3.41,20.24c0.56,9.09-5.32,12.35-12.81,14.18
		c-7.8,4.07-15.16,8.72-20.97,15.46C346.63,577.12,345.43,576.84,344.41,575.82z"/>
	<path class="st13" d="M378.4,636.27c4.04-5.5,3.94-12.49,7.23-18.65c5.17-9.66-2.85-12.2-13.08-10.16c2.09-2.89,2.73-4.03,3.6-4.93
		c2.29-2.35,9.7,2.13,7.96-4.67c-1.68-6.62-5.98-0.98-8.92-0.05c-2.81,0.89-5.33,2.55-7.15-1.26c-0.69-3.39-0.28-6.66,1.12-9.81
		c4.05-9.55,16.89-5.59,21.65-14.07c0.88,1.09,1.75,2.18,2.63,3.26c-3.86,9.31-2.49,18.94-1.4,28.46c1,8.72,1.77,16.98-3.55,25.04
		c-4.21,6.39-0.44,12.69,2.29,18.98c2.79,6.43,4.42,13.36,6.55,20.08c0.65,1.28,0.75,2.59,0.22,3.93c-1.68,1.35-3.55,1.6-5.56,0.9
		c-2.88-3.08-1.8-6.72-1.43-10.26c0.23-1.58-0.16-2.73-2.01-2.84C381,654,381.58,644.34,378.4,636.27z"/>
	<path class="st14" d="M775.2,628.98c6.84-12.56,1.92-39.63-8.55-47.09c-4.28-1.78-5.3-4.88-3.67-9.06
		c2.56-2.99,5.29-5.38,9.43-2.55c9.52,4.91,11.94,14.48,14.28,23.49c1.37,5.29,3.03,9.95,6.56,14c-0.97,11.75,7.61,24-0.7,36.19
		c-6.31-3.86-2.74-9.12-4.12-12.3c-1.96,4.7,4.31,12.11-4.34,15.8c0-10.92,0-21.84,0-32.77c-0.66-0.01-1.33-0.02-1.99-0.04
		c0,7.45,0,14.91,0,23.12C776.76,636.13,777.36,631.53,775.2,628.98z"/>
	<path class="st15" d="M865.46,608.38c1.03,0.96,2.06,1.92,3.09,2.88c8.36,11.55,7,24.64,5.97,37.68c-0.11,1.41-0.29,2.84-0.04,4.26
		c0.05-1.45,0.18-2.9,0.39-4.36c2.07-4.5,0.97-11.14,8.21-12.13c3.91,3.44,4.15,8.45,5.61,12.95c0.54,4.14,0.75,8.21-3.12,11.11
		c-0.5,0.79-1.3,1.51-1.46,2.37c-1.52,7.76,2.34,20.93-7.6,21.04c-7.24,0.08-15.62-10.07-18.28-20.12
		c-0.36-1.34-0.53-2.74-0.79-4.11c0.78-0.2,1.47-0.04,2.08,0.49c7.06-3.35,3.09-9.41,3.44-14.34
		C863.83,633.53,860.01,620.66,865.46,608.38z"/>
	<path class="st16" d="M437.65,520.8c2.79,0.53,5.27,0.44,6.06-3.03c5.06,11.76,10.35,23.32,20.41,31.96
		c4.97,4.27-0.9,8.76-0.5,13.36c0.69,8.07,0.19,16.25-0.64,24.42c-4.01-10.11-1.45-20.78-3.58-31.18
		c-0.63,6.65-1.26,13.3-1.89,19.95c-0.54,0-1.08,0-1.62,0.01c-0.56-5.66-1.12-11.31-1.84-18.53c-0.96,4.28-1.61,7.21-3.01,13.45
		C446.89,552.08,433.76,538.91,437.65,520.8z"/>
	<path class="st17" d="M503.88,636.65c1.32-5.66,3.59-11.31,0.02-16.98c0.52-0.34,1.03-0.69,1.55-1.04
		c3.76-1.11,7.33,0.26,10.96,0.88c0.53,20.02,20.65,31.3,22.61,50.89c0.64,6.43,5.37,12.37,2.65,19.35
		c-0.12,0.31-0.67,0.76-0.79,0.7c-0.41-0.21-0.72-0.62-1.06-0.95c-8.92-5.72-7.24-17.04-12.94-24.45c-0.67-6.27-5.12-9.27-10.2-11.7
		c-0.37-3.84-11.51,1.19-6.15-7.41c4.55-8.96-1.7-5.89-5.8-5.21C503.44,639.58,503.16,638.22,503.88,636.65z"/>
	<path class="st18" d="M900.72,614.21c13.04,5.36,17.45,18.61,25.62,28.37c7.48,8.93,10.47,21.85,24.59,25.75
		c-8.09-3.73-14.76-5.91-21.52,0.98c-5.27,5.37-6.37-0.78-7.4-3.79c-2.93-8.52-5.29-17.23-8.31-27.32
		c-2.41,9.21,0.29,16.83-0.07,24.53c-8.09-11.3-2.18-25.18-7.36-36.91C900.66,623.74,896.6,620.93,900.72,614.21z"/>
	<path class="st19" d="M662.5,550.15c-0.58,1.16-0.87,2.93-1.79,3.36c-2.02,0.95-1.97-1.13-2.08-2.28c-0.27-2.64,0.64-5.64-2.6-7.19
		c-7.28-11.24-5.86-24.27-7.63-36.67c1.45-5.84-1.02-13.4,7.09-16.34c3.41,3.45,1.75,9.81,6.97,12.24
		c0.76,6.68,10.17,9.29,8.14,17.28c1.34,1.56,1.83,3.5,2.42,5.4C671.12,534.7,669.22,543.47,662.5,550.15z"/>
	<path class="st20" d="M625.1,567.18c1.84,0.35,2.23,1.49,1.73,3.13c-3.17,6.58,0.22,12.5,1.89,18.6
		c-3.35,10.71-9.41,15.14-20.17,8.75c-1.08-0.74-2.08-1.6-3.02-2.5c-2.17-5.68-8.39-2.59-11.89-5.46c-0.88-1.96-0.97-3.99-0.63-6.08
		c1.38-5.73,2.48-11.67,9.46-13.46c2.1-0.58,4.26-0.85,6.42-1.1C614.32,568.82,619.1,562.71,625.1,567.18z"/>
	<path class="st21" d="M385.29,526.57c-13.1-5.04-20.76,5.33-24.29,13.15c-3.34,7.41-6.69,11.21-13.67,13.19
		c-3.58-0.99-4.48-3.12-1.82-5.77c2.76-2.75,5.5-5.15,1.83-9.05c5.35-6.17,18.83-7.03,13.38-20.41c-0.15-0.38,2.44-2.5,2.7-2.32
		C370.17,520.17,381.97,515.22,385.29,526.57z"/>
	<path class="st22" d="M551.68,462.58c-0.36-23-4.69-45.29-11.91-67.08c2.81-0.43,6.11-4.77,8.2,0.78
		C556.15,417.98,562.19,439.82,551.68,462.58z"/>
	<path class="st23" d="M591.9,517.92c1.05,0.89,2.09,1.78,3.14,2.67c3.24,11.72-2.73,21.57-6.42,31.9
		c-2.67,5.82-6.96,9.53-13.5,10.25c-2.33-0.03-4.04-1.1-5.13-3.15c-0.7-1.93-0.73-3.89-0.14-5.84c1.25-2.68,2.8-5.31,2.04-8.51
		c-0.6-4.35-1.37-8.65-1.9-13.01c0.01-1.33,0.29-2.59,0.81-3.81C576.61,522.48,586.2,524.12,591.9,517.92z"/>
	<path class="st24" d="M586.08,552.37c2.98-10.59,5.97-21.19,8.95-31.78c5.89,2.59,10.87,6.19,13.7,12.21
		c-2.7,4.73-2.96,9.65-1.17,14.76c-0.02,1.41-0.48,2.64-1.38,3.73c-2.08,1.98-4.55,3.29-7.2,4.33
		C594.42,555.65,588.18,562.16,586.08,552.37z"/>
	<path class="st25" d="M501.89,628.06c2.16,8.5-7.36,2.73-8.62,7.05c-5.88-2.97-1.18-9-4.33-13.77c-2.17,4.21-4.15,8.04-7.11,13.78
		c0.59-8.51,3.65-14.81,1.45-22.35c-1.3,3.23-2.29,5.69-3.28,8.16c-0.81,0.02-1.62,0.03-2.43,0.05c0-11.15,0-22.3,0-33.45
		c1.13-1,2.4-1.2,3.78-0.61c1,1.05,1.49,2.31,1.58,3.76c0.06,1.03-0.08,3.02,0.05,2.97c11.9-4.94,5.37,6.67,8.57,9.45
		c0.08,4.36,1.06,8.46,3.55,12.14C497.01,619.7,496.75,625.3,501.89,628.06z"/>
	<path class="st26" d="M784.1,647.45c5.21-4.33,2.1-10.79,4.47-16.94c0.79,3.92,1.4,6.95,2.35,11.65
		c5.99-12.34-6.92-24.07,2.34-34.39c1.4,0.24,2.8,0.49,4.2,0.73c0.86,0.14,1.27,0.67,1.23,1.6c1.29,8.52-1.05,17.55,3.72,25.57
		c3.28,7.76,4.69,15.33-2.22,22.05c-1.52,0.93-3.01,0.86-4.44-0.21C791.73,654.3,786.74,652.23,784.1,647.45z"/>
	<path class="st19" d="M650.02,471.49c5.32,1.47,10.35,3.89,16.22,3.13c7.93-1.02,11.7,3.52,12.84,10.85
		c-3.66,5.87-9.6,1.8-14.27,3.26c-2.91,2.37-5.63,1.11-8.33-0.37c-3.73-1.45-6.79,7.79-10.27,1.32
		C642.73,483.17,642.1,476.15,650.02,471.49z"/>
	<path class="st12" d="M378.4,636.27c7.75,6.13,7.75,15.55,10.16,23.95c-8.12,8.65-13.9-1.23-20.75-2.62
		c-4.14-2.79,5.16-10.54-4.2-11.41c0.72-5.94,7.24-5.44,10.05-9.07C374.71,633.84,376.91,637.04,378.4,636.27z"/>
	<path class="st27" d="M591.9,517.92c-2.59,5.27-5.18,10.55-8.38,17.07c-3.52-3.85-5.97-11.76-12.89-5.5
		c-2.81,3.11-6.95,5.48-10.07,2.77c-4.96-4.3-1.35-9.69,0.5-14.54c1.23-1.98,2.86-3.52,4.94-4.57c5.55-3.11,11.65,2.98,17.16-1.01
		C587.19,512.38,589.85,514.7,591.9,517.92z"/>
	<path class="st28" d="M662.5,550.15c-0.32-8.41,6.95-14.01,8.08-21.88c3.13-4.88,4.61-0.17,5.05,1.41
		c2.01,7.16,3.52,14.48,0.7,21.85c2.25,9.79-9.29,10.49-11.13,18.14C656.98,563.55,668.32,555.76,662.5,550.15z"/>
	<path class="st29" d="M626.47,448.51c5.64,3.52,9.33,8.7,12.34,14.45c3.61,4.69,0.94,9.84,0.86,15.67
		c-0.24,0.99,3.6-0.86,1.66-0.84c-0.75,0.01-0.71-0.41-0.85-1.03c-0.42-1.96-0.47-3.87,1.38-4.94c2.57-1.49,3.69,0.79,3.8,2.48
		c0.33,5.25,0.24,10.54,0.01,15.81c-6.13,4.6-9.81-2.32-9.94-4.55c-0.54-9.17-7.99-13.6-11.88-20.35
		C623.57,459.46,623.11,453.69,626.47,448.51z"/>
	<path class="st30" d="M547.81,470.9c0.71-2.14-0.05-4.97,2.81-6.13c1.16,5.09,2.32,10.18,3.49,15.27
		c-2.79,8.41,2.21,13.79,8.01,18.02c4.4,3.21,7.9,5.69,4.17,11.41c-14.04,3.82-20.06-9.54-27.24-15.88
		C532.38,487.72,541.62,477.57,547.81,470.9z"/>
	<path class="st31" d="M517.29,651.64c7.66,0.07,12.97,2.31,10.68,11.57c1.87,6.33,4.04,12.7-2.44,17.9
		c-9.39,1.64-8.51-7.24-11.95-11.69C515.38,663.61,509.87,656.28,517.29,651.64z"/>
	<path class="st32" d="M606.71,628.57c9.86,4.9,7.41,9.73-0.09,14.53c-7.67-1.94-7.63,8.62-14.06,8.68
		c-7.31,0.07-6.36-6.46-8.46-10.55c0.22-4.1,2.23-6.75,6.26-7.75c2.05-1.89,2.26,5.48,5.29,0.89
		C598.08,630.68,600.92,626.47,606.71,628.57z"/>
	<path class="st7" d="M586.33,639.07c-0.29,5.4,1.41,9.82,6.23,12.71c-0.85,1.4-1.82,4.92-3.52,2.49
		c-12.03-17.2-25.38-33.97-24.11-56.85c0.24-0.61,0.49-1.21,0.73-1.82c1.2-0.55,2.46-0.75,3.78-0.57c1.93,0.75,3.07,2.13,3.41,4.17
		c-0.68,5.01,2.38,9.16,3.29,13.8c-2.04,3.07-1.77,5.46,2.06,6.78c0.89,3.4,1.48,6.92,3.75,9.79
		C584.29,632.33,584.78,635.94,586.33,639.07z"/>
	<path class="st33" d="M795.74,657.5c1-0.13,1.99-0.27,2.99-0.4c2.51-1.21,5.04-2.18,7.86-1.02c1.85,0.99,2.89,2.65,3.72,4.47
		c1.94,3.87,3.11,8.13,5.81,11.64c5.89,4.51,15.75-1.08,20.16,7.7C814.65,686.73,804.3,673.73,795.74,657.5z"/>
	<path class="st34" d="M900.72,614.21c-2.78,6.08,3.39,7.88,5.54,11.61c-5.93,16.11,2.53,31.62,2.02,47.52
		c-0.12,3.73,0.71,7.48-0.37,11.42c-7.48-21.97-6.33-45.28-10.24-67.77c-0.9-0.42-1.25-0.92-1.06-1.5c0.2-0.63,0.43-0.94,0.69-0.94
		C898.44,614.43,899.58,614.32,900.72,614.21z"/>
	<path class="st35" d="M546.56,582.03c0.88-17.49-6.77-30.77-20.19-41.3c-4.64-3.64-0.4-7.67-0.16-11.53
		c1.32-0.26,2.44,0.11,3.36,1.1c0.83,0.97,1.55,2.02,2.2,3.1c4.51,7.13,11.49,11.97,16.89,18.29c5.88,9.12,4.24,19.7,5.79,29.67
		C552.07,584.45,549.27,582.65,546.56,582.03z"/>
	<path class="st36" d="M526.44,529.34c0,0-0.22-0.13-0.22-0.13c-8.89,2.01-17.82,4.1-21.34-8.08c6.34,1.34,14,5.82,14.76-6.17
		c1.62-2.08,0.22-5.55,3.2-7.01c16.34,2.97,16.35,2.98,7.66,16.68C529.38,526.38,529.79,529.49,526.44,529.34z"/>
	<path class="st5" d="M624.4,654.05c-1.5,12.37-10,16.67-20.94,18.16c0.05-2.92,0.1-5.85,0.15-8.77c0.05-3.45,1.5-5.62,5.22-5.73
		c5.34-2.69,8.37-9.15,15.25-9.34C625.55,650.19,625.75,652.07,624.4,654.05z"/>
	<path class="st37" d="M565.3,508.14c-0.7-8.29-8.84-11.56-12.65-17.97c-3.31-5.56-2.63-7.19,1.45-10.12
		c5.08,14.87,16.68,23.84,29.07,32.09c-4.87,5.15-12,1.54-17.44,4.48C563.77,513.88,563.64,511.06,565.3,508.14z"/>
	<path class="st10" d="M649.95,508.65c6.96,10.95,1.89,23.97,6.08,35.4c-7.56-11.57-15.73-22.91-14.61-37.84
		c0.59-0.22,1.18-0.44,1.77-0.67C645.85,505.67,647.64,507.73,649.95,508.65z"/>
	<path class="st38" d="M164.18,592.85c-1.03,2.18-2.06,4.36-3.09,6.54c-11.69-0.27-18.85-10.29-32.02-13.8
		C145.27,576.23,153.42,590.53,164.18,592.85z"/>
	<path class="st26" d="M807.19,658.06c-2.82-0.32-5.64-0.64-8.46-0.96c3.37-6.45,4.71-12.96,0.68-19.66
		c-3.12-6.04-4.16-11.98,0.78-17.66c3.07,0.4,5.58,1.69,7.15,4.49c1.09,1.18,1.89,2.53,2.38,4.06
		C808.77,638.22,813.79,648.64,807.19,658.06z"/>
	<path class="st39" d="M373.67,637.11c-0.51,4.98-6.73,4.56-8.31,9.04c2.05,4.79,4.53-2.76,6.77,2.06c-0.88,1.92-2.6,5.65-4.31,9.37
		c-5.77-4.88-12.31-5.74-22.46-1.18c6.52-6.29,12.39-6.81,14.81-11.76c-6.48,1.62-11.12,1.22-6.34-7.4
		C360.41,632.72,367.07,639.78,373.67,637.11z"/>
	<path class="st40" d="M344.41,575.82c0.99,0.17,1.98,0.33,2.97,0.5c5.59,3.55,6.17,9.6,7.63,15.21c0.38,3.12,2.68,5.23,4.15,7.79
		c7.56,6.21-2.29,9.8-2.24,14.87c-3.03,1.63-6.01,1.74-8.92-0.27c2.5-1.37,5.08-2.79,4.87-6.17c-0.23-3.76-3.31-2.23-5.34-2.61
		c-1.94-1.45-3.59-3.12-4.22-5.57c-0.12-1.22,0.19-2.33,0.92-3.33C348.43,589.47,342.96,582.61,344.41,575.82z"/>
	<path class="st41" d="M344.23,596.24c0.08,1.12,0.17,2.23,0.25,3.35c0.45,7.03-8.61,8.04-9.15,14.44
		c-1.14,2.09-2.38,9.29-4.71,2.87c-4-10.97-11.16-19.99-15.45-30.58c-1.18-1.76-1.02-3.39,0.49-4.88c2.54,3.42,6.26,6.49,7.42,10.33
		C327.62,606.79,335.55,602.59,344.23,596.24z"/>
	<path class="st42" d="M347.99,613.91c2.97,0.09,5.95,0.18,8.92,0.27c0.12,6.75-9.1,7.22-9.27,13.77
		c-5.81-0.1-11.02,8.09-17.85,0.66C334.58,622.21,340.44,617.08,347.99,613.91z"/>
	<path class="st13" d="M885.57,660.78c0.01-3.76,0.02-7.51,0.03-11.27c-0.64-7.77-5.27-17.48,8.83-18.04
		c0.3,3.74,0.6,7.49,0.91,11.23c0.63,12.17-4.27,23.25-6.86,34.78C883.78,672.56,886.87,666.29,885.57,660.78z"/>
	<path class="st18" d="M894.43,631.47c-6.8,4.13-10.31,9.86-8.83,18.04c-4.07-3.62-1.06-8.55-2.33-12.69
		c-5.85-7.62-5.41-15.27-0.12-22.95c2.89-0.57,6.24,0.49,8.51-2.35c2.49-0.13,4.47,0.69,5.64,3.03c-0.77,0.95-0.65,1.77,0.37,2.45
		c-3.79,1.51-9.46-4.9-11.73,2.41c-2.46,7.92,5.98,2.16,7.19,5.36C893.92,626.86,894.02,629.22,894.43,631.47z"/>
	<path class="st43" d="M643.67,620.34c-6.57-0.22-11.8-9.75-20.08-2.02c-1.82,1.7-1.06-5.29-2.33-7.99
		c-0.85-1.53-0.55-2.79,0.88-3.8c5.47-2.21,10.87-5.38,16.85-1.35C642.77,609.54,643.55,614.84,643.67,620.34z"/>
	<path class="st44" d="M630.44,675.08c-2.39-1.06-8.53,0.1-4.1-5.36c5.27-6.49,11.39-12.29,18.52-17.6
		c-6.75,6.73-2.69,15.69-5.82,22.85c-2.32,1.88-4.71,1.91-7.16,0.26l-0.75,0.2L630.44,675.08z"/>
	<path class="st45" d="M242.41,628.43c-8.56,3.86-9.63-2.65-11.38-8.22c-0.94-0.73-1.34-1.7-1.27-2.88
		c0.44-1.07,1.03-2.04,1.78-2.93c0.87-0.82,1.86-1.45,2.95-1.93c1.18-0.32,2.37-0.38,3.58-0.24c2.9,1.02,5.07,3.27,7.77,4.63
		l-0.35-0.32c2.97,3.11,9.02,4.88,6.38,10.71C249.88,631.6,245.87,630.33,242.41,628.43z"/>
	<path class="st46" d="M455.7,474.13c0.85,1.15,1.69,2.29,2.54,3.44c1.4,2.36-0.06,3.27-2,3.94c-8.02,10.07-19.01,12.68-31.24,12.49
		c5-5.01,5.04-4.88,15.82-8.79c4.64-1.69,10.99-2.16,9.55-9.9C451.47,471.88,453.41,472.24,455.7,474.13z"/>
	<path class="st47" d="M610.31,573.03c-2.22-0.01-4.45-0.01-6.67-0.02c-0.95-1-1.35-2.2-1.29-3.57c1.69-6.46-4.97-14.81,4.38-19.54
		l-0.09,0.15c1.74-3.44,6.29-2.82,8.37-5.77c3.48,2,4.68,5.41,5.58,9.02C617.73,560.16,616.37,567.83,610.31,573.03z"/>
	<path class="st48" d="M525.53,681.11c0.81-5.97,1.62-11.93,2.44-17.9c6.16,7.77,9.67,16.74,11.84,26.31
		C531.84,692.15,528.05,687.71,525.53,681.11z"/>
	<path class="st49" d="M807.42,628.47c-0.03-1.39-0.06-2.79-0.08-4.2c5.16-1.52,6.11,0.91,6.3,5.63
		c0.54,14.11,1.62,28.19,2.48,42.29c-3.18-2.66-8.54-3.37-8.17-9.18C809.49,651.47,809.74,639.95,807.42,628.47z"/>
	<path class="st0" d="M548.65,690.32c11.71,7.86,22.1,17,26.01,31.54C564.52,712.67,553.62,704.19,548.65,690.32z"/>
	<path class="st50" d="M391.55,671.07c1.69,0.66,3.39,1.33,5.08,1.99c1.99,2.32,5.49,4.14,2.69,8.06
		c-5.57-4.05-12.56-0.85-14.7,2.04c-4.7,6.37-8.62,5.27-11.82,0.67c-4.77-6.87,4.19-5.96,6.31-9.07
		C384.53,677.78,386.65,669.74,391.55,671.07z"/>
	<path class="st51" d="M399.33,681.13c-0.64-2.77-4.41-4.51-2.69-8.06c0.23-1.53,0.47-3.06,0.7-4.58
		c5.61,11.44,17.94,19.73,16.49,34.56C413.02,693.04,396.71,693.23,399.33,681.13z"/>
	<path class="st52" d="M623.85,465.21c10.97,5.78,12.02,18.94,20.02,26.92c5.22,5.85,1.91,10.15-2.59,14.23c0,0,0.14-0.15,0.14-0.15
		c-4.78-13.71-7.43-28.54-19.98-38.19c-0.99-0.45-1.37-0.98-1.14-1.6c0.24-0.65,0.5-0.98,0.79-0.98
		C622.04,465.65,622.95,465.57,623.85,465.21z"/>
	<path class="st40" d="M437.44,628.14c6.32-4.73-4.49-9.58,0.11-14.32c11.38,7.88,8.87,21.97,16.28,31.63
		c-1.08,0.65-2.17,1.3-3.25,1.96C446.2,640.98,441.82,634.56,437.44,628.14z"/>
	<path class="st53" d="M391.55,671.07c-3.6,3.05-6.29,9.18-12.43,3.69c-5.98-6.46-9.3,7.07-15.85,1.35c7.15-8.66,19-7.43,27.3-13.06
		C391.68,665.63,395.92,667.83,391.55,671.07z"/>
	<path class="st23" d="M772.42,570.27c-2.86,0.91-5.71,1.83-8.57,2.74c-0.58,0.15-1.16,0.29-1.73,0.45
		c-7.37,7.96-7.37,7.96-11.33,7.07c2.4-7.42-6.73-11.42-5.46-18.5c1.47-0.27,2.95-0.53,4.42-0.8c8.44,2.56,16.57,6.27,25.55,6.79
		C774.34,568.78,773.38,569.52,772.42,570.27z"/>
	<path class="st21" d="M834.58,665.28c-13.14-5.84-14.96-15.84-11.86-28.58c3.54,5.04,1.31,10.29,2.76,15.64
		c1.86-2.04,4.49-5.45,4.83-5.23C837.64,651.72,830.89,659.49,834.58,665.28z"/>
	<path class="st54" d="M888.47,677.48c-1.98-12.43,3.1-23.48,6.86-34.78C899.96,655.66,897.72,667.26,888.47,677.48z"/>
	<path class="st55" d="M411.71,582.18c2.88,8.67,5.77,17.34,8.65,26.02C403.48,596.93,402.41,593.73,411.71,582.18z"/>
	<path class="st55" d="M481.11,587.64c-1.18-0.04-2.35-0.08-3.53-0.12c2.85-7.61-0.5-13.62-4.57-20
		c8.96,5.74,18.99,10.24,19.81,23.08c-0.58,0.21-1.16,0.41-1.74,0.62C487.64,590.38,485.25,586.58,481.11,587.64z"/>
	<path class="st56" d="M501.89,628.06c-12.1,1.09-9.33-7.52-9.33-14.31c-2.36-8.41-1.74-10.03,4.06-10.56
		c0.86,6.68,7.96,10.1,8.81,16.79l-0.64-0.76l-0.89,0.45C501.44,622.04,502.04,625.14,501.89,628.06z"/>
	<path class="st52" d="M472.32,397.91c0.11,1.74,0.21,3.48,0.32,5.22c-1.84,5.91-5.46,10.83-8.79,15.92
		c-0.06,1.85-0.13,3.7-0.19,5.55c-3.16-0.14-6.32-0.27-9.47-0.4C459.51,414.93,462.47,404.04,472.32,397.91z"/>
	<path class="st57" d="M631.89,675.24c2.39-0.09,4.77-0.18,7.16-0.26c4.08-0.23,1.06,5.93,5.14,5.7c-1.41,2.45-4.06,4.02-5.53,5.93
		c-3.25,4.2-5.68,3.58-9.32,1.32c-5.33-3.32,0.25-5.17,0.88-7.65C630.65,678.56,631.32,676.91,631.89,675.24z"/>
	<path class="st58" d="M517.29,651.64c-1.61,5.85,0.41,12.46-3.71,17.78c-5.58-7.23-8.91-14.75-3.06-23.47
		C510.76,650.25,517.89,646.34,517.29,651.64z"/>
	<path class="st59" d="M610.31,573.03c2.35-7.14,1.06-16.18,10.29-19.74c1.5,4.63,3,9.26,4.5,13.89
		C618.66,565.32,615.84,572.61,610.31,573.03z"/>
	<path class="st60" d="M505.43,619.98c-6.84-2.59-9.13-8.04-9.28-14.82c0.93-1.39,1.88-1.47,2.85-0.04
		c2.93,8.27,12.95,7.96,17.4,14.39C512.86,622.5,509.15,621.43,505.43,619.98z"/>
	<path class="st61" d="M242.41,628.43c16.91,0.13,4.93-7.18,3.06-11.89c11.69-0.51,10.41,10.24,15.51,16.89
		C252.69,636.43,247.24,633.62,242.41,628.43z"/>
	<path class="st62" d="M638.98,605.18c-6.02-0.47-11.16,5.63-17.56,2.35c-4.83-10.23,9.4-8.52,9.71-15.54
		c0.49-0.41,0.99-0.81,1.49-1.21C637.19,594.5,637.43,600.13,638.98,605.18z"/>
	<path class="st0" d="M546.56,582.03c3.02,0.27,5.94,0.28,7.65-2.9c6.62-7.03,5.37,3.29,8.57,3.85c3.51,3.73,7.18,7.43,3.4,13.05
		c-0.5,0.39-0.91,0.85-1.25,1.38C557.07,594.36,553.43,586.27,546.56,582.03z"/>
	<path class="st57" d="M830.73,599.34c2.9,0.7,6.5-1.25,8.65,2.29c0,1.91,0.22,3.86-0.06,5.73c-0.46,3.05,0.5,7.8-4.48,7.29
		c-4.35-0.45-3.7-4.86-3.9-8.12C830.79,604.14,830.79,601.74,830.73,599.34z"/>
	<path class="st2" d="M615.02,544.28c1.56,8.24-4.9,4.83-8.37,5.77c-7.54-6.75-4.53-12.22,2.09-17.25
		C610.2,536.97,606.57,543.93,615.02,544.28z"/>
	<path class="st63" d="M291.51,632.01c1.4,9.08,14.96,9.92,14.59,21.02C294.02,644.08,294.02,644.08,291.51,632.01z"/>
	<path class="st64" d="M661.25,675.65c1.17-0.2,2.34-0.4,3.51-0.6c6.42,4.07,6.21,11.28,8.94,18.17
		C667.53,687.96,658.21,686.14,661.25,675.65z"/>
	<path class="st11" d="M676.34,551.52c-1.32-7.9,2.54-17.09-5.76-23.26c0.01-2.57,0.01-5.14,0.02-7.72
		C683,528.93,682.69,539.66,676.34,551.52z"/>
	<path class="st28" d="M335.34,614.03c-5.41-10.17,7.28-8.88,9.15-14.44c3.29,0.59,2.97,3.18,3.05,5.54
		C344.11,608.99,340.38,612.41,335.34,614.03z"/>
	<path class="st65" d="M411.63,552.67c-0.73,3.95,1.28,6.9,2.86,10.36c2.51,5.5,0.48,7.7-6.66,9.79c0.55-6.76,1.1-13.52,1.7-20.28
		c0.02-0.19,0.6-0.5,0.87-0.46C410.83,552.14,411.22,552.46,411.63,552.67z"/>
	<path class="st61" d="M499,605.12c-0.95,0.01-1.9,0.02-2.85,0.04c-5.62,1.01-1.5,6.1-3.59,8.58c-9.52-0.32-2.49-6.27-3.26-9.57
		c-0.46-5.04,0.16-9.77,3.91-13.6c0,0-0.39,0.03-0.39,0.03C497.17,594.47,497.88,599.88,499,605.12z"/>
	<path class="st66" d="M626.88,587.67c-4.99-5.77-6.2-11.55-0.06-17.35c0.3,7.28,6.6,12.87,5.79,20.46c0,0,0.09-0.33,0.09-0.33
		C629.33,592.52,628.52,589.24,626.88,587.67z"/>
	<path class="st67" d="M315.66,581.45c-0.16,1.62-0.33,3.25-0.49,4.88c-7.01-5.61-6.56-12.29-3.08-22
		C317.3,570.87,313.94,576.73,315.66,581.45z"/>
	<path class="st68" d="M600.68,418.89c2.93,0.76,6.92-0.89,8.22,3.6c-4.99,5.69,3.71,11.77-1.46,18.35
		C605.09,433.2,602.88,426.04,600.68,418.89z"/>
	<path class="st66" d="M493.05,491.17c1.63,5.38,7.24,7.32,10.05,11.67c1.55,2.4,3.59,5-1.28,6.1c-2.71-7.7-12.28-9.64-14.74-17.55
		C489.07,491.31,491.06,491.24,493.05,491.17z"/>
	<path class="st69" d="M839.72,657.01c5.43,4.72,6.96,10.73,7.88,18.72C839.6,670.36,841.12,663.06,839.72,657.01z"/>
	<path class="st70" d="M503.88,636.65c0.28,1.36,0.56,2.73,0.84,4.09c-1.36,6.56-1.93,13.39-7.1,22.21
		C496.23,651.01,500.55,643.95,503.88,636.65z"/>
	<path class="st71" d="M800.19,619.77c-2.61,5.78-1.73,11.72-0.79,17.66c-5.88-8.96-4.78-18.1-0.72-27.34
		C801.36,612.98,803.3,615.98,800.19,619.77z"/>
	<path class="st1" d="M259.22,603.98c4.77,5.75,11.38-1.81,14.7,5.03c0.61,1.26-3.2,6.34-3.64,6.17
		C265.83,613.48,259.92,613.08,259.22,603.98z"/>
	<path class="st72" d="M327.3,527.1c0.59,2.9,4.27,5.55,0.51,8.79c-3.95,3.4-6.93-0.15-10.27-1.22
		C319.97,531.09,323.24,528.58,327.3,527.1z"/>
	<path class="st29" d="M621.09,465.44c0.68,0.78,0.8,1.64,0.35,2.58c-8.69-2.96-7.05-10.92-9.99-16.68
		c1.08-0.52,2.16-1.04,3.24-1.56C616.83,455,618.96,460.22,621.09,465.44z"/>
	<path class="st73" d="M436.77,723.13c-5.36-5.54-15.54-0.29-20.44-12.32c8.77,3.38,15.53,5.98,22.29,8.58
		C438,720.64,437.38,721.89,436.77,723.13z"/>
	<path class="st5" d="M656.06,485.86c2.92,0.96,5.84,1.92,8.75,2.88c-5.69,4.05-6.15,8.95-2.35,14.54c-9.04,0.04-5.9-7.3-7.22-11.93
		C654.27,489.32,654.43,487.48,656.06,485.86z"/>
	<path class="st74" d="M245.83,616.87c-4.01-0.91-8.02-1.82-12.04-2.73c-1.47-4.04,1.52-7.19,2.14-10.82
		c1.86-2.29,3.88-3.41,6.37-0.81C243.47,607.29,244.65,612.08,245.83,616.87z"/>
	<path class="st75" d="M242.29,602.51c-2.19-0.19-4.52-0.73-5.46,2.2c2.02,3.49-0.66,4.09-2.99,4.9c-1.2,0.03-2.3-0.32-3.27-1.04
		c-1.26-1.84-0.66-4.49-2.57-6.07l0.3-0.54c-0.6-2.4,0.14-3.43,2.68-2.6c1.14-1.1,2.27-2.21,3.41-3.31
		C237.02,598.2,239.66,600.35,242.29,602.51z"/>
	<path class="st65" d="M231.03,616.78c0,1.15,0,2.29,0,3.44c-2.33-0.91-5.82,0.48-6.69-3.35c1.32-0.79,2.64-1.58,3.95-2.37
		C229.52,614.87,230.45,615.62,231.03,616.78z"/>
	<path class="st76" d="M352.76,593.09c-1.79-5.59-3.58-11.18-5.38-16.77c1.56-11.8,13.05-12.34,20.2-17.81
		c2.45,3.41,7.08,3.67,9.84,8.99c1.55-8.29,4.61-14.17,1.97-20.69c-6.25-9.05,4.31-13.25,5.78-20.07c5.43,4.55,2.58,13.56,9.4,17.47
		c0.83,0.48,1.41,3.3,1.18,3.43c-11.24,6.51-2.53,16.88-4.94,25.02c-3.72,4.18-3.33,13.71-13.46,9.49c-4.56-1.9-2.89,5.32-6.4,5.86
		C363.83,585.9,360.29,596.66,352.76,593.09z"/>
	<path class="st77" d="M455.7,474.13c-1.78,0.39-3.56,0.79-5.33,1.18c-11.55,1.88-22.25,10.69-36.61,3.79
		c22.45-8.65,31.13-27.95,41.33-45.96c5.39,1.22,11.48,1.49,12.21,9.02c-8.19,5.9-7.46,16.9-13.71,24.05
		C451.57,468.52,458.19,470.53,455.7,474.13z"/>
	<path class="st47" d="M355.24,511.54c8.93-15.17,19.09-22.74,35.58-12.41c5.03,3.15,9.55-3.35,12.57-6.86
		c4.7-5.46,7.62-1.37,10.76,0.76c5.38,3.65,0.71,5.36-1.54,8.21c-3.49,4.43-6.68,6.04-12.88,6.15
		C384.86,507.68,369.53,504.39,355.24,511.54z"/>
	<path class="st57" d="M230.98,599.36c-0.89,0.87-1.79,1.74-2.68,2.6c-5.95-2.03-11.86,4.37-19.04-0.78
		c8.88-6.81,17.71-13.35,24.15-22.26C232,585.66,229.41,592.26,230.98,599.36z"/>
	<path class="st57" d="M233.15,576.16c-2.16,0.04-4.98-5.13-6.2-0.38c-1.65,6.44-7.22,6.18-11.24,8.62
		c-0.77-5.33,2.53-9.42,5.67-12.41C226.85,566.79,232.45,565.69,233.15,576.16z"/>
	<path class="st78" d="M348.63,517.19c3.9,7.86-5.72,7.41-4.87,12.43c0.75,4.37-2.05,5.92-5.59,6.51c-0.45,0.08-1.82-2.61-1.78-2.65
		c3.3-2.39-3.67-7.17,2.41-9.26C342.15,523.07,344.83,520,348.63,517.19z"/>
	<path class="st52" d="M467.29,442.16c-4.07-3.01-8.14-6.01-12.21-9.02c0.03-10.28,10.41,2.46,11.61-5.22
		C469.1,432.58,472.05,437.21,467.29,442.16z"/>
	<path class="st76" d="M519.05,485.16c-6.54-7.58,8.08-15.06,0.11-22.64c-10.69-3.35-1.15-15.25-8.47-20.02
		c-6.62-3.77-4.74,4.9-8.26,5.65c-8.55-7.62,1.88-15.94-0.88-23.78c0.16-2.93,0.32-5.85,0.48-8.78c4.15,2.73,6.66-2.46,10.24-2.75
		c2.08,8.65-3.68,17.33,2.77,26.48c4.03-17.83-1.85-36.64,11.99-55.3c-0.05,16.81,1.82,29.2-1.58,42.33
		c-2.95,11.4,0.27,24.11,1.01,35.73c0.35,5.53,1.54,16.93,8.01,23.31c0.89,5.97-2.7,9.48-7.67,9.61
		C521.25,495.13,519.11,490.47,519.05,485.16z"/>
	<path class="st79" d="M519.05,485.16c4.98,11.5,10.14,10.11,15.43,0.23c3.14-4.39,5.76-8.27,1.33-14
		c-4.38-5.67,1.46-5.66,4.98-6.43c0.64-2.15,1.92-3.3,4.29-2.76c0.14,3.15-0.54,6.55,2.72,8.72c-2.17,4.14-3.83,8.67-6.62,12.34
		c-3.4,4.44,0.78,8.19,0.08,12.23c13.64-6.45,11.99,16.1,24.04,12.68c0.15,2.81,0.29,5.62,0.43,8.45c-1.21,0.82-2.42,1.62-3.62,2.43
		c-5.16-2.55-9.29-8.05-16.37-4.75c-4.59,2.13-5.02-2.54-6.84-5.03c-5.69-7.79-11.39-7.43-16.85,0.35c0.19,2.23-0.21,4.2-2.4,5.37
		c-1.99-7.9-3.96-15.81-5.97-23.71C512.48,486.56,515.63,485.76,519.05,485.16z"/>
	<path class="st80" d="M489.35,401.27c5.06-5.65,4.89-11.84-0.77-20.6c7.68,6.44,9.44,6.06,15.9-2.65
		c-4.29,15.33-7.37,27.94-17.04,37.7C482.4,410.15,488.53,406.07,489.35,401.27z"/>
	<path class="st81" d="M463.85,419.05c1.34-6.18,3.08-12.15,8.79-15.92c0.63-0.43,1.29-0.8,1.99-1.1
		c6.35,3.96,13.84,7.44,7.17,16.92c-2.11,1.14-4.95,5.14-5.96-0.23c-0.48-2.56,2.86-6.41-2.37-6.8c-7.56-0.55-0.62,4.85-1.91,5.62
		C469.45,418.8,466.47,418.62,463.85,419.05z"/>
	<path class="st82" d="M545.08,462.18c-1.43,0.92-2.86,1.84-4.29,2.76c-1.91-4.14-2.62-9-7.96-10.83c-3.76-1.29-3.02-4.87-1.38-6.9
		c3.08-3.8,4.11,0.31,6.05,2.03C541.5,452.79,550.26,453.3,545.08,462.18z"/>
	<path class="st52" d="M481.8,418.95c4.48-8.55-7.77-10.01-7.17-16.92c4.82-1.81,10.09,5.04,14.71-0.75
		c2.67,5.26-2.95,9.41-1.92,14.45C485.55,416.8,483.68,417.87,481.8,418.95z"/>
	<path class="st83" d="M656.06,485.86c-0.27,1.83-0.55,3.65-0.82,5.48c-1.76,5.77-3.53,11.54-5.29,17.31
		c-5.9,10.62-4.28-7.2-8.67-2.29c1.48-4.63,4.17-9.04,2.59-14.23c0-6.13,0-12.27,0-18.51c-5.08-0.62-1.16,5.8-5.07,6.35
		c0-5.67,0-11.34,0-17c3.74,2.84,7.48,5.68,11.22,8.52c-3.15,5.81-2.25,12.07-2.25,18.34c6.21,0.95,4.17-5,6.45-7.19
		c0.14-0.13,1.04,0.16,1.15,0.42C655.71,483.95,655.85,484.92,656.06,485.86z"/>
	<path class="st55" d="M501.55,424.36c9.25,7.6-4.16,16.03,0.88,23.78c-2.09,1.41-2.58,6.99-6.88,2.63
		C496.85,441.81,494.99,432.13,501.55,424.36z"/>
	<path class="st84" d="M496.14,474.18c3.6-2.28,2.94-7.97,8.34-9.72c-2.19,9.6-6.29,17.75-11.78,25.29
		C490.82,483.9,495.32,479.45,496.14,474.18z"/>
	<path class="st38" d="M510.68,442.49c3.6-1.24,6.41,0.8,5.4,3.76c-2.18,6.35,2.65,10.78,3.07,16.26c-1.54,2.82-3.09,5.64-4.63,8.46
		c-3.41-2.42-3.32-5.52-3.73-9.57C510.15,455,513.74,448.69,510.68,442.49z"/>
	<path class="st85" d="M877.73,648.45c-2.18,7,2.13,15.17-5.56,24.84c-2.19-22.73,0.34-42.67-3.61-62.03
		c3.45-0.96,5.56,1.78,8.22,2.99C884.03,625.46,878.43,637.02,877.73,648.45z"/>
	<path class="st86" d="M865.46,608.38c0,19.2,0,38.4,0,58.59c-2.47-2.71-4.21-4.62-5.94-6.52c3.67-14.61-0.6-29.37,0.94-43.98
		C860.77,613.5,856.61,606.5,865.46,608.38z"/>
	<path class="st87" d="M877.73,648.45c-0.32-11.4-0.64-22.8-0.96-34.19c2.13-0.13,4.25-0.26,6.38-0.39
		c0.04,7.65,0.08,15.3,0.12,22.95C877.2,638.68,882.29,645.87,877.73,648.45z"/>
	<path class="st56" d="M352.76,593.09c5.28-1.25,8.11-5.88,12.2-8.76c4.41-3.11,5.59-0.15,6,3.68c-1.68,2.61,0.93,6.67-2.91,8.54
		c-2.97,0.92-5.93,1.84-8.9,2.76C356.98,597.28,347.34,602.92,352.76,593.09z"/>
	<path class="st26" d="M586.33,639.07c-4.29-0.63-2.97-5.97-6.25-7.45c0.04-17.31,14.06-23.1,25.53-31
		c6.65,0.39,9.83,4.86,12.14,10.35c0.22,1.99-0.92,2.72-2.67,2.9c-5.55,8.84-12.11,16.54-22.42,20.06
		C589.14,633.91,587.63,636.36,586.33,639.07z"/>
	<path class="st46" d="M617.75,610.97c-6.69,0.61-6.21-7.78-11.38-9.08c-2.92-4.28-0.07-6.32,3.18-8.2
		c10.14,10.58,13.3,1.01,17.33-6.01c3.05-1.39,3.74,2.16,5.82,2.78c4.86,11.39-9.78,9.9-11.29,17.08c-0.25,0.92-0.31,1.85-0.16,2.8
		C620.08,610.54,618.92,610.75,617.75,610.97z"/>
	<path class="st88" d="M624.2,648.79c-6.51,0.59-7.29,11.04-15.37,8.92c5.75-11.43,17.36-17.61,24-28.66
		c6.75,7.7-8.83,8.48-3.02,15.05C629.55,647.57,628.07,649.62,624.2,648.79z"/>
	<path class="st89" d="M592.66,633.93c7.47-6.69,14.94-13.37,22.42-20.06c0.02,6.5-3.32,11.09-8.37,14.71
		c-3.52,3.07-6.72,6.63-10.62,9.08C590.13,641.41,594.12,634.94,592.66,633.93z"/>
	<path class="st77" d="M624.2,648.79c2.74-0.52,4.5-2.24,5.62-4.7c3.87-1.52,5.23-7.86,9.75-6.77c4.01,0.96,1.4,5.6,1.78,8.6
		c-8.02-2.22-7.99,12.32-16.95,8.13C624.34,652.3,624.27,650.54,624.2,648.79z"/>
	<path class="st48" d="M231.03,616.78c-0.91-0.76-1.83-1.52-2.74-2.29c0.02-0.58-0.22-1.01-0.73-1.29c-0.1-3.04,1.01-4.9,4.4-4.55
		c2.42-0.33,4.18-1.48,4.87-3.95c7.89,6.02-3.45,5.83-3.05,9.43c0,0,0.16-0.39,0.16-0.39c-1.03,1.06-2.16,2.01-3.13,3.13
		L231.03,616.78z"/>
	<path class="st90" d="M231.97,608.65c-1.46,1.52-2.93,3.04-4.4,4.56c-1.59,0.19-3.17,0.38-4.76,0.58c0.82-1.32,1.63-2.65,2.45-3.97
		c0.72-2.81,2.93-3.26,5.35-3.36C230.73,607.39,231.18,608.12,231.97,608.65z"/>
	<path class="st91" d="M230.61,606.45c-1.78,1.12-3.57,2.24-5.35,3.36c-0.56-2.99,0.72-5.29,2.75-7.31c1.67,0.25,3.33,0.49,5,0.74
		C232.2,604.31,231.41,605.38,230.61,606.45z"/>
	<path class="st92" d="M763.85,573.01c0.93,2.96,1.87,5.91,2.8,8.87c0.34,12.11,4.67,24.08,1.74,37.69
		c-6.52-4.63-4.77-10.61-5.5-16.02c-3.41,0.72,0.63,6.62-3.7,5.83c-0.93-0.17-1.17-4.13-1.73-6.35
		c-5.64-11.66-3.83-21.73,6.39-30.01L763.85,573.01z"/>
	<path class="st14" d="M763.87,573.03c-6.14,9.15-5.34,19.78-6.39,30.01c-9.73-1.69-8.15-8.95-7.72-15.65
		c1.52-1.69,0.12-4.72,2.7-5.93C755.78,578,750.89,563.42,763.87,573.03z"/>
	<path class="st93" d="M752.45,581.46c-0.9,1.98-1.8,3.95-2.7,5.93c3.74-9.36-10.29-15.63-4.42-25.36
		C749.94,567.69,755.61,572.96,752.45,581.46z"/>
	<path class="st94" d="M379.39,546.8c7.22,6.36,1.51,13.35,0.7,19.98c-0.29,2.42-5.38,3.4-5.34,2.48
		c0.24-5.68-13.24-1.93-7.17-10.76C369.42,552.48,380.84,556.14,379.39,546.8z"/>
	<path class="st95" d="M926.47,662.57c-2.37-4.46-7.3-8.07-4.42-15.51C927.07,651.96,929.16,656.47,926.47,662.57z"/>
	<path class="st29" d="M566.18,596.04c1.31-5.8-2.57-8.21-6.8-10.38c0.1-0.59,0.21-1.19,0.31-1.78c0.41-3.01,0.38-6.12,1.98-8.87
		c3.53-5.07,6.19-10.93,12.24-13.76c4.01-3.03,10.26-2.99,12.18-8.89c4.2,7.26,9.32-1.68,13.79,0.77c-0.2,5.87,4.68,10.51,3.97,16.5
		c-0.07,1.13-0.14,2.26-0.21,3.38c-8.43,0.33-4.77,7.97-7.22,11.92c-6.83,3.41-9.76,12.81-19.07,12.4
		c-11.58-9.09-3.33-17.55,0-25.43c-6.82,5.8-3.92,16.26-8.35,23.99l-1.42-0.06L566.18,596.04z"/>
	<path class="st81" d="M609.55,593.68c-1.06,2.74-2.12,5.47-3.18,8.21c-8.94,9.75-21.9,15.95-26.29,29.73
		c-4.8-3.99-4.87-8.79-2.4-14.03c6.86-10.68,11.51-23.83,27.36-24.46C606.54,593.32,608.05,593.5,609.55,593.68z"/>
	<path class="st42" d="M578.02,596.29c5.87-4.21,9.13-12.63,18.39-11.35c-0.5,1.88-1.01,3.76-1.52,5.64
		c-3.21,10.84-9.36,19.14-20.2,23.38c-3.15-4.65-9.31-8.55-3.88-15.36C574.01,600.29,575.31,596.1,578.02,596.29z"/>
	<path class="st96" d="M574.7,613.96c6.73-7.79,13.47-15.59,20.2-23.38c4.14-2.17,9.79-10.3,10.15,2.55
		c-12.58,4.29-18.51,16.01-27.36,24.46c-1.07,2.06-3.14,2.31-4.34,1.03C572.78,618.03,574.19,615.58,574.7,613.96z"/>
	<path class="st44" d="M522.04,509.59c0.81-4.24-2.02-11.62,5.38-10.82c5.32,0.58,12.81,0.93,15.04,8.51
		c0.54,1.84,0.86,3.74,1.27,5.61c0.45-1.81,0.73-3.69,1.39-5.41c0.86-2.22,3.99-5.27,4.64-2.64c1.81,7.28,12.84,5.7,12.34,14.19
		c0.29,5.57-5.18,15.83,8.52,10.46c0.63,0.82,0.75,1.71,0.34,2.66c-7.04,3.25,0.92,8.28-1.42,12.09
		c-8.18,5.78-12.69,12.68-6.88,22.72c0.66,5.98-1.41,11.57-2.41,17.31c-0.33,0.44-0.62,0.91-0.88,1.39
		c-3.49-0.77,0.76-7.68-5.17-6.53c-4.3,0.9-7.56-1.43-5.26-5.01c5.61-8.75-1.13-14.55-3.58-21.43c-0.63-9.45-9.56-19.81-17.58-20.41
		c-0.45-0.99-0.9-1.97-1.35-2.96c-4.16-10.12,10.35-10.11,9.8-20.33C530.77,517.99,526.99,508.31,522.04,509.59z"/>
	<path class="st97" d="M559.83,564.29c-8.12-7.42-4.82-15.7,8.27-20.73c2.72,0.44,4,3.21,6.51,3.98c5.57,5.68,0.31,4.92-3.12,5.25
		C567.9,556.93,565.63,562.39,559.83,564.29z"/>
	<path class="st98" d="M559.83,564.29c1.69-6.06,5.51-9.96,11.66-11.5c0.02,1.9,0.04,3.79,0.05,5.69
		c-1.71,6.37-5.91,11.52-8.55,17.43c-1.2,2.69,1.61,6.7-2.73,8.36C560.12,577.61,559.97,570.95,559.83,564.29z"/>
	<path class="st2" d="M574.61,547.54c-5.66,4.37-5.43-0.87-6.51-3.98c1.69-6.31-5.18-3.63-7.16-7.03c3.4-1.48,6.72-2.93,10.04-4.38
		C576.78,536.2,573.64,542.36,574.61,547.54z"/>
	<path class="st99" d="M562.99,575.91c-1.11-7.75,5.07-11.93,8.55-17.43c0.79,0.93,1.58,1.85,2.37,2.78
		C570.14,566.05,569.61,573.25,562.99,575.91z"/>
	<path class="st2" d="M603.85,569.64c-0.2-0.94-0.3-2.66-0.6-2.7c-13.73-1.57-9.28-7.5-3.37-13.8c1.18-3.42,3.83-3.74,6.86-3.24
		c-2.23,4.9-6.58,9.61,0.35,14.66C608.41,565.53,606.25,568.68,603.85,569.64z"/>
	<path class="st100" d="M493.21,590.57c-1.3,4.53-2.61,9.07-3.91,13.6c-2.79-3.48,0.29-8.68-3.43-11.91
		c-1.31,1.84-2.59,3.65-4.76,6.71c0-4.76,0-8.04,0-11.32c1.3-1.72,0.08-9.33,4.81-2.92C488.11,587.69,490.65,588.82,493.21,590.57z"
		/>
	<path class="st93" d="M578.02,596.29c-2.27,1.19-3.05,7.02-7.2,2.31c-0.61-0.9-1.22-1.8-1.82-2.7
		c-3.77-14.13,6.51-22.9,13.41-36.24C583.14,574.16,567.02,583.75,578.02,596.29z"/>
	<path class="st100" d="M807.42,628.47c4.25,11.45,4.51,22.96,0.53,34.54c-0.25-1.65-0.5-3.3-0.75-4.95
		C807.27,648.2,807.34,638.33,807.42,628.47z"/>
	<path class="st101" d="M527.79,532.3c6.57,2.6,6.7-4.96,10.26-6.69c5.95,2.45-6.1,9.92,3.86,11.64c12.46,2.15,6.73,9.28,3.46,15.45
		C539.32,546.06,531.03,541.35,527.79,532.3z"/>
	<path class="st65" d="M230.81,616.87c-0.75-2.84,1.13-3.04,3.13-3.13C234.65,616.54,233.62,617.6,230.81,616.87z"/>
</g>
</svg>
