<?xml version="1.0" encoding="utf-8"?>
<!-- Generator: Adobe Illustrator 24.1.2, SVG Export Plug-In . SVG Version: 6.00 Build 0)  -->
<svg version="1.1" id="Layer_1" xmlns="http://www.w3.org/2000/svg" xmlns:xlink="http://www.w3.org/1999/xlink" x="0px" y="0px"
	 viewBox="0 0 1080 1080" style="enable-background:new 0 0 1080 1080;" xml:space="preserve">
<style type="text/css">
	.st0{fill:#0D0D0D;}
	.st1{fill:#0B0B0B;}
	.st2{fill:#151515;}
	.st3{fill:#F6F6F6;}
	.st4{fill:#C2C2C2;}
	.st5{fill:#161616;}
	.st6{fill:#BBBBBB;}
	.st7{fill:#141414;}
	.st8{fill:#AFAFAF;}
	.st9{fill:#B5B5B5;}
	.st10{fill:#1C1C1C;}
	.st11{fill:#363636;}
	.st12{fill:#C5C5C5;}
	.st13{fill:#1F1F1F;}
	.st14{fill:#ADADAD;}
	.st15{fill:#9D9D9D;}
	.st16{fill:#ABABAB;}
	.st17{fill:#464646;}
	.st18{fill:#393939;}
	.st19{fill:#8E8E8E;}
	.st20{fill:#6C6C6C;}
	.st21{fill:#808080;}
	.st22{fill:#D3D3D3;}
	.st23{fill:#0C0C0C;}
	.st24{fill:#606060;}
	.st25{fill:#565656;}
	.st26{fill:#E6E6E6;}
	.st27{fill:#6B6B6B;}
	.st28{fill:#EFEFEF;}
	.st29{fill:#9A9A9A;}
	.st30{fill:#AEAEAE;}
	.st31{fill:#5B5B5B;}
	.st32{fill:#989898;}
	.st33{fill:#131313;}
	.st34{fill:#797979;}
	.st35{fill:#353535;}
	.st36{fill:#1B1B1B;}
	.st37{fill:#232323;}
	.st38{fill:#2F2F2F;}
	.st39{fill:#5C5C5C;}
	.st40{fill:#373737;}
	.st41{fill:#9E9E9E;}
	.st42{fill:#B1B1B1;}
	.st43{fill:#9F9F9F;}
	.st44{fill:#A6A6A6;}
	.st45{fill:#CECECE;}
	.st46{fill:#A8A8A8;}
	.st47{fill:#9C9C9C;}
	.st48{fill:#DBDBDB;}
	.st49{fill:#A0A0A0;}
	.st50{fill:#B9B9B9;}
	.st51{fill:#3F3F3F;}
	.st52{fill:#2B2B2B;}
	.st53{fill:#878787;}
	.st54{fill:#949494;}
	.st55{fill:#292929;}
	.st56{fill:#E8E8E8;}
	.st57{fill:#909090;}
	.st58{fill:#C9C9C9;}
	.st59{fill:#2A2A2A;}
	.st60{fill:#262626;}
	.st61{fill:#1A1A1A;}
	.st62{fill:#333333;}
	.st63{fill:#AAAAAA;}
	.st64{fill:#787878;}
	.st65{fill:#434343;}
	.st66{fill:#181818;}
	.st67{fill:#8C8C8C;}
	.st68{fill:#727272;}
	.st69{fill:#676767;}
	.st70{fill:#8F8F8F;}
	.st71{fill:#9B9B9B;}
	.st72{fill:#484848;}
	.st73{fill:#3E3E3E;}
	.st74{fill:#0E0E0E;}
	.st75{fill:#737373;}
	.st76{fill:#A1A1A1;}
	.st77{fill:#A2A2A2;}
	.st78{fill:#818181;}
	.st79{fill:#3B3B3B;}
	.st80{fill:#717171;}
	.st81{fill:#898989;}
	.st82{fill:#959595;}
	.st83{fill:#E5E5E5;}
	.st84{fill:#555555;}
	.st85{fill:#FAFAFA;}
	.st86{fill:#F9F9F9;}
	.st87{fill:#4E4E4E;}
	.st88{fill:#8A8A8A;}
	.st89{fill:#DDDDDD;}
	.st90{fill:#414141;}
	.st91{fill:#EBEBEB;}
	.st92{fill:#CFCFCF;}
	.st93{fill:#EEEEEE;}
	.st94{fill:#242424;}
	.st95{fill:#C1C1C1;}
	.st96{fill:#E3E3E3;}
	.st97{fill:#525252;}
	.st98{fill:#E9E9E9;}
	.st99{fill:#202020;}
	.st100{fill:#FEFEFE;}
	.st101{fill:#DEDEDE;}
	.st102{fill:#FBFBFB;}
	.st103{fill:#BCBCBC;}
	.st104{fill:#BEBEBE;}
	.st105{fill:#101010;}
	.st106{fill:#B3B3B3;}
	.st107{fill:#171717;}
	.st108{fill:#2D2D2D;}
	.st109{fill:#C0C0C0;}
	.st110{fill:#B0B0B0;}
	.st111{fill:#212121;}
	.st112{fill:#323232;}
	.st113{fill:#CBCBCB;}
	.st114{fill:#E1E1E1;}
	.st115{fill:#121212;}
	.st116{fill:#8D8D8D;}
	.st117{fill:#B2B2B2;}
	.st118{fill:#1D1D1D;}
	.st119{fill:#A9A9A9;}
	.st120{fill:#7C7C7C;}
	.st121{fill:#BABABA;}
	.st122{fill:#595959;}
	.st123{fill:#1E1E1E;}
	.st124{fill:#929292;}
	.st125{fill:#2E2E2E;}
	.st126{fill:#282828;}
	.st127{fill:#848484;}
	.st128{fill:#4F4F4F;}
	.st129{fill:#A3A3A3;}
	.st130{fill:#919191;}
	.st131{fill:#7D7D7D;}
	.st132{fill:#979797;}
	.st133{fill:#767676;}
	.st134{fill:#090909;}
	.st135{fill:#F0F0F0;}
	.st136{fill:#4A4A4A;}
	.st137{fill:#585858;}
	.st138{fill:#A4A4A4;}
	.st139{fill:#828282;}
	.st140{fill:#B4B4B4;}
	.st141{fill:#E7E7E7;}
	.st142{fill:#C3C3C3;}
	.st143{fill:#494949;}
	.st144{fill:#D9D9D9;}
	.st145{fill:#313131;}
	.st146{fill:#636363;}
	.st147{fill:#696969;}
	.st148{fill:#838383;}
	.st149{fill:#383838;}
	.st150{fill:#505050;}
	.st151{fill:#999999;}
	.st152{fill:#ACACAC;}
	.st153{fill:#454545;}
	.st154{fill:#616161;}
	.st155{fill:#252525;}
	.st156{fill:#6A6A6A;}
	.st157{fill:#747474;}
	.st158{fill:#EAEAEA;}
	.st159{fill:#BDBDBD;}
	.st160{fill:#D0D0D0;}
	.st161{fill:#D5D5D5;}
	.st162{fill:#686868;}
	.st163{fill:#646464;}
	.st164{fill:#2C2C2C;}
	.st165{fill:#3C3C3C;}
	.st166{fill:#545454;}
	.st167{fill:#F1F1F1;}
	.st168{fill:#FDFDFD;}
	.st169{fill:#FCFCFC;}
	.st170{fill:#A7A7A7;}
	.st171{fill:#272727;}
	.st172{fill:#B8B8B8;}
	.st173{fill:#0F0F0F;}
	.st174{fill:#191919;}
	.st175{fill:#707070;}
	.st176{fill:#111111;}
	.st177{fill:#F3F3F3;}
	.st178{fill:#4C4C4C;}
	.st179{fill:#4D4D4D;}
	.st180{fill:#222222;}
	.st181{fill:#626262;}
	.st182{fill:#777777;}
	.st183{fill:#A5A5A5;}
	.st184{fill:#868686;}
	.st185{fill:#C6C6C6;}
	.st186{fill:#EDEDED;}
	.st187{fill:#757575;}
	.st188{fill:#CACACA;}
	.st189{fill:#5E5E5E;}
	.st190{fill:#E0E0E0;}
	.st191{fill:#575757;}
	.st192{fill:#7F7F7F;}
	.st193{fill:#B6B6B6;}
	.st194{fill:#F8F8F8;}
	.st195{fill:#D1D1D1;}
	.st196{fill:#D8D8D8;}
	.st197{fill:#C4C4C4;}
	.st198{fill:#F4F4F4;}
	.st199{fill:#6E6E6E;}
	.st200{fill:#BFBFBF;}
	.st201{fill:#5D5D5D;}
	.st202{fill:#7E7E7E;}
	.st203{fill:#4B4B4B;}
	.st204{fill:#888888;}
	.st205{fill:#C8C8C8;}
	.st206{fill:#303030;}
	.st207{fill:#939393;}
	.st208{fill:#C7C7C7;}
	.st209{fill:#F7F7F7;}
	.st210{fill:#070707;}
	.st211{fill:#5A5A5A;}
	.st212{fill:#515151;}
	.st213{fill:#858585;}
	.st214{fill:#7A7A7A;}
	.st215{fill:#535353;}
	.st216{fill:#E2E2E2;}
	.st217{fill:#666666;}
	.st218{fill:#DFDFDF;}
	.st219{fill:#060606;}
	.st220{fill:#DCDCDC;}
	.st221{fill:#DADADA;}
	.st222{fill:#F2F2F2;}
	.st223{fill:#3D3D3D;}
	.st224{fill:#D4D4D4;}
	.st225{fill:#424242;}
	.st226{fill:#3A3A3A;}
	.st227{fill:#404040;}
	.st228{fill:#7B7B7B;}
	.st229{fill:#969696;}
	.st230{fill:#6F6F6F;}
	.st231{fill:#D2D2D2;}
	.st232{fill:#D6D6D6;}
	.st233{fill:#D7D7D7;}
	.st234{fill:#F5F5F5;}
	.st235{fill:#5F5F5F;}
	.st236{fill:#080808;}
	.st237{fill:#8B8B8B;}
	.st238{fill:#ECECEC;}
	.st239{fill:#343434;}
	.st240{fill:#CCCCCC;}
	.st241{fill:#0A0A0A;}
	.st242{fill:#B7B7B7;}
	.st243{fill:#040404;}
	.st244{fill:#E4E4E4;}
	.st245{fill:#CDCDCD;}
	.st246{fill:#6D6D6D;}
	.st247{fill:#444444;}
</style>
<g>
	<path class="st99" d="M317.1,570.01c17.26-9.45,32.19-23.09,52.85-26.47c7.25-1.18,12.87-8.46,16.83-15.38
		c10.05-17.54,20-35.14,29.91-52.75c2.03-3.61,4.67-7.22,5.46-11.15c6.31-31.45,33.6-44.58,54.82-62.79
		c11.41-9.78,24.37-17.19,39.14-22.03c8.79-2.88,10.31-14.81,16.79-21.96c13.1-14.46,28.41-26.48,41.38-40.91
		c1.69,1.78,2.08,3.93,1.78,6.27c-2.95,8.13-10.57,13.79-11.98,22.74c-5.55,4.08-8.35,8.94-7.4,16.44
		c0.86,6.84,2.76,14.34-2.64,20.6c-1.1,1.05-2.41,1.47-3.91,1.29c-7.35-5.5-3.53-14.67-7.66-22.53c-6.43,8.33-4.96,19.12-10.2,27.11
		c-5.24,2.8-8.02,8.56-13.38,11.22c-1.24-0.31-2.31-0.93-3.21-1.81c-2.36-3.12-4.97-1.82-7.61-0.35c-1.22,0.5-2.47,0.81-3.76,1.01
		c-12.69,3.4-4.93,14.23-7.69,21.23c-0.61,4.4-0.41,9.23-5.78,11.13c-7.54-3.81-4.31-13.13-9.22-18.33
		c-5.16,4.34,5.62,19.57-11.01,15.78c-2.22-2.17-0.01-10.71-8.21-4.08c-8.21,6.65-12.63,16.17-20.48,22.8
		c-1.45,1.5-2.98,2.93-4.44,4.41c-6.73,9.66-6.44,20.48-5.25,31.47c-0.2,1.45-0.71,2.77-1.54,3.97
		c-23.9,12.63-30.29,30.17-19.29,53.07c1.4,2.91,2.39,5.78,0.74,8.9c-3.12,2.81-6.76-1.22-10.15,0.18
		c-0.01,6.49,5.32,12.1,1.28,18.28c-0.96,1.06-2.17,1.57-3.6,1.55c-3.81-1.76-5.03-6.14-8.45-8.32c-2.23-1.61-4.59-3.06-5.96-5.59
		c-1.05-2.82,0.74-5.89-0.87-8.88c-5.06,1.2-7.66,5.65-11.35,8.61c-1.12,0.96-2.43,1.51-3.89,1.69c-6.1-2.56-8.47,0.29-8.8,6.1
		c-0.5,1.38-1.29,2.56-2.35,3.57c-3.11,2-6.64,2.4-10.15,2.12c-6.45-0.53-6.09,3.44-5.42,7.76c-0.21,7.05-2.86,12.1-10.56,13.06
		c-3.21-0.07-5.61-1.79-7.82-3.86c-3.19-3.49-10.35-1.46-11.35-8.04C312.63,573.81,316.08,572.66,317.1,570.01z"/>
	<path class="st99" d="M579.88,369.8c-0.71-7.38-2.91-12.2-9.39-3.75c-4.28,5.59-7.38,12.08-11,18.17
		c-1.47-0.47-2.49-1.43-3.04-2.87c0.06-7.51,2.6-14.27,6.33-20.67c4.15-4.95,7.49-10.41,9.99-16.39
		c11.44-10.14,12.21-26.6,22.25-37.57c1.5-0.2,2.95,0.04,4.32,0.69c4.61,11.53-2.66,20.81-6.55,30.36
		c-2.89,7.09-1.2,10.22,5.15,12.5c3.03,3.38,5.01,7.29,5.93,11.73c0.5,13.92,2.39,26.98,17.61,33.28c4.09,1.69,5.17,6.23,6.83,10.06
		c4.75,10.94,12.87,17.25,25.12,17.56c1.49,0.06,2.78,0.61,3.89,1.61c7.11,9.99,9.66,25.07,26.77,23.88
		c0.89,1.22,1.43,2.59,1.64,4.09c-4.31,15.57-4.51,15.67-17.84,8.79c-2.62,2.3-5.24,4.59-11.4,9.99c5.6-13.4,4.19-20.6-7.23-22.27
		c-1.94-1.7-4.1-3.14-5.93-4.94c-6.98-6.87-11.94-6.28-15.6,3.39c-1.51,3.99-1.09,11.8-9.57,7.79c-3.74-6.11-6.68-1.63-8.89,1.11
		c-3.71,4.62-6.75,9.77-10.07,14.7c-6.77-0.3-3.71-4.84-2.88-7.62c2.27-7.59,7.45-13.4,12.81-18.99
		c3.92-8.53,18.96-13.36,8.74-26.56c0.09-4.15,5.82-8.54,0.29-12.33c-6.31-4.32-6.24,7.08-12.58,5.22
		c1.99-13.42-4.83-20.69-17.55-24.08c-5.41-1.44-1.16-7.23-3.24-10.46C582.17,374.83,577.97,374.65,579.88,369.8z"/>
	<path class="st12" d="M645.43,541.93c4.99,20.74-1.29,37.14-17.35,51.23c-5.6,4.91-7.83,13.66-11.6,20.66
		c-2.53,4.7-6.12,8.28-11.03,10.46c-16.95-3.46-17.6-4.83-9.95-20.71c2.26-6.96,7.04-12.54,11.63-17.75
		c5.18-5.88,5.47-11.57,3.55-18.24c5.06-11.8,14.72-21.85,13.77-35.96c2.78-9.42-3.15-22.96,12.44-26.32
		c1.95,4.31,3.9,8.63,5.85,12.94C644.48,526.03,643.96,534.09,645.43,541.93z"/>
	<path class="st50" d="M611.81,445.96c-5.6,7.66-14.97,13.41-12.63,25.07c-5.79,43.58-22.45,84.23-34.08,126.23
		c-0.53,1.93-1.95,3.61-2.96,5.4c-2.75-2.37-2.18-4.98-0.56-7.67c5.61-13.97,10.57-27.99,3.33-42.96c2.79-6.03,1.23-12.1,0.2-18.17
		c0.63-2.31,1.26-4.62,1.89-6.93c6.64-7.28-0.41-17.61,5.56-25.05c-5.42-31.99,15.68-50.08,35.97-68.59
		C612.73,436.73,612.07,441.4,611.81,445.96z"/>
	<path class="st110" d="M690.42,677.96c-0.08-2.37-0.15-4.73-0.23-7.1c3.47-14.93-1.93-29.16-3.39-43.7
		c-1.9-6.02-6.73-11.29-4.66-18.32c-4.73-3.59-3.43-8.27-2.3-12.91c1.17-1.05,2.55-1.5,4.1-1.42c3.15,0.17,4.67,3.02,7.13,4.33
		c-0.85-2.82-2.92-5.14-3.26-8.16c-0.17-1.51-0.05-2.99,0.34-4.48c4.81-6.54,7.52-1.51,10.54,1.89c3.29,5.41,0.4,12.19,3.89,17.57
		c-2.16,11.91,4.53,22.01,6.77,33.02c0.74,3.67,0.59,4.01-4.39,8.74c-2.61,2.47-0.3,4.45,0.53,6.73c2.25,6.21,10.03,9.36,9.41,17.12
		l0.19-0.15c-3.48-0.53-6.9-1.89-5.43,4.51c3.98,17.31,7.3,34.77,11.04,52.14c1.19,5.54,2.63,10.95-2.69,15.26
		c-1.74-0.41-2.28-2.38-3.89-2.96c-4.47-5.3-7.19-11.23-5.69-18.29c2.49-11.77-7.96-20.2-7.88-31.31
		C696.46,686.87,695.02,681.14,690.42,677.96z"/>
	<path class="st106" d="M264.48,718.17c-4.03,1.63-7.22,6.51-12.52,3.27c-2.89-7.28,1.82-12.79,4.35-18.81
		c10.26,0.44,10.53-7.74,11.94-14.42c0.92-4.35-1.41-9.01,0.33-13.49c6.93-7.47,6.75-7.15,16.52-1.84
		c2.87,1.56,6.95-0.96,10.54-0.33c6.3,1.36,12.65,0.85,19,0.39c7.9,3.49,11.99,8.79,8.4,17.73c-3.22,5.81-7.1,11.06-12.82,14.71
		c-4.8,7.6-18.58,0.37-20.64,12.52c-4.47,4.16-6.58-0.26-9.27-2.55C272.81,703.78,270.32,720.4,264.48,718.17z"/>
	<path class="st119" d="M636.87,505.3c-11.79,6.49-4.17,19.56-9.55,28.22c-1.72-1.87-4.94-0.68-6.36-3.14
		c-3.58-2.48-3.82-5.92-2.79-9.73c3.8-9.3-1.37-19.7,4.06-29.46c-5.2,6.6-0.2,14.66-4.83,20.67c-3.09-18.92-5.7-37.84,0.74-56.64
		c4.89-7.94,9.78-15.88,15.04-24.42c3.17,8,16.31,6.79,16.07,18.18C637.83,461.86,630.84,493.68,636.87,505.3z"/>
	<path class="st106" d="M864.76,704.67c-6.12-2.39-11.47-5.48-12-13.02c-1.1-2.25-2.76-4.17-3.72-6.5
		c-1.69-6.35-3.85-12.66-2.38-19.39c2.91-9.55,1.72-19.26,1.13-28.96c0.2,3.06,0.71,6.21-3.15,7.62
		c-12.06-8.2-14.42-26.28-5.25-39.75c9.61-4.57,12.29,3.08,15.91,8.89c2.73-3.94,4.85-9.09,10.97-4.87c1.8,2.63,1.94,5.54,1.53,8.56
		c-3.02,10.42-5.89,20.85-2.21,31.74c-1.61,15.61,1.82,30.6,6.48,45.24c1.64,5.16,2.68,9.95,1.75,15.2
		C869.52,710.28,867.1,707.55,864.76,704.67z"/>
	<path class="st140" d="M865.37,608.63c-10.66,1.02-3.57,11.8-8.72,15.85c-3.39-9.8-6.36-19.8-13.65-27.69
		c-0.6-9.85-1.79-19.59-5.53-28.85c-1.27-10.29-0.01-19.95,7.11-28.12c10.4,1.12,12.7,12.6,20.99,16.45
		c2.41,0.83,4.14,2.27,4.44,4.99c3.17,2.23,2.41,6.25,4.17,9.14C874.99,584.02,873.37,597.06,865.37,608.63z"/>
	<path class="st88" d="M517.49,492.56c0.34,2.38-4.43,5.06,0.41,7.18c0.12,4.58-3.18,3.75-5.95,3.76
		c-10.52-7.93-11.5,5.8-17.61,7.82c-4.28,2.43-6.34,7.92-11.85,8.72c-11.15-2.97-15.42-9.46-10.55-20.62
		c4.07-5.3,10.73-9,10.44-16.86c-5.48,0.51-7.63,7.4-13.52,6.85c-7.34,0.15-11.05-4.07-12.83-10.62c-0.32-2.59-0.05-5.01,1.51-7.28
		c4.62-6.73,9.92,2.6,13.33-0.15c4.47-3.62,8.24-7.94,14.44-7.19c6.63,0.81,10.35,6.13,14.52,10.6c1.99,1.54-0.66,8.12,4.35,5.46
		c4.55-2.42-2.96-5.67-1.34-9.18c0.23-3.81,1.48-7.3,3.2-10.66c1.23-2.04,2.96-3.47,5.24-4.21c2.28-0.5,4.5-0.29,6.64,0.64
		c5.24,3.56,5.38,7.98,3.12,13.58C518.2,477.44,516.36,484.82,517.49,492.56z"/>
	<path class="st5" d="M771.93,659.06c-5.53-5.19-7.31-10.16-7.77-19.02c-1.44-27.77-0.01-56.97-18.15-81.28
		c-1.25-2.65,0.52-3.73,2.44-4.75c7-4.19,10.88-0.55,12.63,5.79c3.48,12.6,11.27,23.23,15.53,35.44c0.93,7.7,2.05,15.44-4.34,21.68
		c8.26,3.19,10.46,11.19,13.39,18.11c3.17,7.5,6.16,15.13,8.87,22.84c-0.32,3.07-1.57,5.66-4.04,7.59
		c-9.37-1.58-9.75-11.9-16.11-16.26C773.75,652.36,775.18,656.31,771.93,659.06z"/>
	<path class="st188" d="M883.41,624.84c-4.38,9.9-4.31,20.13-2.3,30.51c-1.13,1.46-2.51,1.75-4.12,0.85
		c-11.64-8.94-19.89-19.12-12.68-34.84c4.78-0.51,3.76-4.05,4.24-7.4c1.94-13.71,0.31-28.26,8.93-40.53
		c6.78,1.39,12.12,4.66,14.92,11.31C890.62,598.39,892.86,612.93,883.41,624.84z"/>
	<path class="st7" d="M665.02,317.14c19.64-1.36,30.82,11.13,34.03,27.15c8.04,40.14,35.09,64.44,65.76,86.65
		c0.76,0.79,1,1.56,0.72,2.33c-0.28,0.76-0.55,1.13-0.8,1.14c-5.24,3.08-10.89,0.01-16.27,1.07c-1.43-0.01-2.81-0.3-4.14-0.8
		c-9.21-11.5-16.3-24.84-28.96-33.36c-9.12-10.74-15.54-22.66-19.46-36.45c-3.22-11.33-3.87-24.65-16.07-31.63
		c-1.19,0.47-2.41,0.73-3.67,0.87c-4.55-1.35-6.69-5.7-10.29-8.26c-1.47-1.45-2.43-3.14-2.62-5.23
		C663.39,319.24,663.98,318.08,665.02,317.14z"/>
	<path class="st99" d="M317.1,570.01c-1,2.71-2,5.41-3,8.12c-4.03,8.3-10.03,14.52-18.78,17.85
		c-22.17,23.92-50.16,39.86-78.01,55.69c-9.92,5.64-17.34,12.83-24.21,21.36c-4.01,4.98-9.64,7.76-15.65,9.9
		c10.47-17.53,21.38-26.4,44.55-41.67c27.07-17.85,58.6-29.85,77.82-58.47C303.71,576.98,309.68,572.03,317.1,570.01z"/>
	<path class="st61" d="M508.86,521.27c-3.53,18.18-11.38,33.45-26.41,45.33c-6.44,5.09-10.93,13.12-15.12,20.49
		c-8.51,14.98-18.07,28.98-31.3,40.2c-1.21,1.12-2.42,1.12-3.64,0.01c-0.67-1.31-0.98-2.7-0.95-4.17
		c1.66-7.38,7.52-11.95,11.75-17.62c10.01-17.4,19.06-35.41,32.55-50.56c4.17-4.06,8.94-7.46,13-11.65
		c5.59-4.05,8.44-9.68,10.51-16.17c1.35-4.22,1.93-10.69,9.49-8.52c0.24,0.07,0.41,0.77,0.42,1.18
		C509.17,520.28,508.97,520.78,508.86,521.27z"/>
	<path class="st46" d="M812.38,496.87c1.3,1.26,2.6,2.52,3.9,3.78c-4.27,5.04-2.98,12.76-8.64,17.3c4.68-1.43,8.47-0.76,11.41,3.06
		c1.33,5.36-2.29,9.74-2.92,14.79c-2.57,20.55-2.82,20.54-20.35,11.02c-6.89,3.82-11.54,2.18-13.8-5.55
		c-2.2-7.52-3.07-15.01-0.14-22.54c0.49-0.92,1.05-2.38,1.8-2.43c14.92-0.97,18.27-12.4,21.7-23.8
		C809.44,491.14,810.62,494.47,812.38,496.87z"/>
	<path class="st41" d="M598.65,604.81c0.02,4.82-6.26,7.17-4.71,13.21c4.89-0.57,5.43-8.31,9.07-7.68
		c11.91,4.64-12.04,9.89,2.42,13.95c-2.37,12.78-11.48,22.49-15.68,34.43c1.78,3.71-1.11,5.16-3.35,6.93
		c-1.46,0.4-2.86,0.23-4.19-0.5c-6.87-4.94-6.93-10.38-1.16-16.23c-1.54-15.35,4.67-29.32,7.8-43.83
		C592.15,605.93,595.31,602.15,598.65,604.81z"/>
	<path class="st211" d="M572,740c-6.09-22.95-10.48-45.94-1.39-69.2c3.48-3.97,4.93-12.51,13.14-5.85l-0.23-0.2
		c2.48,1.41,1.43,4.3,2.64,6.25c-0.95,4.2-1.89,8.39-2.84,12.59c-5.14,18.16-10.49,36.3-3.82,55.29
		C577.6,743.3,575.53,746.65,572,740z"/>
	<path class="st140" d="M805.93,674.86c0,10.36,0,20.72,0,31.92c5.93-4.36,1.19-10.77,5.81-15.53c9.94,12.15,5.72,26.3,6.42,39.52
		l0.21-0.19c-4.5,1.43-0.04,9.41-5.97,8.96c-4.37-0.33-3.15-6.16-5.23-8.45c-5.4-5.98-8.52-12.57-9.18-20.47
		c0.27-1.59,0.37-3.18,0.27-4.79c1.31-10.33-2.2-21.19,3.32-31.07C803.07,673.53,804.52,673.56,805.93,674.86z"/>
	<path class="st118" d="M517.49,492.56c-5.65-7.44-2.5-15.29,0.82-21.77c2.85-5.55,0.69-8.58-1.69-12.46
		c3.65-8.12,11.09-13.98,13.56-22.8c0.43-1.31,0.96-2.58,1.5-3.85c1.86-4.53,3.34-9.19,5.24-13.71c3.72-5.81,2.35-15.56,12.58-16.36
		c0.82,1.43,0.75,2.83-0.18,4.18c-4.04,13.29-8.04,26.58-12.12,39.85c-1.94,6.31-2.38,11.58,10.19,9.86
		c-12.15,5.63-25.94,9.65-24.14,18.97C525.03,483.74,518.6,486.51,517.49,492.56z"/>
	<path class="st160" d="M771.93,659.06c-0.72-5.96-1.44-11.92-2.28-18.88c8.03,7.79,15.37,15.04,20.49,24.22
		c7.08,0.6,7.43,5.92,7.86,11.19c-2.48,9.27,3.93,21.63-9.4,27.14c-4-0.81-5.21-3.34-4.4-7.13c-0.26-10.86-11-19.53-6.57-31.37
		C775.73,662.52,773.83,660.79,771.93,659.06z"/>
	<path class="st174" d="M414.8,652.98c-3.73,4.9-6.63,11.21-13.07,12.68c-28.11,6.42-44.59,32.69-71.3,41.36
		c-1.27-0.89-2.07-2.1-2.4-3.61c-0.05-1.5,0.23-2.95,0.85-4.32c7.33-5.76,12.65-14.16,22.21-17.04c8.99-0.33,15.17-5.36,19.34-12.66
		c3.06-5.36,6.49-8.83,13-7.8c5.48-1.92,11.83-1.6,16.17-6.43c3.57-3.54,6.65-7.93,12.62-7.25
		C414.45,648.89,416.04,650.22,414.8,652.98z"/>
	<path class="st103" d="M577.77,739.53c-11.59-19.98-3.94-38.05,5.55-55.93c0.26,19.06,4.99,37.86,3.22,57.03
		C582.86,746.36,580.54,741.11,577.77,739.53z"/>
	<path class="st123" d="M713.87,518.73c-10.54-0.6-2.71,8.11-5.73,11.31c-3.62,1.24-5.8-0.66-7.58-3.44
		c-0.83-13.93-3.62-27.14-13.36-38.01c-2.11-2.35-2.78-5.42-1.17-8.54c6.93,2.3,5.92-9.23,12.66-7.29
		c10.7,11.14,18.35,23.84,20.08,39.56c-0.3,1.43-0.8,2.8-1.45,4.11C716.54,517.73,715.37,518.47,713.87,518.73z"/>
	<path class="st185" d="M596,308.14c-4.39,14.36-10.48,27.78-21.25,38.63c-8.47-7.38,1.02-15.47-0.92-23.1
		c0.15-2.37,0.3-4.73,0.45-7.1c3.55-4.87,7.11-9.74,10.66-14.61c1.4-0.68,2.4-1.83,3.56-2.82c3.87-3.32,7.38-11.87,13.02-6
		C606.37,298.18,602.02,304.56,596,308.14z"/>
	<path class="st239" d="M255.3,693.21c4.29-14.74,9.23-29.19,16.09-43.01c5.63-11.33,12.6-21.05,24.23-26.77
		c0.42,0.57,0.84,1.13,1.27,1.69c0.37,1.35,0.36,2.72,0.04,4.08c4.85,3.37-12.82,1.93-1.38,6.73c0.93,0.99,1.52,2.12,1.76,3.43
		c-0.55,5.22-3.99,9.56-4.47,14.83c-3.58,4.22-6.17,8.28-13.71,7.26c-7.84-1.06-5.76,9.64-10.52,13.28
		c-2.57,6.77-1.42,15.28-9.14,19.65C257.89,694.64,256.51,694.25,255.3,693.21z"/>
	<path class="st188" d="M295.32,595.98c6.26-5.95,12.52-11.9,18.78-17.85c3.7,5.85,8.68-6.34,12.29,0.87
		c-1.04,7.35-3.5,13.89-10.23,17.99c-2.65,1.83-6.06,2.64-7.73,5.8c-2.41,4.91-3.83,10.1-4.61,15.49c-0.23,1.38-0.71,2.67-1.37,3.9
		c-1.87,2.15-3.86,4.01-7.07,2.85c-0.24-0.58-0.16-1.11,0.24-1.59c-0.01-15.63-10.16,1.41-13.39-4.36
		C286.1,611.21,301.84,609.8,295.32,595.98z"/>
	<path class="st14" d="M883.41,624.84c1.49-13.91,2.8-27.84,6.88-41.31c1.28-2.41,4.24-1.28,5.93-2.83c1.37,0.6,2.74,1.2,4.11,1.8
		c-6.99,15.9,1.41,35.07-10.65,49.86c-0.78,0.95-2.53,2.3-3.12,2.02C882.39,632.38,883.98,628.21,883.41,624.84z"/>
	<path class="st7" d="M665.02,317.14c-0.1,1.33-0.19,2.66-0.29,3.99c-9.44-0.8-18.52-0.34-25.44,7.47
		c-9.16-10.4-22.9-16.07-29.84-28.8c-0.05-2.35,0.49-4.45,2.52-5.91c14.52,7.04,28.42,15.7,45.07,17.18
		C660.92,311.41,663.94,313.04,665.02,317.14z"/>
	<path class="st133" d="M698.86,474.49c-5.74-1.78-4.85,9.33-11.44,5.88c-3.64,2.46-7.42,1.25-11.2,0.41
		c-5.61-2.78-2.04-9.02-4.88-12.84c-0.58-2.53,1.61-6.49-3.47-6.7c0.54-0.77,1.08-1.54,1.62-2.32c10.45,8.72,11.44-1.75,14.84-7.32
		c5.44-0.93,8.88,1.67,11.2,6.29C696.18,463.52,701.16,468.28,698.86,474.49z"/>
	<path class="st190" d="M817.84,520.36c-3.91-0.63-7.74-0.69-11.19,1.71c4.6-6.53-5.17-19.46,9.6-21.45
		c1.17,1.54,2.3,3.05,3.43,4.56c4.92,4.39,9.93,8.72,11.12,15.75c0.09,2.53-0.41,4.95-1.43,7.26c-5.89,6.61-7.28,14.64-7.67,23.14
		c-0.14,2.96-1,6.98-4.78,6.9c-4.3-0.09-3.19-4.1-3.61-7.12C811.78,540.36,815.99,530.56,817.84,520.36z"/>
	<path class="st147" d="M702.87,526.93c1.76,1.04,3.52,2.07,5.27,3.11c3.28,25.59-4.48,50.36-5.57,75.62
		c-6.17-3.1-1.08-10.95-6.13-14.53c1.64-3.48-0.44-7.02,0.09-10.52c-0.37-7.39-0.25-14.74,1.84-21.92
		C700.99,548.26,694.26,536.5,702.87,526.93z"/>
	<path class="st149" d="M433.25,733.84c23.22-15.43,46.45-30.87,69.67-46.3c-3.64,9.15-7.2,18.64-19.71,18.52
		c-11.12-0.11-15.09,10.02-22.34,15.35c-8.67,6.38-15.62,15.42-27.6,16.03c-0.93-0.79-1.25-1.59-0.94-2.39
		C432.64,734.25,432.94,733.84,433.25,733.84z"/>
	<path class="st13" d="M329.73,702.48c0.23,1.51,0.46,3.02,0.69,4.53c-13.22,5.11-26.68,9.31-40.84,10.9
		c-2.6-10.02-2.58-10.27,6.82-9.54c5.4,0.42,6.65-6.51,11.85-5.89c6.45,2.9,9.26-5.42,14.96-4.87
		C326.65,697.55,328.33,699.83,329.73,702.48z"/>
	<path class="st61" d="M674.55,574.01c-2.64-14.74,2.46-30.97-8.85-44.08c-2.55-2.96,1.37-4.8,2.98-5.29
		c7.22-2.2,4.07-8.6,5.8-12.96c1.27-0.96,2.6-1.01,3.99-0.27c5.93,6.48,13.1,12.61,6.74,22.74c-6.44,9.68-2.98,20.37-3.07,30.7
		C680.6,568.73,681.2,574.4,674.55,574.01z"/>
	<path class="st226" d="M611.96,293.89c-0.06,2.85-0.12,5.71-0.17,8.56c0.7,1.46,0.73,2.92-0.02,4.37
		c-2.29,4.19-1.99,9.09-3.6,13.45c-1.28,3.48-3.16,7.46-7.4,6.62c-5.27-1.05-3.11-5.59-2.38-8.86c0.74-3.32,4.1-6.35,0.64-9.92
		l-1.52,0.06l-1.52-0.04c2.25-4.52,4.01-9.17,3.72-14.52c-7.97-2.12-7.59,9.79-14.78,8.34C596.72,284.67,599.97,283.7,611.96,293.89
		z"/>
	<path class="st202" d="M577.77,739.53c3.34-2.97,5.55,3.13,8.77,1.09c7.91,8.01-2.76,16.21,0.25,24.28
		c1.87,2.33,2.15,4.81,0.7,7.46c-9.75-6.15-11.06-8.88-15.48-32.36C574,740.75,576.19,743.86,577.77,739.53z"/>
	<path class="st140" d="M818.16,730.77c3.98,1.94,6.95,1.68,8.09-4.72c-1.13,13.03,10.26,21.34,8.91,33.37
		c-17.6-6.73-17.6-6.73-16.79-28.83C818.38,730.58,818.16,730.77,818.16,730.77z"/>
	<path class="st57" d="M508.86,521.27c-6.88-0.74-6.6,4.54-7.04,8.76c-0.83,7.92-4.99,13.11-12.14,16.17
		c-3.07-0.2-5.86-0.89-7.12-4.18c7.34-5.98,1.19-17.09,8.72-23.01c7.57-1.55,9.87-12.55,19.29-10.79
		C511.94,512.82,511.66,517.21,508.86,521.27z"/>
	<path class="st147" d="M674.55,574.01c4.91-1.52,1.79-7.43,5.31-9.71c2.38,0.31,3.9,1.72,4.91,3.79
		c0.01,7.07,3.16,13.39,4.91,20.05c0.41,6.43,9.42,10.22,5.31,18.24c-7.49,0.76-6.12-10.04-12.84-10.28
		c-1.42,1.51-2.9,1.57-4.43,0.17C680.84,588.26,675,581.52,674.55,574.01z"/>
	<path class="st140" d="M733.78,548.76c-3.91,14.22-7.81,28.43-11.72,42.65c-2.1-13.61,1-26.93-1.05-40.37
		c-1.34-8.78,8.41,1.01,9.5-4.85C733.25,544.95,733.99,546.24,733.78,548.76z"/>
	<path class="st98" d="M611.81,445.96c-5.67-3.03-2.37-8.38-3.27-12.65c2.3-5.63,9.46-8.34,9.32-15.45
		c9.58,1.58,12.75,6.07,6.13,14.38C620.19,437.01,615.89,441.4,611.81,445.96z"/>
	<path class="st180" d="M598.65,604.81c-3.28-0.63-6.33,7.06-9.79,0.28c6.7-12.43,20.06-21.23,20.25-37.2
		c0.95-1.51,1.91-1.52,2.87-0.02c5.33,6.94,6.22,12.39-1.84,19.12C605.09,591.2,600.21,597.41,598.65,604.81z"/>
	<path class="st76" d="M879.04,655.65c0.66-0.27,1.35-0.37,2.07-0.3c-0.08,1.12-0.16,2.24-0.24,3.36c-1.25,1.27-2.52,1.23-3.81,0.07
		c-0.65,19.92,6.7,38.62,8.58,58.25c-9.38-19.39-11.71-40.38-14.26-61.32C873.91,653.46,876.47,654.07,879.04,655.65z"/>
	<path class="st118" d="M733.78,548.76c-1.09-0.86-2.18-1.71-3.27-2.57c-8.65-7.27-13.14-17.07-16.64-27.46l0.99-0.78
		c10.62-4.62,9.89,8.77,16.58,10.4c3.37,3.06,5.62,6.97,8.15,10.68c1.3,4.4,10.08,8.65,0.36,13.33
		C737.88,551.16,735.83,549.96,733.78,548.76z"/>
	<path class="st122" d="M676.86,511.86l-1.2,0.07l-1.18-0.25c-4.93-6.75-3.61-14.45-3.35-21.99c2.35-2.36,5.18-3.12,8.41-2.5
		c4.58,1.37,5.58,4.48,4.23,8.72c-0.29,2.21-5.26,5.16,1.49,6.22c2.98,0.47,4.91,3.67,5.88,6.83
		C689.09,523.33,682.96,517.53,676.86,511.86z"/>
	<path class="st74" d="M812.38,496.87c-2.1-1.56-4.19-3.11-6.29-4.67c-17.07-3.99-19.21-18.21-21.96-32.03c0.19-2.6,1-4.89,3.2-6.49
		C795.64,468.1,806.54,481.02,812.38,496.87z"/>
	<path class="st117" d="M587.49,772.36c-0.23-2.49-0.46-4.97-0.7-7.46c2.34-2.48,4.68-4.95,7.01-7.43
		c-3.76,11.72,10.2,19.34,8.26,35.19C595.44,783.43,591.46,777.89,587.49,772.36z"/>
	<path class="st108" d="M686.8,627.15c7.03,14.11,10.17,28.52,3.39,43.7C689.15,656.28,681.62,642.21,686.8,627.15z"/>
	<path class="st166" d="M510.57,508.22c-8.31,0.84-7.06,15.48-18.02,12.5c-1.58-4.01,0-7.23,2.54-10.21
		c5.39-2.85,7.04-12.57,16.06-8.76c2.42-0.08,5.01,0.4,6.75-2c3.62-0.39,6.16-5.23,10.89-3.12
		C525.38,505.58,515.69,503.21,510.57,508.22z"/>
	<path class="st74" d="M611.98,567.87l-1.44-0.11l-1.43,0.12c-2.65-4.45-0.2-8.26,2.51-11.02c7.33-7.5,9.59-16.48,9.33-26.49
		c3.3-1.35,5.76-0.98,6.36,3.14C626.47,546.87,619.98,557.71,611.98,567.87z"/>
	<path class="st140" d="M788.6,702.74c9.51-7.71,0.09-20.83,8.27-28.93c0.57,0.62,1.13,1.24,1.7,1.86c4,10.56,2.69,21.38,1.54,32.2
		c-0.69,0.91-1.38,1.83-2.09,2.75C792.56,710.75,791.38,705.79,788.6,702.74z"/>
	<path class="st33" d="M617.41,511.85c0-10.08,0-20.17,0-32.05c5.7,3.28,9.41,5.42,14.7,8.47c-16.18,6.87-6.42,22.79-13.94,32.37
		C617.92,517.72,617.66,514.79,617.41,511.85z"/>
	<path class="st128" d="M264.48,718.17c5.06-3.73,1.76-11.42,7.69-15.26c1.83,16.51,6.51,0.34,10.03,1
		c3.52,4.48-2.27,7.46-1.87,11.44c-4.55,2.63-8.84,6.14-13.73,7.63C262.5,724.22,265.04,719.94,264.48,718.17z"/>
	<path class="st131" d="M739.94,552.36c8.82-6.53-4.75-6.46-3.2-10.85c-1.29-5.48-0.62-10.02,5.7-11.85
		c4.68,2.68,7.14,7.14,9.43,11.75c1.58,5.39,0.81,10.31-2.96,14.61c-0.97,0.91-1.94,1.82-2.9,2.74
		C743.98,556.63,741.96,554.5,739.94,552.36z"/>
	<path class="st179" d="M851.68,684.51c0.36,2.37,0.72,4.74,1.09,7.12c-12.02-1.4-21.39-9.12-32.18-13.46
		c0.49-1.37,1.29-2.52,2.38-3.48c5.26-4.34,10.28-11.8,15.94-0.04c1.76,3.66,6.91,4.08,10.2,6.49
		C850.22,682.08,851.06,683.21,851.68,684.51z"/>
	<path class="st180" d="M879.04,655.65c-2.55,0.02-5.11,0.04-7.66,0.05c-0.8-3.21-2.62-5.54-5.78-6.72
		c-13.31-10.02-5.98-20.4-0.54-30.75c1.06,0.73,1.3,1.71,0.84,2.88C858.83,636.99,870.35,645.78,879.04,655.65z"/>
	<path class="st17" d="M787.34,453.68c-0.21,2.72-0.42,5.45-0.63,8.17c-9.72-7.23-20.24-13.84-21.78-27.54
		c-0.04-1.12-0.08-2.24-0.11-3.37C775.05,435.82,782.08,443.87,787.34,453.68z"/>
	<path class="st112" d="M828.02,519.9c-1.7-5.52-7.94-8.47-8.34-14.72c10.21,6.94,22.21,12.54,21.15,28
		c-1.1,1.17-2.47,1.76-4.06,1.84C828.86,532.87,831.28,524.74,828.02,519.9z"/>
	<path class="st17" d="M414.8,652.98c-1.17-1.22-2.33-2.45-3.5-3.67c-1.19-2.25-0.06-4.02,1.18-5.77
		c5.6-6.06,9.19-14.44,18.53-16.24c1.67,0,3.34,0,5.02,0C430.16,636.86,424.49,646.58,414.8,652.98z"/>
	<path class="st112" d="M777.63,664.24c1.6,10.58,9.61,19.82,6.57,31.37C780.35,685.5,767.32,677.32,777.63,664.24z"/>
	<path class="st213" d="M890.11,680.89c8.33,8.91,12.21,19.46,12.44,33.1c-7.79-10.91-13.47-20.85-12.18-33.31L890.11,680.89z"/>
	<path class="st199" d="M565.12,533.87c4.83,6.11,4.59,12.17-0.2,18.17c-0.66-26.05-17.3,1.99-22.91-7.87
		C547.41,536.94,557.99,538.94,565.12,533.87z"/>
	<path class="st13" d="M583.76,664.95c-6.93-3.78-7.17,7.47-13.14,5.85c0.65-8.65-2.07-18.9,10.45-21.88
		C576.12,655.24,584.25,659.38,583.76,664.95z"/>
	<path class="st223" d="M864.76,704.67c3.02,1.59,6.04,3.17,9.06,4.76c1.5,5.98,2.45,12.21,6.91,17.25
		C869.55,723.63,867.07,714.21,864.76,704.67z"/>
	<path class="st134" d="M796.86,673.81c-2.24-3.13-4.48-6.27-6.72-9.4c0.82-1.86,1.63-3.73,2.45-5.59
		c7.46,2.58,15.3,4.46,20.64,11.04c0.21,1.53-0.2,2.87-1.22,4.03c-2.02,0.32-4.05,0.65-6.07,0.97c-1.16,0.01-2.33,0.03-3.49,0.04
		c-2.28,1.33-4.32,1.32-5.92-1.07L796.86,673.81z"/>
	<path class="st150" d="M539.65,627.18c4.21,21.6,4.21,21.6-7.08,27.31C535.07,644.82,537.36,636,539.65,627.18z"/>
	<path class="st123" d="M677.73,596.28c1.47-0.06,2.94-0.11,4.42-0.17c-3.08,4.24,3.32,8.49-0.02,12.73
		c-7.64,0.59-13.16,5.81-19.7,9.43C666.43,609.8,674.74,604.92,677.73,596.28z"/>
	<path class="st110" d="M714.89,671.27c4.03,10.65,8.05,21.29,12.08,31.94c-9.98-8.83-14.13-19.47-11.89-32.09
		C715.08,671.12,714.89,671.27,714.89,671.27z"/>
	<path class="st226" d="M896.21,580.7c-1.11,2.76-3.34,3.17-5.93,2.83c-4.2-3.08-8.4-6.16-12.6-9.24c-3.15-0.69-4.21-3.53-5.91-5.72
		c-0.58-2.44-1.17-4.87-1.75-7.31C881.48,564.06,884.84,577.78,896.21,580.7z"/>
	<path class="st33" d="M680.01,489.69c-2.96,0-5.92,0.01-8.88,0.01c-9.2-7.35-1.62-14.52,0.22-21.75c5.69,2.28,1.96,9.07,5.85,12.2
		C678.15,483.32,683.58,485.18,680.01,489.69z"/>
	<path class="st180" d="M836,533.82c1.61-0.21,3.22-0.43,4.83-0.64c14.05,1.48,17.38,14.45,24.75,23.1
		c-9.42-1.95-13.26-10.41-19.19-16.44c-3.38,0.11-6.7-0.03-9.53-2.28C836.04,536.44,835.72,535.2,836,533.82z"/>
	<path class="st176" d="M544.51,592.09c4.97-8.04,9.94-16.08,14.91-24.12c0.89,12.08-1.98,21.56-15.23,23.85L544.51,592.09z"/>
	<path class="st127" d="M433.25,733.84c0.01,1.2,0.02,2.4,0.02,3.6c-7.26,8.02-16.99,9.73-27.64,9.52
		C415.65,744.08,424.09,738.28,433.25,733.84z"/>
	<path class="st187" d="M877.05,658.78c1.27-0.02,2.54-0.04,3.81-0.07c8.56,5.11,16.38,10.52,9.25,22.17c0,0,0.25-0.22,0.25-0.21
		C886.78,672.86,882.93,665.2,877.05,658.78z"/>
	<path class="st145" d="M579.88,369.8c-0.11,3.47,5.64,2.47,4.91,6.42c-5.45,4.36-2.59,13.14-9.94,17.56
		C572.74,384.61,576.08,377.16,579.88,369.8z"/>
	<path class="st213" d="M243.99,648.01c6.21-5.43,12.43-10.85,18.64-16.28C259.23,640.1,254.57,647.15,243.99,648.01z"/>
	<path class="st61" d="M255.3,693.21c0.73,0.01,1.46,0,2.2-0.05c3.15,3.02,3.58,6.3,0.94,9.87c-2.16,6.14-4.32,12.28-6.49,18.41
		c-4.35,5.14-4.52,0.76-3.85-2.03C250.2,710.61,252.86,701.93,255.3,693.21z"/>
	<path class="st246" d="M669.71,691.87c2.44,10.94-2.54,20.51-6.5,30.32C661.28,711.4,666.18,701.84,669.71,691.87z"/>
	<path class="st99" d="M549.31,405.81c-0.31-1.72-0.62-3.45-0.92-5.17c-3.61-6.91-0.83-12.39,3.92-17.42l-0.24,0.19
		c1.51-1.82,3.33-2.11,5.42-1.12c0.66,0.66,1.33,1.3,2,1.95C557.63,392.14,553.79,399.12,549.31,405.81z"/>
	<path class="st87" d="M561.59,595c0.19,2.56,0.37,5.11,0.56,7.67c-2.62,6.9-4.74,14.14-13.09,17.29
		C555.33,612.58,553.73,601.61,561.59,595z"/>
	<path class="st148" d="M567.19,524.76c-8.03-1.73-14.35,5.18-26.09,4.03c10.35-5.59,17.73-9.74,26.45-11.29
		C569.74,520.03,569.94,522.47,567.19,524.76z"/>
	<path class="st242" d="M218.83,662.66c1-1.1,1.78-2.62,3.02-3.23c6.22-3.09,12.55-5.95,20.45-5.78
		c-7.41,3.72-14.83,7.44-22.24,11.15C219.64,664.08,219.24,663.37,218.83,662.66z"/>
	<path class="st36" d="M586.16,671.01c-2.88-1.24-2.93-3.67-2.64-6.25c3.06-1,5.25-2.9,6.23-6.04c3.8-3.1,7.59-6.2,12.4-10.13
		C601.68,660.65,589.51,662.68,586.16,671.01z"/>
	<path class="st90" d="M567.19,524.76c0.12-2.42,0.24-4.84,0.36-7.26c4.09-4.43-4.41-12.9,5.02-15.61
		c1.92,9.41,1.52,18.62-2.34,27.53c-0.05,0.11-1.11,0.02-1.43-0.28c-0.69-0.63-1.21-1.46-1.8-2.2
		C567.19,526.22,567.26,525.5,567.19,524.76z"/>
	<path class="st134" d="M812,673.88c-0.02-0.77-0.04-1.54-0.07-2.31c3.37-4.62,5.87-11.07,13.64-6.55c2.6,3.89,2.11,7.98,0.78,12.12
		c-1.92,0.34-3.83,0.68-5.75,1.02C816.53,679.15,814.52,676.01,812,673.88z"/>
	<path class="st140" d="M714.11,740.07c1.3,0.99,2.59,1.97,3.89,2.96c1.87,7.68,3.75,15.36,6.27,25.71
		C713.73,759.5,715.95,749.13,714.11,740.07z"/>
	<path class="st66" d="M544.2,591.83c3.98,9.72,2.12,18.79-4.84,31.23c2.19-12.87,3.73-21.87,5.21-30.92
		C544.51,592.09,544.2,591.83,544.2,591.83z"/>
	<path class="st52" d="M690.42,677.96c5.96-2.64,7.2-1.11,10.12,12.51C694.68,688.31,688.61,686.32,690.42,677.96z"/>
	<path class="st62" d="M645.43,541.93c-3.16-7.64-4.48-15.49-2.71-23.69C648.44,525.58,647.41,533.7,645.43,541.93z"/>
	<path class="st54" d="M517.93,750.8c0.32-7.85,5.58-11.89,12.8-17.03C530.4,744.24,520.8,744.92,517.93,750.8z"/>
	<path class="st222" d="M429.94,483.61c-3.68-12.52-2.66-24.16,6.48-34.26c5.66,7.53,8.96,16.19,11.92,25.01
		c2.42,9.73,8.21,17.97,12.55,26.77c5.9,11.96,4.98,21.78-4.71,30.83c-5.68,2.46-9.22,10.77-17.32,6.65
		c-3.85-1.96-2.16,1.71-2.51,2.55c-1.43,3.36-2.79,6.78-4.68,9.88c-2.87,4.72-3.23,13.45-9.26,13.19
		c-7.35-0.31-9.44-8.35-10.94-15.05c0.78-6.01-4.82-8.53-7.2-12.81c-5.27-9.49-7.73-18.35,0.13-27.85c4.79-5.8,9.16-12.1,12.74-18.7
		c3.39-6.23,7.95-4.48,12.77-3.47c9.87-5.49,11.37,5.11,15.76,8.21C442.58,488.83,437.68,484.16,429.94,483.61z"/>
	<path class="st208" d="M445.24,474.32c-3.69-8.06-9.11-15.51-8.82-24.98c0.7-1.56,1.68-2.52,3.52-1.65
		c14.26-0.64,19.88-14.48,30.82-20.19c12.88,5.27,6.81-6.11,6.01-8.34c-3.15-8.84-0.24-13.56,8.88-17
		c1.59,9.6,3.07,18.53,4.55,27.46c8.39,7.86,5.26,20.96,13.22,29.02c2.88,5.46-0.28,9.77-2.69,14.23c-0.6,0.42-1.2,0.83-1.79,1.25
		c-2.12-0.64-4.49,3.84-6.3-0.01c-5.75-12.23-12.56-6.94-19.52-1.42c-2.35,1.86-4.34,13.12-7.54-0.2c-0.93-3.89-7.03-1.73-7.65,3.94
		C452.36,483.77,449.9,472.4,445.24,474.32z"/>
	<path class="st138" d="M411.48,549.18c5.73,2.43,6.86,8.8,11.23,13.19c4.86-17.04,12.76-30.75,32.61-31.94
		c0.21,0.65,0.41,1.31,0.62,1.96c-1.06,5.62-5.52,9.27-8.09,14.01c-1.08,1.69-2.28,3.3-3.45,4.94c-3.68,5.57-6.69,11.4-7.4,18.19
		c-0.37,2.77-0.93,5.47-2.46,7.86c-6.65,4.98-13.3,9.97-21.01,13.31c-8.88-5.19-14.22-12.24-12.09-23.17
		c3.89-9.63-12.8-16.99-2.42-27.38C405.17,539.76,404.9,549.48,411.48,549.18z"/>
	<path class="st121" d="M329.85,586.67c10.37,2.26,6.45-8.85,11.13-11.9c5.41-3.69,11.84-0.46,13.2,2.78
		c6.1,14.47,12.75,10.97,20.77,2.26c1.44-1.56,3.77-1.07,5.78-0.53c6.8,4.4,10.95,10.29,10.56,18.74c-3.63,9-13.71,9.82-19.85,15.67
		c-2.6,1.31-5.26,2.43-8.28,2.2c-5.24-1.89-2.57-6.67-3.75-10.85c-3.43,6.57-3.41,16.66-14.75,12.86
		c-1.69-10.96-12.45-12.81-19.01-18.89C323.83,593.8,325.77,589.87,329.85,586.67z"/>
	<path class="st19" d="M380.1,580.53c-4.9,4.91-7.41,14.39-17.44,9.64c-3.99-1.89-14.04,3.78-10.3-8.93
		c1.19-4.04-6.88-5.18-11.38-6.46c-0.86-3.62-6.77-5.6-4.2-9.98c2.31-3.94,6.24,0.08,9.5-0.36c3.9-0.53,7.92-0.13,11.89-0.14
		c8.23,2.81,12.08-0.54,12.41-8.83c1.15-11.1,14.41-9.3,17-22.18c3.76,11.6-0.09,17.45-1.27,23.68
		C390.52,566.47,381.81,572.58,380.1,580.53z"/>
	<path class="st232" d="M380.1,580.53c-6.22-10.04,7.28-14.88,6.21-23.56c2.37-0.95,5.09-3.12,5.81,1.68
		c1.73,5.21-1.85,8.57-5.01,12.68c5.11,0.49,7.34-5.24,11.85-4.02c0.79,0.52,1.62,0.59,2.49,0.23c5.17,6.9,5.75,16.55,13.2,22.1
		c7.76,3.34,4.09,7.5,0.42,10.97c-4.45,4.21-10.64,5.75-15.73,9.09c-9.5,2-14.45-0.07-9.67-10.83
		C388.6,591.64,383.82,586.36,380.1,580.53z"/>
	<path class="st50" d="M552.31,383.21c-1.31,5.81-2.61,11.62-3.92,17.42c-2.96,6.67-5.93,13.34-8.89,20.02
		c-8.5-1.19-8.14-8.25-8.27-13.94c-0.15-6.17-3.96-11.87-1.91-18.18c2.44-12.76,5.77-25.17,15.22-36.89
		C547.3,362.88,549.8,373.04,552.31,383.21z"/>
	<path class="st208" d="M510.1,458.09c-0.58,0.77-1.15,1.53-1.73,2.3c-6.31,5.02-3.37-7.74-8.75-4.55
		c-4.31-8.08,0.99-14.49,3.65-21.38c0.93-1.17,2.13-1.82,3.63-1.88c3.34,0.5,3.14,5.25,9.21,5.91c-12.88-9.37-0.28-19.86-4.47-29.28
		c0-5.23-2.23-11.38,5.45-13.49c0.2,1.1,0.4,2.19,0.6,3.29c9.27,9.52,13.09,21.51,15.52,34.14l0.05,0.05
		C526.01,441.94,521.06,452.81,510.1,458.09z"/>
	<path class="st237" d="M470.76,427.5c-8.69,9.15-11.32,27.55-30.82,20.19c4.35-14.22,17.52-21.24,26.12-32
		c1.31-1.64,2.87-2.61,4.99-0.63C475.69,419.41,472.43,423.4,470.76,427.5z"/>
	<path class="st202" d="M533.22,433.16c-10.28-9.06-10.83-22.54-15.52-34.14c6.09-1.04,0.64-14.86,11.61-10.49
		c8.89,8.97,1.79,23,10.19,32.12C537.11,424.68,538.85,430.77,533.22,433.16z"/>
	<path class="st98" d="M492.96,417.41c0.16-5.12,0.83-10.29,0.37-15.36c-1.08-11.95,5.23-8.14,11.15-5.59
		c6.9,12.08,9.45,24.29,1.16,36.85l-0.53,0.47c-2.43,3.43-2.39,10.49-8.24,8.97c-4.78-1.24-2.68-7.02-1.98-10.69
		C495.89,426.81,495,422.11,492.96,417.41z"/>
	<path class="st44" d="M557.49,382.28c-1.81,0.37-3.61,0.75-5.42,1.12c4.66-8.5,2.46-18.12,0.86-26.09
		c-2.1-10.44,0.58-12.46,9.55-11.72c8.01,3.98,5.52,9.47,2.18,15.09C562.27,367.88,559.88,375.08,557.49,382.28z"/>
	<path class="st89" d="M564.65,360.68c0.15-5.15,1.64-10.5-2.18-15.09c-4.74-11.72,8.65-14.06,11.35-21.93
		c3.61,2.07,7.88,4.47,3.64,9.01c-4.13,4.43-3.23,9.14-2.72,14.09C574.15,353.41,573.02,359.67,564.65,360.68z"/>
	<path class="st154" d="M505.64,433.31c3.93-12.42-3.07-24.49-1.16-36.85c1.17-0.28,2.34-0.56,3.51-0.85
		c6.55,3.44,0.07,12.33,6.61,15.77c4.32,2.96,4.93,6.59,1.01,10.06c-3.35,2.97-4.26,6.01-1.25,9.24c7.43,7.97,1.56,11.23-4.93,14.51
		C507.12,441.59,511.19,435.85,505.64,433.31z"/>
	<path class="st154" d="M492.96,417.41c6.4,6.75,6.61,14.59,3.2,22.97c5.32-0.07,5.33-5.56,8.95-6.6
		c4.86,7.95-10.22,12.86-3.21,21.13c0.88,0.68,1.21,1.4,1,2.17c-0.22,0.79-0.46,1.18-0.73,1.18c-11.35-2.37-8-12.91-10.38-19.93
		c-0.8-2.36-1.19-5.77-1.61-8.71C491.12,425.55,492.04,421.48,492.96,417.41z"/>
	<path class="st118" d="M329.85,586.67c0.45,4.4-4.5,7.57-2.78,12.26c3.1,4.74,2.12,9.2-0.9,13.53c-1.97,1.16-3.99,1.24-6.09,0.35
		c-5.69-4.3-2.42-12.63-7.7-17.12c6.57-3.96,9.8-10.73,14.01-16.69C326.71,581.93,326.93,584.91,329.85,586.67z"/>
	<path class="st238" d="M514.6,411.39c-1.38,1.82-2.99,7.22-5.08,2.23c-2.21-5.29-1.16-11.94-1.53-18c1.78-2.53,1.49-7.32,6.23-6.66
		c4.08,0.56,3.32,3.91,2.88,6.79C513.15,400.45,514.41,406.01,514.6,411.39z"/>
	<path class="st71" d="M398.96,567.3c-3.61,2.78-7.21,5.55-11.41,8.78c-5.51-8.07,3.08-11.88,4.56-17.44
		C399.09,557.82,399.06,562.53,398.96,567.3z"/>
	<path class="st165" d="M370.58,555.46c5.35-0.13,5.06,1.93,3.46,6.34c-2.7,7.47-11.92,3.9-15.07,9.92
		c-0.27-2.48-0.53-4.96-0.8-7.44c-0.11-0.89-0.12-1.78-0.01-2.68c3-4.49,8.15-4.67,12.58-6.3L370.58,555.46z"/>
	<path class="st19" d="M370.74,555.31c-3.73,3.03-7.35,6.27-12.58,6.3c1.09-3.66-3.96-8.02,1.01-11.13
		C365.08,546.79,367.09,553.19,370.74,555.31z"/>
	<path class="st81" d="M429.94,483.61c15.34-3.18,16.68,9.12,21.51,19.61c-9.56-4.01-8.99-18.96-21.53-16.86
		C429.55,485.44,429.55,484.52,429.94,483.61z"/>
	<path class="st6" d="M611.41,304.78c0.37-0.74,0.5-1.51,0.38-2.33c5.51,0.74,6.06,12.11,15.41,6.4c2.61-1.6,9.26,7.05,7.58,9.3
		c-6.14,8.23,3.01,6.51,4.91,9.29c5.17,2.31,4.29,5.15,0.76,8.25c-4.55,2.76-4.01,4.98-1.04,9.52c6.69,10.22,10.4,21.71,7.96,34.3
		c-6.29,3.75-0.49,7.89-0.02,11.65c0.81,6.57,3.38,13.12-3.82,17.84c-4.28,0.86-7.19-1.75-9.04-4.73
		c-9.52-15.28-25.29-25.66-32.96-42.34c-2.89-2.58-4.92-5.61-4.93-9.66c5.99-6.27,12.98-3.48,20.16-2.65
		c-2.26-5.08-6.22-10.46-1.94-16.6c11.84-10.1-0.88-15.2-4.54-22.14C609.57,308.65,609.89,306.6,611.41,304.78z"/>
	<path class="st127" d="M601.52,361.93c2.96-0.27,5.37-0.94,7.78,2.61c6.08,8.94,7.49,21.18,21.67,24.59
		c6.34,1.52,4.79,14.41,11.56,19.47c4.58,4.92,12.67,6.97,12.71,15.59c-8.05,5.26-27.47-3.66-30.8-15.42
		c-1.94-6.84-5.24-8.64-10.83-12.59C603.95,389.33,595.78,376.75,601.52,361.93z"/>
	<path class="st202" d="M618.17,332.85c-6.47,9.2,3.98,15.4,4.03,25.44c-7.55-9.21-16.9-5.61-25.62-6.02
		c-10.34,0.66-16.25-0.96-8.46-12.88c6.12-9.36,7.77-20.67,10.91-31.28c7.69,5.12-2.01,11.32,0.99,16.82
		c6.41-0.08,4.69-4.66,5.07-8.42c0.47-4.64-1.86-11.12,6.31-11.74c0.15,2.04,0.31,4.08,0.46,6.13
		C612.62,318.61,625.02,322.97,618.17,332.85z"/>
	<path class="st93" d="M655.23,424.19c-3.83-5.53-13.87-6-12.71-15.59c6.96-12.03-0.94-21.97-5.37-32.24
		c5.82-3.44,5.73,3.06,8.63,3.89c4.2,0.79,5.67,4.14,7.12,7.51c3.03,7.77,6.45,15.34,11.42,22.11c7.4,8.42,13.32,18.23,23.2,24.28
		c1.59,1.42,2.92,3.06,3.99,4.9c1.84,5.13,5.11,9.69,6.2,15.14c-0.35,2.1-0.88,4.02-3.72,3.42c-3.23-2-6.45-3.99-9.68-5.99
		c-0.15-0.86-0.41-1.7-0.76-2.5c-12.36-5.02-19.04-16.43-28.18-25.07L655.23,424.19z"/>
	<path class="st119" d="M655.4,424.05c0.94-0.42,2.43-1.46,2.73-1.19c8.96,8.28,19.11,15.44,25.45,26.25
		C666.65,453.24,665.91,452.58,655.4,424.05z"/>
	<path class="st240" d="M689.69,588.14c-4.86-5.77-11.62-10.92-6.55-19.96c-0.55-5.64,3.16-4.25,5.47-2.72
		c5.27,3.46,8.15,8.73,9.13,14.99c1.6,3.81,2.12,7.49-1.3,10.69C694.43,589.59,695.21,581.76,689.69,588.14z"/>
	<path class="st81" d="M267.63,674.36c1.08-8.7,5.21-16.06,9.46-23.68c5.74,2.21-0.9,10.74,7.05,11.12c5.74,0.27,3.02-9.1,9.35-7.39
		c2.4-5.08,6.05-9.11,11.93-6.69c7.61,3.13,3.75,9.27,2.55,14.52c-2.69,5.58-5.83,10.72-12.6,12.03c-4.62,5.3-11.99-0.58-16.59,4.76
		c-2.52-5.79,4.08-6.27,4.85-9.98c-5.97-2.42-7.83,3.45-11.51,5.44C270.57,676.21,269.08,676.16,267.63,674.36z"/>
	<path class="st123" d="M329.73,702.48c-1.73-0.97-3.47-1.94-5.2-2.9c-4.18-2.29-1.86-6.79-3.4-9.98
		c2.32-7.15-3.95-10.33-6.95-15.03c-0.87-1.17-1.27-2.5-1.3-3.95c0.59-4.19,0.98-8.45,3.77-11.95c2.26-2.65,5.81,4.98,8.31-1.5
		c1.97-5.12,5.73-9.84,11.11-12.55c2.11-0.71,4.2-0.68,6.27,0.12c6.7,4.96,3.87,9.67-0.62,14c-4.41,4.25-10.09,7.13-13.56,12.35
		c-1.22,5.09,4.1,6.11,5.81,9.34c1.13,3.14,1.8,6.45,3.23,9.51c0.38,5.15-4.69,6.02-7.08,9.01
		C329.99,700.13,329.86,701.31,329.73,702.48z"/>
	<path class="st246" d="M267.63,674.36c1.49,0.04,2.98,0.08,4.47,0.12c-1.18,10.31,2.85,21.5-7.14,30.24
		c-4.66,4.08-4.44-1.09-6.52-1.7c-0.31-3.29-0.62-6.58-0.94-9.87C260.88,686.89,264.26,680.62,267.63,674.36z"/>
	<path class="st144" d="M314.78,671.37c-0.2,1.07-0.4,2.13-0.6,3.2c-6.34,4.34-12.63,5.28-18.81-0.32c3.18-4.3,6.35-8.6,9.53-12.91
		c2.97-1.9,6.34-5.42,9.5-1.86C317.25,662.7,316.15,667.33,314.78,671.37z"/>
	<path class="st89" d="M321.13,689.6c6.85,1.38,4.36,5.94,3.4,9.98c-5.42,0.97-9.35,10.34-16.28,2.9
		C314.55,700.19,315.88,692.93,321.13,689.6z"/>
	<path class="st135" d="M843.72,605.44c-8.9,9.2-7.69,27.8,2.4,36.95c3.78,3.41,3.31,7.87,3.07,12.28
		c-2.23,6.57-2.47,13.53-3.95,20.25c-7.39,6.9-7.14-0.86-8.02-4.56c-2.26-9.48-1.53-19.56-5.62-28.69c-2.1-7-0.88-14.42-2.35-21.43
		c-1.8-8.54,1.63-19.75-11.49-23.2c-3.15-0.83-4.7-5.08-5.33-8.92c-0.17-1.03,3.19-3.99-1.24-3.64c-1.78,0.09-3.08-0.64-3.95-2.18
		c-1.92-9.78,0.72-16.25,11.94-16.48c9.62,7.24,11.3,20.04,19.65,28.2C839.8,598.1,847.41,599.38,843.72,605.44z"/>
	<path class="st222" d="M871.77,568.58c3.9-0.09,5.09,2.62,5.91,5.72c-5.54,17.06-6.75,34.66-6.24,52.72
		c-4.38,0.09-2.53-5.2-5.55-5.89c-0.57-0.88-0.85-1.84-0.83-2.88c0.1-3.2,0.21-6.41,0.31-9.61
		C867.51,595.28,869.64,581.93,871.77,568.58z"/>
	<path class="st38" d="M843.72,605.44c0.83-5.7-8.56-2.83-7.4-8.81c-0.64-2.91-1.83-6.53,2.66-6.87c4.25-0.33,5.56,3.54,6.84,6.86
		c6.85,8.03,10.35,17.36,10.83,27.86C847.7,621.29,855.12,606.97,843.72,605.44z"/>
	<path class="st167" d="M846.5,655.27c-0.12-4.29-0.25-8.58-0.38-12.88c0.3-2.92,0.6-5.83,0.9-8.74
		c3.35,10.35,10.03,20.38,2.57,31.27C845.47,662.7,843.54,659.77,846.5,655.27z"/>
	<path class="st204" d="M846.5,655.27c1.03,3.22,2.06,6.44,3.1,9.65c0.7,6.53,1.39,13.05,2.09,19.58c-0.79-0.3-1.57-0.63-2.34-0.99
		c-4.09-1.71-4.63-5.64-5.77-9.2C844.44,667.96,840.79,660.9,846.5,655.27z"/>
	<path class="st78" d="M845.82,596.62c-3.17-0.79-6.35-11.89-9.5,0.01c-5.6-9.27-11.21-18.54-16.81-27.81
		c0.51-1.34,1.41-2.31,2.69-2.93c1.24-0.54,2.52-1,3.77-1.47c5.76-2.84,3.16-8.91,5.12-13.17c1.49-3.25,2.28-8.79,7.82-3.59
		c0.9,10.92-1.65,21.86,0.18,32.77c0.36,2.07,3.02-0.7,1.15,0.23c-0.69,0.35-1.07,0.01-1.15-1.01c-0.32-3.91-1.77-7.96,1.52-11.39
		C847.64,576.74,846.58,586.71,845.82,596.62z"/>
	<path class="st93" d="M840.61,568.25c-0.55,4.93-1.1,9.87-1.64,14.8c-3.53-12.87-1.89-25.74-1.63-38.58
		c-3.41-1.9-5.45-4.38-3.66-8.51c1.35-0.81,2.54-0.61,3.56,0.6c3.23,0.58,7.15-0.76,9.14,3.28
		C842.48,548.91,840.09,558.29,840.61,568.25z"/>
	<path class="st53" d="M445.24,474.32c1.32-0.89-0.97-7.91,4.21-2.37c2.21,2.36,4.31,5.54,8.47,4.47
		c2.59,5.23,4.5,11.31,12.37,10.02c3.23,1.61,6.94,2.67,7.89,6.89c0.21,3.41-3.24,4.59-4.39,7.17c-2.77,8.71,0.9,14.09,8.91,17.23
		c5.24,4.36,6.86,9.56,3.72,15.87c-6.26,2.54-12.2-1.65-18.38-0.85c-4.19-1.29-9.18,1.32-12.87-2.54c0,0,0.15,0.21,0.15,0.21
		c12.41-15.1,2.34-27.82-4.68-40.56C447.89,484.87,444.66,480.35,445.24,474.32z"/>
	<path class="st61" d="M483.33,533.51c6.14-5.51-1.05-10.49-0.62-15.77c4.59-1.53,3.21-9.16,9.32-9.13
		c1.66,0.73,3.72,1.06,3.57,3.59c-1.02,2.84-2.04,5.68-3.06,8.52c-2.54,2.27-3.8,5.57-2.04,8.16c6.16,9.07-2.02,10.64-6.82,14.07
		c2.49,4.83,0.69,7.22-4.4,7.73C472.82,543.12,474.97,537.58,483.33,533.51z"/>
	<path class="st187" d="M510.1,458.09c6.3-9.62,11.58-20.18,23.16-24.88c-1.22,11.24-5.79,20.26-16.64,25.13
		C514.45,458.26,512.27,458.17,510.1,458.09z"/>
	<path class="st208" d="M505.18,472.69c-3.96,6.25,9.54,0.65,5.1,7.67c-3.58,5.67-7.97,7.73-14.7,5.19
		c1.11-3.79,2.23-7.62,3.35-11.44c0,0-0.08,0.09-0.08,0.09C500.7,472.58,501.85,468.08,505.18,472.69z"/>
	<path class="st200" d="M495.6,512.2c-1.19-1.2-2.38-2.39-3.57-3.59c2.36-1.74,5.73-2.96,6.9-5.3c4.52-9,4.26-9.13,12.22-1.57
		C503.87,502.12,501.5,509.78,495.6,512.2z"/>
	<path class="st113" d="M473.8,500.51c1.11-2.54,2.22-5.08,3.34-7.62c-0.58-7.43-0.34-14.37,9.32-15.73
		C488.68,488.44,482.67,495.25,473.8,500.51z"/>
	<path class="st178" d="M486.46,477.16c-8.28,2.18-5.16,11.11-9.32,15.73c-3.53-0.82-5.97-2.79-6.84-6.44
		C478.33,487.95,476.13,471.67,486.46,477.16z"/>
	<path class="st247" d="M505.18,472.69c-2.11,0.5-4.22,1.01-6.33,1.51c-1.22-5.8,5.91-9.86,3.32-15.94
		c-0.09-1.12-0.18-2.23-0.27-3.35c2.37-3.25,3.49-2.51,3.46,1.16c-0.02,2.24-1.21,5.1,3.01,4.33
		C507.31,464.49,506.24,468.59,505.18,472.69z"/>
	<path class="st64" d="M824.18,665.45c-6.24-2.27-6.47,7.47-12.25,6.12c-5.66-5.45-15.66-4.31-19.34-12.76
		c-7.18-7.88-8.49-18.45-12.93-27.52c-1.71-3.49-0.1-10.33-8.52-10.87c-3.87-0.25-8.47-8.26,2.68-7.77
		c-0.8-5.63-2.29-11.29,0.92-16.7c1.26-0.73,2.46-0.61,3.55,0.18c5.37,2,14.27,0.27,11.98,10.87c0.1,9.77,1.3,19.38,3.77,28.82
		c-1.75-6.47,0.51-12.61,1.75-18.76c0.66-3.31,0.99-8.41,5.67-7.83c4.25,0.52,4.93,5.39,3.91,8.77c-2.13,7.1-0.28,14.42-1.86,21.79
		c3.24-6.21-3.85-14.75,4.74-19.3c7.96,7,2.72,16.07,3.76,24.15c0.19,1.49,0.2,3,0.38,4.5c0.24-1.59-0.3-3.16-0.2-4.77
		c0.37-5.48,1.63-10.03,8.75-8.59c2.9,2.13,3.51,5.22,3.58,8.52C821.7,651.3,825.37,658.42,824.18,665.45z"/>
	<path class="st16" d="M777.57,596.11l-1.41-0.23c0,0-1.43,0.07-1.43,0.07c-6.57-10.17-14.7-19.94-15.71-32.35
		c-0.65-8.02-5.02-7.4-10.11-7.57c0.09-5.27,0.19-10.54,0.28-15.81c2.03-8.66,6.47-9.91,9.97-1.64c6.22,14.7,15.1,27.85,22.3,41.95
		C784.57,586.6,785.08,592.47,777.57,596.11z"/>
	<path class="st188" d="M717.6,398.96c11.81,9.58,23,19.69,28.78,34.33c11.01,10.83,13.25,25.37,16.7,39.38
		c-0.51,1.3-1.42,2.28-2.71,2.85c-1.17,0.29-2.38,0.31-3.55,0.06c-0.38,25.83-0.38,25.83-6.33,34.19
		c-7.3,0.08-10.31-5.51-13.84-10.43c-9.17-16.92-19.99-32.93-28.22-50.38c-2.61-6.55-8.02-11.91-8.38-19.43
		c0.2-1.39,0.61-2.72,1.18-4c3.88-4.94,3.19-11.61,6.28-16.85c2.6-1.7,4.06-3.62,4.05-7.24
		C711.55,397.67,714.16,396.39,717.6,398.96z"/>
	<path class="st195" d="M764.92,434.31c4.73,11.18,18.11,15.52,21.78,27.54c4.02,11.67,8.18,23.26,19.39,30.34
		c-0.07,3.07,0.44,6.29-0.31,9.18c-2.18,8.47-0.51,21.93-16.78,14.14c-1.13-0.54-3.57,1.63-5.4,2.54c-0.55-0.5-1.1-1-1.66-1.49
		c-6.57-9.83-9.14-20.09-6.16-32.09c1.61-6.47,3.09-14.11-3.24-20.54c-0.64-1.32-0.75,0.82-0.6,0.94c5.82,4.69,5.51,9.2-0.9,13.19
		c-11.69-6.05-12.1-18.75-16.62-28.89c-2.22-4.99-3.02-10.7-5.4-15.78C754.83,424.98,759.43,437.3,764.92,434.31z"/>
	<path class="st104" d="M717.6,398.96c-4.84,0.2-3.59,1.99-2.28,5.46c2.43,6.46-1.11,6.46-5.7,3.94c-5.7,5.03-2.28,13.6-7.31,18.89
		l0.23-0.25c-7.87,14.37-10.81,2.34-15.06-2.8c-0.76-3.08-0.64-6.06,1.08-8.84c0.58-6.16,7.7,1.41,5.39-0.96
		c-10.06-10.36-5.79-20.56-2.49-31.32c1.07-3.49,0.68-7.14-1.08-10.48c-2.65-7.16-12.25-9.48-12.73-18.15
		c-1.13-7.17,3.84-14.58-0.87-21.61c-0.1-3.05-1.06-6.95,1.92-8.51c4.11-2.15,4.26,2.35,5.87,4.67
		c7.32,10.57,12.18,22.29,14.95,34.63C702.54,377.13,709.66,388.17,717.6,398.96z"/>
	<path class="st139" d="M676.77,332.85c15.25,5.14-0.34,14.78,3.15,21.64c0.03,8.85-1.14,17.55-3.14,26.14
		c-0.59,1.32-1.5,2.41-2.66,3.26c-6.86-0.38-5.86-8.83-11.14-10.84c-4.52-3.7-7.03-8.67-8.92-14.04c-0.33-1.39-0.45-2.81-0.39-4.23
		c3.16-12.61-3.57-13.63-13.21-11.27c-3.59-3.18-3.45-6.62-0.72-10.23c4.05-1.97,0.22-3.89-0.04-5.83
		c2.43-10.53,15.44-13.81,25.04-6.3c1.2,1.09,2.41,2.17,3.61,3.25c3.93,5.04,0.46,10.43-0.11,15.79c5.99,0.16,6.39-4.85,8.98-7.41
		L676.77,332.85z"/>
	<path class="st239" d="M749.03,433.39c10.32,13.13,10.62,31.35,22.27,43.81c4.54,5.49,4.67,10.82-0.58,15.95
		c-3.1,0.78-4.35-1.39-5.63-3.52c-1.7-5.05-5.54-9.64-3.58-15.56c-5.04-13.59-10.09-27.18-15.13-40.77
		C747.27,433.1,748.15,433.13,749.03,433.39z"/>
	<path class="st245" d="M677.21,332.76c1.06,3.8,6.44,9.27-2.29,9.86c-4.13,0.28-5.38,7.07-10.27,3.52
		c-6.56-4.76,1.12-7.63,1.56-11.47c0.39-3.47,1.4-6.87,2.14-10.3C673.67,324.66,674.53,329.67,677.21,332.76z"/>
	<path class="st50" d="M483.33,533.51c-5.59,3.8-4.35,10.17-5.84,15.51c0.21,2.33,1.81,4.67-0.04,6.99
		c-0.29,1.53-0.04,3.66-0.96,4.5c-14.64,13.34-20.23,32.37-30.61,48.37c-11.61,2.43-7.48-8.41-10.91-12.91
		c-0.03-1.45,0.34-2.78,1.05-4.04c4.82-4.2,9.24-8.68,10.88-15.16c1.4-3.24,3.05-6.42,5.46-8.96c9.32-9.82,4.72-13.19-6.21-13.82
		c-2.05-1.13-3.33-2.8-3.63-5.16c1.15-0.94,2.29-1.89,3.44-2.83c6.95-5.77,14.33-10.95,21.94-15.81
		C473.97,526.96,478.68,530.09,483.33,533.51z"/>
	<path class="st193" d="M431.01,627.3c-5.64,6.05-11.28,12.1-16.92,18.15c-2.42-1.94-3.33-4.67-3.99-7.54
		c-0.2-1.46-0.06-2.89,0.36-4.3c0.64-1.83,2.26-3.07,2.94-4.88c-1.69,0.53-2.8,1.94-4.24,2.85c-1.68,1.06-2.83,2.71-4.16,4.17
		c-1.04,1.09-2.21,1.99-3.53,2.72c-2.15,0.88-4.38,1.1-6.67,0.79c-1.49-0.3-2.9-0.82-4.26-1.52c-12.8-11.17-12.43-12.95,4.8-22.93
		c3.4-1.36,5.89-3.68,7.29-7.13c6.63-4.91,12.76-10.99,22.14-9.51c9.82,6.85,8.67,16.85,7.71,26.8
		C432.17,625.87,431.68,626.64,431.01,627.3z"/>
	<path class="st17" d="M432.48,624.98c-4.19-7.91-0.38-18.9-9.57-24.89c-0.59-2.69-4.48-4.68-1.8-8.06c2.31-2.9,5.01-3.02,7.83-0.78
		c2.43,1.92,5.25,2.97,8.14,3.89c6.16,2.52-1.71,14.01,8.79,13.75C441.41,614.25,436.95,619.62,432.48,624.98z"/>
	<path class="st41" d="M477.45,556.01c-0.12-2.33-3.88-4.69,0.04-6.99c5.39,1.37,5.73-2.41,6.19-6.07c2.58,0.02,4.82,0.65,6,3.25
		C486.89,551.08,483.4,555.07,477.45,556.01z"/>
	<path class="st67" d="M825,567.67c-1.83,0.38-3.66,0.77-5.49,1.15c-12.71-1.9-8.11,9.32-11.17,14.74
		c-8.83,4.09-5.98-6.8-10.59-8.18c-4.65-4.25-8.01-9.15-8.06-15.76c0.97-7.33,2.45-14.46,7.62-20.19c5.18,2.37,5.62,10.21,13.8,10.9
		c2.88-9.67-1.9-21.64,6.72-29.96c7.26,0.32,2.67,4.71,1.6,6.32c-6.29,9.4-5,19.41-3.64,30.44c6.73-9.07-3.44-23.54,11.08-28.56
		C830.99,541.83,823.67,554.54,825,567.67z"/>
	<path class="st163" d="M797.32,539.43c-1.57,8.19-3.14,16.39-4.71,24.58c-6.11-3.18-11.1-7.78-15.92-12.59
		c-4.68-6.41-8.32-13.54-13.54-19.61c0.28-3.02,1.56-5.64,3.28-8.08c4.94-4.55,10.87-6.3,17.48-6.09c0,0-0.31,0.42-0.31,0.42
		c0.21,4.14,0.83,8.3,0.55,12.4C783.42,541.25,785.67,547.08,797.32,539.43z"/>
	<path class="st56" d="M796.52,673.83c1.97,0.36,3.95,0.71,5.92,1.07c-0.46,11.01,2.85,22.3-2.35,32.97
		C799.39,696.47,799.81,684.95,796.52,673.83z"/>
	<path class="st58" d="M323.79,671.22c3.82-7.44,10.68-11.75,17.31-16.03c4.84-3.13,4.2-5.56,0.61-8.73
		c-0.7-1.59-0.45-3.01,0.75-4.27c2.18-1.24,4.47-1.34,6.84-0.64c7.54,3.51,12.71,9.17,15.46,17.04c5.79,13.63-0.28,21.31-12.91,25.7
		c-8.12,3.58-11.81,13.73-21.72,14.66c-2.03-5.63,6.4-4.18,5.92-8.75c-1.62-6.08,3.74-8.02,7.03-10.41c4.35-3.16,1.8-6.01,0.99-9.16
		c0.41-3.33,2.82-4.97,3.6-5.83C341.19,667.53,334.13,675.35,323.79,671.22z"/>
	<path class="st139" d="M351.84,684.3c7.06-7.71,16.65-14.59,8.93-27.17c7.38-1.64,11.75-7.4,17.03-12.06
		c4.25-3.76,7.23-10.32,14.83-8.21c1.64,0.04,3.28,0.08,4.92,0.11c-0.33,6.79-5.87,10.02-9.86,14.27c-2.27,2.42-6.09,4.08-3,8.37
		c0.31,2.07-0.04,3.94-1.51,5.51c-1.19,4.28-6.12-6.21-8.51,3.08C372.39,677.01,365.45,687.53,351.84,684.3z"/>
	<path class="st159" d="M383.18,665.12c-0.02-2.05-0.04-4.09-0.06-6.14c1.68-11.33,11.93-15.4,18.89-22.26l-0.14,0.13
		c2.53-3.44,5.19-5.77,8.74-1.09c0.38,0.54,0.75,1.1,1.1,1.66c3.75,10.54-11.49,11.79-10.31,21.07
		C397.11,665.63,388.13,659.84,383.18,665.12z"/>
	<path class="st102" d="M401.39,658.5c-6.03-0.51-3.31-2.92-1.28-5.45c4.06-5.06,11.24-7.82,11.59-15.62
		c3.29,1.94,1.89,5.26,2.39,8.02c-0.93,1.29-1.86,2.57-2.79,3.86C408,652.37,404.7,655.44,401.39,658.5z"/>
	<path class="st172" d="M680.01,489.69c2.14-4.09-8.12-4.52-2.81-9.54c3.45-1.76,6.85-1.64,10.22,0.23
		c-1.47,5.99,4.3,7.47,6.9,10.85c8.22,10.68,9.63,22.86,8.55,35.7c-1.42,11.51,2.89,23.12-0.58,34.59
		c-9.83,2.94-16.64,0.85-15.17-10.94c0.81-6.45-6.57-10.65-3.51-17.16c3.88-9.11-6.56-13.73-6.75-21.57
		c9.09,1.86,9.8,1.68,13.04-3.33c-1.16-5.24-4.92-8.72-8.4-12.39C680.53,494.1,684.98,490.8,680.01,489.69z"/>
	<path class="st50" d="M694.02,457.61c0.75-0.83,1.49-1.65,2.24-2.48c18.49,6.32,25.11,15.92,26.05,37.68
		c3.25,5.95,4.81,11.7,14.36,12.97c8.93,1.18,10.97,14.99,5.68,25.14c-1.87,3.53-3.74,7.06-5.61,10.59
		c-4.5-2.3-4.08-7.41-6.28-11.03c-4.74-5.64-7.21-13.36-14.91-16.28c3.47-12.48-8.05-19.23-11.5-29.1c-1.2-3.43-5.06-6.2-5.17-10.6
		C693.05,470.07,692.21,464.22,694.02,457.61z"/>
	<path class="st154" d="M715.54,514.2c10.65,0.22,14.11,7.04,14.91,16.28c-10.07,1.88-5.96-13.88-15.6-12.53
		C715.09,516.7,715.31,515.45,715.54,514.2z"/>
	<path class="st211" d="M314.78,671.37c1.4-7.97-0.94-12.26-9.89-10.03c-0.16-3.75,4.72-7.97,0-11.08
		c-4.9-3.23-7.44,3.23-11.45,4.12c-6.58-5.5-0.97-8.92,2.23-12.76c5.91-5.59,10.11,0.42,14.93,2.17c6.84,4.83,12.71-6.63,19.58-1.21
		c1.34,9.73-6.67,11.88-12.68,15.66C316.78,662.66,319.27,667.74,314.78,671.37z"/>
	<path class="st36" d="M311.33,646.41c-5.22-1.59-10.44-3.19-15.66-4.78c-0.23-1.89-0.46-3.79-0.7-5.68
		c-1.31-2.96,3.31-5.54,0.53-8.59c0.08-0.79,0.04-1.56-0.13-2.34c2.04-1.43,4.07-2.86,6.11-4.28c1.81,2.85,5.21,3.22,7.74,5.01
		C309.69,632.67,315.13,639.07,311.33,646.41z"/>
	<path class="st130" d="M295.52,627.35c4.51,3.15,1.6,5.85-0.53,8.59c-5.46-0.48-7.5,5.74-13.49,8.03
		C283.46,634.31,291.31,632.42,295.52,627.35z"/>
	<path class="st201" d="M308.25,624.34c-3.33,0.82-6.51,1.35-6.76-3.61c0,0-0.02,0.38-0.02,0.38c2.01-7.06,6.58-13.67,3.87-21.58
		c1.25-3.29,3.74-4.31,7.04-3.86c15.18-1.09,5.08,10.88,8.27,15.99c-0.3,2.14-1.47,3.77-3.03,5.16c-2.65,2.04-5.09,4.34-7.58,6.58
		C309.45,623.74,308.85,624.04,308.25,624.34z"/>
	<path class="st36" d="M305.34,599.54c9.74,9.17,0.02,14.85-3.87,21.58C298.05,613.08,305.06,606.91,305.34,599.54z"/>
	<path class="st216" d="M825,567.67c-8.08-13.46-1-26.19,1.88-39.11c0.38-2.88,0.76-5.77,1.14-8.66c5.11,3.23,4.43,9.79,7.98,13.91
		c0.5,0.87,0.92,1.78,1.24,2.74c-1,0.15-2.01,0.28-3.02,0.39c-1.61,7.92-2.04,15.92-2.05,23.99c0,2.96,1.57,7.78-4.61,7.05
		l-1.31,0.02L825,567.67z"/>
	<path class="st151" d="M683.61,533.43c-0.5,7.57,16.89,9.63,5.81,21.76c-2.82,3.09,8.54,3.63,12.88,6.34
		c-6.81,5.03,0.94,13.57-4.55,18.92c-6.83-1.75-4.2-14.77-14.6-12.26c-1.09-1.29-2.18-2.59-3.28-3.88
		C680.12,553.89,670.86,542.32,683.61,533.43z"/>
	<path class="st50" d="M681.5,496.14c15.16-4.24,10.31,5.07,8.4,12.39C687.4,504.2,677.62,504.8,681.5,496.14z"/>
	<path class="st3" d="M742.35,530.92c-1.25-6.36,3.94-13.66-4.53-19.22c-3.36-2.21-3.34-9.73-7.64-0.86c-1.31,2.69-2.55-0.28-2.33-1
		c2.75-8.87-9.43-7.75-9.61-14.55c7.46-5.57,14.61-2.04,21.79,0.73c-1.88,7.9,6.61,8.72,9.23,13.55c2.47,1.35,4.35,3.26,5.57,5.81
		c0.68,1.22,1.24,2.5,1.77,3.79c6.36,10.48,7.17,24.68,20.52,30.44c7.34,2.47,12.21,7.59,15.49,14.41c1.81,4.69,5.15,8.1,9.17,10.94
		c-0.05,7.97,1.98,16.05-1.23,23.86c-2.47,6.01-5.09,11.67-13.08,6.4c-0.61-1.93-0.84-5.26-1.91-5.56c-5.54-1.55-3.54,5.5-7.24,6.84
		c-0.25-3.51-0.5-6.95-0.75-10.38c9.68-12.82-5.4-21.13-8.18-30.79c-2.14-7.46-9.2-17.43-14.11-26.27
		c-3.09-5.56-3.79,2.16-6.09,1.17C742.18,540.6,743.92,534.54,742.35,530.92z"/>
	<path class="st14" d="M824.18,665.45c-6.52-5.69-6.8-12.23-2.65-19.38c1.85-0.97,3.56-0.47,5.17,0.37c2.69-1.8,1.2-5.92,4.15-7.5
		c1.46-0.56,2.74-0.28,3.83,0.85c6.66,10.44,4.69,22.53,6.53,33.89c0.06,0.38,0.54,0.89,0.9,0.97c0.44,0.09,0.97-0.21,1.46-0.34
		c1.93,3.07,3.85,6.14,5.77,9.2c-6.03-1.67-12.18-1.8-15.8-9.2c-2.54-5.19-2.9,6.25-7.2,2.83
		C825.62,673.25,824.9,669.35,824.18,665.45z"/>
	<path class="st151" d="M416.35,535.76c0.69-15.4,16.23-25.51,13.42-41.82c1.89-0.14,5.05-1.02,5.46-0.3
		c2.27,3.91,6.09,11.48,3.5,12.34C423.73,510.93,426.01,527.38,416.35,535.76z"/>
	<path class="st89" d="M445.5,552.79c5.33,2.26,11.14-7.62,16.33,0.82c5.05,8.23-3.35,10.42-6.4,15c-1.97,2.95-4.17,5.73-6.27,8.59
		c-4.49,4.36-3.84,13.98-13.43,13.14c-3.45-3.57-5.78-7.43-3.26-12.55c1.33-3.58,2.66-7.16,3.99-10.74
		C436.9,560.67,439.96,555.94,445.5,552.79z"/>
	<path class="st187" d="M432.46,577.8c-0.08,4.47,6.84,6.55,4.05,11.93c-0.3,1.21-0.27,2.4,0.14,3.58c0.24,0.59,0.38,1.2,0.42,1.83
		c-3.19,0.95-6.18,6.89-9.65,0.71c-1.23-2.18-1.37-5.43-4.76-2.73c-2.64,2.11,0.51,4.61,0.24,6.97
		c-7.47,1.91-16.01,2.29-17.79,12.37c-5.82,0.47-4.7-4.02-5.24-7.32c4.84-2.49,9.76-4.85,14.5-7.51c4.25-2.38,4.11-5.21,0.27-8.02
		C418.8,582.99,423.47,577.14,432.46,577.8z"/>
	<path class="st238" d="M467.89,530.2c-4.92,8.59-10.73,15.94-21.94,15.81c-0.22-7.19,7.11-9.96,9.22-15.79
		C459.41,529.83,463.65,525.56,467.89,530.2z"/>
	<path class="st238" d="M445.5,552.79c-3.03,4.76-6.07,9.53-9.07,14.28c-3.86-8.05,3.94-12.2,6.08-18.23
		C443.51,550.15,444.51,551.47,445.5,552.79z"/>
	<path class="st235" d="M345.76,617.96c6.59-1.49,8.29-5.55,8.48-12.2c0.11-3.76,3.09-11.08,7.97-9.39
		c4.84,1.68,4.62,7.84,0.56,12.37c-2.2,2.45-1.04,4.68,1.29,6.47c2.06,5.72-2.2,9.07-4.88,13.02c-2.82,2.38-6.04,3.71-9.77,3.7
		c-2.93-0.41-5.52-1.63-7.9-3.35c-2.23-2.12-3.75-4.52-3-7.79C340.32,618.3,342.25,616.12,345.76,617.96z"/>
	<path class="st170" d="M399.87,605.15c1.75,2.43,3.49,4.87,5.24,7.31c-1.92,2.75-4.24,4.87-7.79,5.12
		c-8.04-1.41-15.2,9.66-23.72,1.67c-2.43-2.19-3.08-4.98-2.75-8.1c4.65-6.57,13.33-6.99,18.82-12.3
		C389.7,606.42,390.96,611.99,399.87,605.15z"/>
	<path class="st191" d="M345.76,617.96c-2.08,1.07-4.16,2.14-6.24,3.22c-5.77,0.54-10.33-1.1-12.56-6.96
		c-0.06-0.74-0.11-1.49-0.16-2.23c-2.23-4.4-0.34-8.71,0.27-13.05C339.84,598.85,347.14,604.14,345.76,617.96z"/>
	<path class="st26" d="M370.85,611.16c2.93,1.84,2.34,4.85,2.53,7.6c-4.71,11.84-9.07,14.07-15.58,7.97
		c2.09-3.84,4.17-7.68,6.26-11.52C365.33,612.19,367.92,611.4,370.85,611.16z"/>
	<path class="st184" d="M341.68,626.75c2.57,0.46,5.47,0.18,6.99,3.05c3.72,4.47,4,9.08,0.53,13.83c-2.07-0.17-4.13-0.35-6.2-0.52
		c-1.74,1.68-3.97,1.42-6.1,1.54c-2.23,0.5-4.3,0.37-5.97-1.43c-7.14-2.69-11.67,10.69-19.59,3.18c-0.23-7.47-7.34-13.97-3.09-22.06
		c0,0-0.14,0.1-0.14,0.1c8.15,1.51,6.64-6.3,9.52-9.88c1.01-0.96,2.01-1.93,3.02-2.9c2.05,0.1,4.1,0.21,6.15,0.31
		c0,0-0.16-0.25-0.16-0.25c4.82,11.76-3,19.56-8.06,27C324.76,633.49,329.84,623.93,341.68,626.75z"/>
	<path class="st61" d="M656.28,354.9c-0.32,1.1-0.63,2.21-0.95,3.31c0.55,7.64-2.35,15.18,0.48,23.04c1.27,3.55-0.22,8.4-6.23,8.05
		c-1.26-3.02-2.52-6.04-3.78-9.06c-2.09-10.08-5.99-20.21-5.66-30.21c0.24-7.08-10.54,1.38-8.79-10.2c1.47-9.77,5.3-5.12,8.38-6.56
		c1.09,3.1-0.96,7.29,3.22,9.33C646.87,347.27,648.58,354.33,656.28,354.9z"/>
	<path class="st226" d="M618.17,332.85c2.63-8.68-15.64-11.34-6.3-21.95c12.5,6.04,15.67,14.71,8.45,23.24
		c-0.18,0.21-0.96,0.14-1.28-0.07C618.65,333.82,618.46,333.27,618.17,332.85z"/>
	<path class="st2" d="M740.02,496.01c-7.36,2.58-14.48-1.91-21.79-0.73c4.04-19.6-9.76-29.44-21.97-40.15
		c-0.93-5.66-7.84-8.43-7.16-14.87c0.94-8.74,6.32-6.16,8.68-2.14c3.4,5.81,9.1,5.58,13.77,7.99c5.21,8.11,4.46,20.29,16.41,23.84
		c1.34,0.4,2.36,1.9,3.53,2.88C720.25,485.75,740.09,487.21,740.02,496.01z"/>
	<path class="st24" d="M649.58,389.3c3.27-1.42,4.82-6.4,4.02-7.18c-9.03-8.9-1.61-16.2,1.73-23.91c3.26,4.19,6.52,8.37,9.79,12.56
		c6.87,5.99,0.8,15.45,5.91,21.94c0.1,7.8,2.02,16.51-9.22,18.71C657.73,404.05,653.66,396.67,649.58,389.3z"/>
	<path class="st126" d="M661.81,411.42c8.07-5.57,5.97-14.05,6.23-21.85c10.54,2.51,5.57,11.54,7.48,17.67
		c0.72,5.48,2.65,8.72,8.91,5.41c2.28-1.21,5.76-3.89,5.7,2.09c-0.28,3.01-0.55,6.02-0.83,9.02c-0.29,4.46,9.03,10.8-2.56,13.04
		C675.88,430.84,667.47,422.48,661.81,411.42z"/>
	<path class="st69" d="M686.73,436.79c7.38-3.06-3.6-9.73,2.56-13.04c3.99,2.79,6.34,12.32,13.24,3.24
		c1.41,7.12,5.39,13.04,9.01,19.12c-6.47,0.65-15.23,8.23-16.19-6.61c-0.29-4.56-4.33-1.94-6.26,0.76
		C688.31,439.11,687.52,437.95,686.73,436.79z"/>
	<path class="st24" d="M323.79,671.22c10.58-2.87,20.68-6.92,31.57-11.42c-3.33,3.77-6.66,7.53-9.99,11.3
		c-2.09,4.52-1.06,12.34-10.08,9.54C328.79,680.75,322.78,680.28,323.79,671.22z"/>
	<path class="st195" d="M330.93,643.22c1.87-0.06,3.75-0.11,5.62-0.17c1.12,0.95,1.41,2.14,0.99,3.52c-3.78,3.3-6,7.52-8.23,11.99
		c-3.68,7.38-8,5.25-11.8-0.32C318.62,650.24,328.24,649.83,330.93,643.22z"/>
	<path class="st132" d="M335.29,680.64c3.36-3.18,6.72-6.36,10.08-9.54c1.81,5.11,5.09-0.07,9.03,1.85
		c-6.37,5.99-12.37,11.63-18.36,17.26C326.42,687.75,331.85,684.12,335.29,680.64z"/>
	<path class="st128" d="M337.54,646.57c-0.33-1.17-0.66-2.35-0.99-3.52c2.15,0.02,4.31,0.04,6.46,0.06
		c-0.43,1.12-0.87,2.23-1.3,3.35C340.32,646.5,338.93,646.54,337.54,646.57z"/>
	<path class="st95" d="M787.47,605.21c7.12,1.49,8.2-3.3,9.26-8.56c1.48-7.28,3.35-14.47,5.04-21.71c6.62-0.51-1.83,10.48,6.57,8.61
		c1.13-0.07,2.27-0.14,3.4-0.21c1.61,2.33,0.3,4.43-0.53,6.56c-2.25,10.47,6.95,22-2.91,31.77c-1.42,6.93-2.84,13.86-4.26,20.79
		c-0.4-0.02-0.81-0.04-1.21-0.06c0-10.16,0-20.32,0-30.49c-2.66,11.49-8.66,22.17-7.37,34.4
		C790.49,632.96,782.76,620.31,787.47,605.21z"/>
	<path class="st130" d="M808.77,586.74c0.99-1.13,1.98-2.26,2.97-3.39c0.11-0.5,0.17-1.02,0.35-1.5c0.18-0.47,0.49-0.89,0.74-1.34
		c2.93,9.2,8.78,14.94,17.1,20.44c4.23,2.8,2.84,14.34,3.68,21.96c0.62,5.6,0.73,11.25,1.07,16.88c-1.06,0.14-2.12,0.27-3.19,0.41
		c-7-4.34,0.08-11.38-3.08-16.47c1.38,2.66,0.94,5.12-0.78,7.45c-12.79-5.3-2.27-17.79-8.07-24.37c-0.04,4.11,2.99,9.16,0.34,14.26
		c-2.04,2.87-4.53,4.69-8.28,3.56C810.04,612.06,810.3,599.33,808.77,586.74z"/>
	<path class="st244" d="M827.57,567.99c8.35-9.03-2.11-22.1,6.65-31.04c1.04,2.52,2.08,5.04,3.12,7.54
		c-5.18,5.69-2.47,12.8-3.4,19.26C833.39,567.64,833.07,571.63,827.57,567.99z"/>
	<path class="st135" d="M808.77,586.74c6.54,11.85,1.19,24.93,3.83,37.18c6.7,7.12-1.76,15.38,1.71,22.74
		c-0.01,1.52,0.55,3.39-0.14,4.5c-2.63,4.26-2.44-0.47-2.79-1.22c-4.29-9.04-1.41-18.9-3.08-28.26
		C812.29,610.09,802.87,598.31,808.77,586.74z"/>
	<path class="st158" d="M817.96,621.09c0-6.03,0-12.06,0-20.75c7.76,10.7,5.46,21.6,9.28,30.62c3.02,6.04,3.15,12.07-0.08,18.08
		c-1.88-0.99-3.76-1.97-5.63-2.96c-0.16-3-0.33-6-0.49-9.01C817.28,632.27,816.13,626.97,817.96,621.09z"/>
	<path class="st14" d="M817.96,621.09c3.25,4.9,3.37,10.4,3.07,15.99c-7.44-0.45-5.27,5.84-6.72,9.59
		c-3.52-7.36-2.08-15.09-1.71-22.74C814.39,622.98,816.18,622.03,817.96,621.09z"/>
	<path class="st245" d="M761.5,474.06c2.17,4.18,4.34,8.37,6.52,12.55c-2.02,12.61,5.95,25.93-2.66,38.09
		c-6.74,2.38-8.58-1.76-9.52-7.12c0.36-14.45-2.42-29.06,2.28-43.27C759.24,474.22,760.37,474.14,761.5,474.06z"/>
	<path class="st28" d="M751.96,514.65c-0.9-1.7-1.8-3.41-2.7-5.1c7.98-13.07,1.3-27.67,4.36-41.2c0.54,0.51,1.49,0.99,1.72,1.7
		c0.46,1.44,0.54,3,0.77,4.51c2.24,11.63,0.66,23.36,0.97,35.04C757.15,512.71,756.62,515.99,751.96,514.65z"/>
	<path class="st202" d="M751.96,514.65c7.23-12.76,2.31-26.78,4.15-40.09c0.67-0.13,1.34-0.21,2.01-0.26
		c0.14,14.59,0.29,29.18,0.43,43.77c-2.09,1.66-4.11,1.62-6.06-0.24C752.31,516.77,752.14,515.71,751.96,514.65z"/>
	<path class="st226" d="M702.3,427.26c1.28-6.95,2.54-13.91,3.89-20.85c0.02-0.09,1.07-0.21,1.4,0.02c0.75,0.53,1.36,1.28,2.02,1.93
		C708.09,415.01,711.03,423.39,702.3,427.26z"/>
	<path class="st245" d="M783.92,517.64c-3.04,7.32-10.56,4.19-15.65,6.71c-2.22-10.85-3.15-21.69,0.37-32.48
		c4.96-4.15,1.72-9.79,2.66-14.67c4.56-4.91-0.18-10.58,1-17.28c8,9.92,11.37,19.73,6.43,30.29
		C773.62,501.11,786.51,507.74,783.92,517.64z"/>
	<path class="st120" d="M690.12,414.73c-6.76,1.92-15.92,14.9-18.15-3.95c1-9.13,6.54-17.9,2.16-27.45l0.21-0.19
		c4.73-6.4,10.27-11.58,18.7-12.41c5.36,4.14,2.68,9.44,1.77,14.26c-1.55,8.2-8.97,16.44,1.73,24.06c3.64,2.59,1.61,6.6-1.07,9.22
		C695.14,418.58,691.97,415.98,690.12,414.73z"/>
	<path class="st117" d="M693.04,370.73c-0.83,4.28,1.41,9.23-3.5,13.49c-3.91-2.42-1.24-7.23-4.02-11.25
		c-2.09,5.63-4.84,10.29-11.19,10.16c-1.1-10.13,0.46-19.74,5.58-28.65C681.24,362.37,691.7,362.87,693.04,370.73z"/>
	<path class="st117" d="M674.14,383.33c14.64,10.36,1.9,18.57-2.16,27.45c-2.72-6.81,3.39-15.25-3.93-21.2
		c-7.05-5.32-1.25-12.64-2.92-18.8C674.45,370.41,668.8,380.81,674.14,383.33z"/>
	<path class="st201" d="M656.28,354.9c-12.84,5-13.59-3.1-13.33-12.3c4.93,1.17,4.25-9.87,9.99-5.16
		C658.3,341.83,660.41,348.07,656.28,354.9z"/>
	<path class="st195" d="M768.64,491.87c-0.12,10.83-0.25,21.65-0.37,32.48c-0.15,2.37,0.84,5.34-3.01,5.79
		c-1.69-1.53-1.9-3.24-0.63-5.13c2.4-12.68-2.92-26.05,3.39-38.39C768.22,488.37,768.43,490.12,768.64,491.87z"/>
	<path class="st17" d="M436.66,593.31c-2.12-1.11-2.53-2.29-0.14-3.58c6.07-2.31,6.06-10.74,12.64-12.53
		C448.82,585.54,445.84,591.83,436.66,593.31z"/>
	<path class="st244" d="M349.2,643.63c-0.18-4.61-0.35-9.22-0.53-13.82c3.04-1.03,6.08-2.05,9.13-3.08
		c7.99,2.79,11.3-3.55,15.58-7.97c8.18,3.66,15.76-5.28,23.95-1.17c-11.5,4-16.95,9.48-4.72,19.27c-6.41,6-13.13,11.71-19.14,18.09
		c-4.02,4.27-7.53,6.75-12.71,2.2C356.91,652.63,353.06,648.13,349.2,643.63z"/>
	<path class="st238" d="M410.6,635.77c-3.21-1.99-5.88,0.24-8.74,1.09c2.07-10.61,11.94-10.61,19.14-15.39
		C422.27,630.84,412.67,630.27,410.6,635.77z"/>
	<path class="st238" d="M402.01,636.73c-6.3,7.42-12.59,14.84-18.89,22.26c-2.5-0.71-7.96-0.07-3.69-4.85
		c5.52-6.18,12.02-11.48,18.1-17.16C399.03,636.89,400.52,636.81,402.01,636.73z"/>
	<path class="st111" d="M764.63,525c0.21,1.71,0.42,3.42,0.63,5.13c0.05,12.19,8.12,4.36,13.1,4.02c-0.67,5.05-15.21,9.49,0.03,13
		c0.05,0.01,0.02,0.98-0.19,1.38c-0.22,0.43-0.71,0.72-1.09,1.07c-4.74,0.44-9.28,0.25-11.72-4.78c-4.35-8.97-8.61-17.98-12.9-26.98
		c2.02,0.08,4.04,0.16,6.06,0.24C758.6,522.12,760.79,524.28,764.63,525z"/>
	<path class="st36" d="M317.63,614.57c0.14,6.48,4.63,17.17-9.52,9.88C307.85,617.84,312.28,615.76,317.63,614.57z"/>
	<path class="st31" d="M827.16,649.04c0.03-6.03,0.05-12.05,0.08-18.08c0.57-3.32,1.14-6.64,1.71-9.96
		c0.42,0.03,0.85,0.05,1.27,0.08c0.42,6.38,0.84,12.76,1.26,19.13c-0.41,3.47,0.1,7.45-1.45,10.29
		C827.96,654.27,828.31,649.34,827.16,649.04z"/>
	<path class="st13" d="M341.68,626.75c-7.9,4.67-15.79,9.34-24.96,14.76c3.49-10.46,6.71-20.12,9.92-29.77
		c4.29,3.15,8.58,6.29,12.88,9.44C340.24,623.03,340.96,624.89,341.68,626.75z"/>
</g>
</svg>
