<?xml version="1.0" encoding="utf-8"?>
<!-- Generator: Adobe Illustrator 24.1.2, SVG Export Plug-In . SVG Version: 6.00 Build 0)  -->
<svg version="1.1" id="Layer_1" xmlns="http://www.w3.org/2000/svg" xmlns:xlink="http://www.w3.org/1999/xlink" x="0px" y="0px"
	 viewBox="0 0 1080 1080" style="enable-background:new 0 0 1080 1080;" xml:space="preserve">
<style type="text/css">
	.st0{fill:#0D0D0D;}
	.st1{fill:#0B0B0B;}
	.st2{fill:#151515;}
	.st3{fill:#F6F6F6;}
	.st4{fill:#C2C2C2;}
	.st5{fill:#161616;}
	.st6{fill:#BBBBBB;}
	.st7{fill:#141414;}
	.st8{fill:#AFAFAF;}
	.st9{fill:#B5B5B5;}
	.st10{fill:#1C1C1C;}
	.st11{fill:#363636;}
	.st12{fill:#C5C5C5;}
	.st13{fill:#1F1F1F;}
	.st14{fill:#ADADAD;}
	.st15{fill:#9D9D9D;}
	.st16{fill:#ABABAB;}
	.st17{fill:#464646;}
	.st18{fill:#393939;}
	.st19{fill:#8E8E8E;}
	.st20{fill:#6C6C6C;}
	.st21{fill:#808080;}
	.st22{fill:#D3D3D3;}
	.st23{fill:#0C0C0C;}
	.st24{fill:#606060;}
	.st25{fill:#565656;}
	.st26{fill:#E6E6E6;}
	.st27{fill:#6B6B6B;}
	.st28{fill:#EFEFEF;}
	.st29{fill:#9A9A9A;}
	.st30{fill:#AEAEAE;}
	.st31{fill:#5B5B5B;}
	.st32{fill:#989898;}
	.st33{fill:#131313;}
	.st34{fill:#797979;}
	.st35{fill:#353535;}
	.st36{fill:#1B1B1B;}
	.st37{fill:#232323;}
	.st38{fill:#2F2F2F;}
	.st39{fill:#5C5C5C;}
	.st40{fill:#373737;}
	.st41{fill:#9E9E9E;}
	.st42{fill:#B1B1B1;}
	.st43{fill:#9F9F9F;}
	.st44{fill:#A6A6A6;}
	.st45{fill:#CECECE;}
	.st46{fill:#A8A8A8;}
	.st47{fill:#9C9C9C;}
	.st48{fill:#DBDBDB;}
	.st49{fill:#A0A0A0;}
	.st50{fill:#B9B9B9;}
	.st51{fill:#3F3F3F;}
	.st52{fill:#2B2B2B;}
	.st53{fill:#878787;}
	.st54{fill:#949494;}
	.st55{fill:#292929;}
	.st56{fill:#E8E8E8;}
	.st57{fill:#909090;}
	.st58{fill:#C9C9C9;}
	.st59{fill:#2A2A2A;}
	.st60{fill:#262626;}
	.st61{fill:#1A1A1A;}
	.st62{fill:#333333;}
	.st63{fill:#AAAAAA;}
	.st64{fill:#787878;}
	.st65{fill:#434343;}
	.st66{fill:#181818;}
	.st67{fill:#8C8C8C;}
	.st68{fill:#727272;}
	.st69{fill:#676767;}
	.st70{fill:#8F8F8F;}
	.st71{fill:#9B9B9B;}
	.st72{fill:#484848;}
	.st73{fill:#3E3E3E;}
	.st74{fill:#0E0E0E;}
	.st75{fill:#737373;}
	.st76{fill:#A1A1A1;}
	.st77{fill:#A2A2A2;}
	.st78{fill:#818181;}
	.st79{fill:#3B3B3B;}
	.st80{fill:#717171;}
	.st81{fill:#898989;}
	.st82{fill:#959595;}
	.st83{fill:#E5E5E5;}
	.st84{fill:#555555;}
	.st85{fill:#FAFAFA;}
	.st86{fill:#F9F9F9;}
	.st87{fill:#4E4E4E;}
	.st88{fill:#8A8A8A;}
	.st89{fill:#DDDDDD;}
	.st90{fill:#414141;}
	.st91{fill:#EBEBEB;}
	.st92{fill:#CFCFCF;}
	.st93{fill:#EEEEEE;}
	.st94{fill:#242424;}
	.st95{fill:#C1C1C1;}
	.st96{fill:#E3E3E3;}
	.st97{fill:#525252;}
	.st98{fill:#E9E9E9;}
	.st99{fill:#202020;}
	.st100{fill:#FEFEFE;}
	.st101{fill:#DEDEDE;}
	.st102{fill:#FBFBFB;}
	.st103{fill:#BCBCBC;}
	.st104{fill:#BEBEBE;}
	.st105{fill:#101010;}
	.st106{fill:#B3B3B3;}
	.st107{fill:#171717;}
	.st108{fill:#2D2D2D;}
	.st109{fill:#C0C0C0;}
	.st110{fill:#B0B0B0;}
	.st111{fill:#212121;}
	.st112{fill:#323232;}
	.st113{fill:#CBCBCB;}
	.st114{fill:#E1E1E1;}
	.st115{fill:#121212;}
	.st116{fill:#8D8D8D;}
	.st117{fill:#B2B2B2;}
	.st118{fill:#1D1D1D;}
	.st119{fill:#A9A9A9;}
	.st120{fill:#7C7C7C;}
	.st121{fill:#BABABA;}
	.st122{fill:#595959;}
	.st123{fill:#1E1E1E;}
	.st124{fill:#929292;}
	.st125{fill:#2E2E2E;}
	.st126{fill:#282828;}
	.st127{fill:#848484;}
	.st128{fill:#4F4F4F;}
	.st129{fill:#A3A3A3;}
	.st130{fill:#919191;}
	.st131{fill:#7D7D7D;}
	.st132{fill:#979797;}
	.st133{fill:#767676;}
	.st134{fill:#090909;}
	.st135{fill:#F0F0F0;}
	.st136{fill:#4A4A4A;}
	.st137{fill:#585858;}
	.st138{fill:#A4A4A4;}
	.st139{fill:#828282;}
	.st140{fill:#B4B4B4;}
	.st141{fill:#E7E7E7;}
	.st142{fill:#C3C3C3;}
	.st143{fill:#494949;}
	.st144{fill:#D9D9D9;}
	.st145{fill:#313131;}
	.st146{fill:#636363;}
	.st147{fill:#696969;}
	.st148{fill:#838383;}
	.st149{fill:#383838;}
	.st150{fill:#505050;}
	.st151{fill:#999999;}
	.st152{fill:#ACACAC;}
	.st153{fill:#454545;}
	.st154{fill:#616161;}
	.st155{fill:#252525;}
	.st156{fill:#6A6A6A;}
	.st157{fill:#747474;}
	.st158{fill:#EAEAEA;}
	.st159{fill:#BDBDBD;}
	.st160{fill:#D0D0D0;}
	.st161{fill:#D5D5D5;}
	.st162{fill:#686868;}
	.st163{fill:#646464;}
	.st164{fill:#2C2C2C;}
	.st165{fill:#3C3C3C;}
	.st166{fill:#545454;}
	.st167{fill:#F1F1F1;}
	.st168{fill:#FDFDFD;}
	.st169{fill:#FCFCFC;}
	.st170{fill:#A7A7A7;}
	.st171{fill:#272727;}
	.st172{fill:#B8B8B8;}
	.st173{fill:#0F0F0F;}
	.st174{fill:#191919;}
	.st175{fill:#707070;}
	.st176{fill:#111111;}
	.st177{fill:#F3F3F3;}
	.st178{fill:#4C4C4C;}
	.st179{fill:#4D4D4D;}
	.st180{fill:#222222;}
	.st181{fill:#626262;}
	.st182{fill:#777777;}
	.st183{fill:#A5A5A5;}
	.st184{fill:#868686;}
	.st185{fill:#C6C6C6;}
	.st186{fill:#EDEDED;}
	.st187{fill:#757575;}
	.st188{fill:#CACACA;}
	.st189{fill:#5E5E5E;}
	.st190{fill:#E0E0E0;}
	.st191{fill:#575757;}
	.st192{fill:#7F7F7F;}
	.st193{fill:#B6B6B6;}
	.st194{fill:#F8F8F8;}
	.st195{fill:#D1D1D1;}
	.st196{fill:#D8D8D8;}
	.st197{fill:#C4C4C4;}
	.st198{fill:#F4F4F4;}
	.st199{fill:#6E6E6E;}
	.st200{fill:#BFBFBF;}
	.st201{fill:#5D5D5D;}
	.st202{fill:#7E7E7E;}
	.st203{fill:#4B4B4B;}
	.st204{fill:#888888;}
	.st205{fill:#C8C8C8;}
	.st206{fill:#303030;}
	.st207{fill:#939393;}
	.st208{fill:#C7C7C7;}
	.st209{fill:#F7F7F7;}
	.st210{fill:#070707;}
	.st211{fill:#5A5A5A;}
	.st212{fill:#515151;}
	.st213{fill:#858585;}
	.st214{fill:#7A7A7A;}
	.st215{fill:#535353;}
	.st216{fill:#E2E2E2;}
	.st217{fill:#666666;}
	.st218{fill:#DFDFDF;}
	.st219{fill:#060606;}
	.st220{fill:#DCDCDC;}
	.st221{fill:#DADADA;}
	.st222{fill:#F2F2F2;}
	.st223{fill:#3D3D3D;}
	.st224{fill:#D4D4D4;}
	.st225{fill:#424242;}
	.st226{fill:#3A3A3A;}
	.st227{fill:#404040;}
	.st228{fill:#7B7B7B;}
	.st229{fill:#969696;}
	.st230{fill:#6F6F6F;}
	.st231{fill:#D2D2D2;}
	.st232{fill:#D6D6D6;}
	.st233{fill:#D7D7D7;}
	.st234{fill:#F5F5F5;}
	.st235{fill:#5F5F5F;}
	.st236{fill:#080808;}
	.st237{fill:#8B8B8B;}
	.st238{fill:#ECECEC;}
	.st239{fill:#343434;}
	.st240{fill:#CCCCCC;}
	.st241{fill:#0A0A0A;}
	.st242{fill:#B7B7B7;}
	.st243{fill:#040404;}
	.st244{fill:#E4E4E4;}
	.st245{fill:#CDCDCD;}
	.st246{fill:#6D6D6D;}
	.st247{fill:#444444;}
</style>
<g>
	<path class="st219" d="M361.16,490.68c12.9-10.36,24.28-22.9,39.55-29.87c8.88-4.05,12.99-11.7,17.03-19.18
		c8.1-14.96,15.76-30.24,21.1-46.45c1.5-4.55,4.51-6.81,7.93-9.15c22.53-15.43,45.44-30.37,66.18-48.2
		c7.72-6.64,14.89-4.71,21.74-0.01c10.15,6.97,21.21,11.71,32.7,15.78c13.24,4.69,22.31,16.55,36.16,20.63
		c8.37,2.47,18.49,2.19,23.98,11.18c-3.17,5.49-8.26,6.28-13.85,5.79c1.53,0.47-2.18-0.28-0.72-0.72c0.03-0.01-0.12-0.63-0.19-0.96
		c-1.71,1.02-1.03,3.51-2.71,4.5c-1.77,1.04-3.94,2.78-3.73-1.44c3.09-8.07,4.13-14.13-8.25-13.99c-4.55,0.05-9.16-4.44-13.75-6.86
		c-8.39-2.56-13.76-10.93-22.95-11.93c-2.75-1.76-4.74-5.02-8.71-4.38c-4.73,0.23-6.48-4.45-10.06-6.11
		c-3.74-2.35-7.47-4.7-11.21-7.04c-8.76-0.61-10.03,4.36-8.51,11.42c-0.35,3.04-0.71,6.09-1.06,9.13c-0.6,0.83-1.43,1.18-2.42,1.16
		c-1.99,6.96-0.61,14.12-1.44,21.12c-0.51,4.29-0.38,9.64-7.43,8.25c-2.99-0.27-3.86,1.98-4.51,4.11
		c-3.69,12.12-10.36,21.8-21.95,27.62c-3.27,1.64-4.98,4.5-6.07,7.89c-3.23,10.02-6.69,19.98-9.78,30.05
		c-1.59,5.19,1.12,9.48,3.64,13.84c7.25,12.57,12.65,25.74,11.74,40.69c0.74,3.59,2.1,7.86-2.26,9.61c-4.5,1.8-4.76-3.11-6.46-5.57
		c-2.78-3.38-2.48-7.77-3.78-11.65c-0.6-1.88-0.45-3.85-0.64-5.78c-0.52-2.89-1.3-5.73-1.79-8.64c-0.63-2.55-0.17-5.28-2.4-9.93
		c-4.57,12.27-9.47,22.58-9.79,34.43c0.2,5.76-0.44,11.58,1.54,17.19c1.41,8.68,1.38,17.22-3.47,24.97
		c-1.57,2.5-3.88,5.35-7.16,4.01c-3.16-1.29-3.04-4.86-2.55-7.82c0.79-4.76,3.62-9.07,3.23-14.11c0.18-1.77,0.41-3.54,0.09-5.33
		c0.88-3.86,4.98-7.99,1.02-11.55c-2.82-2.53-6.21,1.88-9.28,1.8c-15.65-0.36-17.09,10.89-18.12,22.01
		c-1.39,14.96-6.81,28.7-11.76,42.62c-5.74-0.18-4.01-4.44-3.65-7.38c0.54-4.47,1.05-9.05,3.11-13.22
		c-4.09,8.55-13.47,14.01-13.05,25.51c0.15,4.13-6.68,5.64-9.56,9.16c-3.25,4.34-8.86,6.8-10.15,12.72
		c-4.27,8.39-12.19,12.63-19.7,17.34c-1.67-0.48-3.03-1.16-2.01-3.28c8.81-14.96,22.38-26.2,31.78-40.71
		c-1.69-4.22-3.03-8.56-4.57-12.83c-2.49-9.37,5.78-20.54,15.75-21.37c4.72,0.49,7.16-3.18,10.61-6.04
		c-4.61,1.63-8.08,4.81-12.64,5.26c-10.18-4.77-1-6.44,1.47-9.19c2.95-1.48,4.52-4.76,5.95-5.34c-1.19,0.96-3.28,3.68-6.2,5.27
		c-0.65,0.38-1.24,0.9-1.92,1.16c-3.26,1.28-5.99,8.25-9.89,2.35c-3.14-4.76,3.17-5.53,5.6-7.79c5.17-4.81,10.29-9.69,16.2-13.67
		c0.64-0.43,3.66-1.76,1.48-3.93c-0.5-0.5-1.32-1.3-1.75-1.27c-3.56,0.24-0.62,2.48-0.96,3.74c-0.97,3.61-3.82,4.07-6.71,4.67
		c-2.77-3.47-4.83-1.12-7.6,0.42c-4.9,2.72-8.09,7.9-13.84,9.26c-3.92-1.53-1.99-3.89-1.14-6.26c-2.58,3.05-3.92,7.32-8.3,8.87
		c2.15-0.43,3.88,1.01,5.6,0.32c7.09-2.04,11.25-8.42,17.46-11.75c2.22-1.19,3.84-3.78,6.83-1.83c1.65,1.81,0.95,3.54-0.52,4.83
		c-7.37,6.51-14.75,12.99-19.19,22.05c-6.86,5.12-12.86,11.45-21.1,14.59c-3.79,1.45-7.68,4-9.58-2.27
		c5.22-4.57,8.5-10.93,13.77-15.39c-6.49-2.97-8.28,3.84-12.15,6.49c-3.03,2.06-7.08,1.6-9.94,4.09c-2.4,1.39-4.83,2.41-7.49,0.63
		c-1.67-4.62-2.04-9.43-2.01-14.3c1.83-8.11,9.26-10.3,15.05-14.22c10.55-3.95,20.72-8.18,23.94-20.78
		c0.96-3.76,5.03-5.35,7.64-7.98c1.04-1.12,2.37-2.03,3.18-3.28c9.03-13.95,19.94-24.17,35.55-32.47
		c12.15-6.46,24.2-20.45,25.85-37.81c0.37-2.96,0.23-6.03,1.24-8.86c1.08-3.05-1.08-1.51-2.11-1.66c-0.96-0.34-1.71-0.91-2.31-1.72
		c-0.87-1.33-1.42-2.74-1.49-4.33c3.36-7.4,9.91-8.38,16.93-8.39c4.99,4.26,7.37-4.08,11.82-2.46c1.99,2.48,1.72,5.88-0.22,7.19
		c-8.9,6-8.9,16.18-12.41,24.69c0.51,7.3,3.24,13.66,7.97,19.19c0.33,4.4-5.68,6.06-4.45,10.8c-2.15-5.13,6.03-6.42,4.1-11.5
		c-0.49-6.24-0.4-12.57-2.87-18.52c0.97-4.41,3.78-8.58-0.07-13.3c-1.41-1.73,1.27-4,2.88-5.49c3.33-3.08,5.95-6.62,7.72-10.79
		c1.66-1.9,3.42-3.73,4.41-6.13c2.93-5.6,5.29-11.67,14.15-14.22c-10.4,0.14-16.43,3.18-18.47,11.76c-4.34,3.7-7.11,9.88-14.29,9.13
		c-6.03-4.07-1.86-7.37,0.78-10.8c6.39-10.77,15.67-17.96,25.33-21.13c-8.13,5.4-21.99,5.93-28.48,18.22
		c-4.99,8.17-13.04,14.18-16.56,23.4c-1.19,2.25-2.02,4.67-3.14,6.95c-5.31,6.63-5.83,15.56-10.75,22.37
		c-2.06,2.29-4.74,3.91-6.75,6.27c-6.27,6.97-16.07,8.79-22.52,15.49c-1.9,1.75-3.77,3.54-5.68,5.28
		c-7.71,3.64-13.5,10.64-22.12,12.71C362.75,492.15,361.85,491.58,361.16,490.68z"/>
	<path class="st198" d="M346.34,541.72c-3.87,5.23-12.77,5.26-13.83,13.39c-1.55,1.41-2.45,3.49-4.55,4.32
		c-11.96,5.08-17.78,17.03-27.48,24.62c-6.02,8.69-9.72,18.93-17.58,26.4c-1.01,0.46-2.06,0.66-3.17,0.58
		c-4.37-1.52-1.86-4.14-1.04-6.49c0.96-5.6,4.06-10.13,7.52-14.39c2.53-3.11-1.01-2.18-1.82-3.06c-4.76-1.29,11-9.23-2.57-7.9
		c-1.58,0.15-1.68-3.14-0.59-3.36c7.72-1.58,4.3-11.73,10.99-13.88c6.07-3.5,6.22-10.88,10.28-15.69c0.04-0.83,0.09-1.67,0.13-2.5
		c5.65-5.45,8.65-13.44,16.46-16.85c3.48-1.52,6.71-3.57,10.78-2.72c4.39,0.91,8.17-1.15,9.33-4.82
		c4.67-14.82,17.65-17.96,29.91-21.29c8.45-2.29,14.68-5.66,16.96-14.47c2.01-3.3,4.75-7.42,8.17-7.36
		c15.23,0.27,21.29-12.36,30.8-20.29c5.13-4.28,4.21-11.29,8.65-15.59c2.13-1.9,4.59-3.05,7.46-3.27c1.14,0.11,2.09,0.61,2.87,1.44
		c0.7,9.24-2.04,16.55-10.83,21.11c-2.1,1.09-3.78,3.84-4.7,6.2c-4.74,12.21-14.27,17.91-26.49,20.06c-3.35,0.59-7.1,0.32-8.18,4.55
		c-2.55,9.93-8.61,17.55-15.71,24.53c-4.05-1.65-6.73,0.92-8.32,3.71c-4.17,7.32-11.04,10.74-18.18,14
		c-3.44-2.81-5.13,0.4-7.24,2.13c2.17-1.13,3.55-4.6,6.87-2.3C353.13,537.48,349.69,539.57,346.34,541.72z"/>
	<path class="st106" d="M682.36,553c2.07-13.71,5.42-27.46-1.02-40.96c-1.14-2.39-2.21-4.79-1.39-7.54
		c0.63-0.95,1.38-1.79,2.08-2.68c7.54-9.56,7.53-9.57,15.31,1.19c1.85,4.9,0.96,9.45-2.26,13.36c-2.41,2.92-4.2,5.91-4.13,9.78
		c-0.56,2.17-1.34,4.29-2.19,6.56c3.07-1.4,6.24-2.57,3.13-6.71c0.06-8.8,5.67-6.82,10.89-5.67c4.55,2.26,10.27,3.03,11.93,9.08
		c-3.86,4.44-4.82,9.01-4.2,15.34c3.14,32.55,7.64,65.02,7.19,97.84c-0.07,5.33,0.64,11.06-6.73,12.45
		c-4.92-1.53-10.88-1.19-13.18-7.38c-0.67-2-1.35-4-2.02-6.01c-1.26-1.29-1.06-2.94-1.14-4.52c0.51-7.09-0.7-14.31,1.76-19.58
		c0.07,2.67-2.28,6.52-2.59,10.78c-6.99-1.69-6.94-8.73-10.12-13.31c5.93-7.18,8.19-15.52,7.7-24.69c-1.12-0.99-2.22-1.99-3.13-3.19
		c-0.41-0.96-0.63-1.96-0.66-3.01c0.55-3.11-0.09-5.98,4.68-7.59c6.71-2.26,7.7-13.84,2.55-19.61c-0.63-0.35-1.1-0.98-1.71-1.26
		c-3.06-1.4-0.76,0.94-0.71,1.22c0.52,2.86,0.1,5.72,0.2,8.58c-0.97,4.19-0.19,9.29-5.71,11.15c-1.85-0.13-3.14-1.11-4.02-2.69
		C679.85,567.05,686.26,559.9,682.36,553z"/>
	<path class="st95" d="M450.87,541.62c1.98,8.46-4.46,15.82-3.45,24.72c10.31-8.14,8.08-18.98,7.8-29.3
		c-1.29-4.85-0.3-9.04,3.68-12.28c1.46-1.19,4.2-2.95,4.96-1.71c4.34,7.07,6.86,1.74,10.03-0.94c0.74-0.63,2.16,0.1,3.08,0.85
		c-0.44,5.75,6.62,9,5.06,15.12c-0.83,1.21-1.61,2.66-3.25,0.87c5.58,5.95-0.14,8.84-3.34,12.43c-4.17,4.66-7.15,9.52-2.49,15.6
		c3.3,4.31,0.22,7.03-2.64,9.48c-4.85,4.16-9.88,8.11-15.05,11.87c-1.24,0.87,1.55,1.33,0.37,0.36c-0.31-0.25,0.03-0.39,0.61-0.89
		c2.46-2.11,5.53-3.99,7.87-1.01c2.92,3.72-2.33,5.58-3.14,8.6c-2.01,4.21-5.89,6.8-8.91,10.12c-4.68,5.13-9.04,10.23-7.91,17.88
		c-6.87,6.79-10.18,3.61-11.74-1.91c0.76,8.02-1.34,18.21-1.46,28.5c-0.03,2.64-0.99,5.3-4.22,6.05c-3.87-2.33-0.02-7.04-2.97-9.66
		c1.87-17.44,6.31-34.55,6.75-52.17c0.09-3.56,4.67-5.99,2.52-10.21c-0.18-0.36,1.16-2.02,2.04-2.3c8.35-2.65,10.38-7.44,7.24-17.45
		c-0.96-0.84-1.22-1.86-0.77-3.06c0.41-5.84,4.2-10.78,4.32-16.81C445.89,542.38,448.21,540.79,450.87,541.62z"/>
	<path class="st123" d="M385.23,580.16c1.34,4.51,3.05,8.98,1.59,13.81c-9.97-1.06-19.34,0.68-24.19,10.23
		c-11.34,22.35-29.57,37.35-49.94,50.87c-9.31,6.18-18.97,2.98-28.33,4.81c0.25-5.47,5.33-4.18,8.23-5.94
		c5.45-1.72,10.65-3.68,10.89-10.7c1.58-4.82-1.39-10.58,3.04-14.81c2.81-1.99,5.81-2.86,9.16-1.49c1.13,0.79,1.93,1.73,1.24,3.23
		c2.11-7.44,16.39-6.57,12.39-18.17c-0.15-4.72,1.46-8.22,6.44-9.42c1.67-1.65,0.95,5.64,3.6,0.92c1.25-2.22,3.51-3.47,5.95-4.26
		c5.17-2.91,11.2-4.25,15.58-8.59c3.95-4.96,11.14-4.92,15.14-9.84C379,579.23,382.01,578.08,385.23,580.16z"/>
	<path class="st113" d="M567.56,647.7c-2.19-3.04-4.38-6.07-6.57-9.11c-13.86-17.6-1.9-32.9,4.34-48.7c-0.01-1.5-0.03-3-0.04-4.49
		c3.99-7.66,3.99-7.59,10.48-8.06c0.64-0.05,0.25-1.88,0.82-2.82c4.18-6.8,8.67-7.44,15.03-2.09c2.98,10.24-7.69,8.44-12.27,13.44
		c6.74-1.93,12.37-6.42,18.52-1.56c0.59,0.89,0.91,1.88,0.99,2.94c-0.75,4.84-4.85,7.88-6.53,12.22c-3.53,4.67-9.6,8.15-7.23,15.57
		c-0.1,3.33-0.8,6.55-1.48,9.79c-3.86,8.33-3.79,18.51-11.67,24.96C569.99,650.09,568.33,649.81,567.56,647.7z"/>
	<path class="st74" d="M711.96,653.76c6.46-7.41,2.15-15.52,1.84-23.51c-0.53-13.64-0.31-27.32-0.02-40.97
		c0.16-7.43-1.95-13.74-7.2-18.88c-1.11-1.09-2.63-1.74-1.17-3.27c7.44-7.75,2.81-16.59,1.36-24.51c-1.34-7.31,0.39-10.7,7.09-12.36
		c3.82,10.3-1.02,21.29,2.49,31.62c6.11,37.2,4.83,74.49,3.02,111.96c-0.41,8.4,1.37,19.51,10.33,26.21
		c3.07,2.3,6.64,5.31,4.74,10.33c-7.14-3.66-1.69,3.72-4.87,4.7c-14.87-16.76-18.69-38.2-23.34-59.3
		C707.63,653.69,710.21,654.88,711.96,653.76z"/>
	<path class="st33" d="M723.06,541.92c-3.69-1.34-0.53-6.28-4.04-7.71c-18.05-29.86-32.04-62.23-55.25-88.88l-0.02-0.03
		c-4.3-7.08-9.59-13.36-15.54-19.1c-2.32-10.84-8.46-19.38-16.25-26.93c-0.53-3.73,0.99-5.31,4.75-4.5
		c3.82,4.16,8.43,7.83,11.33,12.55c20.31,33.04,47.74,61.47,63.38,97.51c2.39,5.5,7.31,7.26,11.8,9.89
		c5.09,2.97,11.3,4.81,12.36,11.96C734.04,533.92,727.89,537.38,723.06,541.92z"/>
	<path class="st105" d="M387.86,484.83c-0.9,9.1-6.11,13.91-15,15.06c-8.9,1.15-16.06,6.44-24.01,9.87
		c-6.85,2.96-2.82,12.59-10.03,14.33c-3.18,0.77-4.07,10.96-10.64,1.84c-1.89-2.62-12.18,4.04-15.16,9.36
		c-2.68,4.79-6.51,6.19-10.38,8.45c-6.34-1.98-9.1,2.39-11.16,6.87c-8.81,19.24-22.87,34.59-36.57,50.23
		c-2.44,0.48-3.44-0.44-2.82-2.92c5.99-14.35,19.76-22.79,27.31-35.96c1.31-2.29,3.45-4.16,4.48-6.54
		c4.28-9.89,10.9-16.13,20.73-21.93c20.3-11.98,39.48-26.21,56.56-42.83c0.9,0.06,1.79,0.12,2.69,0.19
		c7.36,1.88,9.68-8.47,16.89-6.97c1.2,2.03,1.12,3.88-0.62,5.55c1.64-1.06,1.68-3.18,2.77-4.62c0.72-0.79,1.6-1.31,2.63-1.6
		C386.64,483.26,387.43,483.79,387.86,484.83z"/>
	<path class="st12" d="M803.64,602.7c0.05,8.83,6.65,12.19,13,15.99c3.78,2.26,9.01,1.12,11.84,5.33c0.14,0.47,0.27,0.95,0.41,1.42
		c-2.66,0.71-5.88-4.25-7.61-0.2c-1.22,2.86,2.04,3.32,4.89,3.9c3.84,0.79,4.48,5.28,6.56,8.81c-6.11-5.54-12.68,9.99-18.22-1.12
		c-9.03-4.01-14.95-12.94-24.78-15.7c-6.93-1.84-4.6-9.49-8.36-13.32c-1.71-1-2.76-2.68-3.22-4.39c-1.44-5.45-3.8-10.41-7.02-15.02
		c0.07-5.02,2.35-7.96,7.6-8.12C789.42,585.09,799.31,590.81,803.64,602.7z"/>
	<path class="st14" d="M549.76,553.03c12.06,15.55,11.71,18.84-3.9,35.47c8.47-1.06,7.24,4.03,5.22,8.73
		c-2.2,5.11-5.08,10.11-8.02,14.66c-7.56,11.7-2.56,25.13-6.72,37.08c-3.98-4.8,0.2-10.9-2.53-15.89c-0.84-0.87-1.67-1.74-2.51-2.61
		c-2.21-12.24,2.82-23.51,4.78-35.18c1.78-10.62,2.1-21.04-3.16-30.92c-2.48-6.75-3.11-14.21-7.75-20.28
		c6.69,2.5,8.84,8.52,12.19,17.05c0.19-9.74,8-2.86,9.63-8.17C547.95,551.46,548.87,551.48,549.76,553.03z"/>
	<path class="st107" d="M590.44,573.58c-3.41-3.43-5.67-5.03-10.55-0.34c-4.44,4.26-10.01,7.72-14.6,12.15
		c0.84-4.8,1.67-9.6,2.51-14.39c2.17-5.2-0.45-11.65,4.24-16.2c0.65-3.54,2.89-6.62,1.17-10.77c-2.1-5.05-4.48,12.08-5.61-0.29
		c-0.34-3.78,0.1-6.3,3.53-9.14c1.62-1.34-2.02-5.77-6-6.2c-6.37-0.68-11.22-4.08-15.77-8.73c21.74,4.09,21.37,4.27,30.57,23.64
		c4.49,9.45,9.66,18.46,16.58,26.83c11.38,13.79,20.56,29.39,30.67,44.23c-0.68,0.8-1.54,1.26-2.61,1.33
		c-3.24-0.36-5.38-2.53-7.59-4.58c-2.79-2.57-4.6-5.96-7.25-8.64c-1.82-1.49-4.18-2.09-5.97-3.64c-0.62-0.8-1.08-1.66-1.44-2.6
		c-0.89-3.47-2.77-6.5-4.18-9.74c0.03-0.71-0.13-1.37-0.47-1.98C592.38,582.78,592.63,577.38,590.44,573.58z"/>
	<path class="st170" d="M626.92,527.28c0.07,7.74,5.78,13.56,7.12,20.87l0.07-0.06c-6.81,0.59-11.34-1.99-14.29-8.51
		c-3.94-8.72-8.62-17.12-13.17-25.56c-7.68-14.23-1.8-27.65,2.17-41.22c2.88-1.66,3.49,1.17,4.87,2.47
		c11.81,5.93,5.6,17.61,8.28,26.44c0.94,3.11,0.23,6.71,0.27,10.09c-0.37,0.02-1,0.18-1.06,0.05c-0.44-0.9-1.61-0.51-1.55-0.43
		C623.38,516.12,622.92,522.75,626.92,527.28z"/>
	<path class="st33" d="M764.05,594.41c0.93,22.77,13.38,41.8,19.59,63.32c-2.18-2.93-4.36-5.85-6.77-9.1
		c-3.31,4.66-0.3,9.76-2.24,13.73c-3-7.09,2.68-15.09-1.52-22.94c-4.46,2.41,0.78,7.03-3.52,9c-0.38-4.55-0.75-8.97-1.2-14.39
		c-1.19,2.46-1.91,3.95-4.19,8.66c0.53-6.72,0.23-10.26,1.2-13.42c1.15-3.69-0.33-5.12-3.12-6.9c-6.83-4.36-6.73-4.51-5.2-13.81
		c-1.89-4.13,0.42-10.06-5.4-12.48c-1.02-0.49-2.53-0.86-2.83-1.71c-3.9-11.05-9.91-21.34-12.11-33.02c2.67-1.62,5.33-0.89,7.99,0
		c6.08,1.9,6.56,8.47,10.3,12.33C759.95,579.75,762.99,586.65,764.05,594.41z"/>
	<path class="st159" d="M383.73,607.45c1.02-3.24,4.46-3.98,6.38-6.21c2.17-2.5,12.32-3.01,2.71-9.2c-0.38-0.24,0.25-3.03,1.1-4.05
		c6.22-7.51,12.62-14.86,21.27-24.96c-2.89,10.2-4.85,17.24-6.88,24.25c-0.75,2.58-1.74,5.13,1.74,6.54
		c-0.14,4.67,1.19,9.59-2.35,13.68c-4.05,9.57-5.92,20.13-12.93,28.36c-0.97,0.48-1.98,0.77-3.04,0.93
		c-11.46-1.27-11.75-1.63-5.14-10.49c2.56-3.42,4.73-6.26,0.33-9.48C383.58,614.37,384.94,610.51,383.73,607.45z"/>
	<path class="st9" d="M588.26,669.14c-0.68-0.68-1.36-1.37-2.04-2.05c-1.24-1.52-2.13-3.27-3.17-4.92c-0.07-1.57,0.57-2.9,1.39-4.18
		c1.68-2.5,3.04-5.3,5.94-6.73c5.67-2.16,5.49-8.5,8.8-12.35c3.52-4.09,4.9-10.27,11.32-11.51c6.06,2.93,2.9,6.5,0.87,10.2
		c-0.71,1.3-4.08,1.86-1.91,3.97c1.39,1.35,3.77,1.62,5.53-0.28c4.95,0.89,6.27-8.38,12.33-4.4c1.71,3.96-0.79,6.98-2.27,10.22
		c-1.13,1.51-3.42,3.15,0.55,4.02c0.44,0.91,0.63,1.85,0.6,2.84c-6.16,8.51-13.14,15.8-24.38,17.2c-1.11,0.14-0.96,2.56-2.31,3.34
		C594.82,674.7,591.82,671.34,588.26,669.14z"/>
	<path class="st172" d="M453.48,682.89c-3.5-11.2,8.54-9.22,12.67-14.96c-5.94-0.73-10.54,1.83-14.52,4.71
		c-3.39,2.45-3.22,16.07-10.45,2.56c-1.22,1.85-2.44,3.69-3.66,5.54c-6.1-0.55-3.47-4.68-2.52-7.26c2.2-5.91,5.37-11.37,10.13-15.71
		c0.94-0.57,1.97-0.86,3.07-0.85c3.31,1.32,6.76,2.24,10.17,3.28c3.75,1.19,7.64,0.51,11.46,0.79c0.99-0.03,1.97,0.04,2.95,0.15
		c4.52,1.33,8.54-3.31,13.13-1.13c1.29,1.56-1.06,7.97,4.8,3.49c1.72-1.32,3.88-2.15,6.25-1.72c1.54,0.81,2.48,2.08,2.93,3.74
		c0.01,1.16-0.42,2.13-1.27,2.92c-11.09,5.27-21.86,11.14-32.3,17.62c-3.17,1.97-6.45,3.88-10.47,2.52
		C453.8,687.2,452.45,685.54,453.48,682.89z"/>
	<path class="st46" d="M316.52,627.85c-3.01,0.75-6.01,1.5-9.02,2.25c-3.71-2.07-2.37-8.6-7.95-9.03c-2.66,0.89-5.31,1.77-7.97,2.66
		c-5.6-7.95,1.29-12.35,5.08-17.53c5.77-7.89,17-10.45,20.39-20.72c0.66-0.88,1.52-1.51,2.55-1.91c6.26,0.94,11.66-8.45,18.45-1.59
		c0.34,3.62-0.25,7.22-0.2,10.85c-1.32,3.43-3.5,5.34-7.4,4.14c-1.76-0.79-1.78-4.43-2.62-3.89c-2.79,1.82-4.15,4.82-2.89,8.38
		c1.6,6.93-4.17,11.56-5.42,17.6c-0.33,2.08-0.58,4.17-1.18,6.2C317.95,626.29,317.33,627.14,316.52,627.85z"/>
	<path class="st129" d="M606.33,392.58c3.23,1.17,2.06-3.02,4.24-3.5c0.97-0.21,1.61-1.92,2.4-2.94c0.24,1.38,0.48,2.76,0.72,4.14
		c7.98,2.44,5.22,10.69,8.47,15.68c-1.73,8.54-0.58,17.56-4.26,25.78c-1.38,5.04-3.95,5.8-7.75,2.15
		c-4.41-0.96-4.44-10.76-12.94-5.07c2.45-7.04,8.98-10.19,10.43-17.66c-3.38,2.25-6.25,4.16-9.14,6.09
		C591.63,405.72,604.49,400.97,606.33,392.58z"/>
	<path class="st220" d="M323.05,661.78c1.25-8.27,13.19-17.26,23.28-17.53c3.5,6.14-2.32,10.9-2.45,16.51
		c-6.22,10.22-12.38,20.33-23.61,26.27c-3.02,1.59-6.69,1.2-5.84-0.45c3.96-7.68-5.65-19.05,6.64-24.09
		c1.66,1.3,3.41,2.09,5.47,0.88C325.38,662.83,323.67,663.49,323.05,661.78z"/>
	<path class="st19" d="M383.73,607.45c4.58,3.13,9.08,8.55,10.43,12.08c2.32,6.07-7.83,8.43-10.85,14.2
		c2.53,1.87,5.97-1.83,8.07,1.37c4.44,10.89,2.01,14.85-13.14,21.43c-1.59,0.18-3.17,0.36-4.76,0.55c-0.73-0.81-1.12-1.76-1.18-2.84
		c0.65-3.68,2.63-7.02,2.89-10.85c-7.71,5.95-7.71,5.95-9.37-4.49c2.49-7.07,9.37-11.93,10.04-19.92
		C375.29,612.94,381.13,611.3,383.73,607.45z"/>
	<path class="st144" d="M663.76,445.33c19.08,12.08,26.32,32.85,36.32,51.21c6.68,12.27,20.06,21.46,18.94,37.67
		c-4.89,8.84-1.46,18.48-2.66,27.68c-5.45-10.17,0.54-21.25-2.49-31.62c-2.84-3.57-6.64-5.7-10.84-7.22
		c-4.26-7.01-1.54-16.6-8.35-22.67c-7.51-11.08-11.61-24.06-19.57-34.89C672.83,457.92,664.04,454.02,663.76,445.33z"/>
	<path class="st81" d="M737.35,562.15c2.67,9.6,13.02,16.45,10.12,28.22c-0.2,0.82,3.15,2.51,4.85,3.79
		c2.5,3.59,0.79,7.42,0.65,11.16c-1.16,8.5-2.33,17-3.49,25.5c-0.32,0.02-0.65,0.05-0.97,0.07c0-5.12,0-10.24,0-18.1
		c-2,6.27-3.14,9.85-4.28,13.43c-2.29-0.92-3.33-2.86-4.08-5.02c-0.97-8.27,3.32-16.56-0.1-24.83c-2.63-7.45-5.59-14.71-10.91-20.75
		c-1.62-7.44-5.81-14.74-1.32-22.56C737.18,549.6,738.09,555.02,737.35,562.15z"/>
	<path class="st33" d="M803.64,602.7c-6.43-8.27-15.74-13.24-23.19-20.35c-4.62-2.8-7.96-7.37-13.12-9.42
		c-5.49-3.78-10.78-7.79-15.12-12.91c-0.69-7.82-4.64-14.03-9.78-19.65c-2.04-2.44-4.36-4.71-4.65-8.14
		c0.13-1.08,0.52-2.07,1.18-2.94c10.95,7.26,16.48,19.42,25.71,28.35c18.35,17.76,36.26,35.96,56.09,52.7
		C815.06,607.79,809.35,605.24,803.64,602.7z"/>
	<path class="st105" d="M318.97,584.66c-0.52,6.57-3.2,10.4-9.59,14.19c-8.82,5.23-18.8,11.72-17.79,24.89
		c-0.85,7.14-7.15,7.46-12,9.6c-0.34-2.17-1.09-4.15-2.66-5.71c-0.94-0.56,1.81-2.71-0.38-2.04c-2.74,0.84-5.12,2.42-8.04,0.85
		c-2.74-10.09,7.42-11.11,11.51-16.4c0.59-0.14,1.14-0.35,1.67-0.65c8.72-2.14,12.81-10.17,19.28-15.18
		c5.29-3.4,7.74-10.7,15.2-11.14C317.27,583.31,318.19,583.85,318.97,584.66z"/>
	<path class="st67" d="M622.51,648.5c1.64-3.67,3.28-7.34,4.92-11.01c0.62-5.64-3.32-8.64-6.9-11.83c-2.36,0.84-4.68,1.61-7.17,0.65
		c-3-6.58,2.11-7.51,6.3-9.1c1.67-0.85,3.48-1.41,5.05-2.49c0.82-0.11,1.64-0.23,2.47-0.34c4.84,6.55,14.83,8.77,15.72,18.65
		c-2.73,6.72,0.55,14.09-2.19,20.81c-3.88,2.87-7.47,6.11-11.09,9.31c-1.02,0.18-1.97,0.01-2.87-0.49c-2.41-2.44-1.03-5.71-1.85-8.5
		c0.07-0.97,0.14-1.94,0.21-2.91C625.44,649.2,624.29,648.56,622.51,648.5z"/>
	<path class="st215" d="M299.55,621.08c1.35-1.28,2.7-2.55,4.05-3.83c2.93,3.79,5.3,7.75,3.89,12.86
		c-1.68,5.17,0.32,10.95-2.68,15.9c-2.57,4.28-7.03,5.6-11.3,7.21c-3.81,2.39-9.47,2.02-11.13,7.57l-0.09-0.48
		c-0.92,0.64-1.89,0.69-2.89,0.22c-7.1-6.11,2.3-10.02,2.03-15.25c0.94-3.04,3.6-4.18,5.97-5.79c2.56-1.74-1.42-1.21-1.09-2.35
		C290.23,631.38,299.46,629.99,299.55,621.08z"/>
	<path class="st58" d="M378.25,656.53c0.44-0.61,0.83-1.26,1.33-1.81c5.31-5.72,14.28-9.23,11.8-19.63c1.2-0.2,2.41-0.41,3.61-0.61
		c0.87,0.35,1.34,1,1.45,1.92c4.05,4.13,2.45,9.4,1.46,13.64c-1.9,8.15-5.3,15.95-8.08,23.89c-4.96,1.67-7.89,7.59-14.06,6.73
		c-0.74-1.92-1.48-3.83-2.22-5.75c-0.21-4.26,5.42-5.33,5.23-9.58C378.6,662.4,378.43,659.46,378.25,656.53z"/>
	<path class="st192" d="M540.94,687.96c1.18-6.35,2.35-12.71,3.53-19.06c0.85,0.23,1.01,1.07,1.45,1.49
		c0.86,0.83,0.44-0.43,0.48-0.59c0.71-2.57,1.48-5.19-1.18-7.22c2.59-8.29,1.94-16.85,2.04-25.34c6.85,3.1,8.23,9.32,9.22,15.89
		c1.31,8.71,1.41-3.96,2.52-0.17c2.14,9.71,5.85,18.87,9.89,27.91c-0.68,0.65-1.48,1.13-2.36,1.46c-3.8-0.01-3.5,7.76-8.91,4.72
		c-1.78-2.65-2.12-5.8-3.06-8.75c-0.27-1.08-0.01-2.38-0.48-3.22c-0.39-0.7-0.35,0.44-0.44,0.67c-2.56,6.33-1.42,14.05-7.23,19.17
		C541.88,694.73,542.79,690.26,540.94,687.96z"/>
	<path class="st29" d="M636.31,706.01c-5.32-5.45,0.86-10.37,0.76-15.61c-0.11-5.55,5.99-10.54,1.59-16.56
		c-1.43,1.32-3,1.36-4.67,0.54c-1.53-2.14-1.21-4.05,0.72-5.76c4.37-0.56,8.56-2.61,13.13-1.65c-6.89,11.86,2.48,21.43,4.51,32.03
		c-0.95,0.87-1.17,2.53-2.83,2.64c-7.01,10.48-6.23,23.62-13.85,34.22c3.32-13.74,6.64-27.48,10.22-42.29
		c-4.29,3.89-4.42,8.13-5.32,12.06C639.21,706.47,637.75,706.14,636.31,706.01z"/>
	<path class="st118" d="M521.95,625.85c1.74,9.06,3.49,18.12,5.23,27.18c-0.04,4.38,3.21,9.42-2.49,12.68
		c-7.26-2.12,2.36-10.71-4.72-11.77c5.64,3-1.11,8.42,1.34,12.85c1.18,4.83,0.41,9.82,1.12,14.71c-3.47,3.39-6.89,7.96-10.91,0.55
		c-0.01-2.12,0.6-4.18,0.72-6.29c-0.2-4.11,1.28-8.86-4.24-10.93c3.03-3.2-4.3-5.19-0.97-8.41c-1.88,0.66-2.73,2.62-4.45,3.51
		c-1.68,0.87-3.38,1.51-5.3,1.33c-1.8-0.09-2.89-1.03-3.3-2.78c1.75-5.99,7.93-7.93,11.35-12.4c0.9-0.55,1.87-0.91,2.9-1.12
		c6.8-0.95,10.12-4.29,8.21-11.53c-0.82-3.1-0.21-5.95,2.62-7.97C520.09,625,521.06,625.11,521.95,625.85z"/>
	<path class="st83" d="M515.07,676.21c0.6,2.21-0.29,3.83-2.02,5.12c-2.48,3.23-7.26,3.5-9.34,7.24
		c-10.64,4.15-20.19,10.13-29.09,17.21c-2.57,0.75-5.59,4.72-7.58,1.44c-2.17-3.58-5.26-8.45-0.11-12.66
		c6.22-3.03,12.44-6.06,18.66-9.09c9.71,0.38,15.55-7.52,23.47-10.98C511.35,674.07,513.42,674.4,515.07,676.21z"/>
	<path class="st18" d="M503.71,688.58c0.36-5.97,6.53-4.44,9.34-7.24c3.38,5.5,5.76-0.68,8.67-0.74c4.57,5.19-0.28,12.3,3.6,17.63
		c3.79,8.9,0.93,17.64-0.61,26.41c-1.75,0.16-0.51-3.38-2.94-2.38c-3.79-5-1.44-16.61-14.79-11.37c3.7-4.28,8.27-5.14,10.02-9.16
		c-2.39-1.36-10.73,3.03-4.8-5.65c1.37-2.01-1.64-7.01-2.63-10.64C507.61,686.5,505.66,687.54,503.71,688.58z"/>
	<path class="st10" d="M559,652.97c-0.21,2.91-0.42,5.82-0.63,8.73c-3.61-8.31-7.03-16.53-11.11-24.45
		c4.52-16.36,5.47-34.08,18.07-47.36c-3.99,9.99-4,21.12-9.11,30.85c-3.72,7.08,6.67,10.93,4.77,17.85
		c-1.72-1.83-3.45-3.67-6.8-7.23C556.11,639.98,557.56,646.47,559,652.97z"/>
	<path class="st220" d="M446.91,657.76c-3.22,5.47-6.53,10.9-9.63,16.44c-1.17,2.08-3.52,4.51,0.24,6.53
		c-2.13,3.06-4.26,6.13-6.39,9.19c-3.09-0.11-3.91-2.65-5.1-4.78c-0.21-2.58-1.18-4.42-4.18-4.29c-2.5-2.29-1.41-4.86-0.6-7.41
		c2.44-3.23,4.06-7.17,7.78-9.34c5.35-2.49,3.28-9.35,7.34-12.61c2.48-3.11,5.36-5.55,9.22-2.4
		C448.37,651.37,451.82,654.08,446.91,657.76z"/>
	<path class="st94" d="M521.95,625.85c-0.82,0.03-1.65,0.06-2.47,0.09c-0.96,0.59-1.93,0.64-2.91,0.06
		c-4.51-9.89-3.59-21.17-8-31.08c-8.2-6.33-13.84-14.71-19.03-23.47c-0.33-1.06-0.27-2.1,0.12-3.13c6.11-6.32,9.39,1.14,13.85,2.84
		c1.54,5.75,7.75,8.19,9.77,13.46C518.36,597.88,522.55,611.38,521.95,625.85z"/>
	<path class="st18" d="M675.09,465.49c9.09,3.51,10.12,12.84,14.17,19.92c2.53,4.42,3.19,9.82,6.7,13.83
		c0.96,1.23,0.85,2.36-0.31,3.39c-4.57,0.18-3.27-5.11-6.65-6.93c-3.26,2.49-0.51,12.08-9.05,8.79
		C680.79,491.19,676.23,478.55,675.09,465.49z"/>
	<path class="st212" d="M738.96,529.29c-0.05,1.15-0.09,2.3-0.14,3.44c-0.42,6.51-1.39,13.15,4.3,18.24
		c1.63,4.15,4.11,8.23,1.07,12.76c-2.28-0.53-4.56-1.05-6.84-1.58c-3.78-1.41-0.08-12.79-9.28-6.96c-3.96-0.73-2.21-5.28-4.68-7.01
		c-0.11-2.09-0.22-4.17-0.33-6.26c0.89-7.78,7.84-10.58,12.52-15.24C737.79,526.14,738.47,527.59,738.96,529.29z"/>
	<path class="st41" d="M525.32,698.23c-6.46-4.8-5.62-11.1-3.6-17.63c-5-3.47-1.25-8.85-2.84-13.06c0.73-1.74,1.79-3.15,3.78-3.57
		c8.23-0.87,1.99-7.72,4.52-10.94c4.21,12.34,0.45,25.54,4.2,38.01C532.62,695.18,526.3,694.89,525.32,698.23z"/>
	<path class="st7" d="M638.84,652.95c2.78-2.88,1.28-5.38,0.24-8.67c-1.21-3.86-1.5-8.9,3.82-11.24
		c12.2,7.76,15.48,23.05,26.69,31.65c-2.72,1.8-5.46,1.67-8.21,0.1c-7.42-5.34-7.1-17.29-17.77-20.74
		c0.89,4.87,1.67,9.17,2.45,13.48c0.03,4.37-2.22,2.95-4.05,1.42C640.22,657.44,640.08,654.86,638.84,652.95z"/>
	<path class="st221" d="M753.09,558.94c6.42,2.54,10.56,8.02,15.73,12.17c1.64,3.46,0.44,6.84-0.21,10.24
		c-1.13,2.56-0.08,5.78-2.36,8.01c-0.73,1.68-1.46,3.36-2.19,5.04c-3.67-6.39-7.34-12.77-11.01-19.16
		C750.91,569.81,748.73,564.37,753.09,558.94z"/>
	<path class="st137" d="M549.76,553.03c-0.92-0.02-1.85-0.04-2.77-0.05c-13.19-5.31-18.52-16.93-23.01-29.08
		c-0.64-1.72-3.11-4.5-0.25-5.87c2.22-1.06,4.84-0.28,6.54,2.64C536.6,531.55,543.24,542.26,549.76,553.03z"/>
	<path class="st83" d="M574.59,720.31c-3.64,1.31-5.72,6.9-10.91,3.98c2.32-10.54,1.68-22.06,10.06-30.61
		c5.16,2.7,11.08,4.72,11.11,12.12c-2.59,1.62-1,6.54-4.54,6.79c-3.44,0.25-0.73-4.72-3.15-5.63
		C579.04,711.86,578.32,716.33,574.59,720.31z"/>
	<path class="st5" d="M685.03,614.18c2.84,4.61,5.69,9.22,8.53,13.83c2.36,2.59,4,5.39,2.67,9.07c-0.15,1.53-0.31,3.06-0.46,4.58
		c-5.15-4.14-6.89-10.59-9.1-16.1c-6.78-16.89-23.16-25.55-32.48-40.06c-0.5-0.78-0.9-1.64,0.62-4.33c4.51,5,9.01,10,13.52,15
		c1.65,1.48,3.78,0.04,5.54,0.88c3.29,1.5,4.88,4.63,7.02,7.23c1.39,1.97,3.21,3.6,4.48,5.67
		C685.91,611.42,685.87,612.83,685.03,614.18z"/>
	<path class="st59" d="M532.92,564.37c2.22-3.93,2.84-1.53,3.81,0.85c4.34,10.64,2.14,21.39,0.48,32.07
		c-1.73,11.1-3.92,22.13-5.9,33.18c-3.49,1.61-2.64-1.49-2.56-2.73c0.35-5.28-0.05-10.94,1.77-15.73
		C536.51,596.27,534.44,580.36,532.92,564.37z"/>
	<path class="st76" d="M280.01,610.04c2.29,3.54,0.54,5.86-2.77,6.52c-6.06,1.22-8.34,5.32-9.53,10.64
		c-1.99,0.72-3.17,0.46-2.45-2.05c-5.05,0.93-10.37,2.69-13.08-4.01c-1.56-4.67-0.51-7.94,4.79-8.93c0.8,0.92,1.59,1.84,2.39,2.76
		c3.91,2.87,5.56,0.67,6.59-2.93c2.5-3.8,7.11-4.31,10.49-6.72c0.89-0.87,1.87-1.03,2.95-0.35
		C279.44,606.67,276.81,608.7,280.01,610.04z"/>
	<path class="st197" d="M375.89,618.97c0.15,5.67,1.03,11.54-4.06,15.87c-1.68,1.42-3.42,2.76-5.14,4.14
		c1.29,4.87-2.62,6.79-5.32,9.4c-0.49,0.12-0.99,0.22-1.49,0.33c-2.13,0.81-4.26,1.63-6.38,2.44c-4.05-5.98-1.16-10.24,3.5-14.05
		C363.29,631.05,369.59,625.01,375.89,618.97z"/>
	<path class="st29" d="M673.05,598.24c-1.69-0.43-3.83,0.19-4.72-2.07c4.48-9.73,4.82-21,11.16-30.05c3.9,0.67,2.93,4.69,4.69,6.83
		c0.82,0.87,1.64,1.74,2.45,2.6c2.2,2.78,0.76,5.67,0.28,8.54c-0.52,6.99,0.78,14.55-6.12,19.52c-8.08-5.98-3.85-13.94-3.05-21.32
		C677.18,587.97,675.67,593.26,673.05,598.24z"/>
	<path class="st180" d="M481.02,538.98c-4.41-4.32-6.4-9.43-5.05-15.61c-0.97-1.65-1.08-3.27,0.2-4.83c3.6,1.22,1.37,5.52,3.87,7.39
		c4.36-1.47,2.25-5.66,3.58-8.38c1.79,13.82,10.73,25.57,11.51,39.68c-1.06,2.26-2.71,3.37-5.27,2.71
		c-1.23-1.13-1.87-2.58-2.31-4.14C486.5,549.76,483.42,544.5,481.02,538.98z"/>
	<path class="st106" d="M654.64,722c-1.76,7.22-3.52,14.44-5.95,24.46c-10.7-14.43-1.17-25.22,0.98-36.24
		C654.74,712.7,657.46,716.18,654.64,722z"/>
	<path class="st30" d="M373.55,653.4c-0.02,1.22-0.04,2.44-0.06,3.67c-8.31,7.14-16.61,14.27-25.39,21.82
		c-1.84-8.48,2.37-13.74,7.15-18.79c0.26-0.48,0.53-0.96,0.78-1.45C361.19,654.61,366.08,649.69,373.55,653.4z"/>
	<path class="st29" d="M547.67,421.81c-5.83-1.69-6.66-5.88-5.93-11.18c1.35-9.86,2.43-19.75,3.63-29.63
		c6.38,3.67,8.79,9.08,6.4,16.07c-1.43,4.17-1.07,8.21-0.53,12.34C551.85,414.09,551.91,418.55,547.67,421.81z"/>
	<path class="st170" d="M592.89,712.73c0.54,9.41,1.67,18.83-0.12,28.36c-8.93-8.57-13.91-17.44-4.65-28.4
		C589.72,710.92,591.3,712.66,592.89,712.73z"/>
	<path class="st108" d="M547.67,421.81c-0.29-13.63,7.04-27.69-2.3-40.81c-0.15-0.74-0.43-1.47-0.44-2.21
		c-0.03-2.41,1.59-2.54,2.17-0.76c2.48,7.66,15.04,11.81,5.99,24.08c-3.4,4.62,3.05,15.31,0.86,24.18
		C551.62,424.63,549.64,423.22,547.67,421.81z"/>
	<path class="st54" d="M466.93,694.57c-0.59,5.9-2.87,12.95,7.68,11.22c-3.71,3.01-7.41,6.01-12.73,10.32
		c4.03-17.51-9.5-2.47-11.81-9.47C453.89,700.55,459,695.72,466.93,694.57z"/>
	<path class="st66" d="M553.81,354.6c4.23-2.68,6.3-0.95,7.04,3.46c4.5,3.19,9.42,5.73,13.96,8.88c3.44,2.39,6.8,4.79,4.78,9.82
		c1.58,6.38,3.77,12.72,0.61,20.08c0.57-19.51-15.18-27.2-26.25-38.27C552.79,357.29,552.74,355.96,553.81,354.6z"/>
	<path class="st192" d="M638.84,652.95c5.7-3.69,1.99,7.52,7.23,4.57c3,2.7,1.99,6.15,1.77,9.45c-3.7,2.46-7.23,5.75-12.11,2.48
		c-2.56-2.31-6.47-3.59-6.15-8.09C631.02,656.74,633.49,653.27,638.84,652.95z"/>
	<path class="st83" d="M455.99,687.72c15.19-5.31,27.56-16.51,43.3-20.67c1.25,2.71-1.58,3.59-2.41,5.36
		c-7.03,1.87-12.32,6.71-18.18,10.59c-7.21,2.09-13.39,6.4-20.2,9.36c-1.73,0.75-3.71,1.55-4.85-0.62
		C452.48,689.52,454.16,688.46,455.99,687.72z"/>
	<path class="st40" d="M504.04,481.7c-8.24-8.24-11.82-19.39-17.73-29.07c-4.27-6.99-0.17-13.32,6.38-18.7
		c-8.44,15.81,2.97,26.35,8.77,38.34c1.44,2.97,3.66,5.88,2.36,9.58L504.04,481.7z"/>
	<path class="st70" d="M455.99,687.72c-0.68,1.71-5.24,5.59,1.45,3.56c7.25-2.2,12.77-9.04,21.26-8.28
		c-10.96,8.77-25.6,11.54-35.99,21.78c4.21-7.07,4.27-16,10.77-21.89C454.32,684.5,455.16,686.11,455.99,687.72z"/>
	<path class="st222" d="M624.9,654.16c4.84,1.5,0.49,5.92,2.63,8.28c-4.46,3.53-10.47,3.68-15.08,6.89c-1.8,4.17-4.18,7.79-8.8,9.28
		c-2.84-0.15-4.38-1.49-4.13-4.48c0.22-1.47,0.31-4.2,0.67-4.23C611.15,668.85,616.57,659.21,624.9,654.16z"/>
	<path class="st36" d="M256.99,612.21c-2.39,2.55-4.25,5.39-4.79,8.93c-7.81,6.48-16.25,11.91-25.87,15.45
		c11.21-11.51,25.68-19.53,34.08-34.03C261.85,607.03,258.24,609.16,256.99,612.21z"/>
	<path class="st15" d="M612.44,669.33c3.79-5,8.74-7.46,15.07-6.89c0.69-0.36,1.38-0.72,2.06-1.09c3.44,1.64,6.33,3.7,6.16,8.09
		c-0.56,1.39-1.11,2.78-1.67,4.17c-2.37,3.31-5.13,5.21-9.15,2.5C620.44,671,616.65,668.94,612.44,669.33z"/>
	<path class="st208" d="M510.55,393.33c6.08-0.09,4.51-4.66,4.75-8.15c0.56-7.88-0.06-15.87,2.36-23.56
		c0.1-0.32,0.37-0.74,0.65-0.82c1.61-0.5,1.49,0.96,1.92,1.79c1.94,9.02-0.7,18.28,1.46,27.28c0.55,3.55-0.58,6.16-4.15,7.4
		c-0.77,0.96-1.55,0.96-2.32,0C513.66,395.96,512.11,394.65,510.55,393.33z"/>
	<path class="st48" d="M286.31,637.14c2.44,2.43,4.28-2.62,6.85-0.51c-1.45,6.11-9.93,4.47-11.41,10.39
		c-1.52,4.21-5.52,5.25-8.96,7.03c-4.82,3.4-9.89,6-16.08,4.91c-1.16-0.12-1.92-0.73-2.3-1.83c0.8-3.49,3.44-5.02,6.5-6.09
		c8.28-5.12,17.77-8.02,25.63-13.92L286.31,637.14z"/>
	<path class="st223" d="M622.16,405.96c-7.09-2.92-2.81-11.98-8.47-15.68c4.61-1.62,9.23-3.24,13.84-4.86
		c3.06,3.12,6.12,6.23,9.17,9.35c-2.35,0.69-3.71,2.44-4.75,4.5c-3.85-1.24-4.06-5.91-8.06-8.47
		C623.27,396.24,622.72,401.1,622.16,405.96z"/>
	<path class="st52" d="M634.02,481.9c-12.51-7.17-23.08-16.02-26.77-30.97c8.86,10.43,17.99,20.56,28.77,29.03
		C636.81,482.11,635.89,482.49,634.02,481.9z"/>
	<path class="st29" d="M732.42,616.64c-4.38-13.41-7.01-27.1-6.65-41.28c5.49,0.58,4.47,6.16,6.97,9.04
		c2.87,7.91,5.42,15.88,3.98,24.5C735.95,611.85,734.76,614.57,732.42,616.64z"/>
	<path class="st37" d="M356.99,637.09c0.28,5.04-5.71,8.53-3.5,14.05c-3.21,3.2-6.41,6.41-9.62,9.61
		c-4.78-6.33,2.87-10.82,2.45-16.51c2.91-3.19,5.81-6.38,8.72-9.57C355.7,635.48,356.34,636.29,356.99,637.09z"/>
	<path class="st153" d="M262.93,670.92c-12.67,4.25-25.69,1.88-38.53,2.5C236.71,666.17,250.04,670.42,262.93,670.92z"/>
	<path class="st46" d="M547.31,714.91c-4.35,0.99-4.21,5.65-7.08,8.91c0.54-11.14-5.16-21.41-0.23-31.89
		c2.66,1.59,2.8,4.18,2.53,6.81c-0.42,4.1,0.89-0.04,1.27,0.22c1.94-1.53,3.55-4.03,6.51-1.93c2.66,5.9-0.44,11.17-1.77,16.64
		C548.13,714.08,547.72,714.49,547.31,714.91z"/>
	<path class="st118" d="M375.76,680.67c5-1.59,7.28-8.86,14.06-6.73c-2.1,6.35-4.02,12.76-6.38,19.01c-0.8,2.13,0.15,5.82-3.81,5.86
		c-0.74,0.01-1.5-1.04-2.25-1.6c2.2-2.84-3.86-5.81,0.22-8.74c2.04-1.47,4.7-2.65,4.69-5.85
		C381.07,678.81,375.96,687.94,375.76,680.67z"/>
	<path class="st180" d="M592.89,712.73c-1.61,2.2-3.18,0.35-4.77-0.04c-0.63-1.58-1.26-3.17-1.89-4.75
		c-1.01-0.51-2.25-0.74-2.6-2.08c-0.63-5.68-7.59-6.36-9.02-11.42c-2.15-0.99-3.42-2.72-4.19-4.89c-0.3-1.28-0.59-2.55-0.89-3.83
		c-0.78-1.11-0.7-2.16,0.22-3.16C578.98,691.46,588.36,700.24,592.89,712.73z"/>
	<path class="st113" d="M579.59,376.77c0.67-5.57-3.73-5.98-7.28-7.97c-4.53-2.54-9.85-4.82-11.45-10.73
		c10.78-0.53,17.17,6.5,23.48,13.66C582.75,373.41,581.17,375.09,579.59,376.77z"/>
	<path class="st180" d="M766.25,589.36c0.38-2.29-5.81-4.97,0.41-6.91c3.86,0.78,4.44,4.7,6.69,7.02
		c4.27,5.41,6.87,11.56,8.03,18.33C773.14,604.27,770.92,595.81,766.25,589.36z"/>
	<path class="st63" d="M660.15,724.09c1.67,6.84,7.93,13.5,0.09,21.32c-0.46-3.44-0.85-6.39-1.26-9.34
		c-0.22-0.18-0.57-0.55-0.61-0.51c-2.59,1.94-0.38,7.05-5.29,7.72c-2.23-7.09,5.5-12.2,3.8-19.07
		C657.92,722.81,659.01,722.77,660.15,724.09z"/>
	<path class="st149" d="M732.42,616.64c-0.15-2.35-0.77-4.84,1.85-6.38c1.81-0.08,3.06,0.81,3.99,2.27
		c1.55,2.83,0.63,5.99,1.21,8.94c0.08,0.43-0.9,2.33,0.99,1.53c0.43-0.18,0.71-1.22,1.54-1.44c0.74,1.55,1.48,3.11,2.23,4.66
		c-0.64,6.18-3.84,12.24-2.43,19.17C738.67,635.81,735.55,626.23,732.42,616.64z"/>
	<path class="st27" d="M396.44,636.41c-0.48-0.64-0.97-1.28-1.45-1.92c1.61-10.14,10.1-17.76,10.05-28.83
		c-0.01-2.86,1.8,0.93,2.67,1.85C406.13,617.98,404.82,628.57,396.44,636.41z"/>
	<path class="st215" d="M642.82,495.72c1.19,14.03,10.29,24.75,15.77,37c-9.89-10.46-20.59-20.54-17.39-37.04
		C641.77,494.55,642.32,494.51,642.82,495.72z"/>
	<path class="st150" d="M624.92,676.12c3.05-0.83,6.1-1.66,9.15-2.5c1.53,0.07,3.06,0.15,4.59,0.23
		c-0.32,5.33-0.83,10.43-8.04,10.69C624.55,684.74,623.22,682.9,624.92,676.12z"/>
	<path class="st111" d="M729.65,584.28c-3.96-1.81-1.31-6.5-3.88-8.92c-0.69-9.07-4.22-17.89-2.39-27.19
		c5.81-0.5,2.15,5.32,4.68,7.01c1.45,6.79-0.29,13.98,2.57,20.59C732.59,578.88,732.72,581.77,729.65,584.28z"/>
	<path class="st224" d="M277.91,627.39c4.79,0.79,2.01,3.71,1.68,5.95c-8.17,2.78-14.34,13.44-25.02,6.35
		c3.17-4.07,8.23-5.51,12.04-8.7C270.12,628.97,273.91,627.86,277.91,627.39z"/>
	<path class="st26" d="M508.67,675.32c-3.29,6.42-10.62,7.75-15.5,12.24c-2.84,2.62-5.45,0.17-7.58-2.08
		c4.79-5.62,12.66-5.98,18.05-10.57C505.56,671.98,507.23,672.21,508.67,675.32z"/>
	<path class="st41" d="M583.63,705.87c0.87,0.69,1.73,1.39,2.6,2.08c-5.11,6-3.95,14.26-7.72,21.26c-4.05-1.84,0.47-7.55-3.92-8.9
		c0.91-4.99,1.82-9.99,2.74-15.06c3.4,1,1.19,4.07,2.59,5.65C581.15,709.22,582.39,707.54,583.63,705.87z"/>
	<path class="st196" d="M648.2,426.21c10.15,2.32,13.32,10.33,15.54,19.1C657.43,439.85,648.06,436.9,648.2,426.21z"/>
	<path class="st41" d="M508.67,675.32c-1.55-1.7-3.32-0.69-5.03-0.41c1.08-9.82-4.98-0.38-6.75-2.5c0.8-1.79,1.61-3.57,2.41-5.36
		c0,0-0.01,0.01-0.01,0.01c2.51-2.86,5.15-5.21,9.13-2.36c10.26-0.81,5.38,7.13,6.66,11.52
		C512.94,675.92,510.8,675.62,508.67,675.32z"/>
	<path class="st225" d="M279.41,604.96c-0.98,0.12-1.96,0.24-2.95,0.35c-1.53-7.89,4.83-12.35,7.93-18.23
		c2.73-1.71,5.46-3.42,9.55-5.97C290.9,591.28,283.14,596.95,279.41,604.96z"/>
	<path class="st145" d="M252.08,597.93c0.94,0.97,1.88,1.95,2.82,2.92c-6.86,8.8-16.19,15.36-22.41,24.81
		C234.99,613.5,244.46,606.38,252.08,597.93z"/>
	<path class="st118" d="M681.95,699.19c2.3,7.36,7.03,13.95,6.27,22.41c-6.26-9.69-11.76-19.68-13.61-31.34
		C680.43,690.46,680.91,695.06,681.95,699.19z"/>
	<path class="st76" d="M570.42,689.55c1.4,1.63,2.79,3.26,4.19,4.89c-7.65,8.48-6.2,20.29-10.93,29.84
		c-0.85,1.83,0.68,4.63-4.33,6.43C563.26,716.18,566.84,702.87,570.42,689.55z"/>
	<path class="st121" d="M277.91,627.39c-1.73,4.32-6.3,3.41-9.45,5.12c-3.59,1.52-7.41,3.51-7.04-3.34
		c1.28-1.34,2.57-2.68,3.85-4.02c0.56,0.99,0.4,2.84,2.45,2.05c5.44-1.68,10.27-5.36,16.36-5.62
		C284.32,626.68,279.78,625.45,277.91,627.39z"/>
	<path class="st164" d="M423.55,673.8c-2.54,1.88-1.37,4.65-1.7,7.06l-0.3-0.12c-0.99,0.75-1.96,0.73-2.93-0.04
		c1.71-11.45,3.42-22.9,5.14-34.34c5.26,1.75,1.22,6.39,2.88,9.26C430.91,662.58,424.98,667.8,423.55,673.8z"/>
	<path class="st156" d="M490.47,559.36c1.55-0.71,3.11-1.42,4.66-2.13c2.8,4.65,5.59,9.29,8.39,13.94c-2,1.15-4.28,2.1-5.42-0.69
		c-2.2-5.4-4.95-1.63-7.57-0.75c-1.16-0.77-1.93-1.83-2.34-3.16C487.64,563.75,487.9,561.19,490.47,559.36z"/>
	<path class="st27" d="M789.73,621.12c6.53-1.94,9.84,2.9,13.82,6.46c3.56,3.18,7.3,6.17,10.96,9.24
		C802.78,637.07,798.07,626.23,789.73,621.12z"/>
	<path class="st40" d="M533.81,633.08c3.08,4.94,1.07,10.69,2.53,15.89c-1.28,5.43,2.27,12.12-5.47,17.64
		C531.93,654.42,532.87,643.75,533.81,633.08z"/>
	<path class="st34" d="M378.78,665.33c3.42,0.11,2.64,2.14,1.32,3.62c-1.96,2.19-4.35,4-6.56,5.97
		c-5.07,4.99-10.14,9.98-15.21,14.98c-0.65-0.55-1.3-1.11-1.95-1.66C363.85,680.61,371.31,672.97,378.78,665.33z"/>
	<path class="st53" d="M642.82,495.72c-0.54,0.01-1.08,0-1.62-0.05c-0.16-0.34-0.42-0.67-0.47-1.03c-0.17-1.14-1.16-1.53-1.47-0.62
		c-0.91,2.69,0.84,5.96-2.16,8.99c-1.08-7.41-2.08-14.26-3.08-21.12c0.66-0.65,1.33-1.29,1.99-1.94
		C641.26,483.92,643.01,489.4,642.82,495.72z"/>
	<path class="st124" d="M748.46,679.31c-1.98-9.95-3.95-19.9-5.93-29.86c6.84,8.9,6.73,19.3,8.9,29.19
		C750.44,678.87,749.45,679.09,748.46,679.31z"/>
	<path class="st146" d="M450.87,541.62c-7.34,5-3.39,14.67-8.52,20.58c-2.13-0.96-0.86-3.53-2.3-4.82
		c1.31-3.44,2.62-6.89,4.32-11.36c-2.74,1.41-4.38,2.26-6.02,3.1c2.52-4.33,5.14-8.34,9.85-10.18
		C449.9,539.02,450.94,539.77,450.87,541.62z"/>
	<path class="st27" d="M272.34,674.37c7.87-13.36,19.15-7.93,32.23-6.65C292.73,673.24,281.12,666.03,272.34,674.37z"/>
	<path class="st172" d="M522.9,353.68c-9-3.31-2.17-8.5-0.7-11.9c2.57-5.95,6.24-2.69,9.21,0.48
		C525.51,343.8,527.12,350.91,522.9,353.68z"/>
	<path class="st42" d="M636.31,706.01c1.17-2.94,2.83-0.46,4.27-0.39c-3.12,8.62-4.06,18.02-9.58,28.14
		C630.38,722.54,635.71,714.73,636.31,706.01z"/>
	<path class="st223" d="M583.73,662.05c2.52,0.84,2.65,2.87,2.49,5.03c-9.46-3.34-15.29-10.19-18.67-19.38
		c1.71,0.07,3.43,0.15,5.14,0.22C577.33,651.88,582.21,655.65,583.73,662.05z"/>
	<path class="st118" d="M256.85,657.79c7.56,2.85,9.73-7.01,16.16-6.83c-0.06,4.43,2.71,6.83,6.22,8.7
		c1.02,0.22,2.04,0.43,3.05,0.65c-8.44,7.06-16.93-2.53-25.38,0.07c-0.57-0.56-0.76-1.14-0.59-1.72
		C256.49,658.08,256.66,657.79,256.85,657.79z"/>
	<path class="st126" d="M752.97,605.31c-2.88-3.56-1.94-7.35-0.65-11.16c12.53,1.18,5.22,8.92,4.76,14.4
		C755.67,607.52,755.37,605.09,752.97,605.31z"/>
	<path class="st178" d="M661.38,664.78c2.74-0.03,5.47-0.07,8.21-0.1c3.87,7.44,8.23,14.66,10.23,22.93
		c-5.72,0.91-5.29-3.99-6.72-7.13C671.22,673.74,668.39,667.7,661.38,664.78z"/>
	<path class="st226" d="M503.82,481.86c7.58,8.85,8.1,20.21,11.53,30.54c-6.79-9.18-10.19-19.54-11.31-30.7
		C504.04,481.7,503.82,481.86,503.82,481.86z"/>
	<path class="st180" d="M426.02,685.15c3.65-0.49,4.55,1.96,5.1,4.78c-4.33,4.45-3.36,12.02-10.54,17.38
		C422.71,698.62,424.37,691.88,426.02,685.15z"/>
	<path class="st170" d="M442.31,689.17c-4,7.71-6.89,16.02-14.21,21.98c3.91-7.88,7.83-15.76,11.74-23.64
		C440.66,688.06,441.49,688.61,442.31,689.17z"/>
	<path class="st65" d="M660.15,724.09c-1.09,0.04-2.19,0.08-3.28,0.11c-0.74-0.74-1.49-1.47-2.23-2.21
		c1.31-5.18-2.49-8.21-4.98-11.78c-0.05-2.86-0.09-5.72-0.14-8.58c0.6-1.25,1.01-2.7,2.83-2.64
		C654.2,707.6,656.35,716.1,660.15,724.09z"/>
	<path class="st46" d="M556.44,703.54c-4.73,6.39-3.91,14.86-8.11,21.83c-2.96-3.45-0.75-7.09-1.02-10.46c0,0-0.12,0.14-0.12,0.14
		c3.07-5.37,0.4-13.5,8.03-16.68c2.12,0.46,2.33,2,2.12,3.77C557.04,702.6,556.74,703.07,556.44,703.54z"/>
	<path class="st139" d="M505.98,715.07c2.98,0.58,5.18-3.35,8.41-1.53c-0.37,4.34-8.68,3.69-6.16,10.18
		c0.34,0.88-3.25,3.85-5.47,4.98c-1.83,0.93-1.58-1.79-2.44-2.72c-3.34-3.64,0.15-5.11,2.09-7.11c1.27-1.31,2.5-2.65,3.74-3.97
		L505.98,715.07z"/>
	<path class="st25" d="M286.54,637.13c-6.63,8.16-16.42,10.49-25.63,13.92C267.77,643.31,277.63,641.09,286.54,637.13z"/>
	<path class="st140" d="M572.04,554.8c0.66,5.94-0.67,11.36-4.24,16.2c-0.6-4.85-4.17-9.31-0.88-14.69
		C568.57,553.61,569.85,553.68,572.04,554.8z"/>
	<path class="st153" d="M599.52,674.13c1.38,1.49,2.75,2.99,4.13,4.48c-0.49,1.51,1.07,5.96-2.91,2.82
		c-4.55-3.6-8.35-8.16-12.48-12.3C593.28,667.94,595.74,672.52,599.52,674.13z"/>
	<path class="st57" d="M560.23,705.63c-2.21,8.15-4.42,16.29-6.63,24.44c-2.67-9.48,3.18-17.55,2.84-26.54c0,0-0.08,0.13-0.08,0.13
		c0.69-0.86,1.55-1.09,2.58-0.71C559.58,703.74,560.01,704.64,560.23,705.63z"/>
	<path class="st224" d="M673.1,680.49c3.06,1.6,2.75,6.38,6.72,7.13c0,0-0.12-0.2-0.12-0.2c1.03,3.28,6.15,4.82,4.04,9.44
		c-0.6,0.78-1.2,1.56-1.79,2.34c-2.45-2.98-4.89-5.95-7.34-8.93C673.21,687.14,666.92,684.77,673.1,680.49z"/>
	<path class="st29" d="M256.85,657.79c0.02,0.86,0.04,1.73,0.06,2.59c-5.48,3.85-12.35,0.71-18.25,3.45
		c4.18-4.95,10.31-5.03,15.75-6.7C255.22,657.35,256.04,657.57,256.85,657.79z"/>
	<path class="st227" d="M741.25,683.53c-6.37-7.36-3.51-16.48-5.56-24.67C740.66,666.48,739.83,675.22,741.25,683.53z"/>
	<path class="st143" d="M683.75,696.85c-1.35-3.15-2.69-6.29-4.04-9.44c7.49,4.93,11.2,12.33,14.73,21.59
		C687.53,706.45,687,700.5,683.75,696.85z"/>
	<path class="st145" d="M828.89,625.44c0.06-0.53-0.08-1.01-0.41-1.42c8.43-0.78,15.36,3.35,22.65,6.36
		C842.77,632.46,836.15,627.66,828.89,625.44z"/>
	<path class="st213" d="M560.23,705.63c-0.6-0.83-1.21-1.67-1.81-2.5c-2.89-9.36,1.9-16.09,7.72-22.46c0.91,0.07,1.82,0.13,2.74,0.2
		c0.55,0.47,0.83,1.03,0.88,1.69c-0.07,1.05-0.15,2.1-0.22,3.16C561.34,689.98,564,699.31,560.23,705.63z"/>
	<path class="st51" d="M587.28,440.67c3.12,5.86,6.24,11.73,9.36,17.59c-0.9,0.49-1.81,0.98-2.71,1.46
		C588.04,455.25,586.46,448.41,587.28,440.67z"/>
	<path class="st81" d="M418.62,680.7c0.98,0.01,1.95,0.03,2.93,0.04c-1.21,6.89-2.38,13.79-9.6,21.84
		C414.79,693.24,416.7,686.97,418.62,680.7z"/>
	<path class="st111" d="M544.46,701.25c-2.53,1.02-1.58,3.78-3.44,7.42c-0.42-6.81-0.72-11.77-1.03-16.73
		c0.32-1.32,0.63-2.65,0.95-3.97c2.42,1.66,4.07,3.86,4.6,6.79C546.25,697.1,546.77,699.41,544.46,701.25z"/>
	<path class="st132" d="M308.27,690.54c-3.33,8.49-10.93,9.78-18.54,11.13C295.92,697.96,302.09,694.25,308.27,690.54z"/>
	<path class="st68" d="M261.42,629.16c1.01,3.93,4.36,2.92,7.04,3.34c-3.38,4.82-8.88,5.53-13.89,7.18
		C253.62,634.07,256.87,631.19,261.42,629.16z"/>
	<path class="st225" d="M626.92,527.28c-7.46-4.85-6.13-13.53-9.89-20.42c5.27-0.77,2.81,4.16,5.22,4.95
		C623.81,516.97,625.36,522.13,626.92,527.28z"/>
	<path class="st181" d="M684.18,572.96c-2.88-1.38-3.19-4.51-4.69-6.83c0.96-4.37,1.91-8.75,2.87-13.12
		C688.32,559.16,683.98,566.27,684.18,572.96z"/>
	<path class="st226" d="M503.45,451.68c-5.87-8.47-4.7-16.53,2.34-26.92C504.19,435.47,501.67,443.45,503.45,451.68z"/>
	<path class="st75" d="M515.22,397.27c0.77,0,1.55,0,2.32,0c-5.69,5.08-7.81,11.57-6.67,20.24
		C504.63,407.43,505.39,404.6,515.22,397.27z"/>
	<path class="st212" d="M713.72,722.6c-5.08-2.77-9.38-6.75-14.88-8.87C705.97,713.32,712.33,714.13,713.72,722.6z"/>
	<path class="st75" d="M521.69,389.87c-2.81-8.97-1.39-18.17-1.46-27.28c0.56-0.1,1.09-0.03,1.6,0.22
		C521.79,371.83,521.74,380.85,521.69,389.87z"/>
	<path class="st47" d="M350.86,683.43c4.39-3.75,8.78-7.51,13.17-11.26C362.24,678.95,357.29,682.16,350.86,683.43z"/>
	<path class="st79" d="M613.7,475.28c-1.62-0.82-3.25-1.64-4.87-2.47c-1.97-2.27-5.67,3.08-7.13-1.62c-0.66-2.12,0.14-3.63,1.85-4.7
		c3.05-1.91,4.87,0.72,6.67,2.27C612.11,470.38,614.19,472.24,613.7,475.28z"/>
	<path class="st171" d="M494.26,483c-3.39-7.53-10.55-10.92-10.33-19.02C486.95,470.01,495.93,472.23,494.26,483z"/>
	<path class="st223" d="M440.05,557.38c2.37,0.84,2.07,2.95,2.3,4.82c-0.16,0.68-0.18,1.36-0.05,2.04
		c-2.67,2.63-1.61,7.52-6.42,9.73C435.64,567.72,437.68,562.51,440.05,557.38z"/>
	<path class="st60" d="M833.2,617.67c7.91-0.89,13.88,3.4,22.41,7.59C845.12,626.28,839.85,620.13,833.2,617.67z"/>
	<path class="st80" d="M323.05,661.78c3.1-1.13,6.2-2.25,9.84-3.58c-5.14,9.01-5.14,9.01-11.83,4.29
		C321.76,662.35,322.42,662.12,323.05,661.78z"/>
	<path class="st178" d="M711.96,653.76c-1.4,2.12-3.61,1.94-5.73,2.03c-6.06,0.67-10.1-0.76-8.44-8.12
		C701.45,652.18,707.6,650.9,711.96,653.76z"/>
	<path class="st163" d="M506.16,714.89c-4.85,2.36-9.71,4.72-16.47,8.01c4.22-6.52,9.32-8.67,13.77-11.2
		c4.45-2.53,1.6,2.23,2.53,3.37C505.98,715.07,506.16,714.89,506.16,714.89z"/>
	<path class="st156" d="M265.96,612.04c1.66,0.77,4.01,2.94,2.38,3.59c-3.38,1.34-6.29,5.23-10.61,3.13
		c-0.05-0.03,1.07-2.47,1.64-3.79C261.57,613.99,263.77,613.01,265.96,612.04z"/>
	<path class="st210" d="M521.77,722.27c3.69-2.57,1.68,1.94,2.94,2.38c0,6.23,0,12.47,0,18.7c-0.98,0.01-1.96,0.02-2.94,0.03
		C521.77,736.35,521.77,729.31,521.77,722.27z"/>
	<path class="st228" d="M553.81,354.6c0.04,1.32,0.09,2.65,0.13,3.97c-8.48,2.67-8.39-5.15-11.34-9.26
		C547.21,349.25,549.68,353.68,553.81,354.6z"/>
	<path class="st61" d="M545.23,662.59c2.4-1.2,4.67-1.54,4.19,2.16c-0.56,4.34-1.7,8.61-3.21,15.93c-0.89-6.02-1.32-8.89-1.74-11.77
		C544.72,666.8,544.97,664.69,545.23,662.59z"/>
	<path class="st13" d="M523.94,540.86c-3.25-4.64-5.6-9.62-6.17-17.62C523.79,529.34,524.36,534.92,523.94,540.86z"/>
	<path class="st13" d="M302.5,546.25c-1.15,6.72-1.97,13.66-10.28,15.69C294.84,556.19,297.21,550.26,302.5,546.25z"/>
	<path class="st128" d="M610.16,433.9c2.8,0.08,6.22,2.37,7.75-2.15c-0.19,3.64,0.74,7.57-2.53,10.54
		C611.5,440.56,611.28,436.95,610.16,433.9z"/>
	<path class="st33" d="M282.38,660.79c1.06-7.13,6.53-8.72,12.38-9.84c0.44,1.92-1.39,3.27-1.31,5.1c-2.35,2.86-6.98,0.36-9.07,3.84
		C283.84,660.47,283.17,660.77,282.38,660.79z"/>
	<path class="st76" d="M355.25,660.09c-1.87-0.46-6.45,0.96-2.57-3.56c2.31-2.69,4.8-5.22,7.21-7.82c0,0-0.12,0.1-0.12,0.1
		c5.58-2.27,6.04,0.26,3.49,4.2c-1.95,3.01-5.09,5.13-8.13,7.16L355.25,660.09z"/>
	<path class="st170" d="M634.05,548.15c4.19,3.89,9.79,7.17,5.49,16.71c-0.6-7.41-6.75-10.49-5.42-16.77
		C634.12,548.09,634.05,548.15,634.05,548.15z"/>
	<path class="st146" d="M385.23,580.16c-3.21,0.76-6.42,1.51-9.63,2.27c-0.41-0.2-0.82-0.41-1.24-0.6
		c-1.82-1.48-3.78-2.84-4.39-5.32c0.56-6.17,4.76-10.5,7.82-15.4c0.08-0.46,0.18-0.92,0.27-1.38c1.77-12.53,15.18-15.73,20.42-25.48
		l-0.11,0.12c0.83-1.82,8.98-0.08,2.55-5.68c-1.83-1.59,1.27-3.96,2.66-5.52c1.96-2.18,3.25-1.94,4.68,1.16
		c2.38,5.13,4.49-2.86,7.91,0.21c-8,11.21-20.16,18.3-32.43,28.92c7.4,0.47,8.94-4.79,12.68-5.26c0.9,0.69,2.25,0.94,2.38,2.41
		c-6.31,5.43-6.31,5.43-2.24,7.05c2.2,0.99,3.51,2.32,1.75,4.77c-3.49,0.64-11.07-4.46-7.76,5.95c0.49,1.54-3.89,5.25-6.62,7.04
		C378.6,578.92,387.13,578.01,385.23,580.16z"/>
	<path class="st43" d="M361.98,591.45c-1.26,9.09-12.09,4.94-15.43,11.14c-0.17-0.29-0.41-0.57-0.48-0.88
		c-0.08-0.36,0-0.75,0.01-1.12c-2.68-2.23,0.42-5.84-1.98-8.15c-2.97-3.04-0.1-6.53-0.85-9.7c-1.44-1.21-3.51-1.2-4.84-2.58
		c-1.94-4.73,0.14-9.32,0.41-13.97c2.22-4.98,6.25-1.82,9.51-2.11c1.85,3.09,0.38,6.33,0.41,9.5c7.67,2.62,11.77-4.54,17.71-6.68
		c4.16-1.51,5.95-7.56,11.62-7.17c0,0-0.17-0.19-0.17-0.19c0.18,7.7-9.81,10.21-9.21,18.12c-0.98,4.72-5.47,7.57-6.51,12.25
		C362.11,590.43,362.05,590.94,361.98,591.45z"/>
	<path class="st33" d="M435.8,441.5c-1.68,14.93-18.92,19.85-21.96,33.97c-0.19,0.89-2.55,2.29-3.16,1.98
		c-10.14-5.14-16.2,1.93-22.81,7.38l-0.56-0.6c-2.4-1.61-0.88-4.53-2.19-6.5c1.5-1.76,3-3.51,4.49-5.27
		c8.33-4.09,18.92-4.84,22.88-15.42c1.03-3.04,4.17-3.38,6.35-4.95c6.2,0.16,5.25-5.47,6.88-8.81c2.14-4.37,2.2-9.53,4.85-13.77
		c0.13-2.79-0.23-5.79,2.99-7.32c1.36-0.95,2.68-1.22,3.91,0.21c0.49,1.29,0.99,2.58,1.48,3.87
		C436.37,431.03,437.78,436.62,435.8,441.5z"/>
	<path class="st69" d="M476.17,518.53c-0.07,1.61-0.13,3.22-0.2,4.83c-5.9-0.03,0.75,5.9-3.56,7.41c-1.79,0.62-0.77,6.38-4.71,5.68
		c-3.61-0.63-3.59-4.07-3.04-7.29c0.24-1.4-0.35-2.94-0.64-4.94c-5.52,2.75-8.84,6.57-8.79,12.81c-3.43-5.84-0.59-12.33-1.91-18.38
		c1.09-1.12,1.62-2.68,2.83-3.7c3.45-2.84,11.45,1.41,11.35-7.56c-0.02-1.38,3.07,0.01,4,1.83
		C479.5,509.09,471.21,517.13,476.17,518.53z"/>
	<path class="st147" d="M424.04,507.27c0.93,1.22-3.67,3.53,0.01,3.44c7.05-0.18,14.29-1.18,18.9-8.58
		c2.18,9.55-3.18,15.42-7.2,21.79c-2.71-6.37-17.65-10.78-25.28-7.16c-3.25,1.54-5.92,3.54-4.73-2.54
		c4.15-4.81,8.07-10.04,15.6-9.02C422.49,505.56,423.39,506.26,424.04,507.27z"/>
	<path class="st202" d="M449.3,399.74c0.72-9.49,8.72-11.7,15.42-14.51c7.73-3.24,15.95-5.3,24.27-7.97
		c-1.05,5.26-6.16,5.06-8.78,6.07c-10.89,4.19-17.16,12.93-24.14,21.16C452.31,405.06,449.58,404.14,449.3,399.74z"/>
	<path class="st110" d="M350.54,532.16c8.05-6.53,16.17-12.96,24.12-19.62c4.86-4.07,3.42,0.08,3.46,2.45
		c-6.58,8.18-10.73,18.44-21.08,23.38c-3.49,1.67-5.96,5.85-10.7,3.35c1.45-3.23,2.89-6.47,4.34-9.7L350.54,532.16z"/>
	<path class="st58" d="M456.13,517.07c-0.94,0.52-1.88,1.05-2.82,1.57c3.24-13.26,4.29-27.39,14.65-37.95
		c4.84,4.27,2.06,9.64,3.06,14.28c-1.84,3.55-4.54,6.72-4.82,10.96C465.04,511.64,458.61,512.57,456.13,517.07z"/>
	<path class="st117" d="M467.06,403.87c-3.43-8.96,5.39-12.48,9.25-12.51c6.25-0.05,8.53-4.8,13.99-7.07
		c-2.54,11.06-12.48,15.78-16.66,24.35C468.7,410.84,466.81,408.83,467.06,403.87z"/>
	<path class="st13" d="M420.5,506.95c-6.49-0.78-8.78,6.98-14.75,7.27c-0.18-2.92-0.14-5.93-3.12-7.71
		c5.77-12.74,10.7-15.5,23.59-13.15l-0.01,0.1C429.94,500.34,424.97,503.54,420.5,506.95z"/>
	<path class="st229" d="M449.61,442.73c1.23-4.8,5.37-8.72,3.94-14.45c-0.3-1.21-3.66-7.74,4.04-4.83
		c1.22,0.46,8.68-5.67,7.01-12.26c2.46-1.39,4.77-2.42,4.85,1.99c-1.69,4.2-3.49,8.3-7.34,11.12c-2.02,1.48-5.19,3.03-3.37,6.09
		c1.96,3.29,4.4-2.53,7.59,0.32c-6.9,1.85-1.25,10.7-8,12.89C455.35,444.05,452.24,445.87,449.61,442.73z"/>
	<path class="st196" d="M348.74,573.59c-5.62-2.93,0.77-6.38-0.41-9.5c-2.72-7.97,11.69-4.76,7.85-14.67
		c2.57,6.93,5.36,9.71,11.31,4.18C360.22,560.29,358.44,570.7,348.74,573.59z"/>
	<path class="st41" d="M426.22,493.36c-11.34-1.85-16.17,7.97-23.59,13.15c-3.15-5.85,0.67-15.95,7.66-16.11
		c6.03-0.13,9.68-2.57,13.8-5.56c0.58,0.81,1.16,1.62,1.75,2.43c0.76,1.23,0.42,2.63,0.6,3.96c-0.16,0.46-0.37,0.91-0.46,1.39
		C425.93,492.84,426.13,493.11,426.22,493.36z"/>
	<path class="st183" d="M449.3,399.74c1.18,3.12,4.18,3.64,6.77,4.75c-1.92,2.73-4.43,5.28-2.62,9.08l0.2-0.24
		c-4.58,4.48-12.93,2.23-16.19,9.07c-1.3-0.07-2.61-0.14-3.91-0.21C434.05,411.37,444.12,407.27,449.3,399.74z"/>
	<path class="st53" d="M318.97,584.66c-0.88,0.01-1.76,0.01-2.63,0.02c-1.98-11.46,4.95-19.39,10.98-27.67
		c1.73-0.63,3.46-1.27,5.19-1.9c-1.21,4.47,4.42,9.01-0.13,13.45c-0.59,7.66-3.65,13.58-11.39,16.23l-1.02,0.04L318.97,584.66z"/>
	<path class="st50" d="M321,584.79c3.8-5.41,7.59-10.82,11.39-16.23c2.14-0.79,4.29-1.58,6.43-2.36c3.31,4.5,1.47,9.16,0.41,13.79
		c1.05,1.93-0.12,2.47-1.72,2.76C331.23,577.23,327.14,589.24,321,584.79z"/>
	<path class="st15" d="M498.07,361.39c-10.33,11.73-24.82,15.98-38.65,21.49C470.39,372.42,484.34,367.19,498.07,361.39z"/>
	<path class="st230" d="M449.61,442.73c2.88,0.56,5.98-1.11,8.72,0.86c4.41,5.37,5.76,11.13,2.24,17.51
		c-0.36,0.21-0.72,0.42-1.08,0.64c-1.89-5.25-6.29-4.27-12.96-3.09C453.23,452.74,451.31,447.73,449.61,442.73z"/>
	<path class="st231" d="M430.57,429.51c0.51,7.29-1.48,14.07-4.22,20.69c-1.63,3.93-3.57,6.94-7.5,1.89
		C424.26,445.35,421.92,434.58,430.57,429.51z"/>
	<path class="st43" d="M469.45,413.16c-1.06-2.03-2.87-2.22-4.85-1.99c-2.13,1.95-4.15,4.02-6.41,5.82
		c-3.43,2.73-3.5,2.65-4.54-3.66c0,0-0.2,0.24-0.2,0.24c4.54-3.23,9.07-6.47,13.61-9.71c1.36,2.74,3.32,4.66,6.58,4.76
		C473.27,411.09,473.3,413.92,469.45,413.16z"/>
	<path class="st21" d="M398.31,562.42c-0.58-1.59-1.17-3.18-1.75-4.77c4.68-5,11.14-7.23,16.84-11.04
		C410.13,558.12,406.83,561.54,398.31,562.42z"/>
	<path class="st64" d="M373.5,550.4c-3.41-2.81-7.19-1.99-11.27-0.62c2.57-4.17,7.39-4.86,9.65-8.97c1.91-3.47,4.98-6.57,9.83-8.14
		c1.31,5.11-3.74,6.34-4.84,9.49c-0.1,0.28,0.04,0.76,0.24,0.99c0.23,0.26,0.66,0.35,1,0.52C379,547.58,374.06,547.49,373.5,550.4z"
		/>
	<path class="st208" d="M456.13,517.07c-0.82-6.73,7.37-6.96,8.74-12.11c2.96-2.83,5.88-2.64,8.77,0.1
		c-0.71,1.39-1.43,2.77-2.14,4.16c-1.03-0.32-2.32-1.2-3.04-0.86c-4.89,2.31,1.68,4.51,0.1,7.34c-4.62,8.31-2.84-1.76-4.32-1.38
		C461.48,515.04,458.82,516.14,456.13,517.07z"/>
	<path class="st92" d="M412.49,457.05c5.06,2.53,1.29,5.42-0.5,6.49c-6.94,4.14-13.25,10.23-22.38,8.93
		C395.34,464.51,407.07,465.46,412.49,457.05z"/>
	<path class="st82" d="M385.11,477.73c8.34-0.39-0.55,5.01,2.19,6.5c-0.76,0.01-1.51,0.02-2.27,0.02c-1.41,0.06-2.85,0.59-4.23-0.21
		c-4.77,3.36-9.34,7.09-14.39,9.97c-3.9,2.22-2.82-1.14-2.56-3.15C370.94,486.49,378.02,482.11,385.11,477.73z"/>
	<path class="st119" d="M432.18,479.77c-1.29-10.44,7.28-13.86,14.34-19.65c-0.44,6.97-5.8,9.83-8.79,14.09
		C438.52,478.7,436.45,480.34,432.18,479.77z"/>
	<path class="st193" d="M373.5,550.4c-0.09-3.36,3.12-4.45,4.61-6.73c5.24-4,10.53-7.94,15.7-12.02c4.11-3.24,4.9-1.29,4.56,2.72
		c0,0,0.11-0.12,0.11-0.12C388.82,537.56,383.14,547.05,373.5,550.4z"/>
	<path class="st230" d="M460.57,461.1c0.69,7.24-2.75,11.94-12.27,15.87c1.62-7.24,9.27-9.26,11.2-15.24
		C459.88,461.56,460.24,461.35,460.57,461.1z"/>
	<path class="st143" d="M435.8,441.5c-1.09-5.54-5.63-11.79,3.16-15.25c0.36,0.68,0.73,1.33,1.09,1.98
		c2.56,3.06,2.52,6.7,2.35,10.38C440.24,439.67,438.83,442.45,435.8,441.5z"/>
	<path class="st200" d="M420.5,506.95c1.32-4.74,6.66-7.78,5.71-13.49c1.98-0.36,4.6-1.66,5.78-0.85c1.75,1.2-0.31,3.36-1.14,4.76
		c-2.04,3.43-4.5,6.62-6.8,9.9C422.86,507.16,421.68,507.06,420.5,506.95z"/>
	<path class="st201" d="M389.95,518.46c-1.83-4.96,0.64-9.03,4.85-9.53c4.46-0.53,3.7,4.25,3.58,7.47
		C395.62,517.29,393.65,521.41,389.95,518.46z"/>
	<path class="st208" d="M432.18,479.77c2.68-1.02,4.81-2.59,5.55-5.56c5.9,3.62-1,6.55-0.53,9.88l0.16-0.11
		c-6.26-1.53-6.32,6.28-10.92,7.25c-3.1-0.88-1.02-2.54-0.6-3.96C428.87,485.55,430.58,482.7,432.18,479.77z"/>
	<path class="st9" d="M442.4,438.61c-0.78-3.46-1.57-6.92-2.35-10.38c2.75-2.4,3.64-6.74,8.97-7.91c-2.65,6.24-4.99,11.98-5,18.22
		l-0.8,0.15L442.4,438.61z"/>
	<path class="st69" d="M473.63,505.06c-2.92-0.03-5.85-0.07-8.77-0.1c-1.72-5.65-0.42-9.44,6.16-9.98
		C471.9,498.34,472.77,501.7,473.63,505.06z"/>
	<path class="st48" d="M389.95,518.46c3.04,0.26,5.15-3.27,8.42-2.06c-2.77,5.26-7.42,8.09-12.65,10.73
		C384,521.99,389.51,521.66,389.95,518.46z"/>
	<path class="st154" d="M437.19,484.09c3.16,2.86,5.79-1.22,8.96-0.93c0.26,7.6-7.15,5.97-10.14,9.5c-2.28-3.63,1.39-5.81,1.34-8.68
		C437.35,483.98,437.19,484.09,437.19,484.09z"/>
	<path class="st50" d="M398.8,550.61c-0.79-0.8-1.59-1.61-2.38-2.41c4.97-2.69,8.06-8.74,17.05-9.08
		C407.4,543.87,403.1,547.24,398.8,550.61z"/>
	<path class="st197" d="M327.32,557.01c-2.05,5.52-3.73,11.22-6.28,16.51c-1.77,3.66-4.95,6.65-4.7,11.16
		c-6.31,1.72-8.37,8.55-13.72,11.43c-6.71,1.83-10.06,0.77-6.15-6.93c0.99-1.95,2.54-3.82,2.02-6.29
		C307.75,573.88,313.97,561.47,327.32,557.01z"/>
	<path class="st20" d="M298.49,582.89c1.32,0.06,3.36-0.52,2.31,2.03c-0.56,1.36-1.48,2.6-2.39,3.78c-4.55,5.88-1.08,7.15,4.21,7.4
		c-4.13,4.03-8.18,8.14-12.42,12.04c-2.44,2.24-5.19,4.21-8.52,1.23C287.29,600.55,292.89,591.72,298.49,582.89z"/>
	<path class="st130" d="M350.68,532.02c-4.68,2.01-6.4,8.42-13.35,8.62c3.89-4.28,6.77-8.74,10.81-11.54
		c4.31-2.98,1.29,2.18,2.41,3.06C350.54,532.16,350.68,532.02,350.68,532.02z"/>
	<path class="st89" d="M684.89,582.55c0.58-2.33,1.16-4.66,1.75-6.99c3.4-3.31,2.55-8.1,4.17-12.03c0.38-3.33,1.76-6.18,4.14-8.54
		c6.41,0.46,9.98,2.9,6.31,9.74c-2.74,5.11-3.61,16.53-5.82,15.23c-9.29-5.43-2.49,6.11-6.25,4.96
		C687.27,584.99,686,583.91,684.89,582.55z"/>
	<path class="st115" d="M695.65,502.64c0.1-1.13,0.21-2.26,0.31-3.39c5.91,6.88,10.58,14.12,7.05,23.8
		c-6.38-2.64-10.17-0.73-11.03,6.29c-1.43-0.52,0.48,0.95,0.94-0.5c0.46-1.45,1.46-0.94,0.29,0.02c-2.49,2.04-3.68,0.21-4.91-1.58
		C687.97,518.24,696.72,511.9,695.65,502.64z"/>
	<path class="st3" d="M685.03,614.18c-0.26-1.35-0.52-2.71-0.79-4.06c-0.72-0.88-1.05-1.9-1.05-3.04
		c2.08-7.44,4.28-14.83,10.58-20.05C695.89,596.47,690.89,611.97,685.03,614.18z"/>
	<path class="st28" d="M684.27,608.46c0.1,0.55,0.09,1.11-0.03,1.66c-3.21-0.03-4.6-1.73-4.45-4.84c-0.71-0.53-0.94-1.06-0.7-1.58
		c0.24-0.52,0.48-0.78,0.72-0.78c3.98-6.22,4.46-13.31,5.07-20.37c1.89-0.05,3.41,0.58,4.29,2.37c-0.04,0.75,0.02,1.49,0.17,2.22
		C690.68,594.97,684.82,601.08,684.27,608.46z"/>
	<path class="st167" d="M701.23,635.21c0.66-11.58,5.44-21.71,9.59-32.05C710.47,614.71,704.98,624.81,701.23,635.21z"/>
	<path class="st29" d="M684.27,608.46c-0.9-7.72,2.84-14.34,5.07-21.32c1.48-0.04,2.95-0.07,4.43-0.11
		C690.61,594.18,687.44,601.32,684.27,608.46z"/>
	<path class="st23" d="M688.29,527.28c1.23,0.69,2.46,1.37,3.69,2.06c1.87-0.29,4.26-2.78,5.43,0.39c0.92,2.49-0.03,3.91-3.4,3.08
		c-3.44-0.85-3.9,3.85-6.89,4.74C687.09,534.02,685.03,530.39,688.29,527.28z"/>
	<path class="st96" d="M696.23,637.09c-0.89-3.02-1.78-6.05-2.67-9.07c-0.98-5.1,0.71-9.56,4.1-13.8
		C694.23,621.76,699.54,629.54,696.23,637.09z"/>
	<path class="st189" d="M694.94,554.99c0.09,3.56-2.67,5.74-4.14,8.54c-4.26-0.94,4.55-7.77-3.38-7.56
		c-0.74,0.02,0.76-4.24,2.61-5.17C694.36,548.62,692.57,554.38,694.94,554.99z"/>
	<path class="st41" d="M481.02,538.98c5.74,3.85,7.29,9.93,8.55,16.15c-1.44,0.53-2.92,0.32-4.33,0.35
		c-1.52,4.71,0.53,9.47-0.42,14.13c-0.03,3.22-2.03,5.29-4.31,7.13c-3.34,2.69-4.09,5.75-1.61,9.4c0.4,0.96,0.46,1.95,0.16,2.94
		c-0.88,1.15-1.94,2.06-5.01,2.79c4.44-0.68,6.78-2.96,9.84-2.4c2.22,0.34,4.06,1.21,4.86,3.51c-1.36,7.92-12.38,10.24-11.3,19.58
		c0.67,1.31,0.93,2.7,1,4.14c2.48,11.93-7.33,10.83-13.93,13.17c-7.3-2.27-10.58,7.82-17.79,5.8c-4.35-6.48,4.63-10.91,2.58-17.03
		c-0.75-5.14,2.42-8.15,5.87-11.14c4.3-3.74,6.22-8.15,2.9-13.6c1.64-2.16,3.28-4.31,5.07-6.66c-6.34-0.95-7.99,6.3-14.79,8.08
		c6.07-9.07,12.74-14.91,19.88-20.36c1.83-1.4,6.05-4.57,3.39-5.61c-10.3-4.05,0.65-10.8-2.73-15.3
		C474.31,550.13,478.79,545.46,481.02,538.98z"/>
	<path class="st91" d="M423.55,673.8c1.03-6.06,2.06-12.12,3.09-18.18c3.76-12.4,0.26-25.64,5.34-37.89
		c2.34,5.44,5.65,10.65,12.34,3.51c0.32,0.4,0.64,0.8,0.97,1.2c-0.02,7.18-5.5,13.26-4.14,20.72c-1.68,2.99-1.01,7.83-6.23,8.09
		c-0.92-1.75-0.89-3.63-0.81-4.33c0.4,5.45,0.93,12.15-3.8,17.75C428.05,667.71,425.8,670.76,423.55,673.8z"/>
	<path class="st91" d="M458.07,593.9c4.94,4.24,7.58,8.37,1.16,13.89c-3.43,2.95-8.96,4.89-7.97,11.17c-0.7,5.52-3.82,3.88-6.9,2.32
		c0,0-0.05-0.05-0.05-0.05c0.39-7.96-4.74,0.65-6.45-2.03C444.69,610.65,451.38,602.27,458.07,593.9z"/>
	<path class="st231" d="M317.46,625.56c-0.38-1.76-0.75-3.51-1.13-5.27c2.91-6.86,9.55-11.89,9.8-20.06
		c0.81-1.61,2.02-2.69,3.87-2.93c3.07,0.4,7.45-1.77,7.82,3.96c-0.27,0.51-0.54,1.03-0.81,1.54c-3.58,2.26-5.59,5.67-7.01,9.52
		C329.6,620.31,324.3,623.67,317.46,625.56z"/>
	<path class="st196" d="M317.46,625.56c4.18-4.42,8.36-8.83,12.54-13.25c4.62-0.71,8.8,0.23,4.52,5.42
		c-4.68,5.66-10.46,10.86-16.78,14.51c-3.05,1.76-0.57-2.85-1.22-4.39C316.83,627.09,317.14,626.33,317.46,625.56z"/>
	<path class="st109" d="M293.45,656.05c-2.06-2.34,0.82-3.42,1.31-5.1c2.11-4.18,6.85-3,10.06-4.94
		C303.91,652.62,300.12,655.96,293.45,656.05z"/>
	<path class="st43" d="M375.61,582.43c-0.82,8.64-11.04,3.05-13.63,9.01c0,0-0.1-0.25-0.1-0.25c2-10.36,5.62-12.61,13.92-8.65
		L375.61,582.43z"/>
	<path class="st218" d="M346.81,591.62c6.96,3.58-3.99,5.69-0.74,8.97c-1.88,1.8-3.75,3.6-5.62,5.41c-1,0.97-2.1,2.76-3.42,0.98
		c-0.67-0.91-0.06-2.76-0.03-4.18c0,0-0.07,0.3-0.07,0.3C339.71,598.83,340.72,593.04,346.81,591.62z"/>
	<path class="st54" d="M590.04,653.28c-1.32,2.28-2.64,4.57-3.96,6.85c-2.54-7.96-5.59-15.83-2.85-24.44
		c1.33-4.17-1.42-7.88-1.8-11.88c0.58-3.25,1.16-6.5,1.73-9.76c1.31-8.08,6.54-2.11,9.93-2.8c8.01,0.13,11.63-7.43,17.94-10.24
		c2.36,2.93,4.72,5.87,7.08,8.8c0.16,2.65,0.19,5.28-1.55,7.55c-3.76,5.06-10.95,7.27-11.8,14.88c-0.23,2.08-2.66,3.93-5.23,2.42
		c-7.24-4.26-7.49-1.35-4.56,4.43C598.32,645.69,594.94,649.69,590.04,653.28z"/>
	<path class="st89" d="M581.42,623.81c5.62,4.18,5.82,9.09,3.64,15.59c-2.24,6.68,4,13.59,1.01,20.74
		c-0.78,0.64-1.57,1.28-2.35,1.92c-3.76-4.64-10.78-6.74-11.03-14.13C575.6,639.89,578.51,631.85,581.42,623.81z"/>
	<path class="st218" d="M593.39,611.89c-2.72,3.98-8.06-4.41-10.23,2.16c-5.11-8.77,2.77-11.03,7.46-14.89
		c2.87-8.69,8.72-3.27,13.51-2.86c0.23,0.65,0.37,1.33,0.43,2.02C603.34,604.91,600.12,609.85,593.39,611.89z"/>
	<path class="st78" d="M590.44,573.58c4.51,2.26,5.43,6.88,7.23,10.94c-7.89-0.26-15.63-0.14-19.66,9.67
		c-5.35-8.34,0.72-14.19,4.75-13.7C589.94,581.35,589.57,577.7,590.44,573.58z"/>
	<path class="st78" d="M604.13,596.3c-4.55,0.73-9.86-2.1-13.51,2.86c-0.16-5.8,4.83-8.54,7.52-12.66
		C603.06,587.98,604.78,591.42,604.13,596.3z"/>
	<path class="st53" d="M566.93,618.2c-4.73-4.52-3.27-8.18,0.14-12.15C572.52,610.68,568.24,614.13,566.93,618.2z"/>
	<path class="st160" d="M380.8,484.05c1.37,0.79,2.98-3.12,4.23,0.21c-2.77,3.99-2.39,10.71-10.38,11.14
		C376.87,491.29,378.84,487.67,380.8,484.05z"/>
	<path class="st204" d="M773.35,589.46c-4.11-0.55-5.82-3.38-6.69-7.02c-0.42-4,0.3-7.78,2.16-11.34
		c6.47,1.06,8.67,6.55,11.64,11.24C775.37,582.01,773.11,584.49,773.35,589.46z"/>
	<path class="st114" d="M593.39,611.89c3.72-4.52,7.45-9.04,11.17-13.57c2.44,0.22,5.17-0.27,6.47,2.69
		c-2.31,8.49-12.05,8.72-16.5,14.84C594.15,614.53,593.77,613.21,593.39,611.89z"/>
	<path class="st28" d="M614.94,616.6c1.39-2.11-0.17-5.59,3.17-6.79c2.2,1.64,4.4,3.27,6.6,4.91c0.68,3.5-1.61,4.17-4.27,4.48
		C618.64,618.28,616.41,618.24,614.94,616.6z"/>
	<path class="st30" d="M753.09,558.94c-0.01,5.44-0.03,10.87-0.04,16.31c-4.7-2.5-3.47-9.55-8.85-11.52
		c-0.9-4.39-1.79-8.78-2.69-13.17c-3.19-4.59-1.87-8.3,2.24-11.47C747.94,545.2,757.24,548.9,753.09,558.94z"/>
	<path class="st190" d="M614.94,616.6c2.21,0.06,4.4,0.19,5.5,2.6c-2.49,2.03-7.29,1.38-7.26,6.31c0.11,1.43-0.63,2.24-1.93,2.63
		c-6.29,5.13-10.69,11.92-13.17,19.28c-1.62,4.83-4.05,5.68-8.04,5.85c0.43-5.34,11.27-11.37-1.04-15.88
		c2.1-3.46,4.21-6.92,6.83-11.24c2.06,3.06,3.58,5.32,6.58,9.78C600.17,623.7,609.99,622.15,614.94,616.6z"/>
	<path class="st232" d="M621.68,623.58c1.64-0.74,4.01-2.57,4.8-2.04c3.33,2.25-0.94,2.22-1.44,3.43c-1.43,3.42-0.4,4.1,8.54,5.44
		c0.23,4.35-5.12,3.87-6.14,7.07c-4.3,0.17-6.89,2.7-9.52,5.9c-2.5,3.05-1.48-0.91-2.15-1.59
		C611.45,633.68,613.21,627.54,621.68,623.58z"/>
	<path class="st136" d="M621.68,623.58c-5.53,4.92-6.16,11.42-5.91,18.21c-0.61,0.86-1.67,1.67-1.76,2.58
		c-0.22,2.45-0.68,5.12-3.66,3.98c-2.84-1.09,2.67-3.62-0.43-5.64c-2.28,1.85-4.66,3.78-7.38,5.99c-0.41-8.9,11.09-11.64,8.71-20.56
		c0.64-0.88,1.29-1.75,1.93-2.63C616.01,624.87,618.84,624.23,621.68,623.58z"/>
	<path class="st198" d="M622.51,648.5c1.96-1.4,4.35-4.87,6.17-2.76c2.02,2.34-1.47,4.15-3.58,5.51c-2.54,1.26-5.09,2.53-8.02,3.98
		C617.5,651.34,621,650.76,622.51,648.5z"/>
	<path class="st141" d="M469.2,662.85c-3.61-1.01-7.63,3.61-10.98-0.81c-0.55-0.6-0.76-1.22-0.61-1.85
		c0.15-0.64,0.31-0.96,0.47-0.97c10.76-1.99,4.07-12.94,9.11-17.86c1.96-3.61,3.78-7.32,5.95-10.82c0.77-0.71,1.68-1.17,2.7-1.41
		c6.84,0.19,12-5.52,18.84-5.39c3.86-0.56,4.65,5.99,9.19,3.97c2.01,2.23,1.43,4.88,1.34,7.46c0.88,5.25-1.2,9.35-4.92,12.84
		c-3.84,4.05-8.9,5.82-14.01,7.51C480.41,657.57,474.73,660.05,469.2,662.85z"/>
	<path class="st119" d="M469.75,641.31c0.65,4.25-3.9,6.23-4.45,9.88c2.24,3.95,5.48-1.72,8.53,1.61
		c-5.44,2.96-10.57,5.76-15.71,8.56c-1.18-5.88-5.35-3.32-8.7-3.07c-0.84-0.17-1.68-0.34-2.52-0.52c2.73-4.81-2.36-6.34-4.37-8.03
		c-2.22-1.86-3.16,3.12-5.66,3.6c-0.97-0.06-1.96-0.17-2.16-1.35c-0.08-0.45,0.48-0.89,1.15-1.23c3.1-2.36-0.01-7.1,3.55-9.29
		c2.71-1.85,3.08-6.32,7.28-6.5c6.69-0.14,8.88-11.59,17.47-6.95c1.84,0.45,2.26,1.91,2.5,3.5
		C465.25,635.55,466.06,638.88,469.75,641.31z"/>
	<path class="st28" d="M485.75,653.22c4.58-2.31,9.17-4.61,13.75-6.92c2.45-0.28,5.17-6.29,7.29,0.34
		c-2.04,5.9-7.53,8.07-12.11,11.24c-2.42,2.8-5.07,4.77-8.95,2.67c-4.77-0.54-8.28,7.35-13.76,2.05
		C474.95,657.09,481.69,657.12,485.75,653.22z"/>
	<path class="st83" d="M508.41,664.7c-3.04,0.79-6.08,1.57-9.13,2.36c-0.75-1.52-1.5-3.05-2.25-4.57c-0.73-0.49-0.99-0.99-0.76-1.51
		c0.23-0.52,0.46-0.78,0.7-0.78c5.38-3.04,10.77-6.08,16.72-9.44c0.34,5.23-3.98,5.72-5.54,8.33c1.97,2.19,4.36-0.83,6.29-0.42
		C515.93,665.12,507.96,659.96,508.41,664.7z"/>
	<path class="st70" d="M496.97,660.19c0.02,0.76,0.04,1.53,0.06,2.29c-4.6,5.35-10.57,6.45-17.43,6.16c0.9-4.1,5.91-4.23,6.14-8.1
		c2.98-0.89,5.97-1.78,8.95-2.67C495.45,658.65,496.21,659.42,496.97,660.19z"/>
	<path class="st220" d="M449.42,658.28c3-2.21,5.17-5.71,9.72-5.87c1.95,3.09-3.21,5.73-1.02,8.94c0,0.01,0.09,0.7,0.09,0.7
		C456.53,657.88,449.45,666.31,449.42,658.28z"/>
	<path class="st19" d="M485.75,653.22c-2.83,5.72-9.36,5.99-13.77,9.38c-0.93,0.08-1.85,0.17-2.78,0.25
		C473.09,656.84,479.6,655.35,485.75,653.22z"/>
	<path class="st150" d="M346.81,591.62c-2.7,4.33-4.47,9.47-9.87,11.48c0.5-5.64-2.72-6.03-6.99-4.95
		c-0.56-0.81-0.48-1.53,0.26-2.18c3.47,1.21,6.21,0.88,7.11-3.36c-4.02-9.07,4.54-9.23,8.81-12.41c4.47,1.39,2.6,3.29,0.47,5.29
		C344.36,587.58,343.49,589.69,346.81,591.62z"/>
	<path class="st174" d="M330.21,595.97c-0.3,0.7-0.38,1.43-0.26,2.18c-0.65,0.86-1.3,1.72-1.96,2.59c-1.7,1.41-3.47,1.4-5.28,0.21
		c-6.19-10.19,5.89-9.08,7.86-14.46C334.93,590.56,328.24,592.75,330.21,595.97z"/>
	<path class="st52" d="M322.72,600.95c1.76-0.07,3.52-0.14,5.28-0.21c-0.59,8.49-6.63,13.73-11.67,19.56
		C314.67,612.59,325.93,609.16,322.72,600.95z"/>
	<path class="st196" d="M346.13,580.19c-1.54,5.13-10.67,4.86-8.81,12.41c-3.95-3.36-1.41-6.6,0.18-9.86
		c0.57-0.92,1.15-1.83,1.72-2.75C341.49,581.36,343.92,577.11,346.13,580.19z"/>
	<path class="st100" d="M355.12,660.16c1.28-4.13,5.79-5.51,7.75-8.8c2.54-4.27-1.95-1.78-3.12-2.56c2.31-3.27,4.62-6.55,6.94-9.82
		c7.71,1-0.38,4.85,1.03,7.09c5.3-0.61,6.91-6.39,14.1-8.46c-6.05,5.28-2.59,12.29-8.27,15.78
		C366.56,653.34,361.45,658.4,355.12,660.16z"/>
	<path class="st22" d="M729.65,584.28c0.33-2.83,0.66-5.67,0.99-8.5c1.17-0.54,2.81-2.16,3.5-0.16c2.4,6.95,7.28,13.04,7.33,20.81
		c0.8,5.93,1.68,11.88-4.56,15.77c-0.88-0.65-1.75-1.29-2.63-1.94C735.05,601.19,732.83,592.65,729.65,584.28z"/>
	<path class="st135" d="M736.9,612.2c1.52-5.26,3.04-10.52,4.57-15.77c6.55,1,3.12,5.41,2.79,8.56c-0.58,5.54-1.49,11.05-2.26,16.57
		c-0.38,1.43-0.76,2.86-1.33,5.01C736.38,622.17,737.2,617.03,736.9,612.2z"/>
	<path class="st56" d="M743.74,539.09c-0.39,3.89-3.22,7.31-2.24,11.47c-11.03-4.42-5.71-11.29-2.68-17.83
		C740.46,534.85,742.1,536.97,743.74,539.09z"/>
	<path class="st224" d="M279.23,659.66c-3.94,0.71-7.16-1.36-10.77-2.76c1.56-2.03,3.05-3.99,4.55-5.94
		c2.91-1.31,5.82-2.63,8.74-3.94c2.56,0,3.55,1.49,1.29,2.81C278.86,652.26,279.01,655.82,279.23,659.66z"/>
	<path class="st141" d="M544.46,701.25c0.36-2.16,0.72-4.32,1.08-6.49c4.54-9.4,3.94-20.71,11.7-29.17
		c-0.58,4.43-1.16,8.86-1.75,13.29c2.17,6.96,1.47,12.97-5.61,16.86C548.08,697.58,546.27,699.41,544.46,701.25z"/>
	<path class="st141" d="M549.89,695.75c3.03-5.24,5.2-10.76,5.61-16.87c4.64,1.75,3.08,5.64,3.09,8.99
		c2.01,4.56-0.36,8.11-2.7,11.67c-7.42,2.64-3.76,11.49-8.71,15.51C548.09,708.61,548.99,702.18,549.89,695.75z"/>
	<path class="st100" d="M555.9,699.53c0.9-3.89,1.8-7.78,2.7-11.67c4.23-0.6-0.34-10.42,7.54-7.19c-4.37,6.87-6.52,14.5-7.72,22.46
		c0,0-0.94,0.63-0.94,0.63s-1.12-0.1-1.12-0.1C556.2,702.29,556.05,700.91,555.9,699.53z"/>
	<path class="st103" d="M518.05,625.56c0.46,0.19,0.93,0.32,1.42,0.38c-3.47,3.5-0.37,6.76,0.36,10.11
		c1.65,7.61-3.41,11.88-12.45,10.5c-0.83-4.3-4.5-8.55-0.28-12.97C510.38,630.41,511.59,624.39,518.05,625.56z"/>
	<path class="st30" d="M522.66,663.97c-1.26,1.19-2.52,2.38-3.78,3.57c0.23-7.04-2.79-14.37,1.73-21.16
		C519.29,652.56,526.78,657.62,522.66,663.97z"/>
	<path class="st84" d="M509.8,634.41c-1.28,2.87-6.66,5.87,0.54,8.52c0.84,0.31-1.32,2.81-2.95,3.62c0,0-0.59,0.09-0.59,0.09
		c-2.26-3.72-4.93,1.4-7.29-0.34c2.21-3.52,5.05-6.93,1.97-11.36C504.16,633.31,506.89,632.46,509.8,634.41z"/>
	<path class="st171" d="M435.87,650.76c0.34,0.86,0.67,1.72,1.01,2.58c-1.52,4.37-3.03,8.75-4.59,13.11
		c-0.02,0.07-0.77,0.04-0.95-0.15c-0.42-0.47-0.7-1.07-1.04-1.62c1.08-8.16,2.16-16.32,3.28-24.72
		C436.85,643.2,434.39,647.4,435.87,650.76z"/>
	<path class="st140" d="M509.8,634.41c-2.78,0.17-5.55,0.35-8.33,0.52c0.75-2.44,1.5-4.88,2.25-7.32
		c-2.08-6.37-7.41-7.08-12.94-7.43c-4.81-5.12,1.39-6.32,3.22-9.09c3.61-2.87,4.6-7.28,6.49-11.16c2.72-3.19,4.86-7.36,10.21-6.19
		c5.56,9.89,3.4,21.55,7.34,31.81C513.37,626.71,513.38,632.24,509.8,634.41z"/>
	<path class="st156" d="M510.71,593.74c-3,2.34-6.01,4.67-9.01,7.01c-1.37,1.25-2.93,1.4-4.61,0.76c-2.79-2.19-2.78-5.68-4.05-8.58
		c-1.51-4.53-5.25-3.87-8.75-3.76c-2.18-0.02-4.23-0.35-5.64-2.27l0.15,0.13c0.78-5.42-0.99-11.9,6.07-14.74
		c1.57-1.6,3.24-2.83,5.61-1.57c0.74,0.09,1.97-0.06,2.13,0.3C496.84,580.04,503.19,587.36,510.71,593.74z"/>
	<path class="st189" d="M490.49,570.71c-1.65,0.85-3.29,1.7-4.94,2.56c-1.74-0.98-0.71-3.33-2.2-4.43
		c-0.93-4.76-2.17-9.48-2.73-14.27c-0.89-7.6,3.1-2.33,5.26-1.82c2.73,3.96,0.77,9.36,4.03,13.16c0.2,1.27,0.4,2.54,0.61,3.81
		C490.52,569.72,490.49,570.71,490.49,570.71z"/>
	<path class="st186" d="M679.82,602.92c-0.01,0.79-0.02,1.57-0.02,2.36c-3.55-1.1-4.27-4.91-6.75-7.03
		c-0.16-6.6,2.47-12.39,5.81-18.28C679.36,587.68,677.24,595.46,679.82,602.92z"/>
	<path class="st89" d="M489.91,565.91c-7.11-2.62-4.48-8.22-4.03-13.16c1.23,0.79,2.46,1.59,3.69,2.38c0.3,1.41,0.6,2.82,0.9,4.23
		C490.28,561.54,490.09,563.72,489.91,565.91z"/>
	<path class="st0" d="M367.23,577.85c-3-9.92,8.91-11.16,10.67-18.31c2.48,0.17,5.06,0.92,2.04,3.53
		c-4.72,4.08-6.81,9.55-9.31,14.89C369.46,579,368.32,579.05,367.23,577.85z"/>
	<path class="st0" d="M367.23,577.85c1.13,0.04,2.27,0.07,3.4,0.11c2.86,0.25,5.03,1.28,5.16,4.59c-7.67-1.99-10.92,3.13-13.91,8.65
		C354.04,582.9,366.62,582.77,367.23,577.85z"/>
	<path class="st233" d="M494.82,591.96c3.77,2.23,0.91,5.61,1.46,8.4c0.33,4.23-1.37,8.16-1.8,12.28c1.19,4.08-6.48,1.3-4.59,5.92
		c0.99,0.67,1.32,1.6,1.07,2.75c-3.75,4.95-8.72,7.88-14.83,8.93c-0.65,0.03-1.29,0.06-1.94,0.1c-2.42,2.53-3.89,8.1-8.76,2.71
		c-0.42-1.68-0.85-3.36-1.28-5.05c1.42-2.18,3.63-2.39,5.92-2.28c6.22,0.29,6.56-3.81,6.3-8.37c-0.54-1.74,6.74-3.51-0.02-5.23
		c-1.66,0.77-3.32,1.54-4.98,2.31c5.5-6.9,6.69-17.16,16.45-20.23C489.33,590.9,493.26,595.08,494.82,591.96z"/>
	<path class="st208" d="M446.69,634.97c-1.74,2.93-3.34,6.03-7.28,6.5c-2.78-7.82,3.01-13.53,4.95-20.19
		c2.45-0.34,5.18,0.18,6.9-2.32C456.01,626.09,445.41,628.83,446.69,634.97z"/>
	<path class="st26" d="M483.34,568.84c2.85,0.42,2.07,2.65,2.2,4.43c-0.88,2.45-9.33,2.92-1.71,7.93c1.61,1.06-4.36,2.84-5.03,5.82
		c-5.92-2.7-7.1-6.15-2.17-11.13C478.92,573.6,483.24,573.18,483.34,568.84z"/>
	<path class="st147" d="M494.82,591.96c0.75,10.2-3.68,4.5-6.98,2.27c-0.81-2.04-2.21-3.08-4.47-2.66
		c-1.71-2.65,0.95-3.27,2.13-4.58C490.04,585.96,494.66,584.78,494.82,591.96z"/>
	<path class="st234" d="M485.5,586.99c-0.71,1.53-1.42,3.05-2.13,4.58c-4.93,1.41-9.86,2.82-15.17,4.34
		c1.99-5.58,8.36-4.61,10.45-9.01C480.94,586.93,483.22,586.96,485.5,586.99z"/>
	<path class="st141" d="M473.24,602.61c-2.69,6.19-6.59,7.59-11.91,9.34C464.24,606.84,467.89,605.11,473.24,602.61z"/>
	<path class="st163" d="M476.37,612.14c2.66-1.28,5.33-2.56,8.45-4.06c1.46,7.33-5.41,6.6-8.43,9.29
		C476.39,615.63,476.38,613.89,476.37,612.14z"/>
	<path class="st235" d="M489.91,621.36c-0.01-0.93-0.01-1.86-0.02-2.79c1.46,0.19,3.25,1.01,4.34,0.46
		c10.73-5.35,10.85,0.74,9.48,8.58c-4.01,0.02-3.78,6.91-8.1,5.72c-4.44-2.28,8.32-6.11-1.44-7.39
		C496.68,620.77,490.68,623.49,489.91,621.36z"/>
	<path class="st135" d="M489.91,621.36c3.21-0.13,7.3-1.09,4.27,4.59c-6.54-0.8-10.56,8.99-18.04,4.3
		C480.25,626.54,484.66,623.31,489.91,621.36z"/>
	<path class="st135" d="M465.44,633.07c4.09,2.86,5.67-2.34,8.75-2.71c0.58,4.5-2.24,7.61-4.46,10.96
		c-2.77-0.29-7.06,0.39-7.99-1.06C459.9,637.33,463.3,635.09,465.44,633.07z"/>
	<path class="st31" d="M494.48,612.65c-4.46-4.83-2.93-8.79,1.8-12.28c1.81,0.13,3.61,0.26,5.42,0.38
		C499.75,604.99,502.54,612.11,494.48,612.65z"/>
</g>
</svg>
