<?xml version="1.0" encoding="utf-8"?>
<!-- Generator: Adobe Illustrator 24.1.2, SVG Export Plug-In . SVG Version: 6.00 Build 0)  -->
<svg version="1.1" id="Layer_1" xmlns="http://www.w3.org/2000/svg" xmlns:xlink="http://www.w3.org/1999/xlink" x="0px" y="0px"
	 viewBox="0 0 1080 1080" style="enable-background:new 0 0 1080 1080;" xml:space="preserve">
<style type="text/css">
	.st0{fill:#0D0D0D;}
	.st1{fill:#0B0B0B;}
	.st2{fill:#151515;}
	.st3{fill:#F6F6F6;}
	.st4{fill:#C2C2C2;}
	.st5{fill:#161616;}
	.st6{fill:#BBBBBB;}
	.st7{fill:#141414;}
	.st8{fill:#AFAFAF;}
	.st9{fill:#B5B5B5;}
	.st10{fill:#1C1C1C;}
	.st11{fill:#363636;}
	.st12{fill:#C5C5C5;}
	.st13{fill:#1F1F1F;}
	.st14{fill:#ADADAD;}
	.st15{fill:#9D9D9D;}
	.st16{fill:#ABABAB;}
	.st17{fill:#464646;}
	.st18{fill:#393939;}
	.st19{fill:#8E8E8E;}
	.st20{fill:#6C6C6C;}
	.st21{fill:#808080;}
	.st22{fill:#D3D3D3;}
	.st23{fill:#0C0C0C;}
	.st24{fill:#606060;}
	.st25{fill:#565656;}
	.st26{fill:#E6E6E6;}
	.st27{fill:#6B6B6B;}
	.st28{fill:#EFEFEF;}
	.st29{fill:#9A9A9A;}
	.st30{fill:#AEAEAE;}
	.st31{fill:#5B5B5B;}
	.st32{fill:#989898;}
	.st33{fill:#131313;}
	.st34{fill:#797979;}
	.st35{fill:#353535;}
	.st36{fill:#1B1B1B;}
	.st37{fill:#232323;}
	.st38{fill:#2F2F2F;}
	.st39{fill:#5C5C5C;}
	.st40{fill:#373737;}
	.st41{fill:#9E9E9E;}
	.st42{fill:#B1B1B1;}
	.st43{fill:#9F9F9F;}
	.st44{fill:#A6A6A6;}
	.st45{fill:#CECECE;}
	.st46{fill:#A8A8A8;}
	.st47{fill:#9C9C9C;}
	.st48{fill:#DBDBDB;}
	.st49{fill:#A0A0A0;}
	.st50{fill:#B9B9B9;}
	.st51{fill:#3F3F3F;}
	.st52{fill:#2B2B2B;}
	.st53{fill:#878787;}
	.st54{fill:#949494;}
	.st55{fill:#292929;}
	.st56{fill:#E8E8E8;}
	.st57{fill:#909090;}
	.st58{fill:#C9C9C9;}
	.st59{fill:#2A2A2A;}
	.st60{fill:#262626;}
	.st61{fill:#1A1A1A;}
	.st62{fill:#333333;}
	.st63{fill:#AAAAAA;}
	.st64{fill:#787878;}
	.st65{fill:#434343;}
	.st66{fill:#181818;}
	.st67{fill:#8C8C8C;}
	.st68{fill:#727272;}
	.st69{fill:#676767;}
	.st70{fill:#8F8F8F;}
	.st71{fill:#9B9B9B;}
	.st72{fill:#484848;}
	.st73{fill:#3E3E3E;}
	.st74{fill:#0E0E0E;}
	.st75{fill:#737373;}
	.st76{fill:#A1A1A1;}
	.st77{fill:#A2A2A2;}
	.st78{fill:#818181;}
	.st79{fill:#3B3B3B;}
	.st80{fill:#717171;}
	.st81{fill:#898989;}
	.st82{fill:#959595;}
	.st83{fill:#E5E5E5;}
	.st84{fill:#555555;}
	.st85{fill:#FAFAFA;}
	.st86{fill:#F9F9F9;}
	.st87{fill:#4E4E4E;}
	.st88{fill:#8A8A8A;}
	.st89{fill:#DDDDDD;}
	.st90{fill:#414141;}
	.st91{fill:#EBEBEB;}
	.st92{fill:#CFCFCF;}
	.st93{fill:#EEEEEE;}
	.st94{fill:#242424;}
	.st95{fill:#C1C1C1;}
	.st96{fill:#E3E3E3;}
	.st97{fill:#525252;}
	.st98{fill:#E9E9E9;}
	.st99{fill:#202020;}
	.st100{fill:#FEFEFE;}
	.st101{fill:#DEDEDE;}
	.st102{fill:#FBFBFB;}
	.st103{fill:#BCBCBC;}
	.st104{fill:#BEBEBE;}
	.st105{fill:#101010;}
	.st106{fill:#B3B3B3;}
	.st107{fill:#171717;}
	.st108{fill:#2D2D2D;}
	.st109{fill:#C0C0C0;}
	.st110{fill:#B0B0B0;}
	.st111{fill:#212121;}
	.st112{fill:#323232;}
	.st113{fill:#CBCBCB;}
	.st114{fill:#E1E1E1;}
	.st115{fill:#121212;}
	.st116{fill:#8D8D8D;}
	.st117{fill:#B2B2B2;}
	.st118{fill:#1D1D1D;}
	.st119{fill:#A9A9A9;}
	.st120{fill:#7C7C7C;}
	.st121{fill:#BABABA;}
	.st122{fill:#595959;}
	.st123{fill:#1E1E1E;}
	.st124{fill:#929292;}
	.st125{fill:#2E2E2E;}
	.st126{fill:#282828;}
	.st127{fill:#848484;}
	.st128{fill:#4F4F4F;}
	.st129{fill:#A3A3A3;}
	.st130{fill:#919191;}
	.st131{fill:#7D7D7D;}
	.st132{fill:#979797;}
	.st133{fill:#767676;}
	.st134{fill:#090909;}
	.st135{fill:#F0F0F0;}
	.st136{fill:#4A4A4A;}
	.st137{fill:#585858;}
	.st138{fill:#A4A4A4;}
	.st139{fill:#828282;}
	.st140{fill:#B4B4B4;}
	.st141{fill:#E7E7E7;}
	.st142{fill:#C3C3C3;}
	.st143{fill:#494949;}
	.st144{fill:#D9D9D9;}
	.st145{fill:#313131;}
	.st146{fill:#636363;}
	.st147{fill:#696969;}
	.st148{fill:#838383;}
	.st149{fill:#383838;}
	.st150{fill:#505050;}
	.st151{fill:#999999;}
	.st152{fill:#ACACAC;}
	.st153{fill:#454545;}
	.st154{fill:#616161;}
	.st155{fill:#252525;}
	.st156{fill:#6A6A6A;}
	.st157{fill:#747474;}
	.st158{fill:#EAEAEA;}
	.st159{fill:#BDBDBD;}
	.st160{fill:#D0D0D0;}
	.st161{fill:#D5D5D5;}
	.st162{fill:#686868;}
	.st163{fill:#646464;}
	.st164{fill:#2C2C2C;}
	.st165{fill:#3C3C3C;}
	.st166{fill:#545454;}
	.st167{fill:#F1F1F1;}
	.st168{fill:#FDFDFD;}
	.st169{fill:#FCFCFC;}
	.st170{fill:#A7A7A7;}
	.st171{fill:#272727;}
	.st172{fill:#B8B8B8;}
	.st173{fill:#0F0F0F;}
	.st174{fill:#191919;}
	.st175{fill:#707070;}
	.st176{fill:#111111;}
	.st177{fill:#F3F3F3;}
	.st178{fill:#4C4C4C;}
	.st179{fill:#4D4D4D;}
	.st180{fill:#222222;}
	.st181{fill:#626262;}
	.st182{fill:#777777;}
	.st183{fill:#A5A5A5;}
	.st184{fill:#868686;}
	.st185{fill:#C6C6C6;}
	.st186{fill:#EDEDED;}
	.st187{fill:#757575;}
	.st188{fill:#CACACA;}
	.st189{fill:#5E5E5E;}
	.st190{fill:#E0E0E0;}
	.st191{fill:#575757;}
	.st192{fill:#7F7F7F;}
	.st193{fill:#B6B6B6;}
	.st194{fill:#F8F8F8;}
	.st195{fill:#D1D1D1;}
	.st196{fill:#D8D8D8;}
	.st197{fill:#C4C4C4;}
	.st198{fill:#F4F4F4;}
	.st199{fill:#6E6E6E;}
	.st200{fill:#BFBFBF;}
	.st201{fill:#5D5D5D;}
	.st202{fill:#7E7E7E;}
	.st203{fill:#4B4B4B;}
	.st204{fill:#888888;}
	.st205{fill:#C8C8C8;}
	.st206{fill:#303030;}
	.st207{fill:#939393;}
	.st208{fill:#C7C7C7;}
	.st209{fill:#F7F7F7;}
	.st210{fill:#070707;}
	.st211{fill:#5A5A5A;}
	.st212{fill:#515151;}
	.st213{fill:#858585;}
	.st214{fill:#7A7A7A;}
	.st215{fill:#535353;}
	.st216{fill:#E2E2E2;}
	.st217{fill:#666666;}
	.st218{fill:#DFDFDF;}
	.st219{fill:#060606;}
	.st220{fill:#DCDCDC;}
	.st221{fill:#DADADA;}
	.st222{fill:#F2F2F2;}
	.st223{fill:#3D3D3D;}
	.st224{fill:#D4D4D4;}
	.st225{fill:#424242;}
	.st226{fill:#3A3A3A;}
	.st227{fill:#404040;}
	.st228{fill:#7B7B7B;}
	.st229{fill:#969696;}
	.st230{fill:#6F6F6F;}
	.st231{fill:#D2D2D2;}
	.st232{fill:#D6D6D6;}
	.st233{fill:#D7D7D7;}
	.st234{fill:#F5F5F5;}
	.st235{fill:#5F5F5F;}
	.st236{fill:#080808;}
	.st237{fill:#8B8B8B;}
	.st238{fill:#ECECEC;}
	.st239{fill:#343434;}
	.st240{fill:#CCCCCC;}
	.st241{fill:#0A0A0A;}
	.st242{fill:#B7B7B7;}
	.st243{fill:#040404;}
	.st244{fill:#E4E4E4;}
	.st245{fill:#CDCDCD;}
	.st246{fill:#6D6D6D;}
	.st247{fill:#444444;}
</style>
<g>
	<path class="st236" d="M318.05,626.77c-7.41,2.51-12.96,6.55-16.56,14.16c-3.04,6.44-7.97,12.2-14.58,15.88
		c-5.85-1.55-9.36,4.39-14.65,4.61c-4.6-2.06-4.31-5.11-1.93-8.8c4.14-6.42,8.2-12.88,15.32-16.52c6.65-4.58,13.71-8.52,20.46-12.96
		c4.53-1.96,8.62-4.7,12.78-7.31c4.61-1.68,6.99-6.4,11.38-8.38c3.2,0,3.8-1.54,2.48-4.23c9.82-7.74,16.47-18.48,25.56-26.89
		c4.75-11.11,13.82-18.11,23.68-24.08c4.89-2.96,7.85-6.54,8.07-12.25c0.08-1.02,0.34-1.99,0.73-2.93c2.5-3.54,5.43-5.78,9.68-2.62
		c2.46,1.82,4.72,0.41,7.06-0.07c7.82,7.78,13.99,2.12,20.26-2.54c4.03-3.39,8.09-6.75,10.78-11.41c0.27-7.23,2.38-13.99,4.97-20.64
		c4.16-4.75,9.12-8.94,10.96-15.37c1.14-6.14,10.45-3.74,10.96-10.53c2.98-6.39,9.5-8.76,14.52-12.86c2.44-1.57,4.04-5,7.84-3.63
		c0.36,1,0.38,2-0.02,3c-0.93,4.81-0.75,8.9-7.24,11.9c-6.79,3.14,0.13,10.62,0.18,16.22c0.94,1.01,0.91,2-0.06,2.97
		c-1.62,0.78-3.23,0.75-4.8-0.14c-1.59-1.62-2.06-3.86-2.26-4.42c-16.46,15.9-19.38,40.13-33.38,58.33
		c-2.03,3.31-5.97,1.58-8.61,3.28c-4.57,2.09-4.37,6.11-3.48,9.9c0.89,3.81,4.52,3.34,7.31,3.13c7.76-0.59,12.96,4.17,18.64,8.28
		c-6.98,1.52-6.87,2.35,1.86,15.07c0.54,0.54,0.75,1.11,0.64,1.71c-0.11,0.61-0.25,0.92-0.39,0.92c-3.68,4.55-3.28,10.18-4.05,15.5
		c-0.32,5.41-2.87,10.06-5.05,14.83c-6.83,16.3-15.14,31.56-28.82,43.4c-2.94,2.55-5.32,6.05-7.08,9.74
		c-6.68,3.35-8.55,10.67-13.03,15.83c-3.55,11.02-17.41,21.62-26.25,20.07c-0.57-1.96-0.12-3.5,1.78-4.48
		c4.3-3.39,6.08-8.76,9.82-12.6c4.06-5.31,9.82-8.96,13.7-14.51c1.57-2.25,2.11-3.62-0.41-5.2c-0.93-1.22-1.52-2.55-1.56-4.1
		c4.66-6.94,8.06-14.63,12.73-21.57c1.36-2.19,3.07-4.03,5.34-5.29c1.13-1.04,7.56,1.01,2.19-3.81c4.13-6.48,12.82-8.01,16.36-15.1
		c1.64-4.08,2.67-8.4,4.93-12.23c2.57-10.2,5.37-20.38,0.6-30.7c-0.92-1.07-1.78-2.19-2.64-3.27c-0.64-0.52-1.15-2-2.01-1.32
		c-0.94,0.75-0.09,2.39-0.58,3.59c-4.77,5.64-7.55,12.55-11.96,18.38c-1.52,2.01-3.4,4.24-6.39,2.96c-3.03-1.29-3.49-4.49-1.84-6.43
		c3.85-4.54-2.9-9.48,1.08-13.68c1.18-1.26,2.37-2.49,3.83-3.43c-2.18,1.13-3.66,3.14-5.64,4.52c-8.16-0.69-5.54-5.41-2.83-8.99
		c2.39-3.16,6.36-5.05,8.29-9.14c-4.59,1.8-7.98,6.92-13.71,4.51c-2.27-2.2,0.95-4.91-0.63-7.24c-6.43,8.3-18.22,10.54-22.88,20.7
		c-6.73,7.74-14.73,14.11-22.26,21C344.78,609.49,334.49,622.56,318.05,626.77z"/>
	<path class="st1" d="M576.07,451.08c-1.93-1.91-3.54-4.59-5.86-5.55c-4.18-1.73-1.52,1.59-1.6,2.86c-4.37,3.07-5.92,0.51-6.84-3.38
		c-4.14-8.39-7.28-16.89-5.39-26.61c0.89-4.59-2.35-7.78-6.06-9.75c-13.93-7.41-24.47-19-36.32-28.97
		c-1.12-4.47-4.36-6.97-8.56-7.28c-4.04-0.29-1.01,1.84-0.52,3c0.92,3.11-1.69,2.76-3.29,3.4c-5.71,5.8-1.09,13.08-2.8,19.43
		c-0.05,0.51-0.11,1.01-0.17,1.52c-0.89,4.41,2.36,9.49-2.16,13.3c-1.3,1.12-2.78,1.36-4.4,0.89c-4.09-2.47-6.88-5.86-6.04-10.86
		c1.09-6.47-2.18-12.28-2.29-18.53c0.31-2.45,2.71-4.96,0.56-7.29c-1.31-1.42-2.5,0.29-3.32,1.49c0.57,8.88,0.64,17.61-6.18,24.61
		c-10.95,7.68-18.17,19.37-29.08,27.09c-8.54,7.68-16.99,15.58-27.76,20.09c-9.63,4.03-11.42,13.1-14.15,21.4
		c-2.59,7.86-5.64,15.31-11.59,21.21c-3.94,3.9-6.42,3.16-6.83-2.6c0.98-3.71,2.95-7.16,3.05-11.13c0.7-2.05,2.48-4.2-0.68-5.82
		c-2.16-0.62-3.27-5.59-6.57-1.33c-2.16,2.78-4.84,5.12-8.01,6.77c-3.16,1.25-5.3,3.74-7.45,6.22c-2.61,2.33-5.36,4.35-9.12,4.09
		c-0.4-0.29-0.8-0.58-1.2-0.87c-0.32-7.45,6.06-10.08,10.65-13.06c8.6-5.56,14.06-12.73,16.72-22.52
		c3.84-14.13,13.38-21.29,27.92-22.76c9.82-1,13.77-10.24,17.58-16.92c10.55-18.51,26.46-31.81,40.98-46.52
		c6.31-6.39,29.35-8.05,37.36-2.96c4.67,2.97,9.64,5.88,13.38,9.85c11.49,12.19,23.95,22.84,39.31,30c5.75,2.68,6.83,8.5,5.94,14.38
		c-1.5,9.9,0.86,17.41,9.65,23.74c7.36,5.3,13.55,12.57,19.22,19.78c8.67,11.02,18.15,20.27,32.47,23.33
		c2.75,0.59,5.16,2.74,7.73,4.17c0.64,0.48,0.84,0.95,0.62,1.41c-0.22,0.45-0.44,0.68-0.66,0.68c-7.45-1.35-14.9-2.71-23.23-4.22
		c-0.2,4.12,2.54,8.2,0.75,12.22c-0.07,0.17-0.81,0.26-1.02,0.1c-0.5-0.37-0.87-0.91-1.3-1.38c-4.09-3.75-6.45-8.59-8.56-13.59
		c-0.92-2.13-1.85-4.25-2.77-6.38c-6.22-7.54-12.96-14.61-19.78-21.6C577.26,454.68,578.26,452.16,576.07,451.08z"/>
	<path class="st173" d="M634.3,491.08c-0.01-0.7,0.01-1.39,0.04-2.09c15.26,2.04,30.52,4.13,45.8,6.09
		c10.22,1.31,16.5,7.48,23.1,15.12c17.23,19.94,30.64,44.82,60.34,50.14c12.74,2.28,18.83,10.85,23.85,23.03
		c8.6,20.86,21.12,39.86,40.69,52.79c11.43,7.55,19.35,19.45,31.86,25.66c1.37,0.68,2.23,1.83,1.94,3.56
		c-0.36,2.13-1.93,1.65-3.35,1.74c-4.52,0.3-9.43,0.65-11.9-3.89c-7.34-13.49-19.53-21.58-31.75-29.75
		c-5.67-3.79-9.85-7.71-12.73-15.15c-5.88-15.19-18.26-27.2-24.07-43.26c-9.76,6.95-6.45,16.8-8.42,24.99
		c-0.46,1.45-0.92,2.9-2.81,3.02c-1.03-0.23-1.77-0.83-2.22-1.78c-0.82-2.99,0.51-5.88,0.41-8.84c-1.85-7.2-0.06-13.62,4.16-19.5
		c0.02-4.65-3.92-3.3-6.29-3.92c-4.23-1.11-8.33-2.21-10.87-6.2c-5.76-4.42-12.12-6.38-19.51-6.34c-4.61,0.03-5.39,1.85-5.28,6.79
		c-3.23-19.71-18.54-29.93-28.91-43.56c2.01-1.21,3.43-0.08,4.81,1.2c-1.27,0.76,1.43,1.38,0.43,0.73
		c-1.83-2.67-3.68-4.84-6.88-5.23c-0.81-1.13-1.58-2.28-2.43-3.37c-2.5-3.24-3.63-10.75-7.67-8.83c-5.68,2.71-1.85,9.13-0.03,13.75
		c1.15,2.92,6.19,4.34,4.87,8.04c-3.99,11.19-0.1,24.8-10.37,34.03c-0.72-0.77-1.57-1.88-1.2-2.7c1.9-4.23-0.65-4.11-3.5-3.82
		c-4.06-6.35,6.7-7.69,4.54-13.4c-0.31-3.18,4.53-5.01,1.97-9.31c-6.55,6.67-14.3,11.8-19.51,19.58c-2.4-2.45-1.75-5.04-0.4-7.67
		c4.67-7.31,13.61-11.06,16.53-19.82c-1.52-5.16-5.06-9.8-3.96-15.6c0.54-2.08,0.99-4.11-2.18-4.41
		c-8.43-2.54-13.27,3.54-18.86,7.78c-0.2-3.63-0.41-7.26-0.58-10.89c-0.11-2.32-0.77-5.22-3.49-3.82
		C643.18,499.73,639.83,492.08,634.3,491.08z"/>
	<path class="st12" d="M438.32,544.37c8.71-12.11,12.37-26.69,19.32-39.6c4.78-8.86,14.25-15.05,14.31-27
		c4.21,4.26,4.31,8.68,4.55,13.06c1.71,4.43-0.9,8.21-2.39,13.03c3.79-4.22,6.93-6.22,9.41-0.07c2.03,4.49,1.23,9.78,4.64,14.04
		c1.74,2.17,1.06-1.3,1.69-0.3c2.71,2.72,2.41,6,1.73,9.35c-4.65,9.31-0.65,18.6,0,27.92c0.3,4.21,3.13,10.35-5.51,9.64l-0.31,0.26
		c-5.13-5.7-12.24-7.7-19.08-10.22c-0.98-0.21-1.71-0.77-2.21-1.62c-0.58-2.59-0.59-4.73-4.88-3.62
		C451.97,551.2,444.78,548.8,438.32,544.37z"/>
	<path class="st205" d="M338.01,642.33c2.44-5.26,9.97-4.43,12.36-10.1c-5.85-2.34-9.9,2.18-14.72,3.2
		c-0.76-0.75-2.14-0.88-2.28-2.26c9.55-10.47,22.84-13.44,35.48-17.71c5.17,2.77,6.89-5.62,11.82-3.65c0.35,0.1,0.82,0.11,1.02,0.35
		c6.06,7.21,6.06,7.21,11.11-1.94c4.87-8.83,10.24-10.48,19.33-5.96c0.8,4.14-3.45,5.15-4.83,7.89c-1.06,2.1-5.2,6.09,2.24,5.01
		c2.03-0.3,3.15,2.57,1.69,3.92c-4.12,3.81-4.66,10.67-10.87,12.61c-5.15,0.81-9.99,2.66-14.86,4.43c-2.75,1-6.22,2.37-7.73-1.32
		c-1.61-3.92,2.13-4.75,4.76-6c1.1-0.53,2.34-0.82,4.33-2.47c-12.63,6.66-24.82,10.91-37.18,14.76
		C345.73,643.83,341.7,645.62,338.01,642.33z"/>
	<path class="st237" d="M371.9,706.92c10.02,0.22,13.44-9.48,20.49-13.76c2.34-1.42,3.86-4.17,5.76-6.31
		c12.19-3.88,20.04-14.56,31.27-19.94c3.89,1.13,1.43,6.83,5.6,7.78c-0.25,5.56-2.97,9.58-7.69,12.35
		c-9.29-0.07-5.32,10.65-11,13.51c-4.75,1.11-5.71,6.21-9.21,8.7c-4.29,3.05-7.83,4.4-9.18-2.58c1.92-2.38,5.42-3.58,5.32-7.43
		c-14.89-2.72-21.41,14.24-35.72,15.08C366.95,710.7,369.3,708.75,371.9,706.92z"/>
	<path class="st44" d="M411.19,671.01c-0.79-6.93,4.09-12.19,8.08-15.42c12.59-10.21,18.39-24.41,25.59-37.91
		c4.09-0.87,3.93-8.71,10.11-6.16c3.4,3.77,0.92,9.07,3.43,13.07c0.13,3.44-4.05,4.69-3.58,9.33c0.37,3.57-1.57,9.46-6.3,12.5
		C436,654.48,423.63,662.8,411.19,671.01z"/>
	<path class="st238" d="M348.54,642.2c15.05-6.16,30.1-12.31,47.84-19.57c-4.13,10.47-13.69,7.55-17.93,14.33
		c8.58-0.51,14.88-6.4,22.63-5.68c0.18,1.76-0.71,3.02-1.93,4.12c-4.65,2.82-8.92,7.87-13.9,8.25c-12.4,0.93-13.55,8.05-12.12,17.67
		c-1.23,4.82-1.95,10.04-8.24,11.08c-4.89-2.09-6.97-7.34-11.26-10.12c0.49-2.31,3.33-4.14,1.43-6.94
		c-1.08,0.91-2.17,1.81-3.25,2.72c-2.33-2.29-4.68,1.69-7.01-0.02c-0.01-0.78-0.02-1.55-0.03-2.33c1.18-7.95,9.11-7,13.66-10.43
		c0.59,1.32-0.43-1.39,0.86-0.66c0.01,0.01,0.35-0.56,0.54-0.86C356.12,642.84,351.82,646.21,348.54,642.2z"/>
	<path class="st205" d="M676.79,506.51c1.29,5.51,2.48,11.06,6.18,15.62c-4.29,6.8-11.39,10.91-16.32,17.1
		c-3.46-0.18-3.67,9.32-9.17,3.09c-1.01-8.91,0.79-18.13-2.96-26.73c0.01-1.64,0.03-3.28,0.04-4.92c3.94-11.65,8.53-13.7,20.03-8.95
		c0.16,0.32,0.24,0.73,0.49,0.96C676.21,503.72,670.67,507.76,676.79,506.51z"/>
	<path class="st14" d="M529.8,499.73c2.49,1.57,3.67,3.98,4.33,6.73c5.43,13.66,10.78,27.34,12.46,42.11
		c0.45,1.59,0.45,3.18,0.07,4.77c-2.46,3.18-1.46,10.46-8.99,7.69c0.77-5.85-3.84-1.32-5.4-2.76c-6.57-5.42-2.28-14.66-7.31-20.61
		c-4.07-9.45-1.85-19.32-1.91-29.04c7.09,5.73,1.04,13.26,3.31,18.48c-0.41-5.59,0.99-12.42-0.55-19.29
		C525.01,504.19,525.92,501.16,529.8,499.73z"/>
	<path class="st57" d="M523.1,651.12c-2.89-1.79-5.69-1.58-3.85,2.32c6.18,13.14-3.05,18.75-11.34,25.02l-0.69-0.61
		c0.14-2.76,3.82-4.88,1.44-8.2c-4.91,2.22-7.13,7.27-11.95,11.08c-0.36-7.67,8.68-10.17,8.12-17.58c-4.45,0.89-3.57,6.8-7.91,6.81
		c-2.59-3.49,4.6-7.96-0.44-11.71c-0.36-0.36-0.72-0.73-1.09-1.09c-1.37-4.92,1.37-8.35,4.61-11.2c3.7-3.26,4.36-7.14,3.72-11.61
		c0.11-1.06,0.49-2,1.18-2.8c8.66,3.4,2.52,11.07,4.85,16.61c3.9-2.3,0.28-6.79,3.24-9.83c4.07,3.52,8.18,7.07,12.29,10.62
		C524.86,649.98,524.11,650.69,523.1,651.12z"/>
	<path class="st48" d="M767.68,593.48c-1.22,3.47,1.95,7.77-2.04,10.7c1.31,5.09-4.02,6.93-5.23,10.78
		c-3.72,4.29,2.01,9.45-1.25,13.77c-4.8,8.5-18.29,16.85-24.77,15.35c-3.91-1.72-2.95-4.54-1.4-7.19c2.58-4.44,4.23-9.2,5.48-14.13
		c2.35-3.7,4.7-7.41,7.06-11.11c5.09-0.91,3.52,2.62,3.46,5.57c2.57-9.44,6.84-17.73,11.86-25.56
		C764.21,586.41,766.49,588.75,767.68,593.48z"/>
	<path class="st101" d="M318.05,626.77c12.61-9.67,25.22-19.35,37.83-29.02c8.21-2.77,16.26-6.2,25.11-6.51
		c4.79-1.47,10.29-7.93,13.54,1.85c-0.98,3.37-3.57,5.27-6.37,6.98c-8.87,4.48-18.65,6.06-28.15,8.38c-4.66,1.14-7.11,3.44-8.32,7.7
		c-8.53,5.27-19.29,5.92-26.92,13.03l0.09-0.12C322.23,629.38,320.12,628.13,318.05,626.77z"/>
	<path class="st109" d="M235.89,669.05c-4.05-0.51-6.09,3.56-9.61,4.25c-5.79-3.39-2.36-7.72-0.98-11.59
		c6.27-17.61,16.14-33,29.18-46.37c2.16-2.8,3.01-7.09,7.82-6.87c3.12,4.14-0.01,7.35-1.55,10.84c-1.54,3.51-5.58,5.72-5.18,10.11
		c1.87,0.45,3.85,0.22,5.48,1.33c3.91,3.13,2.48,7.3,2.22,11.24c-0.04,2,0.19,4.01-0.24,5.99c-6.22,3.77-11.55,3.73-15.15-3.56
		c-8.57,3.67-12.4,12.41-9.7,22.13C238.49,668.38,238.03,669.49,235.89,669.05z"/>
	<path class="st123" d="M545.09,553.32c0.1-1.6,0.21-3.2,0.31-4.79c0.28-1.99,0.13-4.6,3.35-2.29
		c12.44,7.88,21.55,19.34,31.93,29.46c5.8,5.66,6.58,13.66,10.64,20.13c3.24,5.16,5.1,11.21,11.77,13.19
		c0.51,1.54-0.32,3.91-1.1,3.59c-5.07-2.11-3.36,1.65-3.87,3.89c-1.23,5.35-2.16,11.31-10.23,8.9c-1.88-1.78-1.63-3.77-0.61-5.84
		c2.71-3.92,5.76-7.82,1.24-12.48c-2.97-4.44-3.51-10.08-7.02-14.25c-2.31-3.52-3.07-7.95-6.44-10.85
		c-2.02-1.97-3.02-4.57-4.37-6.95c-1.18-1.85-2.65-3.44-4.39-4.78c-1.43-1.01-2.94-1.91-4.3-2.97c-3.43-3.58-5.34,4.77-8.78,1.15
		c-1.46-2.18-1.4-4.63-1.26-7.08C552.46,556.27,547.01,556.29,545.09,553.32z"/>
	<path class="st208" d="M348.54,642.2c3.52-0.66,7.02-1.49,10.57-1.93c2.5-0.31,5.63-0.3,5.95,2.85c0.11,1.04-3.11,2.42-4.81,3.64
		c-7.42-0.01-12.51,7.26-20.19,6.46c-12.23,0.17-20.51,9.59-31.21,13.33c-4.6-1.39-6.18-3.72-2.05-7.4c3-2.67,6.71-4.33,10.3-5.97
		c4.44-2.02,7.98-4.66,9.78-9.3c3.55-1.65,7.1-3.28,11.12-1.54C341.53,643.28,345,639.92,348.54,642.2z"/>
	<path class="st32" d="M587.23,625.37c2.1-1.56,6.05,0.38,6.79-3.88c0.97-5.57,3.42-10.22,9.06-12.47c2.48,0.42,3.86,2.02,4.6,4.31
		c3.32,6.74,9.1,13.32,1.45,20.83c-4.73,4.47-7.09,11.68-14.74,12.78c-0.05-0.93-0.09-1.86-0.14-2.79
		c-1.12-4.56,3.71-7.03,3.78-10.89c-1.79,3.29-2.24,8.53-8.42,7.06l0.08,0.06c-0.97-1.14-1.08-2.46-1.2-3.92
		c-0.12-1.54,6.3-5.66-1.75-4.59c-2.23,0.3-2.83-2.68-2.09-5.01C585.33,626.03,586.18,625.53,587.23,625.37z"/>
	<path class="st130" d="M767.68,593.48c-2.05-3.47-3.37-3.66-5.28,0.42c-4.31,9.17-9.12,18.11-13.85,27.39
		c-4.52-2.79,3.3-8.12-3.01-9.64c-0.96-7.66-4.08-15.31-0.22-23.02c1.85,0.65,2.9,2.4,4.55,3.28c5.51,0.97,5.38-4.09,7.09-6.89
		c2.31-3.77,4.17-7.86,7.16-11.15c2.6-2.87,5.53-5.68,8.61-0.35C766.63,579.05,766.04,585.98,767.68,593.48z"/>
	<path class="st7" d="M266.69,590.93c12.55-22.53,26.68-43.18,55.13-47.13c5.88-0.82,9.14-5.76,13.41-9.08
		c0.45,0.32,0.91,0.65,1.36,0.96c0.43,1.03,0.6,2.1,0.5,3.22c-2.55,6.85-8.03,11.35-14.68,11.71c-16.35,0.86-25.79,10.54-33.44,23.3
		c-5.71,7.74-11.39,15.52-20.21,20.15C267,593.73,265.59,593.16,266.69,590.93z"/>
	<path class="st71" d="M496.47,658.27c-3.65,4.79-4.81,11.28-10.33,15.11c-2.31-4.86,5.64-7,2.7-12.11
		c-1.69,0.96-3.41,1.94-5.79,3.29c-0.23-5.36,5.45-7.2,6.16-13.19c-10.24,7.17-15.4,17.22-23.28,25.09
		c-0.34-12.98,8.18-21.45,16.09-30.22c0.99,0.04,1.95-0.12,2.88-0.48c3.15-1.45,5.88-5.56,9.83-2.65c4.17,3.07,2.7,7.06,0.75,10.92
		c-0.68,1.35-0.41,2.87,0.82,4L496.47,658.27z"/>
	<path class="st13" d="M534.49,628.5c-0.27-3.65-0.55-7.3-0.9-11.93c-5.74,7.47-1.48,15.85-5.21,24.13
		c-2.41-12.97-2.31-24.33,3.29-35.05c1.83-3.5,3.86-7.01,0.47-10c-8.83-7.81-8.35-18.22-8.8-28.46c5.08-2.79,5.57-2.71,6.57,3
		c1.12,6.38,0.4,13.25,5.47,18.43c6.22,2.63,6.3,7.65,5.15,13.18c2.12,8.55-0.05,16.75-1.91,24.98l-0.25-0.2
		C537.37,627.84,537,630.34,534.49,628.5z"/>
	<path class="st82" d="M553.58,568.93c1.57,0.25,2.8-0.12,3.3-1.81c2.03-6.9,4.1-3.93,6.17-0.03c5.77,9.93,3.84,20.45,2.19,30.89
		c-0.32,2.02-1.34,4.77-4.13,3.83c-2.3-0.78-0.59-3.82-1.6-5.58c-1.08,5.36,4.82,9.33,2.84,14.89c-1.77,3.3-3.21,7.22-8.24,4.46
		c0.02-0.73-0.09-1.44-0.32-2.13c-5.35-8.72,2.14-18.03-1.26-26.83c-0.96-3.66-2.82-7.01-3.78-10.68
		C548.84,572.56,549.17,569.33,553.58,568.93z"/>
	<path class="st125" d="M491.94,412.94c1.52,0.04,3.04,0.08,4.56,0.11c-4.44,15.5-2.48,32.17-8.7,47.35
		c-0.52-0.61-0.67-1.31-0.45-2.08c-1.61-1.07-1.54-3.25-2.94-4.47c0.16,1.52-0.39,2.76-1.5,3.8c-0.93,0.4-1.84,0.34-2.73-0.09
		c-2.58-3.15-2.66-6.91-2.69-10.69c0.15-2.34-2.02-3.99-1.9-6.32c1.43-4.11,5.62-6.3,7.15-10.33c0.9-4.74,2.25-9.37,3.17-14.1
		C486.54,412.91,488.02,410.37,491.94,412.94z"/>
	<path class="st92" d="M513.99,379.67c2.98,0.23,6.13,0.55,8.11,2.91c8.94,10.68,20.34,18.03,32.24,24.88
		c3.86,2.23,6.83,5.92,5.21,11.12c-2.93,9.38,0.05,17.42,5.46,24.95c-1.99,3.15-4.17,1.39-6.34,0.27c-0.81-0.61-1.53-1.3-2.18-2.08
		c-2.15-2.86-3.74-5.99-4.51-9.51c-0.31-1.48-0.44-2.98-0.49-4.49c-0.87-5.96,2.27-12.91-4.37-17.42c-2.64-2.29-5.88-3.63-8.74-5.56
		c-5.44-4.58-11.83-8.09-15.94-14.17C518.02,388.18,514.4,385.17,513.99,379.67z"/>
	<path class="st0" d="M255.72,615.7c-11.48,14.45-21.63,29.66-27.98,47.18c-1.26,3.48-3.32,6.6-1.46,10.42
		c-2.12,1.25-2.77,4.47-7.06,4.44c1.46-27.07,17.13-46.09,34.55-64.2C255.64,613.15,256.84,613.38,255.72,615.7z"/>
	<path class="st207" d="M658.63,541.84c4.53,2.03,3.42-5.85,7.64-4.35c0.67,1.76,0.51,3.39-0.72,4.86
		c-0.71,2.68-1.43,5.36-2.14,8.04c-9.55,10.51-8.89,27.04-21.16,35.95c-1.17,0.85-2.42,1.6-3.63,2.4c-0.99-0.43-1.7-1.13-2.1-2.14
		c0.81-1.35,1.61-2.7,2.42-4.05c2.94-3.11,3.63-7.11,4.33-11.09c0.83-4.73-2.16,0.39-2.63-1.01c0.1-5.71,1.93-11.57-1.84-17.13
		c5.68,3.31,5.91,9.92,10.25,14.47c0.4-2.17,0.73-4,1.07-5.83C653.67,555.56,651.27,546.64,658.63,541.84z"/>
	<path class="st5" d="M759.17,628.74c-1.92-5.67-5.71-11.44,0.81-16.7c0.85,0.6,1.15,2.77,1.34,2.35c2.08-4.56,6.12-8.15,6.76-13.4
		c0.43-0.5,0.96-0.81,1.61-0.93c0.63,5.71-0.87,11.59,2.22,17.14c1.1,1.97,1.53,5.87-0.76,7.13c-5.96,3.28-2.26,6.54-0.44,9.58
		c3.26,5.41,6.2,10.75,4.07,17.67c-5.91-1.4-4.67-7.48-7.16-11.02c-1.8-2.12-3.46-4.32-4.09-7.11
		C763.44,630.61,761.69,629.32,759.17,628.74z"/>
	<path class="st95" d="M772.72,573.5c-10.58-1.9-9.78,8.23-13.27,13.28c-3.16,4.57-4.53,10.19-11.8,8.72
		c-1.44-7,2.82-12.26,5.38-18.09c2.2-5.01-2.82,0.33-2.8-1.8c1.85-4.08-6.55-9.63,1.83-12.76c5.33,2.3,11.05,2.79,16.69,3.79
		C773.62,567.49,773.94,568.57,772.72,573.5z"/>
	<path class="st193" d="M578.67,454.8c9.38,5.24,15.94,12.86,19.49,23.03c-2.79,2.52,0.74,8.33-4.11,9.26
		c-5.5,1.05-4.96-4.32-6.73-7.46c-1.33-2.35-4.25-3.79-6.47-5.64C580.28,467.58,575.48,461.65,578.67,454.8z"/>
	<path class="st204" d="M235.89,669.05c0.58-1.06,1.16-2.13,1.75-3.19c-3.14-7.84-0.39-13.07,7.15-16.2c5.11-0.4,7.49,3.09,9.73,6.8
		c2.75,6.55,7.58,1.5,11.41,2.03c2.35,0.5,4.11,1.49,3.68,4.35c-4.85,4.48-7.44,11.66-15.16,12.71c-0.24-0.69-0.27-1.75-0.74-2.01
		c-4.44-2.42,1.72-9.39-4.11-10.49c-5.21-0.98-5.68,5.97-9.74,7.48c-2.03,0.75-3.03,4.62-6,2.03
		C233.65,672.38,235.17,670.26,235.89,669.05z"/>
	<path class="st160" d="M534.06,591.64c-6.78-4.45-5.17-12.01-7.11-18.32c-0.6-1.97,2.69-7.29-3.61-6.13
		c0.75-8.54,1.49-17.07,2.24-25.61c5.17,3.66,2.98,9.81,4.87,14.6c0.97,2.47,1.49,4.12,4.02,1.49c1.02-0.85,2.05-1.71,3.07-2.56
		c0.33,1.56,0.65,3.11,0.98,4.67c-0.73,4.23,0.34,8.64-1.22,12.8c-1.3,6.09,1.54,12.23-0.19,18.32
		C536.27,591.92,535.26,592.17,534.06,591.64z"/>
	<path class="st230" d="M375.38,691.92c-4.14-3.93-6.9-1.66-9.51,2c-4.41,6.19-7.23,13.49-12.92,18.85
		c-3.59-3.11,1.03-5.39,0.37-8.08c1.98-5.89,3.75-11.93,8.67-16.21c3.53-3.07,2.72-7.34,3.4-11.21c1.76-4.3,4.27-7.59,9.59-7.04
		c4.48,2.34,1.99,7.57,4.48,10.73c0.79,1.29,1.49,2.62,1.84,4.11c0.13,2.15-0.66,3.99-1.9,5.68
		C378.28,691.91,377.06,692.7,375.38,691.92z"/>
	<path class="st142" d="M480.27,609.31c-4.15,8.02-2.8,17.76-7.72,25.79c-3.89-5.08-7.44-9.86-4.94-16.41
		c-2.79-6.68,0.71-12.79,1.74-19.13c5.48-0.32,8.98,2.78,11.91,6.87C481.46,607.58,481.1,608.53,480.27,609.31z"/>
	<path class="st50" d="M351.69,616.15c-3.62-6.09-0.34-8.08,5.17-9.51c10.23-2.65,20.35-5.76,30.51-8.68
		c1.11,8.76-3.18,12.65-11.58,12.85C366.61,607.37,359.85,614.94,351.69,616.15z"/>
	<path class="st13" d="M607.25,632.41c3.96-5.29,6.82-10.37-0.86-15.21c-1.69-1.06-1.15-3.22,1.29-3.88
		c7.69,8.57,14.45,17.75,20.28,27.77c2.63,4.52,1.53,6.29-1.76,8.61c-0.87,0.01-1.66-0.23-2.41-0.63c-4.56,0.74-4.68,5.89-7.92,7.9
		c-0.45,0.26-0.9,0.51-1.35,0.76c-2.7,0.35-1.72,5.08-6.1,4.22c0.67-7.45,5.63-12.57,10.23-17.6c3.63-3.98,4.3-7.19-0.08-10.75
		c-4.49-3.47-7.16,5.32-11.67,1.74C606.89,634.36,607.01,633.37,607.25,632.41z"/>
	<path class="st115" d="M427.34,687.03c1.11-4.97,6.31-8.05,6.3-13.55c3.34-8.77,12.25-13.6,15.72-22.27
		c1.91-1.67,4.86-4.3,4.52,0.81c-0.48,7.25-1.86,14.77-7.68,20.01c-5.99,5.39-12.39,10.35-16.26,17.64c-1.12,2.11-2.6,2.51-4.14,1
		C425.45,690.33,426.78,688.29,427.34,687.03z"/>
	<path class="st1" d="M658.63,541.84c-2.56,6.82-3.51,14.33-8.51,20.12c-1.1-15.7,6-30.62,4.38-46.37
		C661.87,523.4,661.01,532.5,658.63,541.84z"/>
	<path class="st40" d="M523.1,651.12c0.73-0.72,1.46-1.44,2.18-2.16c10.97,5.6,17.83,16.2,28.19,22.88
		c5.44,3.51,6.69,12.55,3.59,20.07c-0.32-0.28-0.64-0.55-0.96-0.83C549.91,673.8,537.09,661.97,523.1,651.12z"/>
	<path class="st174" d="M375.8,610.81c5.02-3.23,9.41-7.04,11.58-12.85c2.07-1.65,4.14-3.29,6.21-4.94
		c1.55-3.58,2.65-9.24,7.81-6.67c3.91,1.95,2.45,8.25,0.92,10.98c-3.18,5.66-10.32,8.16-12.91,15.14c-1.06,2.86-6.14-0.71-9.26,0.74
		c-3.67,0.05-5.09,2.85-7.37,5.15c-4.38,4.41-3.91-0.05-3.9-2.9C371.18,613.91,373.49,612.36,375.8,610.81z"/>
	<path class="st1" d="M554.12,615.58c5.09,3.1,4.14-3.22,6.59-4.24c2.82,2.04,3.32,5.71,5.68,8.07c7.9,1.59,11.06,8.38,15.33,13.96
		c0.27,1.05,0.06,2-0.62,2.84c-1.66,2.9-0.22,7.72-7.12,2.14c-7.98-6.46-14-14.05-20.64-21.37c-0.16-0.18-0.25-0.66-0.13-0.82
		C553.41,615.88,553.8,615.76,554.12,615.58z"/>
	<path class="st10" d="M536.13,480.23c-10.59-9.42-16.83-28.14-12.58-37.88C529.34,454.52,535.35,466.31,536.13,480.23z"/>
	<path class="st170" d="M326.89,643.87c-0.39,10.1-9.41,11.23-15.76,15.11c-3.12,1.9-8.28,3-2.28,7.57
		c-3.34,0.56-6.82,4.71-9.98,0.55c-2.78-3.66,2.08-5.76,3.33-8.19C307.2,649.22,318.35,648.47,326.89,643.87z"/>
	<path class="st171" d="M554.02,433.15c1.59,2.91,3.18,5.82,4.77,8.74c-4.76,3.44-6.65-2.98-12.2-2.85
		c7.44,3.44,9.51,7.95,5.4,14.03c-9.09,1.39-11.84-3-10.65-11.38c0.72-5.05,0.98-10.17,1.45-15.26c-0.26-3.79,2.11-2.76,3.98-2
		C550.7,426.02,551.59,430.25,554.02,433.15z"/>
	<path class="st77" d="M605.4,553.26c6.26-9.14,8.7-19.71,12.69-30.5c-5.53,0.6-4.39,5.69-7.72,7.2
		c-1.8-8.97,4.57-12.54,10.74-12.53c6.69,0.01,2.42,7.56,4.35,11.3c-1.75,1.51-3.51,1.41-5.29,0.05
		c-4.15,10.41-8.29,20.83-12.44,31.24C605.67,558.22,603.85,556.32,605.4,553.26z"/>
	<path class="st45" d="M254.44,675.54c4.87-4.57,6.15-13.01,14.71-13.58c0.55-0.89,1.25-1.02,2.09-0.4
		c5.15-1.81,8.74-8.8,15.67-4.75c-4.4,3.1-8.8,6.2-13.2,9.3c-3.44,5.03-8.24,8.8-12.32,13.24c-3.16,2.25-5.15,6.9-10.31,5.08
		c0.02-1.24,0.05-2.48,0.07-3.73c-1.47-3.46,1.39-3.96,3.43-5.03L254.44,675.54z"/>
	<path class="st7" d="M548.75,546.23c-1.12,0.76-2.24,1.53-3.36,2.29c-5.58-9.88-2.75-22.6-10.91-31.9
		c-1.14-1.3-5.57-6.67-0.36-10.17C543.98,517.88,546.35,532.06,548.75,546.23z"/>
	<path class="st165" d="M397.95,706.66c2.73,2.57,4.61,4.89,8.67,0.49c2.34-2.53,3.62-8.88,9.72-6.6
		c-2.88,4.64-6.03,9.13-8.59,13.94c-3.41,6.39-10.9,5.12-13.52,3.29C386.32,712.26,397.03,710.67,397.95,706.66z"/>
	<path class="st230" d="M353.63,662.28c9.03-3.26,8.17,5.44,11.29,9.33c1.25,1.22,1.39,2.64,0.72,4.19
		c-3.91,3.84-7.81,7.7-11.91,11.35c-1.03,0.36-1.93,0.14-2.73-0.57c-0.86-4.71,3.37-7.67,4.7-11.99c-3.32-0.18-8.18,3.54-6.44-4.29
		C350.07,666.69,354.03,665.82,353.63,662.28z"/>
	<path class="st207" d="M554.02,433.15c-6.2,1.86-3.79-10.64-11.22-6.73c-1.64-1.37-4.07-2.14-3.79-4.98
		c1.13-2.3,1.35-4.97,1.25-7.27c-0.39-9.22,4.05-6.95,8.95-4.15c7.44,4.57,1.39,12.67,4.8,18.29
		C554.02,429.93,554.02,431.54,554.02,433.15z"/>
	<path class="st140" d="M676,553.28c1.96-1.33,3.92-2.66,6.01-4.08c3.45,4.12-2.44,7.17-0.9,10.85c0,0,0.21-0.18,0.21-0.18
		c-3.04,3.48-5.34,8.18-11.31,6.76c-6.41-3.05-9.17-6.64-2.06-12.08c2.3-1.76,4.3-3.92,6.44-5.9
		C676.15,549.76,675.25,551.81,676,553.28z"/>
	<path class="st239" d="M672.73,627.53c-5.5,10.8,2.64,20.26,3.74,30.98c-10.81-7.17-14.03-16.5-10.77-29.49
		c0.35-0.94,0.86-1.78,1.53-2.53C671.54,623.28,672.12,623.4,672.73,627.53z"/>
	<path class="st118" d="M486.07,564.42c2.93-1.64,6.18-2.98,4.14-7.5c-3.53-7.83-1.33-16.49-3.31-24.51
		c-1.16-4.72,2.2-4.5,4.68-5.55c-1.16,11.83,3.18,23.24,2.73,35.02c1.11,3.03-0.25,5.2-2.48,7.06
		C489.01,568.58,487.57,566.47,486.07,564.42z"/>
	<path class="st125" d="M335.23,534.72c8.62-14.59,12.45-31.27,20.2-46.25c0,0,0.41,0.06,0.41,0.06c5.4,7.75,0.54,15.5-2.12,21.71
		c-3.99,9.31-5.72,21.33-17.94,25.16L335.23,534.72z"/>
	<path class="st44" d="M449.36,651.21c-1.37,10.15-7.3,17.09-15.72,22.27c-5.36,0.34-1.75-5.06-4.21-6.58
		C436.07,661.67,442.71,656.44,449.36,651.21z"/>
	<path class="st239" d="M438.32,544.37c6.99-0.78,16.51,6.03,18.89,3.51c5.37-5.71,6.46,0.5,8.74,1.33
		c3.83,1.39-1.31,2.52-0.81,4.14c-4.5,1.4-9,4.1-13.54,0.1c-6.43-2.55-12.56-6.34-19.97-4.9
		C432.67,545.26,436.95,547.15,438.32,544.37z"/>
	<path class="st215" d="M672.73,627.53c-2.77-3.69-3.2,2.04-5.23,1.3c-3.38-8.27,2.96-16.98-1.17-25.22
		c-0.78-2.12-0.86-4.24-0.03-6.36c0.87-1.57,2.06-2.6,4-2.34c2.2,0.46,4.4,1.11,3.97,3.99C672.87,608.39,677.4,618.21,672.73,627.53
		z"/>
	<path class="st172" d="M667.81,604.56c2.17-1.04,4.17-1.99,3.45,2.05c-1.33,7.39-2.51,14.81-3.76,22.21
		c-0.6,0.06-1.2,0.12-1.8,0.19c-2.92-0.73-6.45-2.21-3.59-5.37c2.88-3.18,0.1-5.92,1.06-8.67
		C661.01,609.85,663.33,606.72,667.81,604.56z"/>
	<path class="st149" d="M681.41,606.52c-3.77-13.15-3.75-25.45,8.51-35.83c-0.85,11.87-10.34,21.53-6.07,33.46
		C684.47,606.41,683.55,607.09,681.41,606.52z"/>
	<path class="st49" d="M551.99,453.07c0-2.89,0-5.78,0-8.73c-3.44-0.1-1.89,4.74-3.59,3.78c-5.29-2.97-1.99-8.24-2.72-12.8
		c4.61,2.31,8.86,4.44,13.12,6.57c0,0-0.16-0.16-0.16-0.16c2.31,3.65,4.99,7.38-2.04,8.88
		C555.06,451.43,553.53,452.25,551.99,453.07z"/>
	<path class="st174" d="M750.23,575.61c0.64-0.85,1.78-1.68,1.81-2.55c0.1-2.89,0.39-5.23,4.23-4.29c5.16,1.27,1.22,4.03,0.58,5.61
		c-2.84,7.13-6.09,14.09-9.2,21.11c-2.62-1.66-0.9-4.81-2.35-6.87C746.95,584.29,748.59,579.95,750.23,575.61z"/>
	<path class="st70" d="M340.07,653.21c6.83-1.83,12.19-8.26,20.19-6.45c-5.16,2.98-10.32,5.97-15.49,8.95
		c-7.79,3.69-15.57,7.38-23.36,11.08c-0.2-0.43-0.41-0.85-0.61-1.28C327.22,661.41,333.64,657.31,340.07,653.21z"/>
	<path class="st240" d="M670.3,594.91c-1.54,0.26-2.51,1.06-2.56,2.72c-3.03,2.73-2.84,8.21-7.9,9.2c-3.74-0.28-7.73-1.64-3.87-5.61
		c3.09-3.18,4.48-7.5,8.04-10.13c-0.03-3.06,1.38-5.37,3.74-7.18c2.35-0.53,3.25,1.33,4.44,2.71
		C672.29,589.54,672.76,592.56,670.3,594.91z"/>
	<path class="st241" d="M529.8,499.73c-3.9,10.51,0.32,22-3.74,33.48c-2.58-8.69,0.55-17.05-3.01-24.59c0-5.79,0-11.59,0-19.04
		C525.79,493.7,527.79,496.71,529.8,499.73z"/>
	<path class="st59" d="M489.85,517.51c-0.27,1.72-0.54,3.43-0.95,6.06c-2.61-7.07-7.84-11.93-7.8-18.98
		c2.54-5.06-4.98-9.83-0.42-14.94c-0.35-0.39-0.33-0.77,0.05-1.12C489.11,496.51,486.53,507.94,489.85,517.51z"/>
	<path class="st177" d="M554.6,584.79c4.64,9.69-1.05,19.09-0.81,28.65c-0.7-0.03-1.4-0.08-2.1-0.15
		c-4.41-4.62-2.95-11.26-5.7-16.46C546.07,590.83,548.95,586.82,554.6,584.79z"/>
	<path class="st171" d="M605.4,553.26c0.78,2.26,1.56,4.51,2.34,6.77c-11.53-2.6-13.47-13.77-19.16-21.69
		C596.88,540.28,599.15,549.04,605.4,553.26z"/>
	<path class="st224" d="M367.02,678.1c1.44,4.94,1.11,9.49-3.59,12.56c-5.23,3.41-5.43,10.31-10.11,14.04
		c-3.43-2.13-1.15-4.1,0.17-6.1c2.38-3.48,0.83-8.04,3.14-11.55c2.21-3.46,3.99-7.27,7.69-9.51
		C365.38,677.04,366.27,677.23,367.02,678.1z"/>
	<path class="st33" d="M480.5,607.38c-3.62-2.63-7.25-5.25-10.87-7.88c-1.47-2.32-4.81-2.56-5.89-5.32c-0.29-1.73,0-3.28,1.43-4.46
		c5.14,2.73,10.28,5.46,15.42,8.19c2.38,1.6,3.47,4.07,4.41,6.63c0.59,0.39,0.89,0.94,0.92,1.65c-0.22,0.9-0.74,1.54-1.63,1.86
		C482.93,608.38,481.69,608.06,480.5,607.38z"/>
	<path class="st124" d="M547.23,597.85c7.62,3.38,1.97,10.59,4.46,15.45c-2.91,2.2-5.81,4.4-8.72,6.6
		c-3.56,0.78-3.63-1.66-2.81-3.69c1.53-3.82,1.7-7.71,1.67-11.69C542.89,601.7,542.65,597.81,547.23,597.85z"/>
	<path class="st125" d="M556.59,450.61c3.41-2.33,2.78-5.59,2.04-8.88c2.13,0.6,4.25,1.2,6.38,1.8c-0.99,3.24-0.59,5.45,3.6,4.85
		c-1.62,5.76,4.96,9.98,3.36,18.01C567.63,458.51,562.75,453.86,556.59,450.61z"/>
	<path class="st75" d="M763.54,633.45c5.33,0.09,3.47,4.32,4.09,7.11c-6.02,3.71-14.3,2.92-18.46,10.31c-0.67-0.75-1.33-1.49-2-2.24
		C752.63,643.57,758.08,638.51,763.54,633.45z"/>
	<path class="st180" d="M638.92,674.05c5.11,6.95,10.22,13.9,14.37,19.54C647.14,695.3,639.93,688.94,638.92,674.05z"/>
	<path class="st198" d="M543.07,604.45c6.37,5.19-3.87,10.28-0.1,15.45c-1.45,2.29-2.9,4.59-4.35,6.89
		c-2.53-8.9-0.06-17.75,0.3-26.62C542.24,599.71,543.92,600.86,543.07,604.45z"/>
	<path class="st126" d="M504.9,631.56c-0.1,0.53-0.03,1.04,0.2,1.53c-11.29,2.89-12.7-7.16-17.23-13.13
		c-1.02-2.9-0.99-6.14-2.72-8.83l-0.04,0.02c-1.4-1.5-1.31-2.99,0.01-4.49l0.78-0.48C492.54,614.43,496.73,624.48,504.9,631.56z"/>
	<path class="st18" d="M255.72,615.7c-0.65-0.72-1.3-1.44-1.95-2.17c4.31-7.53,8.62-15.07,12.92-22.6c0.6,0.76,1.21,1.52,1.81,2.28
		c3.03,7.07,3.94,13.24-6.28,14.63C260.05,610.46,257.89,613.08,255.72,615.7z"/>
	<path class="st151" d="M465.11,596.09c3.23-1.15,4.78-0.06,4.52,3.42c-0.68,6.4-1.36,12.8-2.03,19.2
		c-3.72,2.82-1.42,8.87-7.01,11.56c1.82-7.78,3.61-15.04,5.2-22.34c0.71-3.28,3.62-6.78-0.47-9.87c-0.49-0.39-0.68-0.81-0.58-1.27
		C464.84,596.32,464.96,596.09,465.11,596.09z"/>
	<path class="st34" d="M251.08,684.43c5.81,1.75,4.87-5.24,8.38-6.47c3.07-1.56,5.28-1.54,5.19,2.78
		c-3.71,8.37-14.91,5.26-19.87,15.31C245.18,689.03,247.68,686.45,251.08,684.43z"/>
	<path class="st106" d="M534.49,628.5c1.29-0.64,2.59-1.28,3.88-1.91c1.12,2.84-3.09,5.25-0.72,8.23c3.81,0.44,3.43-4.65,7.49-4.79
		c-1.95,6.7-7.76,11.41-10.65,18.21C534.49,641.66,534.49,635.08,534.49,628.5z"/>
	<path class="st77" d="M485.14,606.67c0,1.5-0.01,2.99-0.01,4.49c-3.39,10.25-2.08,21.62-9.27,34.37
		c1.26-14.18,5.9-24.95,4.42-36.21c0.1-0.64,0.17-1.29,0.23-1.93C482.05,607.14,483.59,606.91,485.14,606.67z"/>
	<path class="st12" d="M451.58,553.44c4.52-0.03,9.03-0.07,13.54-0.1c0,0-0.21-0.17-0.21-0.17c0.8,0.46,1.05,1.1,0.65,1.95
		c-5.65,8.17-13.72,4.02-21.31,4.88C445.31,555.36,449.83,556.07,451.58,553.44z"/>
	<path class="st21" d="M628.76,586.83c-2.67-11.96,3.85-22.23,5.87-33.41C636.2,565.16,630.3,575.54,628.76,586.83z"/>
	<path class="st15" d="M623.5,540.37c-2.39,9.84-4.79,19.69-7.18,29.53c-1.15-10.55-0.76-20.79,5.04-30.02
		C622.25,539.28,622.97,539.41,623.5,540.37z"/>
	<path class="st105" d="M581.1,636.21c-0.07-0.83-0.14-1.66-0.22-2.48c0.13-2.92-0.75-6.46,4-6.57c0.99,7.19,5.78,1.27,8.62,2.11
		c-1.36,3.94-2.59,7.52-3.82,11.11C583.59,643.07,583.59,643.07,581.1,636.21z"/>
	<path class="st204" d="M681.41,606.52c0.82-0.79,1.63-1.58,2.45-2.37c4.1,10.44,1.43,21.17,1.41,31.79
		c-1.85,1.91,0.51,5.28-2.38,6.84C680.87,630.75,685.17,618.47,681.41,606.52z"/>
	<path class="st5" d="M672.19,586.61c-1.43-0.81-2.86-1.61-4.29-2.42c-1.15-4.45,2.1-7.94,2.58-12.04
		c2.88-3.32,3.47-9.72,10.32-7.72C682.39,573.55,672.95,578.4,672.19,586.61z"/>
	<path class="st122" d="M501.14,377.07c1.46-0.12,3.04,0.05,3.78-1.68c6.78,6.4,6.32,16.18,11.94,23.14
		c-8.89-3.22-8.12-12.56-13.48-19.61c-0.26,4.11-0.44,6.85-0.61,9.58c-1.35,0.59-2.42,0.26-3.23-0.97
		C498.37,383.79,497.51,380.09,501.14,377.07z"/>
	<path class="st13" d="M659.84,606.83c2.64-3.06,3.26-7.86,7.9-9.2c0.02,2.31,0.05,4.62,0.07,6.93c-1.54,3.47-3.09,6.94-4.63,10.42
		C661.06,612.67,653.6,612.55,659.84,606.83z"/>
	<path class="st5" d="M534.46,557.68c-0.92,2.25-1.84,4.5-3.55,8.69c-2.06-9.57-3.7-17.18-5.33-24.78
		c-0.21-1.31-0.41-2.62-0.62-3.93c7.33,2.56,4.28,9.97,6.76,14.82C532.6,554.21,531.86,556.77,534.46,557.68z"/>
	<path class="st125" d="M738.47,622.76c2.27,4.46-0.24,8.02-2.13,11.75c-1.51,2.98-4.81,5.68-1.95,9.58c-4.51,0.4-9.61-0.3-5.4-5.88
		C732.71,633.27,733.88,626.98,738.47,622.76z"/>
	<path class="st71" d="M485.16,611.13c1.24,2.38,2.47,4.77,3.71,7.15c0.62,5.15,1.37,10.28,2.02,15.42c0.78,6.2-1,10.93-6.84,13.73
		c-0.67-0.4-1.34-0.79-2.01-1.19C488.38,635.01,483.21,622.75,485.16,611.13z"/>
	<path class="st165" d="M682.89,642.77c0.8-2.28-0.01-5.11,2.38-6.84c-0.37,9.09,7.42,15.38,9.11,25.41
		C686.5,656.41,684.77,649.55,682.89,642.77z"/>
	<path class="st16" d="M517.6,684.37c-5.58,6.44-11.15,12.88-16.73,19.32c-0.77-0.67-1.53-1.34-2.3-2.01
		C505.19,696.16,508,687.29,517.6,684.37z"/>
	<path class="st59" d="M542.29,489.63c11.18,5.42,18.57,10.57,20.07,21.16C557.88,502.74,547.99,500.07,542.29,489.63z"/>
	<path class="st7" d="M499.52,483.89c0.43-8.97,0.83-17.29,1.25-25.98C507.18,465.61,506.91,471.12,499.52,483.89z"/>
	<path class="st114" d="M672.06,573.65c1.16,4.52-1.92,7.36-4.16,10.54c-0.06,3-1.34,5.31-3.9,6.9c-6.6-5.17,0.5-8.81,1.46-13.13
		C667.41,576.14,667.81,571.93,672.06,573.65z"/>
	<path class="st123" d="M264.65,680.75c-1.02-2.25-3.32-2.12-5.19-2.78c3.59-5.35,8.7-8.87,14.25-11.85
		C274.37,673.27,269.9,677.25,264.65,680.75z"/>
	<path class="st0" d="M589.61,640.31c7.13-1.88,7.58-7.6,6.9-14.5c6.96,8.07,1.09,12.97-2.26,18.33c-1.83,0.8-3.27,3.83-5.3,2.45
		C586.21,644.72,589.88,642.51,589.61,640.31z"/>
	<path class="st162" d="M485,604.54c-3.43-0.9-4.01-3.71-4.41-6.63c8.48-0.28,13.47,7.6,23.21,8.22
		C495.44,611.41,490.94,603.01,485,604.54z"/>
	<path class="st44" d="M333.38,633.17c0.76,0.75,1.52,1.51,2.28,2.26c-8.82,3.98-17.64,7.96-26.45,11.95
		c-0.35-0.78-0.7-1.55-1.05-2.33C316.56,641.09,324.97,637.13,333.38,633.17z"/>
	<path class="st230" d="M344.8,658.04c2.34-0.43,4.69-6.68,7.01,0.02c-7.49,3.06-8.91,12.92-19.21,16.81
		C337.82,668.03,337.89,660.77,344.8,658.04z"/>
	<path class="st51" d="M547.73,410.13c-1.97,0.55-6.45-5.25-5.73,2.56c0.26,2.8-1.92,5.83-2.99,8.76
		c-0.87-5.77,1.19-12.13-3.48-17.12c1.29-1.25,2.74-1.45,4.32-0.61c3.77-0.88,5.53,2.02,7.72,4.1c0.61,0.47,0.84,0.98,0.68,1.5
		C548.1,409.86,547.92,410.13,547.73,410.13z"/>
	<path class="st18" d="M623.5,540.37c-0.71-0.16-1.43-0.33-2.14-0.49c1.05-3.85-0.08-7.47-1.19-11.09c1.76-0.02,3.53-0.03,5.29-0.05
		c1.62,5.61,3.57,11.06,7.39,15.62c-1.72,1.28-3.43,1.44-5.11-0.07C626.33,542.99,624.92,541.68,623.5,540.37z"/>
	<path class="st15" d="M375.38,691.92c0.97-0.79,1.94-1.59,2.91-2.38c3.08-2.14,5.91-3.45,6.75,1.99
		c-4.46,2.93-4.19,10.79-11.36,10.91C374.25,698.93,374.81,695.43,375.38,691.92z"/>
	<path class="st23" d="M636.53,586.61c0.7,0.71,1.4,1.42,2.1,2.14c-11.08,5.82-7.37,17.13-9.61,26.28
		C627.79,604.51,622.87,593.06,636.53,586.61z"/>
	<path class="st180" d="M672.06,573.65c-2.2,1.43-4.4,2.87-6.6,4.3c0.32-4.25,2.45-7.78,4.53-11.32c3.77-2.25,7.54-4.51,11.31-6.76
		c-0.17,1.52-0.34,3.03-0.51,4.55C675.68,565.4,674.53,570.15,672.06,573.65z"/>
	<path class="st3" d="M640.65,570.46c1.5-0.45,3.33-4.82,4.41-0.2c1.25,5.36,0.54,10.5-6.11,12.31
		C638.09,578.32,639.45,574.4,640.65,570.46z"/>
	<path class="st156" d="M462.64,601.39c0.31,2.8,1.08,5.73-2.11,7.55c-1.71,1.65-3.64,2.09-5.84,1.06
		c-3.96-2.87-2.08-6.62-1.51-10.17c2.36-3.27,5.19-3.32,8.35-1.23C462.37,599.34,462.72,600.28,462.64,601.39z"/>
	<path class="st180" d="M607.25,632.41c0.25,1.34,0.49,2.69,0.74,4.03c0.51,0.38,0.68,0.75,0.51,1.13
		c-0.17,0.38-0.34,0.56-0.51,0.56c-5,5.58-10.01,11.15-15.11,16.84c-3.43-3.33,0.82-5.4,1.51-8.04
		C600.14,643.39,603.68,637.89,607.25,632.41z"/>
	<path class="st77" d="M600.94,484.21c3.14,4.35,9.37,6.75,8.56,13.59C597.45,499.06,601.5,490.19,600.94,484.21z"/>
	<path class="st46" d="M569.1,518.3c6.91,1.57,9.01,10.84,16.35,11.73C577.31,530.42,572.71,525.16,569.1,518.3z"/>
	<path class="st52" d="M612.99,638.93c-1.36,8.82-8.32,14.23-13.26,20.96c0.93-7.81,6.66-13.28,10.03-19.89
		C610.59,638.93,611.67,638.57,612.99,638.93z"/>
	<path class="st110" d="M696.72,516.43c0.96-1.3-0.8-6.02,1.73-3.95c4.74,3.86,7.85,9.73,10.59,15.54
		c-3.56-2.76-7.13-5.52-10.69-8.28C696.49,519.29,695.99,518.17,696.72,516.43z"/>
	<path class="st173" d="M524.86,412.03c0.36,6.78,0.68,11.07,0.78,15.37c0.04,1.86-0.58,3.8-2.97,3.57
		c-2.54-0.24-2.2-2.48-2.04-4.12C521.04,422.71,520.3,418.29,524.86,412.03z"/>
	<path class="st29" d="M627.74,544.29c1.7,0.02,3.41,0.04,5.11,0.07c1.78,0.7,3.26,1.64,3.23,3.85
		c-12.56-1.43-5.38,10.78-10.18,14.72c-1.52-0.35-1.62-1.73-2.08-2.85C625.13,554.82,626.44,549.56,627.74,544.29z"/>
	<path class="st53" d="M495.99,508.28c0.71,8.13,11.79,10.35,11.58,22.3C503.52,521,493.49,518.51,495.99,508.28z"/>
	<path class="st179" d="M462.64,601.39c0.06-0.72-0.29-1.15-1.05-1.29c-2.27-3.9-5.88-7.23-5.34-12.35
		c-0.1-0.94-0.21-1.88-0.31-2.83c3.08,1.6,6.15,3.2,9.23,4.8c-0.02,2.12-0.04,4.24-0.06,6.36c0.05,0.66,0.12,1.32,0.21,1.97
		C464.43,599.17,465.49,601.85,462.64,601.39z"/>
	<path class="st147" d="M781.08,661.53c8.32,7.73,1.21,11.83,0.45,19.91C778.13,673.11,781.34,668.43,781.08,661.53z"/>
	<path class="st182" d="M357.59,687.49c2.35,5.07-1.83,7.73-4.09,11.1c-4.29-3.29-9.54-6.37-2.5-12.01c0.36,0.21,0.68,0.48,0.96,0.8
		C353.82,688.11,355.74,686.06,357.59,687.49z"/>
	<path class="st71" d="M254.58,675.68c-1.14,1.68-2.29,3.35-3.43,5.03c-4.68,3.58-9.36,7.17-14.04,10.75
		C242,684.99,245.73,677.25,254.58,675.68z"/>
	<path class="st99" d="M465.57,555.13c0-0.72-0.22-1.37-0.65-1.95c8.4,1.19,16.37,3.18,20.84,11.5
		C479.03,561.49,472.3,558.31,465.57,555.13z"/>
	<path class="st1" d="M501.16,388.65c0.55,0.06,1.08,0.01,1.61-0.14c-1.67,6.05,4.89,11.06,2.03,17.55c-3.33-0.87-0.52-8-6.14-6.31
		c0,0-0.07-0.03-0.07-0.03C496.33,395.31,497.35,391.65,501.16,388.65z"/>
	<path class="st151" d="M623.83,560.08c0.69,0.95,1.38,1.9,2.07,2.85c0.15,6.1-0.93,11.9-3.86,18.91
		C619.38,573.13,622.95,566.74,623.83,560.08z"/>
	<path class="st162" d="M491.83,568.94c0.83-2.35,1.65-4.7,2.48-7.06c0.56,0.46,1.14,0.91,1.68,1.39c2.56,2.27,7.42,4.41,4.04,8.32
		C497.55,574.45,494.23,571.11,491.83,568.94z"/>
	<path class="st8" d="M341.53,692.34c-2.93,3.98-5.85,7.97-9.11,12.4C328.83,695.94,335.17,693.96,341.53,692.34z"/>
	<path class="st157" d="M774.72,657.18c-2.34,4.52-4.68,9.03-7.45,14.38C766.68,663.11,766.68,663.11,774.72,657.18z"/>
	<path class="st117" d="M612.99,638.93c-1.08,0.36-2.16,0.72-3.24,1.07c-0.59-0.62-1.17-1.25-1.76-1.87c-0.13-0.56-0.13-1.13,0-1.69
		c6.64-7.95,6.64-7.95,10.56-2.83C616.7,635.39,614.84,637.16,612.99,638.93z"/>
	<path class="st30" d="M324.76,629.18c1.73-0.11,3.46-0.22,8.48-0.54c-8.08,5.04-13.6,7.83-21.01,9.7
		c3.46-5.76,9.69-5.18,12.63-9.27C324.86,629.06,324.76,629.18,324.76,629.18z"/>
	<path class="st0" d="M454.08,609.06c2.15-0.04,4.3-0.08,6.45-0.12c-0.71,5.21-1.42,10.43-2.13,15.64
		c-3.74-3.74-2.77-9.17-4.83-13.52C453.16,610.25,453.33,609.58,454.08,609.06z"/>
	<path class="st90" d="M539.86,403.71c-1.44,0.2-2.88,0.41-4.32,0.61c-5.48-3.52-11.02-6.98-13.09-13.74
		C528.24,394.96,534.05,399.33,539.86,403.71z"/>
	<path class="st13" d="M626.2,649.7c-3.09,3.92-6.21,7.8-9.24,11.77c-0.93,1.21-1.92,2.49-2.83,0.43c-0.49-1.11,0.22-2.75,0.38-4.16
		l-0.3,0.32c3.33-3.44,4.87-8.92,10.77-9.42C625.39,649,625.79,649.35,626.2,649.7z"/>
	<path class="st57" d="M507.9,678.46c-2.66,5.32-5.81,10.27-10.86,13.75c2.51-5.42,4.85-10.93,10.17-14.36
		C507.21,677.85,507.9,678.46,507.9,678.46z"/>
	<path class="st201" d="M578.67,454.8c-0.74,6.57,3.59,12.55,2.19,19.2c-6.3-6.66-3.22-15.27-4.79-22.92
		C578.98,450.89,578.83,452.85,578.67,454.8z"/>
	<path class="st47" d="M229.45,675.1c-1.51,5.9-5.58,8.99-11.43,10.06C221.83,681.81,225.64,678.46,229.45,675.1z"/>
	<path class="st40" d="M557.06,691.91c-2.76,4.37-3.89,9.86-9.96,14.21c0.99-7.59,4.57-11.56,9-15.04
		C556.42,691.37,556.74,691.65,557.06,691.91z"/>
	<path class="st110" d="M676,553.28c-0.54-1.54-1.08-3.08-1.62-4.63c0.17-4.4,4.21-5.81,6.57-8.52c1.15,0.79,5.62-1.34,2.78,2.93
		C681.36,546.61,678.59,549.88,676,553.28z"/>
	<path class="st148" d="M493.89,500.07c-5.05-4.45-4.19-10.37-7.84-14.6C492.23,488.51,492.23,488.51,493.89,500.07z"/>
	<path class="st46" d="M407.01,535.35c-1.68,3.38-4.35,6.18-7.08,1.85c-3.79-6.04-5.59,0.31-8.29,0.6
		c-0.66,0.88-1.55,2.32-2.36,2.11c-7.88-1.97-7.87-2.04-12.05,6.96c-7.94,4.98-14.92,13.04-25.98,8.28
		c-1.44-3.25-1.3-6.36,0.64-9.27c-2.28,3.18-2.42,6.45-0.14,9.83c0.72,0.81,1.14,1.75,1.31,2.82c-2.43,8.25-8.81,11.72-16.49,13.61
		c-4.58-1.43-8.57,0.25-12.65,2.15c-3.16,1.47-7.83,4.7-9.76,0.74c-2.31-4.73,3.6-6.16,6.75-8.24c4.23-2.79,9.29-3.98,13.5-6.81
		c0.09-0.93,0.32-1.79,0.65-2.64c1.96-1.9,3.22-4,2.25-6.86c0.3-1.45,0.83-2.81,1.42-4.16c4.91-7.53,5.63-17.71,14.41-22.8
		c4.6,1.22,6.5-2.14,8.6-5.11c2.32-3.28,4.46-6.72,7.62-9.27c2.45-1.98,5.03-5.37,8.47-2.66c3.32,2.61,1.17,5.93-0.36,8.85
		c-1.57,2.9-12.21,4.78-1,9.09c3.3,2.97,4.88,0.75,6.22-2.11c4.28-19.4,20.31-32.09,28.25-49.43c1.27-2.77,3.66-5.88,7.92-4.26
		c5.12,9.65-3.98,14.95-6.74,22.19c-1.87,4.37-4.29,8.43-7.32,12.52c2.42,0.51,4.88-1.38,6.99,0.39c1.05,1.23,1.33,2.67,1.1,4.23
		c-1.32,4.69-6.69,6.92-7.3,12.04c-0.11,1.39-0.08,2.76,0.15,4.14c0.91,3.2,2.64,6.28,1.41,9.78
		C407.12,534.4,407.06,534.87,407.01,535.35z"/>
	<path class="st44" d="M380.14,613.21c2.73-3.35,12.23,0.19,9.3-9.16c-0.2-0.63,1.96-2.89,3.02-2.89
		c11.57-0.01,7.14-8.53,8.91-14.36c-5.39-0.14-4.36,5.45-7.78,6.22c-1.48-2.26-2.76-6.19-6.01-2.2c-2.2,2.7-4.89,2.79-7.69,3.29
		c-4.94-6.55-2.68-12.1,2.58-17.02c3.16-2.96,7.96-4.07,9.7-8.62c2.11-4.92,5.29-6.94,10.35-3.77c7.36-0.2,10.89-8.17,20.24-9.99
		c-4.67,6.06-4.82,12.17-10.77,15.31c-2.52,1.33-5.59,4.25-1.18,7.49c1.33-0.95,2.51-0.78,3.53,0.49c-2.95,8.84,6.56-2.17,5.4,4.52
		c-4.53,2.89-5.84,8.18-6.29,15.15c9.12-5.85,8.48-18.24,17.89-22.34c1.24-1.86,2.58-3.52,5.2-2.44c0.85,0.8,1.7,1.59,2.55,2.39
		c-1.09,3.28-4.37,4.95-5.83,7.97c-2.58,8.55-4.96,17.27-15.33,19.74c-2.92-2.17-4.2,1.96-6.62,1.75
		c-6.41-0.89-13.49-3.29-15.34,6.49c-1.78,9.39-9.11,10.55-16.82,12.18C378.91,619.45,389.12,617.2,380.14,613.21z"/>
	<path class="st229" d="M411.3,604.74c1.16-1.58,1.38-4.56,4.59-3.07c18.95-4.3,18.21-4.13,15.87-19.89c0.49-4.36,4.29-5,7.32-6.5
		c8.41,11.46,1.96,22.68-0.53,33.97c-5.94,3.24-8.54,10.26-15,13.12c-1.46,0.65,1.58,1.11,1.88,2.24c0,6.35-7.08,6.59-9.39,10.93
		c-0.52,2.44,2.42,2.14,2.97,3.73c-1.73,0.29-3.46,0.57-5.19,0.86c-3.32-0.19-6.49,1.22-9.73,1.11c-4.33-0.15-8.06-1.37-5.78-7.14
		c0.92-0.94,1.85-1.88,2.77-2.82c0.54-6.07,6.95-7.45,9.89-12.07c-3.86-1.67-7.26,5.09-10.7,0.19
		C404.29,614.88,405.36,607.97,411.3,604.74z"/>
	<path class="st199" d="M351.56,555.39c9.01-0.4,16.52-4.87,24.22-8.84c5.29-2.27,10.3-5.19,15.82-6.91
		c4.13,8.22-2.4,11.89-7.42,14.97c-9.8,6-19.47,11.76-23.77,23.24c-2.65-0.47-5.3-0.93-7.8-2.02c-1.2-0.87-2.03-1.99-2.38-3.44
		c0.72-4.85,3.98-9.48,1.26-14.63c-0.09-0.73-0.13-1.46-0.14-2.2L351.56,555.39z"/>
	<path class="st80" d="M429.54,533.34c-1.91,1.62-3.73,3.35-5.75,4.82c-6.88,5.04-12.38,4.08-16.78-2.81c0,0,0.1,0.23,0.1,0.23
		c-1.19-3.35,1.51-4.65,3.37-6.39c2.21-1.31,4.57-2.44,5.78-4.96c5.09-10.58,13.38-18.27,22.63-25.11c1.05-0.22,2.03-0.03,2.94,0.52
		c1.09,1.79,3.42,4.85,3.09,5.16c-5.23,5.02-1.29,12.06-4.14,17.47c-1.47-0.1-2.95,0.05-4.43-0.08c-9.56-5.19-5.95,3.7-7.49,7.03
		C429.26,530.56,429.43,531.94,429.54,533.34z"/>
	<path class="st47" d="M398.31,634.11c0.76,4.43,2.77,6.8,7.51,4.43c3.12-1.56,6.15-3.03,8.01,1.59c-1.55,1.46-3.1,2.93-4.65,4.39
		c-3.66,3.91-6.72,9.04-13.49,6.73c-3.94-1.31-7.2,1.44-10.82,1.87c-3.05-0.17-2.83,2.3-3.74,4.21c-1.97,4.13-5.04,6.2-9.52,2.95
		c-4.72-10.63-1.8-16.47,10.15-18.66C387.53,640.57,392.8,636.7,398.31,634.11z"/>
	<path class="st93" d="M393.42,570.1c0.03,5.56-5.34,5.7-8.38,7.85c-6.09,4.29-6.96,9.65-5.15,16.16
		c-8.58-2.54-15.32,6.95-24.01,3.64c7.38-6.66,13.26-14.95,22-20.14C382.64,574.25,386.19,568.37,393.42,570.1z"/>
	<path class="st127" d="M441.83,499.63c-0.46,0.03-0.92,0.06-1.37,0.12c-4.46-0.48-8.69,1.28-13.08,1.45
		c-1.03-0.06-1.98-0.38-2.87-0.89c-0.72-0.73-1.28-1.56-1.71-2.49c-1.43-3.76-0.08-5.86,3.84-6.42c5.83-1.03,9.2-6.16,14.21-8.55
		c2.01-0.65,3.98-0.66,5.85,0.36c1.28-0.54,0.36,4.45,2.65,1.13c1.3-1.89,2.58-3.38,5.04-3.35c1.62,0.52,2.75,1.34,1.96,3.29
		C456.22,493.85,449.39,497.09,441.83,499.63z"/>
	<path class="st213" d="M354.02,575.75c3.24-2.7,5.17-1.37,6.39,2.09c-5.17,6.3-11.99,10.98-15.6,18.94c-1.58,3.48-7.5,5-11.44,7.41
		c-3.33,1.9-7.04,2.76-10.22,0.51c-2.32-1.65-0.32-3.82,1.04-5.51c2.84-4.9,10.38-1.76,12.76-7.48c3.7-3.31,7.96-5.99,9.49-11.3
		C347.42,576.99,350.36,575.47,354.02,575.75z"/>
	<path class="st54" d="M396.04,649.05c6.25,3.93,7.87-5.58,13.13-4.53c-3.31,8.13-4.68,17.45-13.6,22.12
		c-4.52,0.06-7.91,5.18-12.96,2.91c-1.26-2.08-0.25-3.82,0.82-5.55c2.49-2.92,5.11-5.76,5.92-9.73
		C390.39,651,392.59,649.21,396.04,649.05z"/>
	<path class="st240" d="M393.42,570.1c-5.24,2.38-9.42,6.96-15.54,7.51c0.13-7.72,6.49-10.15,11.74-12.96
		c5.47-2.93,11.1-5.16,10.68-14.94c5.56,6.42,6.91,10.47,2.2,14.98C398.58,564.99,394.31,564.71,393.42,570.1z"/>
	<path class="st189" d="M320.34,617.7c-4.56,2.01-7.39,7.26-13.15,7.04c-2.59-0.51-4.75,0.96-7.1,1.55
		c-4.1,0.07-8.13-0.17-11.58-2.81c-1.14-1.1-1.87-2.42-2.1-4c0.31-2.4,2.2-3.2,4.05-4.04c2.83-0.87,5-3.19,8.01-3.68
		c2.69-0.27,4.87,0.85,6.87,2.47c4.71,4.82,10.12-1.98,14.95,0.87c0.53,0.57,0.72,1.15,0.55,1.73
		C320.68,617.4,320.51,617.7,320.34,617.7z"/>
	<path class="st24" d="M271.24,661.56c-0.51,1.08-1.23,1.12-2.09,0.4c-1-2.27-3.02-2.25-5.03-2.27c-0.76-2.47-0.02-4.9,0.16-7.35
		c0.14-1.54,0.44-3.04,0.98-4.5c3.42-6.58,10-9.53,15.6-13.61c2.58-1.88,4.8-1.22,6.67,1.17c0.28,1.1,0.06,2.09-0.65,2.97
		C279.32,644.53,270.93,650.11,271.24,661.56z"/>
	<path class="st147" d="M385.04,691.53c-1.48-3.28-4.1-2.67-6.75-1.99c0.69-1.48,1.39-2.97,2.08-4.45
		c3.87-4.56,9.52-7.49,12.13-13.23c1.09-1.36,2.27-2.83,4.16-2.49c1.45,0.26,0.82,1.35,0.23,2.15c3.39,0.9,3.79-4.55,8.17-3.14
		C400.16,677.83,392.67,684.74,385.04,691.53z"/>
	<path class="st90" d="M391.61,539.64c-4.81,3.36-8.16,10.08-15.82,6.91c-1.12-7.51,6.07-9.97,9.23-14.85
		c1.02-1.58,4.08,0.36,3.14,3.5c-1.82,6.03,1.38,3.09,3.49,2.6C391.71,538.41,391.7,539.03,391.61,539.64z"/>
	<path class="st195" d="M425.26,624.44c-2.36,0.55-4.72,1.09-9.49,2.2c8.25-7.72,14.95-13.99,21.64-20.25
		c0.38,0.95,0.76,1.91,1.14,2.86c-1.33,3.67-2.65,7.34-3.98,11.02C431.74,622.27,429.06,624.59,425.26,624.44z"/>
	<path class="st184" d="M480.68,489.65c0.1,4.98,4.37,9.85,0.42,14.94c-0.76-1.03,0.09-4.71-2.49-2.56
		c-2.29,1.91-3.27,5.37-5.18,8.78c-5.77-8.52,0.62-13.91,3.06-19.99C477.89,490.43,479.28,490.04,480.68,489.65z"/>
	<path class="st68" d="M480.57,461.84c-2.54,6.42-10.57,7.14-13.58,13.08c-6.66,3.02-8.52-0.4-8.53-6.34
		c4.98-7.87,12.44-8.84,20.76-7.43C479.67,461.38,480.12,461.61,480.57,461.84z"/>
	<path class="st14" d="M456.26,587.75c2.52,3.79,7.24,6.64,5.33,12.35c-2.6,0.1-5.13-3.74-7.81-0.17c-1.37,0.67-1.68,3-3.83,2.45
		c-1.63-4.11,1.3-7.91,0.32-12.41C448.85,583.5,453.84,587.68,456.26,587.75z"/>
	<path class="st36" d="M396.89,671.53c-0.82,1.03-1.65,2.06-2.47,3.09c-4.57,1.93-9.13,3.91-14.24,3.95
		c-4.64-4.66-2.47-7.37,2.65-9.24c4.69,1.22,6.73-10.18,12.74-2.68C397.34,667.91,397.72,669.55,396.89,671.53z"/>
	<path class="st226" d="M460.94,468.97c-0.68,4.72,2.84,5.19,6.05,5.96c2.45,9.95-6.82,6.55-10.64,9.34
		c-1.05-0.73-2.1-1.47-3.15-2.2c-1.86-3.55-0.18-6.71,1.05-9.93C455.97,470.02,457.14,466.69,460.94,468.97z"/>
	<path class="st238" d="M449.95,602.37c1.88,0.12,0.91-4.2,3.83-2.45c3.32,2.94-0.71,6.12,0.31,9.14c-0.2,0.66-0.37,1.33-0.51,2.01
		c-2.69,2.48-3.05,8.05-8.72,6.61C446.36,612.51,449.84,608,449.95,602.37z"/>
	<path class="st242" d="M286.88,638.38c-0.07-0.95-0.13-1.9-0.2-2.86c0.01-10.16,8.42-9.09,14.64-10.95
		c1.97-0.52,4.03-4.31,5.87,0.16C301.48,630.87,293.38,633.43,286.88,638.38z"/>
	<path class="st79" d="M324.28,599.61c0.82,1.42-3.5,6.02,2.17,4.16c2.73-0.89,4.67-0.97,6.91,0.42c1.1,2.23,3.24,4.84-1.76,4.87
		c-4.68-2.34-5.87,4.67-10.03,3.74c-6.65-1.47-3.86-6.11-3.38-9.99c0.82-2.11,2.05-3.74,4.58-3.77
		C323.28,599.24,323.78,599.42,324.28,599.61z"/>
	<path class="st190" d="M425.26,624.44c2.07-3.69,6.08-3.07,9.31-4.18c-3.59,8.24-10.88,11.98-18.54,15.28
		C417.13,630.2,423.8,629.48,425.26,624.44z"/>
	<path class="st181" d="M480.58,457.43c4.68-1.63,0.5-7.31,5.21-9.78c0.54,3.68,1.05,7.17,1.56,10.66c-2.8,0.14-3.41,4.5-6.78,3.53
		c0,0,0.1,0.16,0.1,0.16C479.26,460.5,479.44,458.97,480.58,457.43z"/>
	<path class="st205" d="M429.54,533.34c-0.71-0.67-1.41-1.35-2.12-2.02c1-6.4,6.43-8.54,11.03-11.47c0.78,0.81,1.55,1.61,2.33,2.42
		C437.03,525.96,433.28,529.65,429.54,533.34z"/>
	<path class="st193" d="M414.33,578c-1.18-0.16-2.35-0.33-3.53-0.49c3-4.2,7.68-5.94,13.81-10.41
		C422.12,574.31,417.89,575.83,414.33,578z"/>
	<path class="st213" d="M322.6,611.19c3.22,0.22,4.73-6.83,9.01-2.12c-3.59,3.09-6.22,7.45-11.27,8.63c-0.12-0.8-0.23-1.6-0.35-2.4
		C319.28,612.92,321.32,612.3,322.6,611.19z"/>
	<path class="st230" d="M436.52,572.89c-1.73,0.81-3.47,1.63-5.2,2.44c0.77-2.84-6.47-3.27-2.49-6.31
		C432.34,566.35,435.11,569.22,436.52,572.89z"/>
	<path class="st177" d="M417.9,468.4c-10.69,18.49-26.21,34.07-33.08,54.87c-3.27,2.34-3.16-0.68-3.86-2.41
		c-0.14-5.73,4.19-10.65,3.02-16.54c-1.99-3.49-4.97-1.37-7.55-1.32c-2.99,0.06-6.5,1.68-7.81-2.86c2.75-6.5,8.86-9.2,14.29-12.69
		c1.73-0.35,3.31-0.09,4.63,1.18c-0.83,2.12-1.44,4.24-0.27,5.89c12.01-8.09,12.8-22.34,17.89-34.23c2.26-5.27,4.97-9.02,9.87-11.02
		c11.54-4.73,20-13.68,29.64-21c6.24,1.11,4.49,5.18,3.37,9.01c-4.91,5.62-10.73,10.8-17.42,13.35c-5.39,2.05-1.27,4.81-2.38,6.86
		C425.63,461.92,423.96,467.25,417.9,468.4z"/>
	<path class="st64" d="M491.94,412.94c-6.58,4.32-2.89,12.46-6.64,17.83c-4.95,2.98-7.7-1.49-11.22-3.3
		c-1.46-0.17-0.21-3.58-2.58-2.34c-1.22,0.64-2.15,1.99-3.47,2.64c-3.34,1.64-7.34,3.6-9.81-0.29c-2.27-3.57,1.32-6.62,3.97-7.91
		c7.79-3.78,9.77-10.77,11.46-18.14c4.6-7.5,5.58-15.7,4.7-24.27c3.65,0.9,5.9,3.19,6.8,6.83c2.19,6.79,7.04,13.1,2.78,20.93
		C485.79,408.84,492.88,409.07,491.94,412.94z"/>
	<path class="st9" d="M473.65,401.43c7,9.16-3.19,12.82-6.81,17.59c-1.46,1.92-3.29,6.59-8.59,5.64c6,6.09,9.41,0.65,11.93-1.51
		c7.56-6.47,2.59,2.21,3.97,2.96c0.34,9.27-5.02,13.97-13.17,16.42c-1.98-0.51-4.25-4.08-5.78,0.57c-1.3,3.94-2.89,7.57-8.22,6.34
		c-1.56-0.8-2.69-1.99-3.44-3.57c-1.15-2.99-0.29-5.68,1.22-8.27c2.67-3.14,3.9-6.27-0.1-9.34
		C455.06,420.11,461.98,408.2,473.65,401.43z"/>
	<path class="st9" d="M340.15,548.43c-0.61,0.86-1.21,1.71-1.82,2.57c-5.21,2.76-5.39-0.42-5.19-4.3c0.16-3.27,3.88-5.32,2.92-8.92
		c-0.09-0.79-0.18-1.57-0.27-2.36c11.54-13.55,18.92-28.88,20.06-46.87c3.02-1.4,6.05-2.81,9.07-4.21c0.29,0.42,0.57,0.84,0.86,1.26
		c-0.36,5.91-2.62,11.77-0.48,17.75c0.31,0.98,0.37,1.97,0.23,2.99c-1.98,4.68-4.08,9.28-8.36,12.41
		C347.32,526.25,343.9,537.43,340.15,548.43z"/>
	<path class="st29" d="M444.67,410.86c-5.44,7.79-10.33,16.03-19.71,20.97c4.83-16.22,14.35-29.78,26.62-41.75
		c5.08,0.32,5.93,3.21,4.26,7.34c-1.34,3.32-3.17,6.42-4.73,9.64C449.42,409.1,448.3,412.12,444.67,410.86z"/>
	<path class="st9" d="M382.68,489.68c-3.88,4.42-8.15,8.3-13.84,10.27c-0.87,1.9,0.08,5.55-4.1,4.24l0.12,0.11
		c-4.21-6.71,4.69-13.48-0.1-20.18c0,0,0.15,0.21,0.15,0.21c0.71-3.73,2.6-6.2,6.7-6.34c2.13,1.33,3.3,6.13,7,1.32
		c2.55-3.32,5.87-6.26,10.66-6.15c1.49,0.44,3.38-2.83,4.28-0.1c1.07,3.24-2.02,4.93-4,6.87
		C388.4,483.97,384.74,486.26,382.68,489.68z"/>
	<path class="st220" d="M389.28,473.15c-5.23,4.63-10.45,9.25-16.18,14.32c-0.53-3.36-1-6.42-1.48-9.49
		c4.51-4.69,9.01-9.39,14.37-14.97C387.38,467.3,388.33,470.23,389.28,473.15z"/>
	<path class="st53" d="M420.49,431.33c-1.21,12.54-10.28,16.23-24.1,9.79C404.18,436.11,416.16,442.93,420.49,431.33z"/>
	<path class="st226" d="M449.29,406.68c-0.37-3.97,2.38-6.59,4.42-9.35c2.71-3.67,1.57-5.72-2.13-7.26c3.44-3.56,6.13,1.69,9.35,0.8
		c4.19,2.22,4.16,5.34,1.88,8.93c-0.53,0.73-1.06,1.47-1.59,2.2C455.73,399.69,454.56,408.4,449.29,406.68z"/>
	<path class="st154" d="M395.23,446.03c-5.69,6.68,2.82,14.81-2.62,21.17C385.25,453.75,385.25,453.75,395.23,446.03z"/>
	<path class="st207" d="M485.14,384c-2.77-1.77-5.59-3.51-6.8-6.83c2.03-2.97,4.21-7.94,8.11-4.17
		C488.32,374.8,493.05,381.28,485.14,384z"/>
	<path class="st48" d="M501.16,388.65c-0.14,3.86-4.59,6.72-2.57,11.07c-5.21-7.79-1.67-16.54-1.84-24.68
		c-0.07-3.52,2.79,1.23,4.39,2.04C501.14,380.93,501.15,384.79,501.16,388.65z"/>
	<path class="st47" d="M449.29,406.68c2.92-2.42,5.72-5.02,8.79-7.23c3.6-2.6,2.72,0.91,3.15,2.55c-4.65,3.91-9.08,8.15-14.05,11.6
		c-2.96,2.05-1.76-1.69-2.51-2.74C446.21,409.46,447.75,408.07,449.29,406.68z"/>
	<path class="st47" d="M462.81,399.8c-0.63-2.98-1.26-5.95-1.88-8.93c3.16-2.83,6.33-5.67,9.49-8.5
		C466.91,387.87,469.26,395.87,462.81,399.8z"/>
	<path class="st237" d="M471.92,373.48c-1.62,6.72-7.27,9.51-12.41,12.87C461.81,380.39,466.6,376.77,471.92,373.48z"/>
	<path class="st80" d="M382.68,489.68c-0.6-5.29,3.45-7.3,6.87-9.76c2.04,3.53,2.71,6.74-2.02,8.71
		C385.92,488.98,384.3,489.33,382.68,489.68z"/>
	<path class="st216" d="M665.55,542.35c0.24-1.62,0.48-3.24,0.72-4.86c3.77-7.06,10.7-10.7,16.69-15.35
		C680.48,531.74,671.84,536.03,665.55,542.35z"/>
	<path class="st100" d="M768.08,600.98c2.16,7.84-4.53,11.51-7.64,17.25c-1.93-2.33-0.69-4.28-0.47-6.19
		c1.9-2.63,3.79-5.24,5.68-7.86C765.61,602.47,766.42,601.41,768.08,600.98z"/>
	<path class="st45" d="M676.79,506.51c-2.54,1.78-5.08,3.57-8.1,5.69c-0.33-5.42,5.02-6.64,5.89-10.48c1.8,0.76,4.04-2.86,5.32,0.16
		C680.88,504.22,678.51,505.4,676.79,506.51z"/>
	<path class="st227" d="M391.54,655.95c0.26,5.13-3.14,7.43-7.14,9.28c-3.42,1.26-5.03,5.21-8.8,5.95
		c-4.76-0.06-7.13,2.86-8.57,6.91c-0.82,0.15-1.64,0.29-2.46,0.44c-0.51-0.69-0.58-1.43-0.2-2.2c0.19-1.57,0.38-3.15,0.57-4.72
		c4.9-2.2,2.51-8.7,6.67-11.33c4.12-0.94,3.67-1.07,5.5-7.72c1.4-5.1,5.78,0.68,8.37-1.37
		C387.08,653.29,390.67,652.89,391.54,655.95z"/>
	<path class="st29" d="M534.17,571.19c1.45-3.8,2.89-7.6,4.34-11.4c4.45,0.14,3.41-5.3,6.57-6.47c3.48,1.91,11.02-1.71,9.52,6.99
		c-3.83,3.02-1.39,10.74-8.49,11.3c-1.75-1.03-2.64-2.49-2.25-4.57c-1.23,1-0.65,2.53-1.09,3.76c-1.35,3.79-1.06,8.1-3.69,11.5
		c-1.01,0.55-2.05,0.63-3.11,0.18C534.11,578.91,536.65,574.65,534.17,571.19z"/>
	<path class="st22" d="M484.05,647.44c4.86-4.82,4.66-10.4,3.46-16.7c-0.76-3.97-1.52-8.58,1.36-12.45
		c4.15,6.32,7.49,13.52,16.23,14.81c2.44,5.24,4.36,10.16-2.65,13.83c-4.21,2.2-4.78,7.01-6.13,11.11
		c-0.72-0.75-2.09-1.51-2.07-2.24C494.53,643.27,494.57,643.27,484.05,647.44z"/>
	<path class="st30" d="M291.41,617.94c-1.52,0.75-3.77-0.03-4.6,2.18c-0.47,0.16-0.93,0.33-1.4,0.5c-3.05-0.53-5.92-0.12-8.52,1.67
		c-3.58,4.48-8.29-0.06-12.23,1.57c-5.38,1.65-8.05,6.77-12.44,9.67c-5.01-2.03-1.82-4.28-0.2-6.55c4.23-5.94,9.88-11.13,10.2-19.15
		c7.6-2.52,5.86-9.04,6.28-14.63c6.1-6.65,12.21-13.31,18.31-19.96c4.57,2.03,3.9,5.4,2.18,8.92c-1.57,3.21-3.99,5.95-5.24,9.27
		c2.85,3.01,4.68-1.52,7.15-0.95c6.21,2.79,1.07,7.6,2.07,11.34C294.54,607.41,294.17,612.8,291.41,617.94z"/>
	<path class="st2" d="M301.32,624.57c-4.64,3.97-11.76,4.63-14.64,10.95c-8.68,2.05-15.42,6.79-20.05,14.46
		c-2.03,0.28-3.44-0.73-4.6-2.23c-0.56-1.6-1.12-3.19-1.68-4.79c1.75-2.8,2.13-6.61,5.84-7.97c9.31-1.21,14.19-10.68,23.19-12.48
		C293.36,623.2,297.34,623.89,301.32,624.57z"/>
	<path class="st111" d="M243.41,651.17c0,5.65-7.36,8.41-5.78,14.68c-1.82-0.47-5.65,2.74-4.69-2.77
		c1.54-8.85,5.68-16.58,11.06-23.43c3.3-4.2,5.43-1.96,5.17,2.76C249.06,646.53,247.24,649.51,243.41,651.17z"/>
	<path class="st197" d="M243.41,651.17c1.92-2.92,3.84-5.83,5.76-8.75c3.73,3.12,5.96,9.84,12.85,5.33c2.22-0.68,3.07,1.47,4.6,2.23
		c0.06,0.75,0.13,1.5,0.19,2.26c-3.14,5.28-8.55,5.04-13.63,5.6C249.99,655.53,248.4,650.86,243.41,651.17z"/>
	<path class="st197" d="M266.78,635.76c-3.47,1.22-2.63,6.29-6.44,7.21c0-4.12,2.89-8.35-0.46-12.35c-0.72-4.43,1.71-6.83,5.43-8.38
		c3.71-0.5,7.77,0.97,11.02-2.03c1.99,4.07-1.1,6.72-2.72,9.79C271.82,632.5,270.16,635.15,266.78,635.76z"/>
	<path class="st112" d="M265.31,622.24c-1.81,2.79-3.62,5.58-5.43,8.38c-2.55,0.98-5.11,1.95-7.66,2.93
		C256.11,629.23,256.45,620.79,265.31,622.24z"/>
	<path class="st15" d="M584.89,627.15c-1.9,1.85-1.1,5.34-4,6.57c-3.25-2.49-8.19-3.35-8.24-8.87c-0.03-2.88-0.84-2.54-2.89-0.95
		c-5.69,4.44-3.5-1.87-4.65-3.63c1.09-6.41,6.47-10.15,9.5-15.36c3.14-4.4,1.02-11.86,8.1-13.95c6.73,3.68,4.88,10.97,6.97,16.6
		c2.8,4.09,1.81,8.23,0.17,12.38c-1.98,1.28-3,3.01-2.61,5.43C586.45,625.96,585.67,626.56,584.89,627.15z"/>
	<path class="st216" d="M576.58,607.13c-3.83,4.38-7.65,8.76-11.48,13.14c-7.79,0.14-3.49-5.67-4.39-8.93
		c-0.13-6.63-2.86-13.07-1-20.8c0.57,3.74,1.01,6.59,1.73,11.28c4.03-12.68,0.77-23.8,1.61-34.73c1.95-0.51,3.72-0.48,4.81,1.6
		c2.33,13.27,0.16,26.18-1.87,36.94c0.7-6.44,3.32-14.77,2.88-23.74c-0.14-2.82-3.01-7.72,3.15-8.67c3,1.51,0.34,6.48,4.46,7.31
		C581.97,589.38,576.34,598.26,576.58,607.13z"/>
	<path class="st222" d="M576.58,607.13c-2.19-8.86,0.91-17.73-0.1-26.6c6.17,1.03,3.17,7.53,6.22,10.42
		C580.66,596.35,578.62,601.74,576.58,607.13z"/>
	<path class="st27" d="M572.02,573.22c-5.34,9.61-0.37,20.62-4.16,30.48c-0.75,1.94-0.76,4.17-2.36,6.16
		c0.79-13.72,1.57-27.44,2.36-41.16C569.25,570.2,570.64,571.71,572.02,573.22z"/>
	<path class="st56" d="M547.27,572.32c3.11-3.6,2.25-9.62,7.34-12.02c-0.34,2.87-0.68,5.75-1.02,8.62c-1.29,2.2-2.59,4.41-3.88,6.61
		c0.84,3.87-1.77,3.17-3.98,2.98C543.14,575.68,543.6,573.6,547.27,572.32z"/>
	<path class="st242" d="M589.84,619.93c-0.24-4.13-2.16-8.23-0.17-12.38C595.77,611.28,595.79,612.39,589.84,619.93z"/>
	<path class="st209" d="M289.16,601.49c0.06-3.59,6.73-5.8,2.15-10.36c-1.65-5.35,2.76-8.34,4.48-12.86
		c-4,6.62-6.95,14.1-15.56,15.55c-0.2-4.89,3.76-7.63,6.03-11.16c2.11-3.27,3.92-6.04,0.56-9.41c6.83-14.13,16.54-24,33.55-24.65
		c6.97-0.27,12.29-4.57,15.7-10.83c3.87,2.71,0.08,5.18-0.34,7.7c-0.44,2.62-1.47,5.18,2.62,5.52c0.1,2.38,1.34,5.1-1.91,6.51
		c-4.37,1.65-8.97,0.57-13.24,1.24c4.06,0.34,8.49-1.14,12.57,1.12c-5.08,7.75-15.68,7.6-20.55,16.14c4.4-2.26,8.85-4.43,13.18-6.82
		c2.95-1.63,5.48-2.31,7.22,1.47c0.13,2.78-1.41,4.79-3.1,6.73c-6.28,4.52-16.31,4.08-18.49,14.03
		C306.53,596.77,299.53,603.3,289.16,601.49z"/>
	<path class="st136" d="M545.22,577.5c2.03,0.56,3.7,0.3,4.48-1.97c4.23,1.71,3.21,6.2,4.9,9.26c-0.05,5.71-8.53,6.66-7.37,13.06
		c-2.9,1.25-0.14,6.06-4.16,6.6c-0.99-1.81-1.77-3.82-4.15-4.28c1.6-4.68-0.48-7.25-4.86-8.52c0.76-0.17,1.52-0.34,2.28-0.51
		c3.45-2.97-2.34-6.22,0.28-9.21c0.77-0.05,1.54-0.09,2.31-0.14C540.97,580.27,541.44,576.45,545.22,577.5z"/>
	<path class="st43" d="M460.05,441.33c7.39-2.58,10.57-9.07,14.12-15.22c5.02-1.58,6.75,4.73,11.14,4.66
		c-0.22,5.94-6.85,6.71-8.95,11.13c-15.59,10.76-20,30.99-35.46,41.86c-6.27,7.81-7.51,8.57-13.91,8.45
		c-1.93-3.07-0.59-5.92,1.19-8.23C438.98,469.92,447.96,454.46,460.05,441.33z"/>
	<path class="st37" d="M440.88,483.77c5.12-9.58,12.5-17.59,16.9-27.95c2.62-6.16,12.14-9.37,18.56-13.91
		c2.84,0.01,4.17,1.56,4.35,4.28c-5.8,3.79-4.12,7.57,0,11.36c0,0-0.12-0.11-0.12-0.11c0.03,1.53,0.06,3.05,0.08,4.58
		c-6.71,1.3-13.41,2.59-20.09,4.02c-0.08,0.02,0.23,1.91,0.37,2.93c-1.59,0.96-3.18,1.91-4.76,2.86c-2.56,4.42-3.4,10.11-9.07,12.22
		C445.03,483.96,442.95,483.86,440.88,483.77z"/>
	<path class="st187" d="M480.7,457.54c-3.51,0.15-6.46-0.26-6.83-4.83c-0.42-5.18,3.29-5.68,6.83-6.53
		C477.88,449.97,481.06,453.75,480.7,457.54z"/>
	<path class="st0" d="M547.73,410.13c-0.05-0.77-0.1-1.54-0.15-2.31c11.62,3.86,4.95,13.46,6.45,20.5
		c-4.05-2.35-2.07-6.29-2.29-9.51C551.49,415.25,552.29,411.56,547.73,410.13z"/>
	<path class="st236" d="M253.19,657.84c3.34-4.8,9.72-2.2,13.63-5.6c-0.2,2.73-0.31,5.5-2.7,7.45
		C259.84,662.84,255.45,666.61,253.19,657.84z"/>
	<path class="st0" d="M536.63,581.92c0.3,3.08,3.9,6.26-0.28,9.21c-2.79-6.42-2.49-13.18-2.17-19.94
		C538.7,573.92,535.24,578.47,536.63,581.92z"/>
	<path class="st164" d="M380.81,677.96c3.74-4.31,8.77-3.43,13.6-3.36c-2.12,6.94-8.54,8.09-14.04,10.49
		c-0.84-1.01-1.69-2.02-2.53-3.03C377.51,679.73,378.53,678.39,380.81,677.96z"/>
	<path class="st216" d="M380.81,677.96c-0.99,1.37-1.98,2.73-2.97,4.1c-6.42-2.46,0.2-7.6-2.24-10.87c2.11-3.21,3.3-7.77,8.8-5.95
		c-0.52,1.36-1.05,2.73-1.57,4.09C383.53,672.52,374.85,673.53,380.81,677.96z"/>
	<path class="st12" d="M624.98,648.64c-3.59,3.14-7.18,6.28-10.77,9.42c0.43-5.49,4.8-8.77,7.45-13c0.46-0.74,2.04-2.81,3.25-0.69
		C625.53,645.46,625,647.2,624.98,648.64z"/>
	<path class="st91" d="M364.36,676.33c0.02,0.74,0.08,1.47,0.2,2.2c-1.98,3.25-3.09,7.18-6.97,8.96c-1.86-1.04-3.94,8.31-5.63-0.12
		C356.01,683.6,356.46,675.79,364.36,676.33z"/>
	<path class="st79" d="M331.14,575.86c-0.52-3.45,3.22-3.26,4.46-5.21c7.02-2.17,12.04-6.81,15.89-12.89
		c5.97,5.25,1.75,10.38-0.18,15.53c-5.68,5.8-11.81,11.29-13.53,19.8c0.46,2.95-0.74,7.71-3.13,5.72
		c-4.69-3.91-6.92,3.18-10.38,0.81c0,0,0.02,0.01,0.02,0.01c-2.75-4.03-0.31-6.97,2.15-9.8C329.95,585.79,331.03,581,331.14,575.86z
		"/>
	<path class="st33" d="M364.75,504.19c1.37-1.41,2.74-2.83,4.1-4.24c5.53,0.28,10.92,1.67,16.41-1.71c2.53-1.55,1.09,2.04,1.39,3.33
		c-2.76,5.55-3.4,12.19-8.51,16.53c-1.85-0.05-3.04-0.72-2.6-2.86c0.19-2.51,3.39-4.16,1.61-7.91c-7.77,2.62-11.12,9.19-14.88,15.67
		c-3.55,6.11-5.47,6.14-8.57,1.32c-1.41-2.95,0.36-4.8,2.28-6.6C358.9,513.21,361.82,508.7,364.75,504.19z"/>
	<path class="st114" d="M411.21,504.68c-3.93-1.28-6.4,2.19-10.28,3.39c0.97-7.11,6.15-11.56,8.46-17.34
		c1.01-1.37,3.59,2.91,4.08-1.31c0.33-2.84,2.34-5.1,5.12-6.37c1.65-0.41,3.19-0.19,4.58,0.84c2.91,5.55-2.5,9.09-3.29,13.75
		C417.66,500.8,415.36,503.88,411.21,504.68z"/>
	<path class="st51" d="M418.77,484.42c-3.28,1.88-2.65,9.56-9.38,6.31c1.38-8,12.02-12.47,8.51-22.33c3.77-3.2,3.37-9.67,8.96-11.45
		c1.76,0.38,2.94,1.47,3.68,3.07C430.74,470.13,423.33,476.59,418.77,484.42z"/>
	<path class="st68" d="M402.69,519.77c0.43-5.82,4.79-8.47,9.05-11.2c3.55-4.23,4.71-12.11,13.27-8.68l-0.13-0.08
		c2.16,7.44-3.39,11.32-7.32,15.95c-0.87,0.54-1.83,0.89-2.83,1.09C410.15,515.49,407.36,521.53,402.69,519.77z"/>
	<path class="st209" d="M355.97,517.72c-0.76,2.2-1.52,4.4-2.28,6.6c-4.52,8.04-9.03,16.08-13.55,24.12
		C341.13,535.98,346.9,526,355.97,517.72z"/>
	<path class="st99" d="M414.09,515.41c0.69,0.11,1.38,0.08,2.06-0.09c2.68,6.56-3.58,10.34-4.86,15.66
		c-2.4,0.62-3.74,2.19-4.18,4.59c-5.32-1.94-1.19-7.69-4.25-10.54C404.69,519.6,409.21,517.3,414.09,515.41z"/>
	<path class="st20" d="M375.54,515.24c0.76,0.66,1.52,1.32,2.29,1.99c2.25,2.34,0.59,4.27-0.65,6.24c-0.39,0.27-0.78,0.53-1.17,0.79
		c-3.89,2.6-8.09-0.49-8.42-2.53C366.77,516.67,372.41,516.98,375.54,515.24z"/>
	<path class="st135" d="M425,499.89c-5.97,0.53-7.85,7.31-13.27,8.68c-0.17-1.3-0.35-2.6-0.53-3.89c1.71-3.01,3.89-5.55,7.09-7.06
		c2.15-1.93,4.29-1.68,6.44,0C424.83,498.37,424.92,499.13,425,499.89z"/>
	<path class="st20" d="M382.95,519.58c0.78,1.15-0.72,3.46,1.87,3.69c-0.59,3.59-1.13,7.67-5.78,7.63c-4.61-0.05-2.5-4.17-3.04-6.64
		c0,0-0.1,0.11-0.1,0.11C378.04,522.46,378.58,518.22,382.95,519.58z"/>
	<path class="st243" d="M335.75,559.86c-6.31,0-12.62,0-18.93,0c6.47-2.43,12.88-4.32,19.6-2.36
		C336.2,558.29,335.97,559.08,335.75,559.86z"/>
	<path class="st188" d="M414.09,515.41c-3.74,3.21-7.49,6.42-11.23,9.63c-0.06-1.75-0.11-3.51-0.17-5.26
		C407.02,519.69,408.15,511.27,414.09,515.41z"/>
	<path class="st199" d="M351.35,555.56c-3.83-2.08-2.91-5.43-1.95-8.49c0.5-1.6,1.93-2.9,2.94-4.34c1.04,0.89,2.48,1.57,3.03,2.7
		c1.48,3.08,0.84,4.84-3.05,3.62c-0.25,2.12-0.51,4.23-0.76,6.35C351.56,555.39,351.35,555.56,351.35,555.56z"/>
	<path class="st240" d="M431.76,581.78c5.43,4.72,6.44,9.97,1.9,15.88c-3.81,4.96-11.66,6.75-17.77,4.02
		C426.51,599.3,428.04,589.66,431.76,581.78z"/>
	<path class="st31" d="M337.78,593.09c-3.32-11.95,4.92-16,13.53-19.79c0.9,0.82,1.8,1.64,2.7,2.46
		C347.37,580.37,346.98,590.85,337.78,593.09z"/>
	<path class="st92" d="M411.29,530.98c-3.72-6.88,5.21-9.83,4.86-15.66c5.2-3.88,5.17-10.7,8.73-15.51
		c4.59-4.24,11.19,0.17,16.28-3.79c1.07-0.83-0.48,2.37-0.7,3.73c-6.22,6.79-13.82,12.22-19.18,19.9
		C418.41,523.76,419.25,531.34,411.29,530.98z"/>
	<path class="st174" d="M438.45,519.85c-3.68,3.82-7.36,7.65-11.03,11.47c-2.83-5.46-0.87-10.29,8.71-18.45
		C429.07,520.72,434.21,519.97,438.45,519.85z"/>
	<path class="st48" d="M391.54,655.95c-1.57-0.21-2.46-3.04-4.59-1.18c-1.21,1.05-2.92,1.53-3.56-0.02
		c-0.32-0.77,1.31-2.35,2.07-3.56c3.67-0.03,6.14-5.95,10.58-2.14C394.88,651.57,388.91,650.96,391.54,655.95z"/>
	<path class="st244" d="M424.75,497.61c-2.15,0-4.3,0-6.44,0c1.49-4.28,2.97-8.55,4.46-12.83c0.18-1.02,0.56-1.96,1.08-2.84
		c4.27-6.94,8.56-13.88,13.26-20.56c7.65-0.42,3.85-11.06,10.79-12.12c3.91-1.95,5.52-4.94,5.3-9.44c-0.14-2.95,2.65-4.38,5.17-3.88
		c2.87,0.57,1.4,3.47,1.68,5.39c-7.45,15.09-18.81,27.54-28.13,41.36c-2.09,3.1-4.29,5.82-4.95,9.53
		C422.64,492.54,423.28,494.91,424.75,497.61z"/>
	<path class="st245" d="M447.1,484.05c3.02-4.07,6.05-8.15,9.07-12.22c1.49,4.14-2.32,6.73-2.99,10.24
		c-2.31,3.29-3.44,7.77-8.51,8.43C443.08,487.32,446.97,486.39,447.1,484.05z"/>
	<path class="st53" d="M289.16,601.49c8.08-3.65,16.16-7.3,24.24-10.95c3.36,4.14-0.03,6.91-1.99,9.98
		c-2.98,6.18-8.47,9.62-14.11,12.89c-2.08,1.36-2.45,4.94-5.89,4.53C288.6,612.74,294.38,606.36,289.16,601.49z"/>
	<path class="st115" d="M322.6,611.19c-0.87,1.37-1.74,2.74-2.61,4.11c-3.27,1.39-6.49,2.91-9.81,4.15c-3.3,1.23-5.62,0.51-5.64-3.6
		c-1.41-4.84,2.65-6.53,5.19-9.11c3.47-1.56,5.08-7.6,10.54-4.4C322.33,604.95,315.42,609.92,322.6,611.19z"/>
	<path class="st30" d="M266.78,635.76c1.63-2.43,3.26-4.87,4.9-7.3c5.43-2.17,9.32-7.14,15.25-8.41l-0.12,0.08
		c0.85,0.8,1.71,1.59,2.56,2.39c-5.33,7.22-14.3,9.73-20.58,15.79C267.56,639.5,266.97,637.07,266.78,635.76z"/>
	<path class="st66" d="M311.28,608.98c-2.86,1.69-5.32,3.77-6.74,6.87c-2.41-0.81-4.83-1.62-7.24-2.44
		c3.25-0.51-1.41-12.45,7.76-5.31c0.97,0.76-1.23-6.6,3.54-7.54C313.81,601.99,313.53,605.17,311.28,608.98z"/>
	<path class="st193" d="M311.28,608.98c0.62-3.29,0.54-6.35-2.68-8.41c1.42-3.43,6.12-5.28,4.8-10.03
		c-0.74-2.22-7.26-4.92-2.44-5.92c7.65-1.59,11.93-9.71,20.18-8.76c3.33,1.85,2.66,12.15-1.91,15.24c-3.44,2.33-4.84,4.78-4.93,8.52
		c-1.35,0.9-2.69,1.8-4.03,2.7C314.5,600.79,315.81,608.83,311.28,608.98z"/>
	<path class="st180" d="M428.28,459.6c-0.47-0.89-0.95-1.77-1.42-2.66c-0.1-5.28-3.88-0.65-5.88-2.49
		c7.98-5.65,15.89-11.25,23.81-16.86c0.23,2.94,0.46,5.89,0.68,8.83C442.42,454.32,439.05,461.8,428.28,459.6z"/>
	<path class="st46" d="M382.95,519.58c-2.35,1.6-4.7,3.2-7.04,4.8c0.64-2.38,1.28-4.76,1.92-7.15c1.61-5.97,3.59-11.73,8.82-15.66
		C387.49,508,387.46,514.25,382.95,519.58z"/>
	<path class="st110" d="M428.28,459.6c7.36-2.27,12.52-7.39,17.19-13.17c0.81,0.94,1.61,1.89,2.42,2.83
		c-3.23,3.94-3.05,10.13-8.37,12.69c-6.57,5.96-12.61,12.25-14.03,21.56c-0.91,0.42-1.81,0.84-2.72,1.27
		c-1.33-0.12-2.66-0.24-3.99-0.36C418.26,474.74,428.52,469.18,428.28,459.6z"/>
	<path class="st212" d="M364.76,484.12c7.89,1.79,3.79,7.58,2.77,11.02c-0.89,3-3.12,5.66-2.67,9.16
		C356.69,497.62,363.84,490.86,364.76,484.12z"/>
	<path class="st3" d="M545.22,577.5c-2.55,0.75-2.29,5.65-6.29,4.28c-1.47-7.08,0.73-13.07,5.37-18.45c2,2.77-0.86,6.97,2.97,8.98
		C546.58,574.05,545.9,575.78,545.22,577.5z"/>
	<path class="st11" d="M280.22,593.82c9.29-4.31,10.1-17.32,20.77-20.41c-3.72,5.76-7.01,11.57-9.68,17.72
		c-3.14,2.07-6.05,4.8-9.5,6.01C278.53,598.29,280.7,595.03,280.22,593.82z"/>
	<path class="st87" d="M286.92,620.05c-3.85,5.05-8.65,8.35-15.25,8.41c1.49-2.79,4.53-4.69,4.66-8.24
		C279.82,617.17,283.28,612.64,286.92,620.05z"/>
	<path class="st181" d="M425.48,483.51c-1.97-11.51,5.69-16.76,14.03-21.56C434.84,469.14,430.16,476.32,425.48,483.51z"/>
</g>
</svg>
