<?xml version="1.0" encoding="utf-8"?>
<!-- Generator: Adobe Illustrator 24.1.2, SVG Export Plug-In . SVG Version: 6.00 Build 0)  -->
<svg version="1.1" id="Layer_1" xmlns="http://www.w3.org/2000/svg" xmlns:xlink="http://www.w3.org/1999/xlink" x="0px" y="0px"
	 viewBox="0 0 1080 1080" style="enable-background:new 0 0 1080 1080;" xml:space="preserve">
<style type="text/css">
	.st0{fill:#0D0D0D;}
	.st1{fill:#0B0B0B;}
	.st2{fill:#151515;}
	.st3{fill:#F6F6F6;}
	.st4{fill:#C2C2C2;}
	.st5{fill:#161616;}
	.st6{fill:#BBBBBB;}
	.st7{fill:#141414;}
	.st8{fill:#AFAFAF;}
	.st9{fill:#B5B5B5;}
	.st10{fill:#1C1C1C;}
	.st11{fill:#363636;}
	.st12{fill:#C5C5C5;}
	.st13{fill:#1F1F1F;}
	.st14{fill:#ADADAD;}
	.st15{fill:#9D9D9D;}
	.st16{fill:#ABABAB;}
	.st17{fill:#464646;}
	.st18{fill:#393939;}
	.st19{fill:#8E8E8E;}
	.st20{fill:#6C6C6C;}
	.st21{fill:#808080;}
	.st22{fill:#D3D3D3;}
	.st23{fill:#0C0C0C;}
	.st24{fill:#606060;}
	.st25{fill:#565656;}
	.st26{fill:#E6E6E6;}
	.st27{fill:#6B6B6B;}
	.st28{fill:#EFEFEF;}
	.st29{fill:#9A9A9A;}
	.st30{fill:#AEAEAE;}
	.st31{fill:#5B5B5B;}
	.st32{fill:#989898;}
	.st33{fill:#131313;}
	.st34{fill:#797979;}
	.st35{fill:#353535;}
	.st36{fill:#1B1B1B;}
	.st37{fill:#232323;}
	.st38{fill:#2F2F2F;}
	.st39{fill:#5C5C5C;}
	.st40{fill:#373737;}
	.st41{fill:#9E9E9E;}
	.st42{fill:#B1B1B1;}
	.st43{fill:#9F9F9F;}
	.st44{fill:#A6A6A6;}
	.st45{fill:#CECECE;}
	.st46{fill:#A8A8A8;}
	.st47{fill:#9C9C9C;}
	.st48{fill:#DBDBDB;}
	.st49{fill:#A0A0A0;}
	.st50{fill:#B9B9B9;}
	.st51{fill:#3F3F3F;}
	.st52{fill:#2B2B2B;}
	.st53{fill:#878787;}
	.st54{fill:#949494;}
	.st55{fill:#292929;}
	.st56{fill:#E8E8E8;}
	.st57{fill:#909090;}
	.st58{fill:#C9C9C9;}
	.st59{fill:#2A2A2A;}
	.st60{fill:#262626;}
	.st61{fill:#1A1A1A;}
	.st62{fill:#333333;}
	.st63{fill:#AAAAAA;}
	.st64{fill:#787878;}
	.st65{fill:#434343;}
	.st66{fill:#181818;}
	.st67{fill:#8C8C8C;}
	.st68{fill:#727272;}
	.st69{fill:#676767;}
	.st70{fill:#8F8F8F;}
	.st71{fill:#9B9B9B;}
	.st72{fill:#484848;}
	.st73{fill:#3E3E3E;}
	.st74{fill:#0E0E0E;}
	.st75{fill:#737373;}
	.st76{fill:#A1A1A1;}
	.st77{fill:#A2A2A2;}
	.st78{fill:#818181;}
	.st79{fill:#3B3B3B;}
	.st80{fill:#717171;}
	.st81{fill:#898989;}
	.st82{fill:#959595;}
	.st83{fill:#E5E5E5;}
	.st84{fill:#555555;}
	.st85{fill:#FAFAFA;}
	.st86{fill:#F9F9F9;}
	.st87{fill:#4E4E4E;}
	.st88{fill:#8A8A8A;}
	.st89{fill:#DDDDDD;}
	.st90{fill:#414141;}
	.st91{fill:#EBEBEB;}
	.st92{fill:#CFCFCF;}
	.st93{fill:#EEEEEE;}
	.st94{fill:#242424;}
	.st95{fill:#C1C1C1;}
	.st96{fill:#E3E3E3;}
	.st97{fill:#525252;}
	.st98{fill:#E9E9E9;}
	.st99{fill:#202020;}
	.st100{fill:#FEFEFE;}
	.st101{fill:#DEDEDE;}
	.st102{fill:#FBFBFB;}
	.st103{fill:#BCBCBC;}
	.st104{fill:#BEBEBE;}
	.st105{fill:#101010;}
	.st106{fill:#B3B3B3;}
	.st107{fill:#171717;}
	.st108{fill:#2D2D2D;}
	.st109{fill:#C0C0C0;}
	.st110{fill:#B0B0B0;}
	.st111{fill:#212121;}
	.st112{fill:#323232;}
	.st113{fill:#CBCBCB;}
	.st114{fill:#E1E1E1;}
	.st115{fill:#121212;}
	.st116{fill:#8D8D8D;}
	.st117{fill:#B2B2B2;}
	.st118{fill:#1D1D1D;}
	.st119{fill:#A9A9A9;}
	.st120{fill:#7C7C7C;}
	.st121{fill:#BABABA;}
	.st122{fill:#595959;}
	.st123{fill:#1E1E1E;}
	.st124{fill:#929292;}
	.st125{fill:#2E2E2E;}
	.st126{fill:#282828;}
	.st127{fill:#848484;}
	.st128{fill:#4F4F4F;}
	.st129{fill:#A3A3A3;}
	.st130{fill:#919191;}
	.st131{fill:#7D7D7D;}
	.st132{fill:#979797;}
	.st133{fill:#767676;}
	.st134{fill:#090909;}
	.st135{fill:#F0F0F0;}
	.st136{fill:#4A4A4A;}
	.st137{fill:#585858;}
	.st138{fill:#A4A4A4;}
	.st139{fill:#828282;}
	.st140{fill:#B4B4B4;}
	.st141{fill:#E7E7E7;}
	.st142{fill:#C3C3C3;}
	.st143{fill:#494949;}
	.st144{fill:#D9D9D9;}
	.st145{fill:#313131;}
	.st146{fill:#636363;}
	.st147{fill:#696969;}
	.st148{fill:#838383;}
	.st149{fill:#383838;}
	.st150{fill:#505050;}
	.st151{fill:#999999;}
	.st152{fill:#ACACAC;}
	.st153{fill:#454545;}
	.st154{fill:#616161;}
	.st155{fill:#252525;}
	.st156{fill:#6A6A6A;}
	.st157{fill:#747474;}
	.st158{fill:#EAEAEA;}
	.st159{fill:#BDBDBD;}
	.st160{fill:#D0D0D0;}
	.st161{fill:#D5D5D5;}
	.st162{fill:#686868;}
	.st163{fill:#646464;}
	.st164{fill:#2C2C2C;}
	.st165{fill:#3C3C3C;}
	.st166{fill:#545454;}
	.st167{fill:#F1F1F1;}
	.st168{fill:#FDFDFD;}
	.st169{fill:#FCFCFC;}
	.st170{fill:#A7A7A7;}
	.st171{fill:#272727;}
	.st172{fill:#B8B8B8;}
	.st173{fill:#0F0F0F;}
	.st174{fill:#191919;}
	.st175{fill:#707070;}
	.st176{fill:#111111;}
	.st177{fill:#F3F3F3;}
	.st178{fill:#4C4C4C;}
	.st179{fill:#4D4D4D;}
	.st180{fill:#222222;}
	.st181{fill:#626262;}
	.st182{fill:#777777;}
	.st183{fill:#A5A5A5;}
	.st184{fill:#868686;}
	.st185{fill:#C6C6C6;}
	.st186{fill:#EDEDED;}
	.st187{fill:#757575;}
	.st188{fill:#CACACA;}
	.st189{fill:#5E5E5E;}
	.st190{fill:#E0E0E0;}
	.st191{fill:#575757;}
	.st192{fill:#7F7F7F;}
	.st193{fill:#B6B6B6;}
	.st194{fill:#F8F8F8;}
	.st195{fill:#D1D1D1;}
	.st196{fill:#D8D8D8;}
	.st197{fill:#C4C4C4;}
	.st198{fill:#F4F4F4;}
	.st199{fill:#6E6E6E;}
	.st200{fill:#BFBFBF;}
	.st201{fill:#5D5D5D;}
	.st202{fill:#7E7E7E;}
	.st203{fill:#4B4B4B;}
	.st204{fill:#888888;}
	.st205{fill:#C8C8C8;}
	.st206{fill:#303030;}
	.st207{fill:#939393;}
	.st208{fill:#C7C7C7;}
	.st209{fill:#F7F7F7;}
	.st210{fill:#070707;}
	.st211{fill:#5A5A5A;}
	.st212{fill:#515151;}
	.st213{fill:#858585;}
	.st214{fill:#7A7A7A;}
	.st215{fill:#535353;}
	.st216{fill:#E2E2E2;}
	.st217{fill:#666666;}
	.st218{fill:#DFDFDF;}
	.st219{fill:#060606;}
	.st220{fill:#DCDCDC;}
	.st221{fill:#DADADA;}
	.st222{fill:#F2F2F2;}
	.st223{fill:#3D3D3D;}
	.st224{fill:#D4D4D4;}
	.st225{fill:#424242;}
	.st226{fill:#3A3A3A;}
	.st227{fill:#404040;}
	.st228{fill:#7B7B7B;}
	.st229{fill:#969696;}
	.st230{fill:#6F6F6F;}
	.st231{fill:#D2D2D2;}
	.st232{fill:#D6D6D6;}
	.st233{fill:#D7D7D7;}
	.st234{fill:#F5F5F5;}
	.st235{fill:#5F5F5F;}
	.st236{fill:#080808;}
	.st237{fill:#8B8B8B;}
	.st238{fill:#ECECEC;}
	.st239{fill:#343434;}
	.st240{fill:#CCCCCC;}
	.st241{fill:#0A0A0A;}
	.st242{fill:#B7B7B7;}
	.st243{fill:#040404;}
	.st244{fill:#E4E4E4;}
	.st245{fill:#CDCDCD;}
	.st246{fill:#6D6D6D;}
	.st247{fill:#444444;}
</style>
<g>
	<path class="st168" d="M431.75,376.97c9.78-1.51,23.26,7.12,24.11,16.07c0.67,7.02,2.98,10.27,10.61,8.59
		c5.56-1.22,10.23,2.58,11.73,6.9c2.73,7.85,8.66,13.45,12.19,20.56c3.47,6.98,7.34,12.44,16.4,11.68c5.84-0.49,6.59,5.14,8.63,8.86
		c2.34,4.26,4.37,8.69,6.53,13.05c-8.05,2.82-12.48-3.72-17.85-7.27c-4-2.65-6.71-7.06-10.95-9.59c-9.75-7-17.28-15.69-20.84-27.36
		c3.34,11.67,10.88,20.2,20.53,27.16c7.58,5.35,13.09,13.22,21.8,17.25c4.01,1.85,5.36,4.99,1.07,8.32
		c-0.99,0.77-3.54,0.89-3.36,1.02c5.67,4.1,4.72,11.45,8.29,16.49c1.22,5.23-1.47,9.3-3.99,13.43c-1.21,1.48-2.11,3.07-1.86,5.08
		c-0.11-2.18,0.81-3.93,2.29-5.45c1.94-0.86,3.04,0.25,3.99,1.7c1.57,3.67,0.38,7.17-0.71,10.67c-0.47,1.56,1.52,0.9,1.28,0.23
		c-1.14-3.11,0.27-5.87,2.54-8.17c7.93,1.5,3.09,8.29,5.13,12.24c0.66,2.73,1.76,5.39,1.28,8.29c-4.81,4.45-6.31,14.66-16.62,9.7
		c-0.95,1.74-2.26,2.9-4.29,3.07c-10.58-4.15-20.44-10.91-32.71-8.71c-14.32-3.14-15.28-15.62-18.55-26.48
		c-4.54-10.75-11.8-19.86-18.09-29.54c-0.98-1.28-1.95-2.58-2.91-3.88c-1.3-1.76-2.22-3.7-2.73-5.82c-2-4.92-3.3-10.08-4.85-15.14
		c-0.74-1.36-1.5-2.7-2.3-4.03c-2.11-4.35-5.81-7.1-9.74-9.64c-3.26-2.52-5.35-5.84-6.68-9.69c-2.73-9.09-6.97-17.54-10.97-26.11
		c-0.91-4.5-1.78-9.64,3.1-11.85c5.61-2.54,9.82,2.01,14.08,5c5.15,4.02,11.56,6.78,13.95,13.63c2.38,6.03,5.3,7.95,9.38,1.23
		c7.74-3.63,6.15,5.06,9.55,7.19c1.19,0.71,2.44,2.6,3.69,1.35c1.21-1.2-0.62-2.55-1.32-3.77c-2.95-2.95-7.17-5.26-5.32-10.57
		c3.88-4-1.14-4.05-2.6-5.5C438.84,391.38,431.01,386.93,431.75,376.97z"/>
	<path class="st1" d="M247.95,521.23c-0.06-6.05-0.66-12.17,0.02-18.14c0.48-4.26,1.64-10.97,4.3-12.03
		c15.61-6.23,14.04-20.74,16.95-32.89c1.01-4.22,4.19-6.88,5.19-10.66c2.85-10.8,7.82-20.91,7.75-32.67
		c-0.1-16.08,5.57-22.4,20.75-27.23c2.23-0.71,4.28-2,6.41-3.03c14-5.13,20.46,6.77,29.44,13c0.82,0.9,1.48,1.91,2.03,2.99
		c1.61,4.46,4.12,8.63,4.61,13.49c-0.21,2.51-0.86,4.7-3.83,5.14c-10.19-7.57-16.55-19.86-30.08-23.83
		c10.84,20.54,22.64,40.37,35.14,59.79c0.19,1.13,0.02,2.22-0.46,3.25c-5.33,4.86-8.15,11.32-11.11,17.7
		c-3.75,5.9-7.62,11.61-16.1,9.36c-9.93,1.31-11.13,7.81-9.52,15.97c3.17,6.08,1.1,13.65,6.88,19.44c-2.26-9.81,9.16-17.38,3-28.56
		c-1.77-3.22,9.09-7.26,14.09-4.49c1.26,20.36-1.24,38.88-21.5,50.3c-8.12,4.58-15.27,10.86-20.32,19.03
		c-11.6-1.38-12.34,10.41-18.67,15.44c-4.5,1.53-7.4-1.79-10.82-3.54c-2.27-1.68-4.24-3.63-5.55-6.17
		c-1.25-4.93-2.06-9.66,5.11-10.49c3.39-3.76,6.16-8.25,11.54-9.55c4.6-2.64,7.5-7.23,11.73-10.3c3.64-1.57,6.38,3.4,11.18,0.79
		c-2.64-3.29-7.26-5.17-7.86-9.69c-0.7-4.85,0.9-9.97-1.8-14.59c-3.11-7.06-1.13-12.88,4.32-17.86c8.16-5.91,10.32-13.99,9.19-23.66
		c-0.78-6.63-1.05-13.64,8.98-13.31c8.67,3.86,9.15-8.74,16.38-8.39c0.62,0.03-0.52-3.5-2.55-4.26c-3.7-1.4-7.86-1.7-10.87-4.71
		c-1.58-1.9-1.2-4.17-1.2-6.36c0.43-4.49-3.46-6.2-5.77-8.93c-2.81-3.71-5.49-7.46-4.21-12.5c-0.56-1.34,4.12-3.83,0.33-3.46
		c-3.26,0.31-11,0.5-6.61,9.22c3.19,6.33,3.92,13.94-3.63,19.05c-8.55,1.64-2.27,7.41-3.05,11.17c5.46,3.91,9.43,9.13,7.03,15.82
		c-2.89,8.05,5.71,16.96-2.42,24.24c-8.06-4.28-13.57-19.82-10.94-34.44c-4.79,12.3-7.54,22.79-10.88,31.49
		c0.02-0.09,0.57-1.57,1.36-2.96c1.77-3.13,3.34-7.88,7.57-6.38c3.8,1.35,3.4,6.23,2.64,9.8c-1.31,6.13,0.87,13.4-5.47,18.01
		c-2.98,1.45-6.02,2.79-9.03,4.22c-6.36-4.26-10.15-3.33-11.82,4.86c-0.83,4.09-0.58,9-4.66,11.98
		C250,522.08,248.94,521.91,247.95,521.23z"/>
	<path class="st169" d="M338.26,397.74c-8.09,1.28-10.27-7.05-15.79-10.13c-4.52-2.52-8.24-4.11-13.13-3.03
		c22.31-8.19,44.15-5.36,65.76,2.83c4.6,6.45,11.73,10.55,16.09,17.23c2.95,3.11,5.19,6.81,8.07,9.98
		c5.22,4.14,7.69,10.46,12.15,15.22c1.94,2.8,4.75,5.19,4.43,9.09c-5.82,9.93-8.4,21.32-14.07,31.32c-1.82,2.69-1.99,8.17-6.82,6.31
		c-3.31-1.27-2.42-5.59-1.85-8.78c0.57-3.18,1.79-6.22,2.01-9.47c0.21-3.11-0.2-4.6-3.67-7.06c-6.97-4.95-4.54,2.33-4.94,3.29
		c-2.67,6.5-5.59,5.85-10.92,2.4c-4.8-3.11-7.25-7.34-9.88-11.83c-1.03-1.75-1.21-2.69-4.74-2.91
		c-15.22-0.96-18.59-6.82-16.53-24.07c0.2-1.65,0.41-3.17-1.02-4.38c-1.57-4.03-3.13-8.06-4.7-12.09
		c8.32-13.12,15.04-15.16,28.16-6.39C354.11,383.53,346.52,392.83,338.26,397.74z"/>
	<path class="st169" d="M606.49,516.47c6.21,4.26,14.18,6.42,17.25,14.43c0.72,0.37,1.48,0.68,2.14,1.13
		c12.32,8.44,12.38,8.62,7.38,20.43c1.78,2.56,3.6,5.04,5.61,7.4c2.02,2.7,3.9,5.47,4.34,8.93c-5.42,5.49-5.42,5.49-10.48-2.18
		c1.97,8.23,9.4,15.6,5,25.37c-0.94,0.83-2.03,1.09-3.25,0.87c-0.99-0.71-1.77-1.59-2.38-2.64c-6.04-12.68-6.45-27.55-15.31-39.1
		c-8.65-4.85-18.62-5.06-27.8-8c-3.17-1.02-6.4-1.81-9.64-2.5c-6.37-1.23-11.43,1.78-16.41,5.07c-5.35,2.42-10.38,6.6-16.82,3.19
		c-6.64-8.78,3.32-16.17,1.76-24.19c-0.87,3.67,0.42,9.05-4.43,10.99c-2.86,1.14-3.66-2.25-4.5-4.49c-0.42-1.77-0.56-3.56-0.62-5.37
		c-0.2-5.48,0.48-11.01-1.3-16.36c-0.57-2.38-0.81-4.78-0.57-7.21c4.75-8.01,6.59-18.73,18.53-20.12c4.06,3.84,9.23,1.94,13.89,2.66
		c2.39,2.73,6.79,3.47,7.69,7.7c1.66,12.25,10.03,19.03,19.78,24.98c3.71,2.26,3.17-2.5,5.32-2.35
		C603.42,515.09,604.91,515.95,606.49,516.47z"/>
	<path class="st170" d="M224.85,633.47c0.94-1.63,1.87-3.25,2.81-4.88c2.41-6.27,10.47-5.3,13.59-10.64
		c2.85-6.39,4.2-12.77,0.17-19.22c-0.65-2.33-0.6-4.67-0.14-7.03c0.98-3.08,1.11-6.4,2.66-9.32c0.81-1.53,2.12-2.9,3.73-2.08
		c2.22,1.13,2,3.33,0.75,5.77c3.7-4.52-0.97-15.38,7.62-13.62c7.52,1.55,1.31,9.5,1.06,14.61c-0.08,1.66-0.01,3.21,0.66,4.72
		c0.88,1.48,1.6,3.02,2.1,4.66c1.24,3.37-0.16,6.92,0.71,10.53c4.8,0.55,8.07-1.28,9.68-5.89c0.38-1.01,0.88-1.96,1.42-2.88
		c4.78-3.65,2.58-11.26,8.16-14.46c2.98,0.05,4.67,2.37,6.84,3.86c7.47,3.61,5.26,11.26,7.2,17.2c1.31,8.49-4.18,15.92-3.73,24.28
		c-0.29,4.36-1.7,8.06-5.92,10.12c-1.11,0.47-2.27,0.69-3.48,0.7c-1.8-0.24-3.42-0.94-4.93-1.93c-0.94-0.71-1.63-1.62-2.1-2.71
		c-0.99-6.45,2.47-11.48,4.51-15.94c-2.79,2.67-2.83,9.2-8.8,10.65c-4.59,3.05-3.95,8.67-6.29,12.83c-2.29,4.08-4.38,8.25-9.46,2.85
		c-0.39,4.82,0.01,9.95-5.04,12.96c-0.63,2.91,0.18,7.49-4.7,6.57c-5.07-0.95-2.28-4.79-1.74-7.69c1.32-7.04,2.54-14.1,3.85-21.46
		c-3.41,0.81-2.17,3.42-3.06,4.95C236.71,639.06,231.47,634.59,224.85,633.47z"/>
	<path class="st86" d="M346.37,457.34c-16.34-19.59-26.31-43.38-41.93-63.48c11.76-4.88,27.64,5.77,36.98,24.66
		c-2.37,1.72-4.62-0.27-8.93-0.23c21.1,29.78,46.02,54.12,73.41,76.13c2.99,6.17,8.81,11.79,3.97,19.53
		c-2.82,1.97-6.84,1.5-9.21,4.44c-5.8-2.34-12.93-2.72-15.2-10.28c4.36-5.65-0.69-9.15-3.37-12.67
		c-8.14-10.71-18.59-19.28-27.79-29.03C351.54,463.5,347.83,461.39,346.37,457.34z"/>
	<path class="st63" d="M652.04,667.99c-10.12,3.37-15.29,12.83-24.23,19.56c0.26-8.56-3.31-16.1,2.22-24.27
		c2.87-4.24-2.26-9.68-4.26-14.26c-3.15-7.23-3.46-13.77,1.06-20.34c4.58-1.51,8.22-3.55,5.43-9.34c0.06-1.89,0.11-3.78,0.17-5.67
		c0.9-1.38,2.23-3.17,3.75-2.29c7.97,4.62,14.43,11.36,22.24,16.26c2.85,1.79,0.42,10.15,7.9,6.41c0.06-0.03,0.34,1.31-0.09,2.12
		c-4.39,2.5-2.07,6.87-2.9,10.36C660.16,654.01,663.99,665.15,652.04,667.99z"/>
	<path class="st105" d="M287.33,628.72c-1.58-9,2.43-16.61,6.03-24.32c-0.23-14.73-0.23-14.73,11.72-10.15
		c2.63,4.13,0.56,7.38-2.03,10.54c4.05-4.07,6.74-8.75,6.77-14.66c0.17-5.02,9.49-6.15,5.48-12.97c0.17-2.49,1.46-4.37,3.17-6.04
		c3.27-1.88,6.62-7.15,9.76,0.15c-1.82,16.39-2.08,33.13-10.95,47.91c-12.95,11.01-21.76,24.56-25.22,41.36
		c-1.21,0.48-2.33,0.22-3.03-0.82c-0.95-1.41-0.88-2.94-0.76-3.14c-2.3,5.87-5.37,13-10.3,19.12c-2.91,4.22-5.7,5.76-8.15-0.36
		c-1.67-6.35-2.51-12.67,0.5-18.89c3.83-5.54,4.57-12.8,9.71-17.64c0.82-0.19,1.63-0.37,2.45-0.56c2.39,0.45,4.92,4.14,7.09,0.75
		C291.95,635.33,290.56,631.62,287.33,628.72z"/>
	<path class="st62" d="M326.51,570.39c-3.42-3.01-3.4,4.14-6.46,2.19c-11.61-2.39-6-8.91-3.56-14.69c3.53-4.73,7.2-9.42,3.65-15.82
		c3.06-11.15,12.24-18.17,18.53-27.14c1.11-1.58,3.65-1.9,5.51-0.32c2.3,1.95,3.64,4.53,3.02,7.56c-0.74,3.61-2.82,6.73-4.09,9.58
		c5.04-6.74,5.27-16.62,12.12-23.02c3.48,0.05,6.64,2.65,10.32,1.27c4.13,1.39,3.81,4.33,2.68,7.56c0.7,1.44,2.11,4.1,2.01,4.15
		c-9.28,5.33-3.84,10.88,0.27,16.13c-6.65,4.64-8.74-9.5-14.85-2.95c-3.05,3.27,2.82,4.58,2.87,7.8c-4.75-0.1-9.55-1.54-14.05,0.81
		c-4.93,2.93-5.23,8.73-8.02,12.99c-0.42,1.01-0.91,1.97-1.41,2.93C332.05,562.96,333.02,569.61,326.51,570.39z"/>
	<path class="st23" d="M546.48,548.07c6.78,2.07,10.86-4.97,17-5.05c0.71,0.97,0.95,2.04,0.72,3.21
		c-10.3,7.57-19.57,18.4-34.66,11.24c-4.13-1.76-8.79,0.36-12.87-1.74c-4.45,0-8.91,0.12-13.36-0.02
		c-9.24-0.29-17.64,0.97-21.62,11.93c-2.76-6.5,5.46-13.76-1.96-17.51c-9.94-5.01-21.27-6.86-31.71-10.35
		c-11.23-3.76-24.67,2.38-33.87-8.16c-1.15-1.62-1.39-3.35-0.61-5.19c1.26-1.49,2.93-1.93,4.79-1.83c4.65,1.43,9.67,1.66,14.15,3.48
		c7.06,2.88,11.62,0.9,14.43-5.95c1.71-1.81,3.68-2.65,6.13-1.66c2.66,2.55,1.11,6.14,2.23,9.08c0.73,1.93,2.67,4.85,3.76,3.95
		c9.89-8.21,11.98,4.8,18.17,6.31c2.36,0.5,4.81,0.76,6.94,1.88c15.22,7.99,15.21,8.01,25.98-3.01c2.12-1.14,1.82-3.26,2.09-5.15
		c3.95-1.05,3.97,2.32,3.7,4.17c-1.06,7.38,3.52,8.86,9.08,8.98c7.07,0.16,6.56-5.57,7.19-10.18c0.38-2.73-0.17-5.6,1.27-8.18
		c2.28-2.24,4.76-3.75,8.06-2.18c-0.07,1.54-0.15,3.07-0.22,4.61C536.89,538.37,545.2,542.17,546.48,548.07z"/>
	<path class="st63" d="M243.44,618.51c-1.08,9.89-11.57,5.07-15.77,10.07c0.23-1.76-0.31-5.27-1.9-1.77
		c-4.5,9.95-14.52,14.72-20.05,23.48c-3.84,6.08-4.04-1.63-6.27-1.75c-2.8-7.39,0.7-13.49,4.57-19.11
		c5.84-8.49,9.97-17.56,11.78-27.69c2.07-11.64,8.9-21.6,11.64-33.06c0.89-3.71,3.6-7.54,8.95-5.8c3.33,12.1-5.51,21.95-6.5,33.25
		c0.08,1.67,1.82-0.6,0.22-0.32c-0.44,0.08-0.4-0.29-0.24-1.18c0.33-1.82-0.62-4.36,2.24-4.76c1.92-0.27,2.79,1.46,3.04,2.99
		c0.58,3.67-0.54,7.15-1.66,10.58c-2.01,5.46-7.58,8.12-9.74,10.69c-0.03-3.17,12.94,4.17,8.5-6.47c2.09-5.34,3.06-10.93,4.1-16.54
		c0.54-2.9,1.91-6.05,5.52-2.12c0.52,6.41-0.23,12.89,0.88,19.28C243.19,611.67,243.55,615.07,243.44,618.51z"/>
	<path class="st30" d="M702.53,594.81c-3.58-7.18-4.02-15.71-9.44-22.1c0.61-10.73,10.66-2.47,14.3-7.11
		c4.43-0.6,8.86-1.23,12.85,1.62c-1.19,3.69-6.47-0.73-7.31,3.68c0.43,1.53,0.45,3.4,1.36,4.53c4.43,5.5,12.65,8.01,13.03,16.7
		c4.49,5.42,7.87,11.96,14.98,14.71c8.77-0.65,13.18,5.05,16.96,11.66c0.09,4.53-2.26,4.64-5.54,3.04
		c-14.63-3.32-26.52-12-38.85-19.83c-1.86-3.91-7.1-4.2-8.9-7.8C702.79,587.6,704.24,596.97,702.53,594.81z"/>
	<path class="st33" d="M333.79,556.02c2.95-4.7,2.5-12.31,10.7-12.5c-1.39,6.54,3.94,11.54,7.59,12.33
		c10.77,2.33,12.26,11.46,16.75,18.53c0.87,1.37,1.66,3.53,2.87,3.83c18.81,4.79,23.78,26.06,40.21,33.59
		c0.64,2.2-0.69,3.3-2.34,4.23c-6.82,1.12-11.56,4.26-12.34,11.85c-0.28,2.77-1.84,5.15-4.3,6.76c-1.64,0.74-3.29,0.79-4.96,0.1
		c-3.79-5.33-2.28-11.13-1.11-16.74c0.58-2.77,1.46-5.25-0.79-7.59c-2.35-2.92-3.62-6.43-5.38-9.67c-2-3.65-3.65-7.52-6.78-10.45
		c-7.52-6.51-13.49-14.69-21.98-20.13c-0.9-0.7-1.65-1.53-2.32-2.44c-0.57-0.94-1.03-1.95-1.43-2.97
		C346.19,557.23,340.23,556.24,333.79,556.02z"/>
	<path class="st12" d="M326.51,570.39c2.38-4.19,4.76-8.38,7.14-12.57c7.69,1.9,3.01,6.62,1.84,9.88c-1.41,3.92-4.49,6.3,0.77,10.87
		c3.95,3.43,6.72,10.01,5.92,16.55c-0.12,0.97-1.29,1.74-0.51,2.85c0.51-1.12,1.27-2.06,2.14-2.91c0.93-0.69,1.97-1.08,3.13-1.14
		c6.21,2.92-0.89,7.42,0.6,10.93c0.95-3.64,0.65-7.51,5.57-8.27c0.95,0.74,1.65,1.66,2.12,2.77c0.57,1.73,0.73,3.51,0.6,5.32
		c-0.26,3.02-1.49,5.72-2.79,8.39c-1.82,3.57-2.28,7.74-4.67,11.07l0.15,0.02c-5.2,2.46-5.69-0.89-5.84-4.65
		c-0.01-0.72-0.02-1.99-0.43-2.08c-2.37-0.53-2.58,2.08-3.99,3.05c-0.81,0.79-1.76,1.23-2.86,1.39
		c-4.6-10.68-10.81-10.42-18.13-2.68C320.36,602.92,323.44,586.66,326.51,570.39z"/>
	<path class="st12" d="M636.84,592.6c-0.95-5.12-1.75-10.28-2.9-15.35c-1.13-4.99-2.61-9.9-4.03-15.15c5.35,0.48,3.78,5.3,5.99,7.1
		c1.77,1.45,4.85,4.56,5.75-1.06c8.82,0.81,3.39,7.66,4.91,11.57c1.01,4.95,2.01,9.9,3.01,14.83c2.89-0.41,2.9-9.83,5.14-3.71
		c6.89,18.8,19.28,32.1,35.06,43.38c-13.77-3.87-26-10.06-33.06-22.88c-2.04-3.71-6.56-3.07-8.17-7.71
		c-1.54-4.47-1.45,0.87-1.54,1.27c-0.75,3.46-1.75,5.75-5.28,2.13C641.05,601.89,632.4,599.46,636.84,592.6z"/>
	<path class="st140" d="M619.69,631.16c0.17,7.51,1.84,15.22-2.9,22.09c-2.24,1.24-4.38,0.38-6.53-0.31
		c-8.91,1.95-11.81,12.07-22.73,15.63c8.76-8.27-0.53-17.37,5.16-24.85c-1.46-0.38-2.26-1.87-1.12-2.5
		c9.56-5.32,10.57-21.78,25.71-19.73C620.32,624.15,616.91,628.42,619.69,631.16z"/>
	<path class="st2" d="M235.79,562.65c-9.97,8.35-12.12,21.11-15,32.17c-4.95,18.98-17.49,34.58-21.34,53.71
		c-2.51,5.04-8.71,6.79-11.01,12.39c-0.26-10.46,6.09-18.36,10.8-26.13c12.75-21.03,17.27-44.9,25.66-67.41
		c0.98-2.64,1.48-6.09,3.42-7.63c12.53-9.91,15.41-24.53,19.63-38.54c0.74-0.02,1.48-0.01,2.22,0.02c3.26,7.35-1.01,14.5-0.55,21.77
		c-3.25,6.69-0.56,11.98,4,16.82C248.74,567.45,242.09,563.96,235.79,562.65z"/>
	<path class="st12" d="M387.4,634.32c1.6-0.38,3.2-0.77,4.8-1.15c2.98,1.44,4.74,3.34,2.58,6.75c0.87,2.38,1.73,4.77,2.6,7.15
		c2.36,10.19-1.17,20.34-0.2,30.52c-11.8,1.7-17.2-8.98-24.97-14.26c-2.9-1.97-0.61-11.96,5.32-16.24
		c-0.53-1.67-1.06-3.35-0.91-5.14C378.86,637.5,381.9,634.16,387.4,634.32z"/>
	<path class="st92" d="M571.02,576.93c-2.97,7.34-6.49,14.35-12.57,19.67c-5.06,4.43-4.5-0.17-4.87-3.16
		c-4.85-18.63,6.82-30.7,17.16-43.3c1.12-2.05,2.44-3.92,4.52-5.13c1.12-0.39,2.27-0.46,3.44-0.26
		c7.39,4.77,10.13,11.99,10.76,20.35c-1.3,3.9-3.25,7.26-7.43,8.7C577.06,570.26,575.49,578.72,571.02,576.93z"/>
	<path class="st6" d="M619.74,616.57c-5.75-7.51,0.8-14.83-0.27-22.82c-3.87,5.08-7.74,10.16-12.78,16.76
		c-2.36-9.61-10.12-8.25-15.86-10.67c-1.02-0.65-1.78-1.52-2.24-2.65c-1-3.66-0.1-6.88,2.23-9.77c3.27-2.76,5.81-6.14,8.08-9.76
		c0.79-0.78,1.72-1.28,2.79-1.57c6.37,0.18,10.61,5.06,16.07,7.27c2.27,1.46,4.44,3.08,6.65,4.64c6.39,5.78,4.01,14.57,7.35,21.41
		c-2.32,2.43-4.64,4.86-6.96,7.29C623.16,615.19,621.39,618.17,619.74,616.57z"/>
	<path class="st36" d="M368.24,517.57c-0.48-3.98-2.45-6.37-6.72-6.3c-1.8-7.96,3.39-14.65,7.1-19.55c5.45-7.19,6.82,0.67,8.6,4.6
		c-1.48-8.81-11.22-10.82-15.39-17.42c-1.09-1.19-1.68-2.69-2.52-4.03c-1.43,0.93-0.26,2.51-0.97,3.75c-1,1.73-1.96,3.44-3.38,4.86
		c-7.89,0.31-12.01-6.36-17.92-9.75c-0.69-4.25,2.1-10.45,3.67-10.15c6.43,1.22,2.15-5.46,5.27-5.92c0,0,0.39-0.32,0.39-0.32
		c17.2,12.91,33.4,26.9,44.73,45.49c5.13,8.41-6.65,0.39-5.64,5.3c-1.9-7.04-5.88-1.96-7.66-0.61
		C374.16,510.27,371.38,514.15,368.24,517.57z"/>
	<path class="st171" d="M389.6,406.64c-5.41-5.98-13.03-10.29-14.5-19.24c15.51,12.01,24.96-2.1,35.78-8.73
		c7.05-4.32,13.14-10.08,20.87-1.71c4.42,9.34,11.26,16.54,19.61,22.47c0.75,0.53,0.89,1.92,1.31,2.91
		c-0.59-0.22-1.18-0.45-1.77-0.66c-0.75-0.27-1.5-0.53-2.24-0.79c-7.59,2.08-10.76-3.98-15.02-8.1c-2.66-2.57-4.23-5.98-6.77-8.59
		c-2.92-2.99-5.99-1.3-8.9,0.26c-3.99,2.14-0.37,3.79,0.33,5.72c0.95,2.62,4.23,5.95-1.59,7.11c-0.95-0.68-1.9-1.38-2.86-2.05
		c-3.44-2.37-6.65-7.55-11.07-4.79c-3.75,2.35,1.13,7.3-0.27,11.07c-2.21,1.49-4.5,0.74-6.82,0.38c-0.15-0.02-4.84-3.96-2.02,1.36
		C393.3,405.59,392.75,407.69,389.6,406.64z"/>
	<path class="st172" d="M571.02,576.93c3.23-1.34,4.55-6.76,9.5-4.44c11,6.08,6.99,17.11,8.67,26.28
		c-2.93,14.32-7.61,19.07-17.86,18.13c1.29-3.33,2.58-6.66,4.71-12.14c-5.46,4.5-9.54,3.38-12.91-0.19
		c-4.46-4.73,0.84-7.49,2.21-11.25C567.31,587.9,576.31,584.79,571.02,576.93z"/>
	<path class="st62" d="M541.17,599.46c-0.61,13.4-8.81,23.17-15.96,33.44c-4.75,3.19-9.45,7.15-14.79,0.92
		c-6.23-3.76-3.02-9-2.19-13.9c4.98-9.68,10.45-18.51,23.48-17.95c2.24,0.1,2.9-4.84,6.51-4.06
		C539.35,598.14,540.34,598.66,541.17,599.46z"/>
	<path class="st172" d="M470.07,613.55c-0.23,2.47,2.16,6.33-2.09,6.81c-3.5,0.4-3.07-3.04-2.46-5.29c1.57-5.83-6.24-0.94-6.89-6.9
		c-1.05-9.59,9.67-32.35,19.07-34.82c3.43-0.9,6.32,0.01,4.52,3.93c-1.77,3.84-0.95,6.84,0.55,10.14
		c-3.09,5.46,0.98,13.7-6.73,17.37C471.95,606.27,469.92,609.17,470.07,613.55z"/>
	<path class="st173" d="M712.93,570.91c-0.79-7.64,5.76-0.69,7.31-3.68c8.77,1.68,19.07-4.75,26.07,1.01
		c9.77,8.03,21.06,10.53,32.21,14.28c2.76,6.33-1.06,5.46-4.95,4.56c-1.47-0.33-3.09-1.53-4.42-0.58c-1.46,1.05,0.06,2.02,0.88,2.69
		c2.74,2.23,5.66,4.18,8.94,5.51c7.59,1.78,15.7,0.82,22.97,4.32c3.89,1.69,7.68,3.48,7.16,8.77c-0.32,0.5-0.65,0.99-0.97,1.49
		c-10.78-2.95-21.49-5.75-32.61-7.68c-9.94-1.72-18.41-10.53-22.31-20.59c-2.69-6.92-6.54-8.62-12.79-7.66
		C731.03,574.8,722.25,569.84,712.93,570.91z"/>
	<path class="st14" d="M377.86,642.29c-0.11,1.6-0.23,3.2-0.34,4.8c-3.27-5.44-6.71-6.39-9.76,1.54c-2.58-6.2,2.93-8.84,1.62-13.65
		c-5.66,3.61-5.81,8.93-5.9,14.41c-0.04,2.51-1.23,5.2-4.02,4.95c-1.29-0.12-3.15-2.78-3.35-4.47c-0.71-5.8-8.26-11.72,0.32-17.53
		c5.65-3.83-9.67-3.04-1.97-8.5c3.79-2.69,9.42,3.26,11.55-3.38c0.19-0.61,1.21-0.95,1.85-1.41c2.51-1.33,3.39,0.88,4.71,2.11
		c2.21,1.43,3.46-0.59,5.03-1.44c8.28-2,9.22,2.56,6.83,8.49C382.47,632.98,379.39,637.28,377.86,642.29z"/>
	<path class="st118" d="M541.17,599.46c-1.12-0.12-2.24-0.24-3.37-0.36c-10.11-8.12-10.12-8.14,0.08-16.09
		c6.36-4.96,11.83-9.64,12.75-19.12c1.05-10.74,15.14-17.89,22.52-13.1c-0.36,7.47-8.33,8.63-11.8,14.09
		c-5.82,9.17-5.35,19.05-7.79,28.56C547.76,591.98,543.05,592.79,541.17,599.46z"/>
	<path class="st66" d="M846.94,626.23c-2.55,1.48-3.14,6.22-7.48,4.67c-2.37-0.84-2.46-3.19-2.13-5.08
		c1.76-10.06-6.81-6.33-10.88-7.83c-6.84-2.53-5.3,4.19-6.18,8.51c-5.81-5.56-9.08-11.32-12.14-17.23c0,0-0.2,0.16-0.2,0.16
		c5.73-7.23,11.21,0.66,16.82,0.23c6.2,2.44,11.35-2.96,17.31-2.35c1.12,0.2,2.16,0.6,3.12,1.19c1.92,8.22,11.45,1.93,14.67,7.68
		c0.44,1.1,0.46,2.21,0.13,3.34C857.33,625.06,851.64,624.69,846.94,626.23z"/>
	<path class="st46" d="M610.26,652.93c2.34-3.32,4.39-0.42,6.53,0.31c-0.51,8.96-7.27,14.89-11.07,22.23
		c-0.81,1.57-2.41,2.65-2.6,4.87c-0.3,3.52,0.95,8.65-6.04,6.72c-2.65-0.73-7.15,5.27-8.13-1.47c-0.71-4.9-2.42-11.01,3.03-14.61
		C599.31,666.15,605.23,660.03,610.26,652.93z"/>
	<path class="st52" d="M538.96,501.92c0.21,2.27,0.42,4.54,0.62,6.81c0.76,1.83,1.08,4.02-0.75,4.97c-1.9,0.99-3.33-0.77-4.42-2.33
		c-2.69-5.03-4.77-10.77-4.47-16.08c0.66-11.94-3.49-19.39-15.39-22.02c-0.73-1.05-0.67-2.08,0.06-3.1c3.8-2.32,2.85-3.76-0.6-5.63
		c-8.54-4.64-15.26-11.58-22.12-18.32c-0.29-1.14,0.1-1.63,1.29-1.37c10.19,4.97,16.63,16.01,28.77,17.83
		c10.48,6.31,19.28,15.31,31.14,19.42C541.81,484.02,536.7,490.34,538.96,501.92z"/>
	<path class="st172" d="M346.03,619.32c-1.88,3.01-1.24,4.71,2.49,4.83c-3.41,12.31-14.04,19.97-19.5,32.06
		c-1.82-8.39-9.55-14.11-5.04-22.57l-0.11,0.12c3.85-3.97,7.7-7.94,11.54-11.91c0,0,0.86-0.43,0.86-0.43
		C339.01,618.33,341.11,612.31,346.03,619.32z"/>
	<path class="st103" d="M509.77,628.9c3.9,6.14,9.52,5.61,15.43,3.99c-0.22,1.03-0.45,2.05-0.67,3.07
		c-2.01,4.79-1.85,10.38-5.34,14.63c-4.59,3.78-5.37,13.35-14.8,9.83c-3.39-1.23-3.78-1.1-10.77,3.54
		c-2.49-5.04,6.67-5.55,4.07-10.51C499.7,644.28,503.43,635.95,509.77,628.9z"/>
	<path class="st148" d="M571.32,616.89c11.17-2.4,14.3-10.97,15.91-20.71c1.29-0.57,2.46-0.39,3.51,0.53
		c0.03,1.04,0.06,2.08,0.09,3.12c1.14,11.35-4.77,20.99-7.63,31.36c-1.52,2.79-1.47,7.65-6.93,5.28c-5.8-1.49-5.8-1.49,0.87-10.81
		c-4.96-0.7-8.51,8.66-12.23,4.02C560.52,624.2,569.81,621.67,571.32,616.89z"/>
	<path class="st113" d="M446,650.96c-2.12,8.35-8.53,11.05-17.64,12.93c3.59-13.86,2.3-27.18,3.47-40.37
		c1.5-0.76,3.03-1.19,4.45,0.06C438.32,625.37,445.78,646.53,446,650.96z"/>
	<path class="st52" d="M631.77,609.41c-3.55-4.27-8.97-7.63-5.22-14.83c0.9-1.72-2.05-3.9-4.33-4.85c-0.93-2.63-2.14-5.63,0.58-7.58
		c2.85-2.04,5.12-0.07,6.86,2.37c1.38,1.94,3.13,3.54,4.79,5.21c-0.02,0.82-0.05,1.64-0.07,2.46c-0.46,1.04-1.25,1.49-2.37,1.35
		c-1.52,6.72,0.39,11.54,6.33,15.8c13.63,9.78,26.72,20.32,41.61,31.76c-7.11,0.79-10.19-2.61-13.71-4.91
		c-7.03-5.81-2.8,5.04-6.4,4.27c-2.23-11.27-17.2-25.92-27.4-26.78C632.22,612.26,631.99,610.83,631.77,609.41z"/>
	<path class="st174" d="M631.81,554.48c-2.02-1.83-4.04-3.67-6.17-5.61c3.79-1.31,7.51-2.6,11.34-3.92
		c-2.88-6.49-9.97-8.45-13.25-14.04c13.88,8.23,30.45,9.31,48.27,16.58c-10.79,1.04-20.43-4.25-22.73,8.15
		C643.44,555.4,637.7,553.88,631.81,554.48z"/>
	<path class="st110" d="M394.77,639.91c-0.86-2.25-1.72-4.5-2.58-6.75c0.86-1.7,2.54-3.46,2.43-5.1
		c-0.75-10.85,4.92-14.4,14.74-13.66c1.88,3.1,9.73,2.93,5.23,9.54C407.27,628.36,405.89,640.17,394.77,639.91z"/>
	<path class="st63" d="M224.85,633.47c8.28-2.9,14.08,0.21,18.15,7.51c-3.79,9.33-8.37,18.09-17.23,23.96
		c-2.65-9.18,6.63-16.82,3.09-27.66c-3.4,3.21-5.97,5.64-8.54,8.07c-0.56-0.36-1.12-0.71-1.68-1.07
		C220.71,640.68,222.78,637.07,224.85,633.47z"/>
	<path class="st26" d="M490.1,643.27c-0.83-0.75-1.65-1.5-2.48-2.24c-4.65-16.53,2.02-29.48,16.75-32.53c3.12,4,0.86,8,0.02,12.01
		c-0.47,2.17-2.58,3.64-1.82,6.47C505.67,638.49,502.55,642.42,490.1,643.27z"/>
	<path class="st147" d="M414.6,623.93c-0.43-3.9-5.67-5.16-5.23-9.54c0.85-0.87,1.7-1.74,2.55-2.6c6.31,3.01,14.18,1.27,19.75,6.51
		c1.02,1.23,0.93,2.36-0.27,3.41c-5.48,4.79-1.02,11.2-2.69,16.61c-1.02,0.79-2.01,0.78-2.95-0.13c-1.71-2.54-1.9-5.29-0.97-8.14
		c0.38-1.17,0.61-2.35,0.63-3.57c-0.21,0.91-0.28,1.85-0.67,2.76c-3.02,3.17-2.53,7.19-3.05,11.05c-0.5,3.73-1.02,8.36-7,5.43
		C416.15,638.45,410.32,631.21,414.6,623.93z"/>
	<path class="st155" d="M504.92,609.24c-10.92,3.71-16.09,12.03-16.1,22.87c0,3.22-1.19,5.92-1.2,8.91
		c-3.02,0.23-3.96,2.7-5.22,4.82c-1.03,1.06-2.07,1.06-3.11,0.03c1.87-8.25,3.1-16.71,5.76-24.69
		c4.28-12.84,16.87-17.33,26.65-24.58c0.41,0.38,0.81,0.76,1.23,1.13C513.59,603.89,512.62,608.9,504.92,609.24z"/>
	<path class="st120" d="M631.81,554.48c5.64-4.13,10.52-3.81,17.46,1.16c2.09,11.35,14.06,13.78,19.76,21.88
		c-1.16,1.49-2.76,2.17-4.56,2.48c-8.35-0.78-14.75-4.54-19.39-11.74c-2.05-3.18-4.03-7.1-8.74-7.44
		C633.92,559.36,632.25,557.35,631.81,554.48z"/>
	<path class="st145" d="M431.39,621.72c0.09-1.14,0.18-2.28,0.27-3.41c7.09,4.12,10.21,9.94,13.48,17.94
		c3.49,8.56,12.79,15.53,18.1,24.39c1.39,2.33,4.37,3.99,1.86,7.19c-5.3,1.86-5.29-8.52-11.35-4.88c-2.98-3.69-2.99-9.3-7.68-11.88
		l-0.06-0.1c-7.87-7.52-4.55-20.82-14.16-27.44C431.89,622.87,431.74,622.27,431.39,621.72z"/>
	<path class="st175" d="M490.1,643.27c1.3-0.84,2.5-1.96,3.92-2.46c7.2-2.56,11.74-6.2,6.04-14.14c-2.24-3.12,0.62-3.87,2.11-5.32
		c3-2.1,5.98-1.73,8.95,0.07c3.16,3.14-8.18,3.71-1.34,7.49c-1.72,9.31-7.84,16.47-12.09,24.54c-2.71,1.43-5.21,3.77-8.65,1.98
		C492.14,651.62,486.1,647,490.1,643.27z"/>
	<path class="st162" d="M397.17,677.58c-4.09-10.2-2.02-20.36,0.2-30.52c3.32,5.4,6.44,10.94,10,16.17
		c4.72,6.93,1.97,13.22-2.27,21.82c-0.46-7.72,1.91-14.23-3.64-19.81C399.9,669.74,398.54,673.66,397.17,677.58z"/>
	<path class="st138" d="M649.16,680.24c-3.46,9.12-6.92,18.25-10.27,27.07c-9.54-11.63-10.54-22.1,4.81-29.8
		C645.94,677.58,647.84,678.34,649.16,680.24z"/>
	<path class="st140" d="M426.87,638.47c0.61-0.01,1.22-0.05,1.83-0.13c1.7,5.38-1.43,10.22-1.81,15.39
		c-0.22,3.04,2.04,7.95-3.94,8.27c-5.38,0.29-7.96-3.11-8.6-7.9c-0.37-2.73,0.2-5.58,0.35-8.38c7.06-1.44,4.73-6.81,3.43-10.35
		c-2.35-6.4,1.07-6.78,5.61-6.85c2.87,8.58-3.11,16.62-0.77,23.95C424.63,648.85,420.09,641.92,426.87,638.47z"/>
	<path class="st95" d="M800.7,601.78c-6.81-3.96-14.89-2.04-21.98-4.74c-3.37-2.11-5.89-5.06-7.31-8.69
		c-0.79-2.02-1.29-4.87,2.79-3.79c1.95,0.41,5.64,4.48,4.32-2.04c2.04-0.44,3.91-0.28,5.32,1.5c3.68,5.41,9.99,5.02,15.26,6.94
		c3.41-0.04,5.62,1.21,5.5,5.03C804.34,598.62,802.39,600.11,800.7,601.78z"/>
	<path class="st176" d="M803.83,596.66c0.05-3.73-2.55-4.4-5.45-4.72c-0.62-0.58-0.83-1.16-0.64-1.75c0.19-0.59,0.39-0.89,0.59-0.89
		c20.32,2.66,40.64,5.32,60.96,7.97c-1.07,6.71-7.32,4.38-11.09,6.39c-1.12,0.3-2.27,0.46-3.43,0.54
		C831.29,600.85,817.13,601.09,803.83,596.66z"/>
	<path class="st106" d="M858.56,616.75c-4.78-2.16-13.73,3.38-13.83-7.46c4.5-7.88,12.65-6.89,19.86-8.19
		c2.11,0.38,3.08,1.71,3.15,3.78c-3,5.52-9.22,2.46-13.42,6.04c5.9-2.12,11.64-5.36,17.65-1.75c1.81,3.04,4.92,1.92,7.55,2.4
		c3.17,0.58,5.81,1.59,2.14,5.12c-0.61-0.01-1.22-0.01-1.83-0.02C872.73,616.94,865.67,622.32,858.56,616.75z"/>
	<path class="st147" d="M370.39,624.01c-0.29-1.94-0.16-4.1-2.56-4.95c0.54-3.36,4.76-6.08,1.77-10.03
		c-3.91,0.38-3.25,5.45-6.61,6.37c-2.61-4.28-7.45-6.85-9.14-11.85c-0.06-1.16-0.12-2.31-0.18-3.47c7.36,3.52,11.73-7.19,19.03-3.99
		c3.28,3.08,4.28,7.54,6.77,11.12C380.29,614.88,378.69,621.26,370.39,624.01z"/>
	<path class="st59" d="M516.68,555.73c4.44-1.56,9.17-6.07,12.76,1.22c-2.51,5.43-3.64,10.86-3.2,17.1
		c0.72,10.23-5.86,19.84-14.11,22.96l-0.42-0.41C517.86,583.52,520.26,569.99,516.68,555.73z"/>
	<path class="st101" d="M248.65,658.6c1.88-7.16,3.77-14.32,5.72-21.76c5.84,2.68,0.79,6.87,2.58,10.14
		c1.24-0.97,2.5-1.47,2.86-2.33c2.25-5.41,2.28-11.69,6.48-16.32c0.13-0.15,0.78,0.03,1.09,0.21c0.33,0.19,0.56,0.57,0.83,0.87
		c1.1,1.53,1.23,3.24,0.93,5.03c-2.18,7.17-4.51,14.29-6.77,21.45c-0.88,1.64-2.08,2.84-4.08,2.9
		C255.15,654.39,251.78,662.82,248.65,658.6z"/>
	<path class="st36" d="M636.33,560.83c4.93-2.58,7.31,0.58,9.19,4.29c3.82,7.55,10.53,10.69,18.26,12.39
		c5.01,3.65,8.96,7.5,2.57,13.34c-4.07-4.08-8.26-8.06-12.18-12.28c-3.3-3.56-5.37-1.11-7.62,1.14c-4.8-2.51,0.12-9.15-4.91-11.57
		C639.87,565.7,638.1,563.26,636.33,560.83z"/>
	<path class="st8" d="M504.39,660.42c6.87-1.25,8.6-7.91,12.72-12.05c10.12-1.35,4.86,6.28,4.97,9.7c0.09,2.64-3.52,4.95-5.02,7.73
		c-1.5,4.14-5.8-1.75-7.84,2.37c-1.57,3.18-4.27,0.95-5.88-0.62C500.65,664.93,502.11,662.52,504.39,660.42z"/>
	<path class="st58" d="M538.96,501.92c-2.37-2.2-1.65-5.27-2.32-7.97c-2.29-9.16-1.87-15.49,10.42-11.57
		c1.8,0.57,4.01-0.16,6.03-0.28c0.64-0.42,1.27-0.41,1.9,0.03C547.66,487.11,543.62,494.77,538.96,501.92z"/>
	<path class="st108" d="M606.49,516.47c-2.09,0.07-4.19,0.14-6.28,0.21c-13.39-2.84-16.28-16.31-24.59-24.29
		c-1.53-3.17-8.38-1.62-6.74-7.61c0.5,0.41,0.99,0.41,1.49,0c8.25,1.83,17.43,2.27,19.65,13.13
		C590.93,508.16,600.91,510.36,606.49,516.47z"/>
	<path class="st174" d="M649.16,680.24c-2.7,0.85-4.67,0.23-5.45-2.74c2.78-3.17,5.56-6.34,8.34-9.51
		c9.59-4.08,4.64-15.81,11.29-21.44C667.5,661.52,655.95,669.88,649.16,680.24z"/>
	<path class="st53" d="M277.98,675.71c1.43-8.38,5.07-15.72,9.97-22.42c4.5,1.06-0.5,6.63,4.12,7.25
		C291.15,669.1,286,673.74,277.98,675.71z"/>
	<path class="st131" d="M753.72,621.56c2.51,0.2,4.73-0.13,5.54-3.04c8.02,1.66,17.34-0.93,25.25,8.27
		c-8.65-1.27-15.62-6.3-22.37,0.68C760.75,628.9,754.21,627.05,753.72,621.56z"/>
	<path class="st131" d="M384.98,555.4c-1.89-3.28-7.07-1.87-8.69-6.67c9.71-4.35,13.01,8.05,23.17,6.82
		c-9.42,6.84-16.98,5.04-24.57,2.9C377.33,554.38,382.41,559.05,384.98,555.4z"/>
	<path class="st105" d="M707.38,565.61c-2.62,6.69-11.22,1.34-14.3,7.11c-5.29-5.71-10.58-11.42-17.14-18.5
		C687.31,558.25,695.27,568.51,707.38,565.61z"/>
	<path class="st169" d="M590.02,497.92c-4.97-6.73-12.7-9.35-19.65-13.13c3.91-0.56,8.19-2.41,11.64-1.4
		C588.7,485.36,595.31,488.72,590.02,497.92z"/>
	<path class="st18" d="M258.29,658.77c0.66-1.03,1.32-2.05,1.98-3.08c7.18-6.81,7.29,0.46,9.02,4.52c-0.38,3.02-1.7,5.61-3.64,7.92
		c-1.79,6.3-4.4,5.31-7.35,0.8C256.09,665.57,258.25,662.16,258.29,658.77z"/>
	<path class="st107" d="M414.74,524.93c-0.19,2.23-0.38,4.46-0.57,6.7c-3.63-0.31-7.04-0.6-7.33-5.62
		c-0.22-3.75-1.79-6.96-6.17-7.61c-0.12-2.18-0.24-4.37-0.36-6.55c2.15,0.78,4.31,1.57,6.46,2.35
		C411.71,516.08,413.32,520.44,414.74,524.93z"/>
	<path class="st136" d="M403.32,558.61c10.51,4.79,22.69,5.1,31.18,13.8C423.89,568.04,411.34,568.48,403.32,558.61z"/>
	<path class="st14" d="M666.35,590.85c2.5-5.09-0.72-9.08-2.57-13.34c1.75,0,3.49,0,5.24,0c3.74,2.76,8.96,5.12,4.43,10.96
		C671.89,590.5,670.94,596.95,666.35,590.85z"/>
	<path class="st61" d="M517.07,665.8c-1.24-5.81,10.88-11.59,0.04-17.43c3.15-3.73,3.24-9.29,7.42-12.4
		c0.06,5.16-0.24,10.36,0.28,15.47C525.51,658.19,523.3,662.98,517.07,665.8z"/>
	<path class="st173" d="M867.16,625.8c7.13,6.11,16.81,6.61,24.4,11.81c-10.2-1.36-21.12-0.88-27.65-11.57
		C864.93,625.07,866.01,624.99,867.16,625.8z"/>
	<path class="st47" d="M551.19,686.55c3.64-6.39,7.4-12.51,7.78-20.1C568.42,677.65,557.72,681.49,551.19,686.55z"/>
	<path class="st113" d="M446.06,651.06c7.58,0.72,11.22,3.98,7.68,11.88C439.53,666.5,448.67,654.98,446.06,651.06z"/>
	<path class="st72" d="M866.76,604.24c-0.83-0.76-1.66-1.52-2.48-2.27c-5.76,0.68-11.59,4.15-17.24-0.4
		c3.06-4.35,9.28,0.31,12.25-4.29c6.49-0.28,12.08,2.92,17.9,4.96c3.22,1.13,2.37,3.38-0.6,4.57
		C873.52,605.14,869.23,608.16,866.76,604.24z"/>
	<path class="st131" d="M510.33,559.7c5.41,7.24,3.45,13.9-0.92,20.43C509.72,573.32,510.03,566.51,510.33,559.7z"/>
	<path class="st106" d="M353.84,603.54c4.96,2.47,9.72,5.09,9.14,11.84c-1.33,2.47-2.84,3.51-4.83,0.59
		c-2.47-1.74-9.04,2.15-7.34-5.34C351.83,608.27,352.83,605.91,353.84,603.54z"/>
	<path class="st177" d="M866.76,604.24c3.15,1.34,7.3-1.16,9.83,2.57c-1.54,0.79-3.08,1.57-4.62,2.36
		c-6.75-0.89-13.14,1.79-21.03,3.13C855.78,606.25,863.09,609.04,866.76,604.24z"/>
	<path class="st69" d="M467.11,642.53c-3.34-4.56-0.28-9.84-4.81-12.84c-2.09-1.38-2.22-4.61,0.76-5.67
		c2.32-0.83,4.9,0.14,5.23,3.26C468.79,632,469.79,636.78,467.11,642.53z"/>
	<path class="st76" d="M323.98,633.65c-4.15,0.54-4.27,6.79-10.01,6.44c1.64-7.49,7.48-11.93,11.82-19.87
		c-0.86,6.06-1.39,9.8-1.92,13.54C323.87,633.77,323.98,633.65,323.98,633.65z"/>
	<path class="st65" d="M742.3,606.86c-9.15-0.67-12.9-6.84-14.98-14.71C734.63,594.68,736.2,603.07,742.3,606.86z"/>
	<path class="st17" d="M798.33,589.3c0.02,0.88,0.03,1.76,0.05,2.64c-5.26-1.33-11.05-0.69-15.7-4.35c-3.06-2.41-0.49-2.8,1.16-3.57
		C788.49,586.27,794.24,585.49,798.33,589.3z"/>
	<path class="st178" d="M479.29,645.87c1.04-0.01,2.07-0.02,3.11-0.03c-0.94,4.65-1.89,9.31-3.01,14.85
		c-2.26-7.37-6.93-3.49-14.13-0.87C471.56,653.28,478.22,652.15,479.29,645.87z"/>
	<path class="st146" d="M674.61,588.34c8.78,3.12,10.29,8.65,12.12,14C682.54,599.17,677.96,596.4,674.61,588.34z"/>
	<path class="st106" d="M846.94,626.23c4.22-2.37,8.44-4.74,12.66-7.12c2.49-0.62,3.22,1.01,3.72,2.92
		c0.03,1.32-0.43,2.45-1.37,3.37C857.07,628.01,851.95,626.15,846.94,626.23z"/>
	<path class="st133" d="M350.82,610.64c-0.5,5.83,8.51-1.41,7.34,5.34c-3.26,2.72-6.52,5.44-9.78,8.16
		C350.29,619.83,345.69,614.36,350.82,610.64z"/>
	<path class="st160" d="M265.65,668.14c-0.69-2.89,0.83-5.1,2.24-7.35c1.26-1.68,0.16-4.34,2.32-5.65c1.09-0.26,2.06-0.01,2.9,0.73
		c-0.25,6.63-4.3,12.63-3.28,19.48C268.44,672.95,267.04,670.55,265.65,668.14z"/>
	<path class="st88" d="M861.95,625.41c-0.03-1.65-0.07-3.31-0.1-4.96c6.35-2.16,12.28-6.53,19.58-3.77c0,0,0.22,0,0.22,0
		c-2.9,6.11-12.43,1.67-14.49,9.12c-1.08,0.08-2.17,0.16-3.25,0.24C863.18,626.11,862.53,625.9,861.95,625.41z"/>
	<path class="st52" d="M689.38,651.08c8.39-0.97,13.69,1.57,22.68,3.84C702.13,657.85,696.73,655.5,689.38,651.08z"/>
	<path class="st179" d="M632.01,593.55c0.79-0.45,1.58-0.9,2.37-1.35c0.82,0.14,1.64,0.27,2.46,0.41
		c-2.07,6.06,8.04,7.99,4.88,14.42C636.62,603.87,634.63,598.48,632.01,593.55z"/>
	<path class="st108" d="M576.28,636.48c4.15,0.65,3.64-4.81,6.93-5.28c3.34,2.84-1.03,4.88-0.83,7.51c0.19,2.51-1.63,5.73-3.82,4.96
		C576.78,643.05,574.63,639.67,576.28,636.48z"/>
	<path class="st174" d="M475.56,604.45c6.61-3.89,1.57-12.72,7.21-17.02c0.35,7.58,2.4,15.77-7.23,19.69
		c-0.56-0.6-0.74-1.19-0.55-1.78C475.19,604.74,475.38,604.45,475.56,604.45z"/>
	<path class="st180" d="M702.53,594.81c1.7-0.7-2.39-8.18,2.96-3.35c3.24,2.93,10.19,3.45,9.39,10.26
		C710.94,599.09,705.4,599.34,702.53,594.81z"/>
	<path class="st52" d="M632.27,619.35c7.04,0.51,0.14,5.82,2.71,7.87c-2.76,0.2-4.59,5.59-8.13,1.48
		C628.65,625.58,630.46,622.47,632.27,619.35z"/>
	<path class="st126" d="M619.74,616.57c1.47-1.37,2.94-2.74,4.42-4.11c0.22,1.41,0.43,2.82,0.65,4.24
		c-2.87,4.41-5.18,9.02-5.12,14.46c-3.52-2.55-2.65-6.19-2.41-9.68C618.1,619.84,618.92,618.21,619.74,616.57z"/>
	<path class="st105" d="M384.98,555.4c-2.2,4.87-7.03,1.02-10.08,3.04c-3.44-1.32-5.92-3.59-7.56-8
		C373.69,551.92,378.51,557.12,384.98,555.4z"/>
	<path class="st181" d="M475.56,604.45c0,0.89-0.01,1.78-0.01,2.67c-1.83,2.15-3.65,4.29-5.48,6.44
		C466.03,606.98,466.4,603.06,475.56,604.45z"/>
	<path class="st172" d="M414.74,524.93c-5.28-1.63-4.75-7.58-7.97-10.73c8.15-7.51-5-12.26-2.48-19.04
		c-1.86-3.77-0.38-7.16,1.21-10.54c0.97-1.56,2.26-2.77,3.94-3.54c8.23-0.42,11.52-5.46,14.15-12.82
		c2.53-7.08-1.32-16.73,7.95-21.23c3.6,5.78,4.98,12.21,5.54,18.88c-2.18,13.04-4.05,26.11-4.24,39.35
		c-0.47,5.64-7.9,8.49-5.75,15.73c0.61,2.06-3.3,6.35-7.94,5.34C417.68,525.87,416.21,525.4,414.74,524.93z"/>
	<path class="st159" d="M416.71,397.29c2.77-1.48,1.54-4.04,0.25-4.83c-8.94-5.42-2.66-8.52,1.53-12.14
		c6.7-5.8,9.91-1.03,12.81,4.22c4.05,7.34,9.46,13.14,17.36,16.36c-1.11,5.74,4.03,7.54,6.82,10.82c-1.55,1.41-0.66,8.61-5.47,2.31
		c-0.52,0.89-0.53,2.15-1.8,2.49c-2.24,0.76-5.91,1.92-4.15-2.17c2.57-5.98-1.9-4.63-4.45-5.57c-4.06,9.51-7.39,3.27-10.82-0.51
		C426.71,402.46,420.88,400.78,416.71,397.29z"/>
	<path class="st140" d="M510.14,538.7c-2.17,7.08-4.02,14.78-13.84,13.74c-3.18-0.34-8.51,3.02-9-5.08
		c-0.27-4.58-6.95-4.45-11.41-4.77c-6.63-5.44-4.54-9.74,1.75-13.5c7.65,1.74,18.67-8.18,22.57,6.54c0.54,2.02,1.99,1.2,2.62,0.32
		C508.82,527.6,506.88,540.07,510.14,538.7z"/>
	<path class="st141" d="M431.54,447.04c-2.28,9.2-4.75,18.36-6.8,27.61c-2.03,9.15-8.4,8.98-15.45,7.78
		c-3.44-14.3-1.61-27.78,6.23-40.33c4.35,0.92,9.97-3.28,13.01,3.14C429.54,445.84,430.54,446.44,431.54,447.04z"/>
	<path class="st96" d="M453.06,521.78c-2.17-1.31-3.92-1.28-4.79,1.52c-7.05-2.94-2.23-8.85-3.07-13.28
		c-0.77-4.04-0.54-8.41-0.01-11.84c-0.11-2.42-2.59,0.23-1.21-0.64c1.75,9.36,1.18,18.68-0.06,30.13
		c-7.27-5.84-7.87-12.2-7.78-18.88c2.26-7.55,1.56-15.33,1.81-23.04c0.16-4.77-0.8-9.94,3.79-13.51
		c7.14,9.37,13.78,19.06,19.03,29.65C458.61,508.69,463.19,518.09,453.06,521.78z"/>
	<path class="st95" d="M514.8,472.65c3.77-1.47,6.47,3.08,11.08,1.22c3.99-1.61,7.76,2.53,6.4,7.12
		c-2.99,10.07,1.66,18.75,3.85,27.91c-2.12,4.1-2.59,9.69-8.99,9.89c-5.8-3.02,2.83-8.6-2.09-11.78c-1.82-0.77-3.46-1.89-5.26-2.68
		c-0.75-0.73-1.49-1.47-2.24-2.2c-0.34-0.35-0.67-0.7-1.01-1.05c-4.23-5.18,0.7-7.89,3.04-11.29
		C516.89,484.37,515.53,478.6,514.8,472.65z"/>
	<path class="st182" d="M453.06,521.78c3.72-6.18,1.01-14.86,7.72-19.88c2.39,11.07,3.59,22.87,16.87,27.18
		c-3.51,4.12-4.49,8.57-1.75,13.5c-1.88-0.59-3.74-1.34-5.66-1.74c-2.7-0.56-0.4-8.79-8.13-3.41
		C455.55,542,449.75,532.54,453.06,521.78z"/>
	<path class="st8" d="M534.69,529.28c0.12,1.56,0.28,3.11,0.34,4.67c0.64,15.17-0.86,17.1-14.99,14.25
		c-4.07-0.82-6.38,2.25-10.16,1.37c2.71-5.16,8.14-9.92,2.35-16.03c-0.48-2.33-1.07-4.67,0.82-6.87c5.56,1.49,2.38,7.57,6.06,11.09
		c2.39-4.96,5.65-8.98,10.27-11.63C532.64,524.67,534.95,524.82,534.69,529.28z"/>
	<path class="st96" d="M430.89,506.33c-1.65-14.04-2.01-27.88,6.19-40.41c0.58,1.2,1.16,2.39,1.74,3.58
		c1.3,12.69,3.11,25.38-0.94,37.92c-0.14,1.61,0.09-0.42-0.17,1.18c-0.64,3.95,1.25,11.03-5.21,9.64c-5.5-1.18-1.3-6.55-0.11-10.08
		c0.52-1.54-0.2,0.41,0.09-1.19C432.63,506.18,431.95,505.93,430.89,506.33z"/>
	<path class="st183" d="M392.15,401.75c3.31-6.5,6.9-0.24,10.35-0.22c6.99,6.68,8.5,16.01,11.85,24.45
		c-1.76,1.86-2.23,5.14-5.67,5.14c-5.7-3.48-5.48-11.59-11.56-14.78C396.34,411.18,393.48,406.73,392.15,401.75z"/>
	<path class="st67" d="M534.69,529.28c-1.04-2.28-3.07-2.88-5.3-3.15c-1.54-2.2-2.98-4.44-2.25-7.34c4.21-2.19,3.75-8.63,8.99-9.89
		c0.43,1,0.85,2,1.28,3.01c0.73-1.06,1.45-2.12,2.18-3.18c2.91,5.56,3.06,11.43,1.96,17.44
		C539.26,527.2,536.98,528.24,534.69,529.28z"/>
	<path class="st112" d="M491.9,446.21c-15.18-7.41-19.89-22.41-25.12-37.11c9.6,11.28,14.85,26,26.41,35.74
		C492.83,445.37,492.4,445.82,491.9,446.21z"/>
	<path class="st81" d="M437.07,509.2c3.91-13.09,0.41-26.5,1.75-39.7c0.97,0.92,1.95,1.84,2.92,2.76
		c-2.75,12.16,2.3,25.04-3.41,36.93C437.91,509.19,437.49,509.2,437.07,509.2z"/>
	<path class="st154" d="M428.78,408.26c3.67-1.21,6.96,5.85,10.83,0.51c1.83,3.04,3.89,8.07,0.11,8.76
		C434.26,418.53,429.13,415.27,428.78,408.26z"/>
	<path class="st5" d="M514.8,472.65c4.22,4.98,4.13,11.16,4.78,17.13c-7.87-3.83-3.65-14.37-10.43-18.8
		c1.61-1.71,3.46-1.78,5.47-0.8C514.68,470.99,514.74,471.82,514.8,472.65z"/>
	<path class="st95" d="M517.55,502.12c-0.25,5.03-0.49,10.06-0.88,18.05c-5.23-8.62-8.49-14.12-0.12-19.1
		C516.85,501.44,517.19,501.79,517.55,502.12z"/>
	<path class="st67" d="M448.2,416.51c-0.41-5.9,6.79-0.26,7.28-4.8c-2.42,3.63,8.67,4.14,1.95,8.95
		C451.63,424.81,450.3,420.06,448.2,416.51z"/>
	<path class="st175" d="M505.58,508.7c4.75,6.09,4.26,11.94,2.06,18.02C506.95,520.71,506.26,514.7,505.58,508.7z"/>
	<path class="st149" d="M492.33,462.35c-6.87-2.02-12.56-5.5-16.53-11.61C482,453.63,488.77,455.54,492.33,462.35z"/>
	<path class="st184" d="M519.79,504.32c3.03-1.61,6.56-4.19,5.26,2.68c-1.31,3.22-2.62,6.45-5.26,12.94
		C519.79,512.48,519.79,508.4,519.79,504.32z"/>
	<path class="st10" d="M408.69,431.11c0.74-2.98,2.33-5.02,5.67-5.14c-0.12,4.32,3.24,6.56,5.62,9.39c-0.17,0.48-0.33,0.97-0.5,1.46
		c-1.46,1.54-2.97,2.91-5.29,1.59C412.36,435.98,410.52,433.55,408.69,431.11z"/>
	<path class="st10" d="M469.49,440.17c-7.94-3.42-8.79-9.88-14.38-14.02C464.69,426.09,465.78,432.64,469.49,440.17z"/>
	<path class="st128" d="M428.53,445.24c-2.11-4.35-6.26-0.74-9.08-2.33c-1.3-2.44-1.26-4.91-0.11-7.39c0,0,0.63-0.16,0.63-0.16
		C423.39,438.17,430.83,437.49,428.53,445.24z"/>
	<path class="st12" d="M345.98,457.65c-0.32,3-0.65,6-0.97,8.99c-6.89-1.04-6.2,3.83-6.31,8.08c4.06,5.53,0.47,10.72-0.42,16.16
		c-0.66,4.02-2.75,8.14-0.81,12.3c0.65-1.34,1.69-2.16,2.86-2.88c0.93-0.84,1.62-1.82,2.21-2.88c2.3-4.13,4.34-11.44,8.8-9.76
		c3.16,1.19,9.43,3.06,10.65,8.44c1.31,5.77-1.06,10.16-6.03,13.22c-5.01,10.66-10.03,21.33-16.37,34.81
		c-0.71-12.06,9.12-19.54,2-30.26c-4.31,12.18-16.13,17.86-20.19,29.39c-0.19,0.52-0.39,1.03-0.58,1.56
		c-3.22,3.13-8.37,3.29-11.04,7.25c-6.26,9.37-14.94,17.18-18.19,28.47c-1.67,3.55-2.64,7.65-7.04,9.08
		c-1.71-1.62-3.43-3.25-5.14-4.87c-3.75-3.01-4.57-6.96-3.72-11.46c2.5-6.96,6.95-12.26,13.51-15.74
		c2.12-10.87,11.35-15.89,19.3-20.65c15.15-9.06,22.21-21.54,22.01-38.81c-0.04-3.62,0.76-7.26,1.17-10.88
		c0.45-4.18-0.44-8.57,1.98-12.43C336.94,468.47,336.24,459.31,345.98,457.65z"/>
	<path class="st110" d="M407.09,484.64c0.5,3.88-1.14,7.2-2.8,10.51c-3.98-0.17-7.03-2.45-9.15-5.31
		c-9.98-13.44-28.39-18.31-34.8-35.98c-2.17-5.99-10.97-9.42-16.35-14.44c-7.47-6.97-12.09-15.75-15.41-25.57
		c6.46-2.87,8.56,3.73,12.85,4.66c2.11-1,1.53-3.1,1.98-4.79c5.21,5.56,2.32,13.21,5,19.48c1.12,2.61,0.88,6.62,4.11,7.07
		c5.13,0.71,5.3-4.19,6.46-7.37c6.45,9.19,13.5,17.95,22.87,24.56c1.84-4.68,3.86-9.79,5.73-14.56
		c14.21,8.13,11.55,19.98,7.82,32.23c1.35-1.76,2.69-3.52,4.04-5.28c0.84-0.84,1.79-1.01,2.84-0.42c3.41,3.5-3.7,8.92,2.22,11.95
		C405.9,482.07,406.84,483.08,407.09,484.64z"/>
	<path class="st185" d="M248.21,543.32c-2.34-7.63,0.46-14.79,1.97-22.08c2.28-8.62,4.55-17.24,6.82-25.8
		c6.26,0.54,6.3,7.46,11,8.84c5.98,0.7,6.21,6.42,8.82,10.08c0.8,10.42,4.73,21.04-1.87,31.02c-8.13,0.01-8.12,7.92-11.85,12.2
		c-2.12-5.1-4.11-10.14-11.18-9.98C249.88,547.66,247,546.84,248.21,543.32z"/>
	<path class="st127" d="M309.27,455.15c-8.06,0.95-7.47,6.28-6.51,12.22c1.66,10.33,1.45,20.07-10.6,24.59
		c-0.85-2.53-1.24-5.06-0.13-7.62c-0.1-11.09-0.2-22.18-0.3-33.27c-5.18,1.59-6.91-0.78-6.5-5.64c3.38-3.56-0.18-9.69,4.71-12.69
		c7.34-6.55,1.91-13.88,0.97-20.79c-0.35-2.52-3.95-5.15-1.54-7.65c4.71-4.9,1.78,3.63,4.42,2.84c4.07-1.21,0.89-6.17,6.22-9.14
		c-6.38,6.92,13.4,2.9,1.95,11.48c-3.24,7.43-0.77,14.57,1.11,21.74c0.45,1.01,0.7,2.06,0.76,3.16c-1.44,4.94-4.34,10.25,3.41,12.75
		C309.31,449.46,310.65,451.97,309.27,455.15z"/>
	<path class="st186" d="M235.79,562.65c0.82-2.16,2.1-5.6,4.51-2.87c4.49,5.09,8.38,2.04,12.61,0.47c2.72-1.46,3.62,1.26,5.25,2.29
		c1.59,1.69,3.18,3.38,4.78,5.07c1.62,10.25-1.17,19.17-8.06,26.86c-4.5-7.2,3.04-13.51,1.81-21.6c-6.03,4.05-3.11,11.16-7.68,14.19
		c-0.35-1.12-0.98-3.18-1.73-5.58c-3.23,3.27-0.14,8.32-3.9,10.91c-1.03-0.53-1.68-1.35-1.96-2.47c-6.69,4.8-3.91,13.48-7.93,19.38
		c0.08,1.16-0.01,2.86-1.47,2.23c-3.7-1.6-2.21-4.43-1.08-7.02c1.9-4.02,3.32-8.12,2.29-12.71c-3.73,0.16-1.33,4.07-4.2,5.25
		C228.77,584.9,233.19,573.94,235.79,562.65z"/>
	<path class="st34" d="M292.03,484.35c1.53,2.52,1.6,5.06,0.13,7.62c-1.03,5.68-8.41,10.41-2.52,17.11c-1.31,1.44-2.92,1.51-4.65,1
		c-2.69-4.16-11.5-2.37-10.18-10.44c7.36-7.29,1.95-16.89,6.04-26.25c-6.48,4.2-9,8.35-7.66,14.28c0.67,2.96,0.99,6.32-3.2,5.83
		c-3.73-0.44-3.21-3.92-2.63-6.78c2.79-13.64,6.08-27.11,14.57-39.19c-3.21,12.04,7.33,21.27,6.02,33.03
		C287.83,481.65,290.6,483.07,292.03,484.35z"/>
	<path class="st187" d="M333.68,474.78c0.44,4.32,1.6,8.75-1.98,12.43c-7.69,4.22-5.5,4.74-6.47,11.03
		c-1.52,9.85-6.47,19.16-10.67,30.62c-3.07-10.55-5.46-18.78-7.86-27.01c2.34-7.69,6.91-13.99,12.38-19.72
		C328.11,487.97,329.46,478.53,333.68,474.78z"/>
	<path class="st53" d="M254.88,594.47c2.69-8.95,5.37-17.91,8.06-26.86c4.48-0.56,6.12,4.1,9.67,5.25c0.46,0.34,0.92,0.68,1.39,1.01
		c4,8.84,4.62,17.5-1.43,25.79l0.16-0.14c-3.16,2.59-5.39,0.58-6.62-1.97c-2.88-5.91-5.19-2.28-7.71,0.12
		C257.23,596.61,256.05,595.54,254.88,594.47z"/>
	<path class="st69" d="M309.27,455.15c-0.81-2.36-1.62-4.73-2.43-7.09c-0.84-0.81-1.19-1.79-0.98-2.95
		c1.65-3.44,2.73-7.24,5.97-9.71c4.33,0.95,8.72,1.69,12.97,2.9c3.12,0.9,7.2,2.6,4.7,6.59c-4.33,6.91-12.97,9.5-17.81,16.55
		C310.5,463.17,309.85,457.54,309.27,455.15z"/>
	<path class="st41" d="M284.37,509.09c1.76,0,3.51-0.01,5.27-0.01c5.38,4.79-0.22,9.76,0.24,14.63c-0.46,3.9-2.44,7.1-4.67,10.19
		c-0.52,6.43-6.94,7.58-10.28,11.5c2.22-10.56-1.57-21.08-0.21-31.64c1.31-1.64,5.63,5.17,5.24-1.95
		C279.88,510.14,282.07,508.68,284.37,509.09z"/>
	<path class="st157" d="M258.17,562.54c-1.75-0.76-3.5-1.52-5.25-2.29c-11.63-2.85-12.02-8.82-4.71-16.93
		c6.75,2.89,18.94,0.11,14.87,14.27c-1.63-0.94-3.26-1.89-4.89-2.83C258.18,557.35,258.17,559.95,258.17,562.54z"/>
	<path class="st149" d="M338.26,397.74c3.67-10.04,11.79-10.66,20.81-10.39c10.31,0.31,6.96,8.99,11.26,14.98
		c-8.46-1.11-7.64-12.07-16.51-10.22c-6.68,1.39-10.2,6.22-15.11,9.54C338.56,400.35,338.41,399.05,338.26,397.74z"/>
	<path class="st188" d="M284.37,509.09c-3.64,0.67-1.45,13.39-9.64,4.66c-4.87-1.29-3.51-7.01-6.74-9.46
		c-0.91-6.22,3.22-5.06,6.82-4.66C275.28,505.53,286.71,500.35,284.37,509.09z"/>
	<path class="st163" d="M285.21,533.89c-1.81-4.94-0.4-8.4,4.67-10.19c3.39,0.42,2,10.06,9.18,4.19c3.43-2.8,3.26,2.08,2.55,3.63
		C297.49,540.6,291.55,539.08,285.21,533.89z"/>
	<path class="st31" d="M289.21,557.55c-3.85,5.08-7.7,10.17-11.55,15.25c-1.73,0-3.47,1.43-5.17-0.09c0,0,0.13,0.14,0.13,0.14
		c-0.77-8.57,7.66-12.75,10-20.28C283.82,548.69,286.09,556.76,289.21,557.55z"/>
	<path class="st119" d="M319.07,482.12c-1.97,7.93-6.85,14.03-12.38,19.72C304.2,492.43,310.29,482.72,319.07,482.12z"/>
	<path class="st0" d="M301.85,430.68c-1.06,0.47-2.11,0.95-3.17,1.42c2.08-7.39-5.44-16.18,3.29-22.61
		c1.62,3.63,3.25,7.25,4.87,10.87C306.48,424.43,305.22,428.07,301.85,430.68z"/>
	<path class="st181" d="M311.84,435.41c0,4.05-0.41,7.91-4.53,10.11c-5.6-2.7-4.12-7.76-4.11-12.33c1.19-8.96,5.07-8.31,10.3-2.9
		C312.95,431.99,312.39,433.7,311.84,435.41z"/>
	<path class="st19" d="M289.95,432.75c-1.57,4.23,2.93,10.71-4.71,12.69c-3.43-4.92-1.94-9.94-0.38-15
		c0.44-1.44,0.48-3.84,2.44-2.76C288.69,428.44,289.1,430.99,289.95,432.75z"/>
	<path class="st63" d="M313.5,430.28c-3.94-1.61-8.31-4.47-9.13,3.1c-0.99,0.95-1.82,0.88-2.47-0.37c0.25-0.78,0.23-1.56-0.05-2.34
		c-0.36-4.41,0.83-8.08,4.99-10.31C310.3,422.83,315.91,423.86,313.5,430.28z"/>
	<path class="st163" d="M332.84,450.99c-0.56,11.96-0.56,11.96-7.46,15.9C329.49,461.15,324.78,453.71,332.84,450.99z"/>
	<path class="st138" d="M401.75,469.84l-1.15,0c0,0-1.15,0.03-1.15,0.03c4.77-10.55,6.71-22.43,14.74-31.45
		c1.72-0.96,3.44-1.92,5.16-2.89c-0.59,2.47,2.62,4.89,0.11,7.39c-9.01,1.7-4.9,9.85-6.51,14.73c-2.57,7.81-2.57,16.48-3.65,24.78
		c-0.74,0.74-1.47,1.48-2.21,2.21c-0.86-0.89-1.71-1.78-2.57-2.67C399.89,478.77,404.79,473.4,401.75,469.84z"/>
	<path class="st189" d="M392.15,401.75c1.82,4.81,9.34,7.67,4.98,14.59c-2.51-3.23-5.02-6.46-7.53-9.7
		C392.25,405.95,392.33,403.92,392.15,401.75z"/>
	<path class="st172" d="M634.45,589.74c-5.6,1.75-7.13-3.18-9.49-7.72c-1.29,3.65-2.01,5.69-2.73,7.72c-1.6-1.2-3.2-2.4-4.8-3.6
		c-0.58-0.89-1.05-1.85-1.38-2.86c-1.81-4.94-4.94-8.21-10.54-8.31c-2.14,0.14-3.97,0.9-5.34,2.62l0.19-0.12
		c-1.77,0.61-3.64,0.07-3.85-1.59c-1.49-11.95-10.51-20.55-13.84-31.65c1.19-2,2.98-2.36,5.17-2.16c6.12,0.55,7.05,5.78,9.2,9.94
		c-0.66-6.39,4.01-6.49,7.9-5.78c4.81,0.88,9.74-0.01,14.43,1.51C628.17,560.38,629.6,575.67,634.45,589.74z"/>
	<path class="st190" d="M575.62,492.4c6.13,2.01,9.83,6.31,11.99,12.28c2.18,6.03,8.82,7.55,12.6,12.01
		c0.99,2.11,3.81,3.3,3.05,6.85c-15.25-3.53-23.38-15.16-31.15-26.99C570.83,494.59,574.71,494.08,575.62,492.4z"/>
	<path class="st40" d="M583.79,545.62c8.05,9.29,13.9,19.73,16.56,31.83c-1.76,3.97-1.21,9.64-7.55,10.22
		c-3.19-3.05-1.86-6.83-1.41-10.3c0.62-4.79-0.43-8.83-3.91-12.21c0.15-8.14-7.64-12.59-9.25-19.91c-5.29-2.65-2.99-5.05,0.24-7.42
		c3.39,0.89,6.77,1.78,10.16,2.67C588.26,543.38,581.3,540.04,583.79,545.62z"/>
	<path class="st50" d="M546.48,548.07c-3.99-0.54-0.36-5.37-4.19-6.64c-0.41,3.04-0.79,5.89-1.17,8.74
		c-1.08-0.07-2.15-0.13-3.23-0.2c-2.19-6.54,1.22-12.85,3.43-19.2c0.14,0.38,0.22,0.8,0.44,1.13c0.39,0.58,0.85,1.11,1.29,1.66
		c4.62-5.27,2.01-11.19,1.98-17C553.78,526.59,545.61,537.61,546.48,548.07z"/>
	<path class="st155" d="M583.79,545.62c-2.62-4.11-2.62-4.11,4.84-5.12c10.6,0.92,20.61,4.33,30.74,7.22
		c-5.2,0.24-10.57,1.4-15.57,0.5c-6.27-1.13-6.49,2.06-5.64,6.51C591.48,553.65,594.74,538.92,583.79,545.62z"/>
	<path class="st155" d="M578.48,537.84c-1.2,2.44-2.37,4.88-0.24,7.43c-0.76,0.36-1.51,0.71-2.27,1.07
		c-4.23,0.06-8.67,2.32-12.54-1.24c-0.15-0.69-0.13-1.38,0.07-2.07C567.09,537.28,572.61,537.06,578.48,537.84z"/>
	<path class="st154" d="M284.55,589.63c3.74-2.15,1-7.56,4.85-9.66c1.95-2.02,3.56-4.62,6.96-4.26c2.56,0.51,4.94,1.99,7.57-0.64
		c5.04-5.05,9.07-2.34,12.54,2.33c8.16,7.85-2.43,8.49-4.73,12.32c-2.24,2.05-3.94,4.9-7.47,5.04c-9.78-3.74-6.84,6.93-10.92,9.64
		c-3.82-0.29-5.11-2.87-3.83-5.86C291.89,593.01,286.49,592.41,284.55,589.63z"/>
	<path class="st7" d="M258.4,597.67c3.14-8.91,5.12-8.65,14.33,1.85c1.68,10.9-10.24,8.57-14.31,14.21
		c-1.37,1.9-2.98-2.02-2.48-4.47C256.75,605.4,257.58,601.54,258.4,597.67z"/>
	<path class="st75" d="M270.05,655.73c-0.72,1.69-1.44,3.38-2.16,5.07c-1.9-2.66-1.62-8.58-7.63-5.1
		c1.42-7.61,2.53-15.33,7.01-21.97c4.6-5.61,6.1-1.49,7.66,2.44c0.86,0.01,1.72,0.01,2.58,0.02
		C275.98,643.07,270.21,648.33,270.05,655.73z"/>
	<path class="st4" d="M270.05,655.73c-5.99-9.75,1.36-14.41,7.46-19.54c0.84,0.88,1.69,1.76,2.53,2.64
		c0.32,6.75-2.5,12.23-6.93,17.05C272.09,655.83,271.07,655.78,270.05,655.73z"/>
	<path class="st19" d="M287.33,628.72c6.74-1.32,6.83,2.74,6.68,7.7c-0.12,3.83-0.68,8.27-4.29,8.71c-3.13,0.39-8.25-0.99-7.23-6.86
		C285.15,635.61,288.75,633.44,287.33,628.72z"/>
	<path class="st99" d="M274.94,636.17c-2.39-1.32-4.14-4.66-7.66-2.44c0.31-1.44,0.63-2.88,0.94-4.33
		c7.11-3.17,5.76-14.89,17.39-16.05C279.47,620.87,276.12,628.09,274.94,636.17z"/>
	<path class="st13" d="M272.48,572.71c1.74-0.82,3.51-3.33,5.17,0.09c-3.02,4.52,2.82,7.73,1.76,11.96
		c-0.89,5.61,0.93,12.45-6.84,14.9C274.89,590.67,275.59,581.68,272.48,572.71z"/>
	<path class="st191" d="M243.44,618.51c-1-3.18-2-6.36-3-9.54c0.07-3.41,0.27-6.77,3.25-9.13
		C252.31,606.18,245.1,612.31,243.44,618.51z"/>
	<path class="st167" d="M243.7,599.84c-1.08,3.04-2.17,6.09-3.25,9.13c-4.1-6.57,2.08-12.62,0.97-19.04
		c0.66,0.82,1.31,1.64,1.96,2.47C243.49,594.88,243.59,597.36,243.7,599.84z"/>
	<path class="st132" d="M316.48,577.39c-4.53-2.36-8.91-4.62-12.67,1.38c-3.06,4.89-4.73,0.08-6.86-1.27
		c-1.24-10.77,9.01-14.87,13.08-22.56c1.66-1.37,3.31-2.8,5.56-3.12c4.85-0.03,3.51,3.84,4.08,6.51c-1.84,4.81-8.71,9.75,0.39,14.26
		C318.86,574.19,317.67,575.79,316.48,577.39z"/>
	<path class="st21" d="M304.27,594.75c1.38-3.32,3.9-4.97,7.47-5.04c1.8,4.17,3.37,8.22-2.37,10.83
		c-5.45,2.48-4.76,10.14-10.69,12.96C296.42,605.73,306.73,602.08,304.27,594.75z"/>
	<path class="st192" d="M355.97,509.33c0.77-1.87,1.42-3.8,2.34-5.58c1.53-2.96,3.33-6.3,0.18-8.78c-3.86-3.03-3.63,4.65-7.23,3.39
		c-2.88-3.66,3.57-6.31,0.92-10.34c-5.94,3-5.85,9.89-9.37,14.3c-0.18,0.22-0.79,0.27-1.11,0.16c-0.35-0.12-0.6-0.52-0.9-0.8
		c-2.51-5.65,2.64-9.51,3.51-15.87c-1.59,7.87-7.37,12.95-5.9,20.25c1.78,1.19,3.48,3.03,1.05,4.46c-2.6,1.53-4.95-1.06-5.2-3.14
		c-0.81-6.67,0-13.31,1.76-19.86c1.13-4.2,1.8-8.53,2.67-12.8c5.86,0.27,11.66,0.64,13,8.16c0.01,0.04,0.77,0.06,1.09-0.09
		c0.34-0.16,0.59-0.53,0.87-0.81c2.56-2.4,7.59,0.01,8.99-4.63c5.69,5,11.44,9.92,17.02,15.04c2.05,1.88,4.56,4.59,2.3,7.2
		c-1.59,1.84-5.17,3.39-7.4,2.91c-3.69-0.8-2.39-4.56-1.38-6.89c0.93-2.13,1.82-4.03-1.01-4.41c-2.97-0.4-3.33,0.84-2.48,4.22
		c1.78,7.1-7.98,9.16-8.19,15.84C358.37,514.33,358.49,508.07,355.97,509.33z"/>
	<path class="st156" d="M346.02,594.68c-1.91,5.34-4.79,10.08-10.25,16.52c2.72-10.5,6.85-19.04,0.45-26.62
		c-6.61-7.84-6.47-15.29-0.6-23.29c1.06-1.45-0.03-3.03-1.97-3.47c0.09-0.6,0.13-1.2,0.14-1.8c9.03-5.1,13.51-2.55,16.6,9.46
		c-2.58,0.62-4.39-1.64-6.76-1.79c0.31,1.64-0.1,4.71,2.18,3.94c2.06-0.7,3.46-1.36,5.23,0.05l-0.22-0.18
		c3.91,3.67,4.34,7.87,0.7,11.67C347.25,583.64,346.63,589.08,346.02,594.68z"/>
	<path class="st46" d="M319.66,558.33c-3.86-0.62-0.36-3.75-1.78-5.2c-4.36-5.4,3.31-6.36,3.69-10.01c0,0-0.17,0.16-0.17,0.16
		C325.94,546,325.42,550.43,319.66,558.33z"/>
	<path class="st130" d="M563.42,545.09c4.29-0.73,8.65-2.12,12.54,1.24c-0.94,1.49-1.87,2.97-2.81,4.46
		c-11.72-4.44-19.8,9.74-19.58,11.78c1.92,17.7-13.2,20.28-22.06,28.83c-2.02,5.18,11.52-0.78,6.3,7.7
		c-3.78-0.22-3.97,4.64-9.49,4.86c-7.86,0.31-14.43,8.57-17.2,17.46c-2.98-0.02-5.96-0.05-8.94-0.07c1.39-3.93-0.63-8.63,2.74-12.11
		c4.59-2.79,5.35-7.83,7.2-12.23c7.61-7.26,14.06-15.79,10.76-26.56c-2.43-7.94,0.84-10.73,6.56-13.5c2.5,0.77,7.49-6.38,7.63,2.51
		c0.02,1.37,3.17,1.2,3.93-0.05C546.16,550.91,556.89,551.31,563.42,545.09z"/>
	<path class="st175" d="M437.07,509.2c0.42,0.01,0.84,0.01,1.26-0.01c1.31,4.84,2.61,9.68,3.92,14.52c0.55-0.04,1.09-0.08,1.64-0.11
		c0-9.73,0-19.46,0-32.07c4.73,12.25-1.37,22.68,4.38,31.78c-0.71,9.39-5.13,12.79-13.81,8.01c-4.85-2.68-11.55,0.71-15.31-4.98
		c7.92-5.29,9.28-10.97,0.49-16.63c3.33-4.46,9.79,5.72,11.24-3.37c0.86-0.9,1.74-5.14,2.81-0.83c0.86,3.47-0.88,7.59-1.49,11.59
		C436.88,516.2,435.18,511.59,437.07,509.2z"/>
	<path class="st24" d="M230.94,604.51c2.27,0.84-3.36,5.89,2.55,4.8c4.08,1.94,1.92,5.39,2.01,8.29c-5.2-3.19-9.38-0.87-13.37,2.48
		c-0.77-2.2-2.4-4.5-2.15-6.58C220.72,607.34,229.89,610.81,230.94,604.51z"/>
	<path class="st106" d="M346.02,594.68c-5.4-5.42-1.69-9.91,1.55-14.36c2.82-3.86,5.61-7.66,3.26-12.81
		c11.92,3.2,17.03,13.95,24.52,22.08c1.12,3.11-1.76,4.86-2.5,7.34c-6.31,1.63-12.03,6.82-19.2,3.15c-0.26-0.71-0.43-1.44-0.5-2.2
		c4.79-4.2-3.92-4.51-2.26-7.81c-1.88,1.31-2.52,3.94-4.97,4.65L346.02,594.68z"/>
	<path class="st184" d="M377.86,642.29c-5.08-6.32,1.92-10.12,3.6-14.74c1.72-4.72,4.4-7.77-3.5-6.23
		c-1.79-8.06,2.14-11.57,9.7-12.2c2.16,0.94,6.02,2.37,4.37,4.49c-4.99,6.39-1.96,14.11-4.63,20.71
		C384.04,636.76,382.6,641.5,377.86,642.29z"/>
	<path class="st185" d="M387.66,609.12c-2.18,4.9-10.85,4.64-9.7,12.2c-1.26,2.68-2.06,5.91-5.63,6.27
		c-0.52,0.05-1.29-2.33-1.94-3.58c4.16-5.46,7.64-11.22,8.17-18.3c-0.87-3.7-1.15-7,4.34-6.38
		C386.98,601.38,385.22,606.27,387.66,609.12z"/>
	<path class="st106" d="M382.9,599.33c-1.45,2.13-2.91,4.27-4.35,6.39c-8.93,1.63-3.05-6.35-5.69-8.79
		c-2.91-3.72,1.26-5.03,2.5-7.34C382.65,589.13,378.89,597.23,382.9,599.33z"/>
	<path class="st106" d="M351.05,567.68c-5.56,0.06-3.11,9.39-11.06,8.1c5.8-5.18-4.29-11.42,2.4-16.69c1.18,3.99,7.46,1.61,8,6.4
		C350.55,566.24,350.77,566.97,351.05,567.68z"/>
	<path class="st156" d="M345.94,594.72c1.86-3.72,3.72-7.43,5.57-11.15c0.32,5.09,11.99,8.99,1.65,14.3
		c-2.12,2.41-4.24,4.81-6.38,7.23C343.41,601.75,351.35,597.78,345.94,594.72z"/>
	<path class="st133" d="M346.03,619.32c-4.1-3.24-6.67,0.63-9.76,2.11c0.28-4.74,3.83-7.54,6.33-11.19
		C347.12,612.24,346.1,615.96,346.03,619.32z"/>
	<path class="st15" d="M587.48,565.17c4.63-0.25,8.34,0.59,7.55,6.55c-0.71,5.33-1.49,10.64-2.23,15.96
		c-1.61,2.8-2.42,5.79-2.05,9.04c-1.16-0.18-2.33-0.35-3.5-0.53c-3.68-5.55-2.6-11.15,0.51-16.4c-4-2.01-3.79,4.81-6.65,2.46
		c-3.2-2.62-2.75-6.35-0.6-9.77C582.84,570.05,585.16,567.61,587.48,565.17z"/>
	<path class="st55" d="M617.45,582.33c-0.01,1.27-0.02,2.53-0.03,3.8c-6.59-1.17-9.72-9.31-17.26-8.55
		c-0.59-3.95,0.75-6.03,5.07-5.19C611.7,572.76,613.92,578.35,617.45,582.33z"/>
	<path class="st152" d="M362.65,477.36c-3.05,4.1,3.27,6.64,1.65,11.15c-4.56-0.65-4.67-8.97-10.64-6.52
		c0.75-1.81,1.32-3.73,2.3-5.4c2.42-4.11-9.27-5.21-2.41-8.61C356.12,466.7,360.19,473.42,362.65,477.36z"/>
	<path class="st193" d="M803.83,596.66c14.3-2.65,27.54,2.41,41.02,5.7c0.52,1.06,0.43,2.03-0.37,2.92
		c-6.27,2.7-13.43,2.84-19.33,6.64c-6.37,3.53-10.81-6.29-17.22-2.49c2.23-6.92-2.68-7.12-7.22-7.65
		C800.83,599.51,801.52,597.59,803.83,596.66z"/>
	<path class="st32" d="M774.2,584.56c-3.48,5.97,4.03,7.95,4.52,12.48c-7.28-2.52-14.11-5.61-18-13.9
		C766.1,582.72,770.38,581.34,774.2,584.56z"/>
	<path class="st151" d="M825.14,611.92c3.09-11.04,12.49-5.62,19.15-7.34c1.95,2.44-0.25,3.21-1.71,4.28
		C836.9,610.62,831.76,615.48,825.14,611.92z"/>
	<path class="st93" d="M842.58,608.86c0.57-1.43,1.14-2.85,1.71-4.28c0.24-0.73,0.42-1.47,0.56-2.22c0.75-0.21,1.48-0.47,2.19-0.79
		c5.75,0.13,11.49,0.27,17.24,0.4c-6.52,2.44-13.03,4.88-19.55,7.32C844.01,609.15,843.3,609,842.58,608.86z"/>
	<path class="st186" d="M881.43,616.68c-6.53,1.26-13.05,2.51-19.58,3.77c-0.75-0.45-1.5-0.89-2.25-1.34
		c-0.35-0.79-0.7-1.57-1.04-2.36C866.19,619.37,873.79,610.58,881.43,616.68z"/>
	<path class="st100" d="M426.87,638.47c-3.88,5.12-1.94,11.58-4.3,19.19c-2.04-11.16,0.13-20.13,1.16-29.14
		c0.54-2.54,1.08-5.09,1.63-7.63c0.51,0.04,1.01,0.08,1.52,0.12C426.87,626.83,426.87,632.65,426.87,638.47z"/>
	<path class="st194" d="M425.94,502.04c-5.34-8.68,0.33-16.29,2.86-24.32C427.85,485.82,426.9,493.93,425.94,502.04z"/>
	<path class="st5" d="M311.61,555.14c-2.12,9.27-11.38,13.85-14.66,22.36c-2.52,0.82-5.03,1.65-7.55,2.47
		c3.81-12.12,8.71-23.39,22.01-28.07C313.1,552.88,313.16,553.96,311.61,555.14z"/>
	<path class="st190" d="M338.41,506.05c-3.63-10.77,4.44-17.52,8.37-25.7c1.3,8.12-4.07,14.2-5.98,21.32
		C340.01,503.13,339.21,504.59,338.41,506.05z"/>
	<path class="st33" d="M311.61,555.14c-0.07-1.08-0.13-2.16-0.2-3.25c-4.38-11.91,7.83-4.63,10.16-8.78
		c-1.23,3.34-2.46,6.67-3.69,10.01C315.79,553.8,313.7,554.47,311.61,555.14z"/>
	<path class="st135" d="M401.75,469.84c0.81-0.47,1.39-4.23,2.29-1.07c1.18,4.11,0.41,8.77,0.47,13.2c-2.01-0.74-3.86,8.6-5.49,0.44
		C398.26,478.56,400.74,474.05,401.75,469.84z"/>
	<path class="st134" d="M301.9,433.01c0.82,0.12,1.65,0.25,2.47,0.37c-1.38,4.61,1.84,8.11,2.94,12.12
		c-0.15,0.85-0.31,1.7-0.46,2.55C294.66,448.14,294.4,447.32,301.9,433.01z"/>
	<path class="st28" d="M617.45,582.33c-4.07-3.31-8.14-6.63-12.22-9.94C613.02,571.14,614.98,577.04,617.45,582.33z"/>
	<path class="st113" d="M538.33,564.46c-3.38,2.95-6.05,5.28-8.98,7.84C527.68,564.91,527.25,559.31,538.33,564.46z"/>
</g>
</svg>
