<?xml version="1.0" encoding="utf-8"?>
<!-- Generator: Adobe Illustrator 24.1.2, SVG Export Plug-In . SVG Version: 6.00 Build 0)  -->
<svg version="1.1" id="Layer_1" xmlns="http://www.w3.org/2000/svg" xmlns:xlink="http://www.w3.org/1999/xlink" x="0px" y="0px"
	 viewBox="0 0 1080 1080" style="enable-background:new 0 0 1080 1080;" xml:space="preserve">
<style type="text/css">
	.st0{fill:#0D0D0D;}
	.st1{fill:#0B0B0B;}
	.st2{fill:#151515;}
	.st3{fill:#F6F6F6;}
	.st4{fill:#C2C2C2;}
	.st5{fill:#161616;}
	.st6{fill:#BBBBBB;}
	.st7{fill:#141414;}
	.st8{fill:#AFAFAF;}
	.st9{fill:#B5B5B5;}
	.st10{fill:#1C1C1C;}
	.st11{fill:#363636;}
	.st12{fill:#C5C5C5;}
	.st13{fill:#1F1F1F;}
	.st14{fill:#ADADAD;}
	.st15{fill:#9D9D9D;}
	.st16{fill:#ABABAB;}
	.st17{fill:#464646;}
	.st18{fill:#393939;}
	.st19{fill:#8E8E8E;}
	.st20{fill:#6C6C6C;}
	.st21{fill:#808080;}
	.st22{fill:#D3D3D3;}
	.st23{fill:#0C0C0C;}
	.st24{fill:#606060;}
	.st25{fill:#565656;}
	.st26{fill:#E6E6E6;}
	.st27{fill:#6B6B6B;}
	.st28{fill:#EFEFEF;}
	.st29{fill:#9A9A9A;}
	.st30{fill:#AEAEAE;}
	.st31{fill:#5B5B5B;}
	.st32{fill:#989898;}
	.st33{fill:#131313;}
	.st34{fill:#797979;}
	.st35{fill:#353535;}
	.st36{fill:#1B1B1B;}
	.st37{fill:#232323;}
	.st38{fill:#2F2F2F;}
	.st39{fill:#5C5C5C;}
	.st40{fill:#373737;}
	.st41{fill:#9E9E9E;}
	.st42{fill:#B1B1B1;}
	.st43{fill:#9F9F9F;}
	.st44{fill:#A6A6A6;}
	.st45{fill:#CECECE;}
	.st46{fill:#A8A8A8;}
	.st47{fill:#9C9C9C;}
	.st48{fill:#DBDBDB;}
	.st49{fill:#A0A0A0;}
	.st50{fill:#B9B9B9;}
	.st51{fill:#3F3F3F;}
	.st52{fill:#2B2B2B;}
	.st53{fill:#878787;}
	.st54{fill:#949494;}
	.st55{fill:#292929;}
	.st56{fill:#E8E8E8;}
	.st57{fill:#909090;}
	.st58{fill:#C9C9C9;}
	.st59{fill:#2A2A2A;}
	.st60{fill:#262626;}
	.st61{fill:#1A1A1A;}
	.st62{fill:#333333;}
	.st63{fill:#AAAAAA;}
	.st64{fill:#787878;}
	.st65{fill:#434343;}
	.st66{fill:#181818;}
	.st67{fill:#8C8C8C;}
	.st68{fill:#727272;}
	.st69{fill:#676767;}
	.st70{fill:#8F8F8F;}
	.st71{fill:#9B9B9B;}
	.st72{fill:#484848;}
	.st73{fill:#3E3E3E;}
	.st74{fill:#0E0E0E;}
	.st75{fill:#737373;}
	.st76{fill:#A1A1A1;}
	.st77{fill:#A2A2A2;}
	.st78{fill:#818181;}
	.st79{fill:#3B3B3B;}
	.st80{fill:#717171;}
	.st81{fill:#898989;}
	.st82{fill:#959595;}
	.st83{fill:#E5E5E5;}
	.st84{fill:#555555;}
	.st85{fill:#FAFAFA;}
	.st86{fill:#F9F9F9;}
	.st87{fill:#4E4E4E;}
	.st88{fill:#8A8A8A;}
	.st89{fill:#DDDDDD;}
	.st90{fill:#414141;}
	.st91{fill:#EBEBEB;}
	.st92{fill:#CFCFCF;}
	.st93{fill:#EEEEEE;}
	.st94{fill:#242424;}
	.st95{fill:#C1C1C1;}
	.st96{fill:#E3E3E3;}
	.st97{fill:#525252;}
	.st98{fill:#E9E9E9;}
	.st99{fill:#202020;}
	.st100{fill:#FEFEFE;}
	.st101{fill:#DEDEDE;}
	.st102{fill:#FBFBFB;}
	.st103{fill:#BCBCBC;}
	.st104{fill:#BEBEBE;}
	.st105{fill:#101010;}
	.st106{fill:#B3B3B3;}
	.st107{fill:#171717;}
	.st108{fill:#2D2D2D;}
	.st109{fill:#C0C0C0;}
	.st110{fill:#B0B0B0;}
	.st111{fill:#212121;}
	.st112{fill:#323232;}
	.st113{fill:#CBCBCB;}
	.st114{fill:#E1E1E1;}
	.st115{fill:#121212;}
	.st116{fill:#8D8D8D;}
	.st117{fill:#B2B2B2;}
	.st118{fill:#1D1D1D;}
	.st119{fill:#A9A9A9;}
	.st120{fill:#7C7C7C;}
	.st121{fill:#BABABA;}
	.st122{fill:#595959;}
	.st123{fill:#1E1E1E;}
	.st124{fill:#929292;}
	.st125{fill:#2E2E2E;}
	.st126{fill:#282828;}
	.st127{fill:#848484;}
	.st128{fill:#4F4F4F;}
	.st129{fill:#A3A3A3;}
	.st130{fill:#919191;}
	.st131{fill:#7D7D7D;}
	.st132{fill:#979797;}
	.st133{fill:#767676;}
	.st134{fill:#090909;}
	.st135{fill:#F0F0F0;}
	.st136{fill:#4A4A4A;}
	.st137{fill:#585858;}
	.st138{fill:#A4A4A4;}
	.st139{fill:#828282;}
	.st140{fill:#B4B4B4;}
	.st141{fill:#E7E7E7;}
	.st142{fill:#C3C3C3;}
	.st143{fill:#494949;}
	.st144{fill:#D9D9D9;}
	.st145{fill:#313131;}
	.st146{fill:#636363;}
	.st147{fill:#696969;}
	.st148{fill:#838383;}
	.st149{fill:#383838;}
	.st150{fill:#505050;}
	.st151{fill:#999999;}
	.st152{fill:#ACACAC;}
	.st153{fill:#454545;}
	.st154{fill:#616161;}
	.st155{fill:#252525;}
	.st156{fill:#6A6A6A;}
	.st157{fill:#747474;}
	.st158{fill:#EAEAEA;}
	.st159{fill:#BDBDBD;}
	.st160{fill:#D0D0D0;}
	.st161{fill:#D5D5D5;}
	.st162{fill:#686868;}
	.st163{fill:#646464;}
	.st164{fill:#2C2C2C;}
	.st165{fill:#3C3C3C;}
	.st166{fill:#545454;}
	.st167{fill:#F1F1F1;}
	.st168{fill:#FDFDFD;}
	.st169{fill:#FCFCFC;}
	.st170{fill:#A7A7A7;}
	.st171{fill:#272727;}
	.st172{fill:#B8B8B8;}
	.st173{fill:#0F0F0F;}
	.st174{fill:#191919;}
	.st175{fill:#707070;}
	.st176{fill:#111111;}
	.st177{fill:#F3F3F3;}
	.st178{fill:#4C4C4C;}
	.st179{fill:#4D4D4D;}
	.st180{fill:#222222;}
	.st181{fill:#626262;}
	.st182{fill:#777777;}
	.st183{fill:#A5A5A5;}
	.st184{fill:#868686;}
	.st185{fill:#C6C6C6;}
	.st186{fill:#EDEDED;}
	.st187{fill:#757575;}
	.st188{fill:#CACACA;}
	.st189{fill:#5E5E5E;}
	.st190{fill:#E0E0E0;}
	.st191{fill:#575757;}
	.st192{fill:#7F7F7F;}
	.st193{fill:#B6B6B6;}
	.st194{fill:#F8F8F8;}
	.st195{fill:#D1D1D1;}
	.st196{fill:#D8D8D8;}
	.st197{fill:#C4C4C4;}
	.st198{fill:#F4F4F4;}
	.st199{fill:#6E6E6E;}
	.st200{fill:#BFBFBF;}
	.st201{fill:#5D5D5D;}
	.st202{fill:#7E7E7E;}
	.st203{fill:#4B4B4B;}
	.st204{fill:#888888;}
	.st205{fill:#C8C8C8;}
	.st206{fill:#303030;}
	.st207{fill:#939393;}
	.st208{fill:#C7C7C7;}
	.st209{fill:#F7F7F7;}
	.st210{fill:#070707;}
	.st211{fill:#5A5A5A;}
	.st212{fill:#515151;}
	.st213{fill:#858585;}
	.st214{fill:#7A7A7A;}
	.st215{fill:#535353;}
	.st216{fill:#E2E2E2;}
	.st217{fill:#666666;}
	.st218{fill:#DFDFDF;}
	.st219{fill:#060606;}
	.st220{fill:#DCDCDC;}
	.st221{fill:#DADADA;}
	.st222{fill:#F2F2F2;}
	.st223{fill:#3D3D3D;}
	.st224{fill:#D4D4D4;}
	.st225{fill:#424242;}
	.st226{fill:#3A3A3A;}
	.st227{fill:#404040;}
	.st228{fill:#7B7B7B;}
	.st229{fill:#969696;}
	.st230{fill:#6F6F6F;}
	.st231{fill:#D2D2D2;}
	.st232{fill:#D6D6D6;}
	.st233{fill:#D7D7D7;}
	.st234{fill:#F5F5F5;}
	.st235{fill:#5F5F5F;}
	.st236{fill:#080808;}
	.st237{fill:#8B8B8B;}
	.st238{fill:#ECECEC;}
	.st239{fill:#343434;}
	.st240{fill:#CCCCCC;}
	.st241{fill:#0A0A0A;}
	.st242{fill:#B7B7B7;}
	.st243{fill:#040404;}
	.st244{fill:#E4E4E4;}
	.st245{fill:#CDCDCD;}
	.st246{fill:#6D6D6D;}
	.st247{fill:#444444;}
</style>
<g>
	<path class="st169" d="M623.2,587.04l-0.91,0.01l-0.91,0c-1.05-0.68-1.69-1.64-1.93-2.86c-5.23-4.92-1.08-13.03-6.15-18
		c-3.55-4.08-6.69-8.82-13.28-7.54c-4.08,0.42-7.66-0.8-10.9-3.19c-10.25-6.6-19.55-14.69-30.94-19.5
		c-6.45-2.1-10.1-6.9-12.56-12.89c-2.98-5.82-6.52-11.44-6.77-18.28c-2.51-10.76-3.17-21.8-4.91-32.67
		c-0.85-5.28-1.5-12.15,4.84-14.42c6.96-2.49,10.92,2.63,13.4,8.63c0.5,1.32,0.77,2.71,0.86,4.12c-0.99,7.79,0.82,15.13,3.88,22.23
		c5.15,9.43,15.21,14.31,21.26,22.89c7.52,7.18,15.61,13.57,24.88,18.36c7.95,5.36,15.51,11.37,24.76,14.51
		c4.66,4.1-5.01,11.67,4.1,14.99c-2.48-8.98-4.02-17.91-7.49-26.31c-2.75-7.56-3.29-15.94-8.52-22.56
		c-1.57-2.02-3.59-3.61-5.34-5.46c-5.31-8.62-5.73-19.1-10.67-27.87c-0.37-2.09-0.08-4.06,1.18-5.82c4.7-3.31,7.29,0.13,10.02,3.12
		c3.6,5.01,6.67,10.44,11.43,14.55c2.26,2.19,4.78,4.08,7.17,6.13c9.29,8.44,8.98,21.67,15.71,31.39c0.95,2.52,0.57,5.42,3.36,10.69
		c-2.85-6.64-2.34-11.12-5.2-14.43c-7.71-22.2-18.16-43.84-12.38-68.54c1.19-5.08,2.55-9.86,5.56-14.11
		c2.33-2.95,2.91-6.4,2.85-10.05c-1.13-11.63,2.64-22.83,2.95-34.34c0.2-7.45-0.6-14.59-2.51-21.81c-1.2-4.53-3.69-10.57,3.08-13.12
		c5.87-2.21,9.46,1.74,12.16,6.45c0.69,1.2,1.43,2.36,2.3,3.44l-0.31-0.38c12.01,19.66,22.46,39.78,30.21,61.83
		c3.57,10.17,13.93,19,17.26,30.8c1.42,3.54,3.09,6.97,4.87,10.33c2.67,5.6,5.37,11.19,8.3,16.67c2.72,5.71,7.88,9.61,11.17,14.88
		c1.59,2.6,3.51,5,4.75,7.81c0.3,1.26-0.03,2.34-0.98,3.23c-1.6,0.76-4.12,1.13-4.64,2.35c-2.32,5.46-6.75,11.07-11.7,9.14
		c-6.47-2.53-11.89-8.29-11.7-17.1c0.24-11.36,1.6-22.91-5.58-33.28c-2.33-3.36-4.38-5.71-8.5-5.79c-6.74-0.32-5.86-5.71-6.66-9.98
		c-0.9-3.68,9.5-8.41-1.06-11.17c-8.5,1.39-4.01,8.46-5.6,12.85c-0.14,1.96-0.51,3.87-1.05,5.76c-2.06,6.23-4.75,12.32-4.08,19.14
		c0.27,5.57,1,11.14,0.08,16.71c-2.38,15.34-4.77,30.66-9.48,45.51c-5.07,16.48-8.39,33.21-7.22,50.57c0.21,3.6,0.49,7.19,1.4,10.71
		c0.5,4.36,1.04,8.75-3.64,11.45c-11.34-2.86-16.98-10.69-18.89-21.73C632.21,598.18,628.94,591.83,623.2,587.04z"/>
	<path class="st105" d="M551.31,470.16c-0.71-1.61-2.1-3.25-2.01-4.81c0.37-6.62-5.29-6.23-8.55-6.31c-4.62-0.11-3.59,4.4-3.22,7.49
		c1.59,13.14,3.3,26.27,4.97,39.4c-1.42,1.52-3.19,2.13-5.24,2c-3.96-0.93-6.68-3.35-6.23-7.49c0.87-8.06-2.85-14.83-5.41-21.92
		c-5.14-7.32-5.75,0.51-6.34,2.44c-3.09,10.02-7.21,10.48-13.3,2.3c-1.89-2.54-4.21-4.87-7.86-4.7c-6.24,0.37-5.59-13.85-15.96-6.66
		c-6.52,4.52-10.17,7.45-7.98,16.24c1.67,6.73,4.29,12.87,6.62,19.53c-8.46-4.85-10.43-14.6-16.36-21.21
		c-12.77,10.4-17.45,23.02-12.77,34.84c-3.94,2.24-4.85-3.55-9.06-2.79c4.16,9.78,15.13,14.99,17.09,25.75
		c-1.72,8.63-7.76,4.18-12.37,4.1c-5.25-6.24-4.75-15.63-11.52-21.04c-4.06-5.34-11.85-2.35-16.12-7.19
		c-3.76-1.81-7.53-3.63-11.29-5.44c0.05-9.88,8.69-6.45,13.6-8.83c2.34-0.91,4.67-1.81,7.23-1.8c14.28,0.58,15.85-1.4,17.11-21.55
		c-1.84-1.54-4.01-2.75-4.93-5.15c0.41-2.08,1.11-3.69,3.66-2.22c14.18,10.1,23.5-3.76,33.78-8.26c10.73-4.7,18.41-7.84,26.12,3.31
		c1.6,2.32,3.9,6.1,7.76,2.79c8.14-6.98,19.13-14.65,22.62-22.19c8.31-17.97,22.41-28.76,38-34.86
		c18.67-7.31,26.13-23.4,38.31-35.82c1.59-1.63,2.79-3.65,4.17-5.48c2.49-0.43,3.43,1.09,3.95,3.15c0.12,4.01-1.15,7.66-2.9,11.19
		c-2.1,3.2-5.43,5.4-7.21,8.87c-9.45,8.53-9.78,20.62-12.38,31.81c-2.07,2.13-4.53,1.66-5.25-0.69c-2.51-8.19-4.76-2.89-7.17-0.09
		c-1.11,0.72-2.3,1.26-3.57,1.64c-5.37,1.33-11.43-0.54-16.25,2.09c-8.37,4.56-14.7,10.92-12.53,21.92
		C553.56,459.79,555.85,465.27,551.31,470.16z"/>
	<path class="st9" d="M844.36,575.39c0.02,1.2,0.04,2.4,0.06,3.6c-3.68,9.43-0.54,19.18-1.39,28.75c-2.76,5.71-7.09,8.95-13.58,8.77
		c-1.06,1.16-2.04-3.72-2.36-0.4c-0.27,2.77,0.32,5.39-2.17,7.38c-8.2-10.31,3.35-20.51,0.18-30.79c0.94-8.59-1.23-17.47,2.35-25.83
		c0.06-0.15-0.59-0.6-0.91-0.91c-0.4,0.87-1.08,1.46-2.02,1.76c-2.83-15.09-3.17-30.64-8.23-45.32c-1.07-5.22-4.9-9.81-3.59-15.58
		c8.7-7.51,10.52,4.73,16.18,6.03c5.39-4.26,0.17-14.94,10.08-15.87c4.38,2.29,4.12,10.74,11.69,8.83c2.37,2.41,3.16,5.27,2.44,8.56
		c-1.2,7.69,5.1,11.45,8.69,16.63l0-0.05c2.98,6.26,11.13,11.36-3.08,17.06C850.04,551.46,839.2,561.11,844.36,575.39z"/>
	<path class="st159" d="M500.28,685.14c-3.91,1.97-5.23,7-12.4,0.97c-13.19-11.07-13.32-27.97-22.9-40.25
		c3.4,3.62,6.81,7.24,10.21,10.85c-1.57-12.38-15.63-20.35-11.97-31.74c4.09-12.69-5.69-14.94-10.19-21.38
		c-0.57-4.39,1.96-5.99,5.77-6.47c8.09,1.58,10.31,9.62,17.26,16.05c-7.07-12.38-15.23-22-13.51-35.15
		c0.97-4.16,2.27-8.55,7.31-8.74c5.1-0.18,6.22,4.71,8.14,8.26c3.16,5.86,1.86,13.98,9.04,17.81c6.46,4.09,6.41,11.06,7.67,17.44
		c-1.89,10.99-5.39,22.04,1.11,32.75c4.24,6.11,2.56,13.56,4.55,20.17c-0.75,5.53-4.3,11.17,0.68,16.45l-0.22-0.32
		C502.26,683.22,502.07,684.31,500.28,685.14z"/>
	<path class="st155" d="M702.89,469.3c-19.55-27.64-26.86-61.51-45.53-89.61c-0.82-1.23-0.09-3.5-0.07-5.29
		c5.68,2.24,6.02,8.67,9.83,12.52c5.81,5.85,7.92,17.87,20.9,8.45c2.78-2.02,11.65,2.16,16.35,5.44c9.2,6.43,17.9,5.2,27.19,1.28
		c2.55-1.07,5.24-1.91,7.95-2.47c28.06-5.79,37.72-0.29,49.5,28.07c-1,1.24-2.01,1.19-3.03,0.03c-2.69-2.19-4.89-2.65-5.58,1.69
		c-1.09,6.82-2.14,13.64-3.21,20.46c-10.19,1.93-5.05-7.24-7.81-10.71c-0.57-3.54-0.92-7.2,0.27-10.57
		c2.65-7.48-3.51-4.91-6.51-5.99c-2.1-1.66-3.35-3.88-4.3-6.31c-0.65-10.89-6.41-10.96-15.12-8.23
		c-7.18,2.25-11.84,6.74-16.14,12.24c-4.56,2.04-6.26-2.37-10.23-4.86c0.7,11.15-1.82,21.34-1.53,31.77
		c0.1,4.06-1.27,7.72-3.02,11.29C709.79,462.35,709.63,468.85,702.89,469.3z"/>
	<path class="st195" d="M213.19,561.92c-3.24-2.34-6.49-4.67-9.65-6.95c1.45-3.68,3.4-2.68,5.55-1.43c1.99,1.15,4.92,4.76,4.83-1.39
		c-0.04-2.54,6.49-5.11,0.37-7.51c-18.89-7.4-21.53-25.08-26.62-41.27c10.73-11.65,23.26-6.99,35.6-3.96
		c-2.2,6.49-2.21,6.4-10.43,7.17c-3.95,0.37-8.87-1.61-11.49,2.33c-1.69,2.54,1.31,4.95,3.43,6.67c4.37,3.53,6.57,1.6,10.49-2.05
		c3.45-3.22,10.23-2.86,15.64-3.75c13.14,3,17.45,11.67,15.66,24.27c-0.41,2.73-0.55,5.43,0.05,8.21c0.84,3.89,3.77,8.98-0.76,11.35
		c-5.42,2.83-10.17-0.36-13.91-7.88c2.09,8.26,6.91,8.54,11.61,9.25c7.16,1.09,9.85,7.34,11.07,12.73c1.29,5.74-4.68,6.8-9.26,7.75
		C233.64,573.35,223.01,568.58,213.19,561.92z"/>
	<path class="st174" d="M224.11,503.18c-12.17-4.13-24.31-3.64-36.44,0.19l0.07-0.16c-4.61-1.31-10.05,1.81-14.07-2.63
		c-3.63-3-7.26-5.98-11.29-0.54c-3.51,2.96-7.25,1.88-11.01,0.64c-4.02-0.8-8.04-1.61-12.06-2.41c-0.14-0.72-0.28-1.44-0.42-2.15
		c10.27-1.56,21.28-6.16,30.63-3.91c11.72,2.82,19.75-0.72,27.94-6.7c11.64-8.49,23.85-15.74,36.58-22.59
		c9.65-5.2,18.72-13.95,24.47-23.32c7.24-11.81,17.09-19.43,27.97-26.77c3.67-2.48,7.21-3.03,10.11-0.17
		c6.75,6.64,16.2,8.77,23.32,14.69c-0.49,2.17-1.84,3.65-3.75,4.68c-6.01,2.24-10.37-1.04-14.72-4.38
		c-3.81-2.12-7.89-6.83-12.05-3.2c-4.49,3.9,2.43,9.16,0.54,14.03c-1.35,3.61-3.47,6.82-5.25,10.22c-1.15,1.67-2.68,2.8-4.65,3.3
		c-11.11,0.09-9.06-7.38-7.52-16.4c-7.62,7.18-5.74,16.93-11.56,22.55c-5.31-0.47-10.36-2.07-13.94,4.72
		c-5.04,9.58-17.18,10.11-24.44,17.18c-5.37,4.24-11.55,7.33-18.65,13.48c12.51,0.13,20.23-3.74,25.06-13.3
		c2.56-1.29,4.88-1.16,6.82,1.17c1.2,3.52,1.09,7.29,2,10.88c0.26,1.91,0.18,3.81-0.24,5.69c-1.6,4.61-4.29,8.08-9.43,8.96
		C225.94,506.6,224.67,505.27,224.11,503.18z"/>
	<path class="st173" d="M235.33,497.72c-0.04-1.75-0.07-3.5-0.11-5.25c4.65-4.95,11.19-3.18,16.8-4.77
		c1.23-0.18,2.46-0.19,3.67-0.08c4.23-8.34,13.67-12.8,16.47-22.1c1.26-4.19,2.52-7.92,7.83-7.89c6,4.1,4.3,8.86,2.28,14.61
		c-1.51,4.3-7.07,8.86-2.84,14.08c5.02-12.84,6.6-25.88,3.37-39.19c0.09-3.76,1.87-6.45,5.14-8.22c3.25,1.69,4.02,5.03,5.36,8
		c2.33,8.18,9.44,13.81,11.78,21.99c1.6,4.3,1.2,9.13,3.46,13.23c1.86,3.37,6.42,7.48,8.33,5.87c11.06-9.34,17.81,1,26.1,4.54
		c2.09,0.89,4.53-0.04,6.81-0.17c8.62-0.35,15.18,6.93,23.87,6.39c5.81,1.74,12.15,2.44,16.04,8.01c-0.52,2.45-1.74,3.67-4.34,2.52
		c-8.15,4.02-15.91-9.38-24.16-0.53c-1.01,0.86-2.16,1.15-3.46,0.91c-7.35-1.58-14.8-2.57-22.27-3.41
		c-12.33-1.81-22.85-10.77-36.06-9.09c-3.18-4.67-6.61-8.79-12.82-4.39c-3.37,2.39-4.64,4.66-11.15,3.36
		c-7.76-1.54-0.49,8.01-0.64,12.7c-9.44,1.53-14.59-11.07-24.66-7.45C244.97,501.1,239.52,501.93,235.33,497.72z"/>
	<path class="st196" d="M213.19,561.92c12.1,0.81,21.7,9.12,33.4,11.15c8.98,5.93,15.9,14.12,27.2,17.67
		c10.67,3.36,10.32,16.47,13.38,26c-8.84,8.37,5.29,9,4.91,14.52c0.25,1.32,0.07,2.58-0.61,3.75c-1.26,0.73-2.39,0.56-3.38-0.49
		c-5.29-2.43-9.48-6.19-15.93-7.42c-9.24-1.76-18.6-6.37-20.31-17.81c-0.64-4.25-6.92-2.02-6.55-7.19c4.09-3.82,8.1,3.3,13.13,0.08
		c-1.99-1.14-3.57-2.73-5.31-2.95c-18.7-2.35-27.71-16.47-37.42-30c-1.23-1.72-4.76-1.65-7-2.84c-1.47-0.78-3.49-2.49-0.94-4.04
		C209.14,561.5,211.35,562.02,213.19,561.92z"/>
	<path class="st12" d="M419.7,520.16c5.88,1.11,13.35-2.8,17,5.37c-7.48,11.47-15.28,22.85-11.63,37.77
		c-0.21,4.31-1.39,8.26-4.18,11.61c-8.1,1.41-4.29-4.55-5.12-7.82c-2.04,8.48,6.54,17.93-1.96,25.89
		c-4.96,6.16,0.27,14.45-4.67,22.16c-7.62-8.53-10.62-16.72-8.28-27.65c2.59-12.12,0.5-25.11-4.49-35.62
		c-5.03-10.6-6.75-18.24,1.91-25.78c2.42-2.11,4.58-2.56,7.51-1.9C411.09,525.37,415.78,524,419.7,520.16z"/>
	<path class="st197" d="M615.69,564.7c8.15,5.03,1.74,13.69,4.97,19.94c-0.87,0.96-1.56,0.84-2.06-0.36
		c-5.06,4.35-1.99,10.29-3.05,15.43c-0.84,4.09,2.42,9.37-3.43,12.02c-4.31-12.71-3.73-25.93-3.56-35.73
		c-0.81-5.17-3.51-2.84-1.84-3.67c0.57-0.28,0.98,0.02,1.02,0.92c0.38,8.44,2.76,17-1.35,25.2c-6.24,0.62-8.47-3.71-11.04-8.29
		c-3.35-5.98-7.62-11.38-13.92-14.7c-10.96-9.5-16.64-23.56-28.15-32.62c-0.59-1.25-0.8-2.56-0.66-3.94
		c0.74-2.16,2.24-3.37,4.51-3.63c13.26,2.84,21.47,15.23,34.63,18.27c2.54,2.48,5.83,2.29,9,2.49
		C605.71,558.97,611.31,560.79,615.69,564.7z"/>
	<path class="st110" d="M442.05,631.6c-0.47,8.46,3.47,17.41-2.83,25.21c-0.3-0.32-0.68-0.6-0.89-0.98
		c-0.21-0.37-0.24-0.83-0.35-1.25c-4.25,2.18-5.74,6.2-6.86,10.43c-0.78,2.93-0.85,6.42-5.26,6.3c-5.18-16.46-2.62-35-13.49-50.02
		c-0.79-1.09,1.17-4.16,1.85-6.32c5.28-10.19,14.83-17.27,19.9-27.72c2.37-4.9,5.91-3.47,8.03,0.9c3.86,7.98,1.38,14.76-5.35,19.48
		c-7.27,5.09,1.79,4.48,1.98,6.86C442.61,619.68,441.31,625.83,442.05,631.6z"/>
	<path class="st82" d="M436.81,615.4c-0.89-4.33-5.29,3.3-5.83-1.67c-0.33-3.02-1.68-6.44,2.59-8.27c10.2-4.38,7.78-11.75,4.3-20.16
		c-4.67,13.09-12.54,22.71-23.65,29.67c-0.14-7.34-0.28-14.67-0.43-22.01c0-10.19,0-20.39,0-31.46c5.16,3.5,1.37,8.51,4,11.61
		c0.23,0.27,0.85,0.38,1.25,0.31c0.42-0.08,0.79-0.45,1.19-0.7c7.41-5.91,14.88-1.99,22.32-0.17c3.65-2.32,4.71-7.05,8.56-9.17
		c1.92-0.6,3.74-0.43,5.46,0.64c2.6,3.25,2.69,6.82,0.76,10.29c-5.15,9.28-6.28,19.41-6.69,29.73l0.14-0.15
		C444.35,605.57,446.98,618.26,436.81,615.4z"/>
	<path class="st172" d="M251.98,498.12c11.17-4.01,15.31,6.97,22.83,10.72c8.82,6.21,4.41,21.1,16.51,25.15
		c2.1,2.37,1.24,4.47-0.55,6.51c-1.94,10.42-0.98,21.19-4.05,31.48c-0.67,2.26-1,4.33-3.52,5.16c-9.81-2.08-13.73-8.27-15.97-18.05
		c-2.69-11.68-4.77-22.82-2.05-34.74c1.23-5.38-2.89-9.44-6.04-13.49C256.13,506.99,251.05,504.22,251.98,498.12z"/>
	<path class="st103" d="M327.08,579.13c-13.44-8.93-14.28-24.82-21.73-36.66c6.21-6.15,11.07,6.39,16.33-0.62
		c1.17-0.68,2.2-0.52,3.1,0.48c1.17,1.31,2.55,2.49,3,4.32c-0.16-2.3-2.32-3.23-3.35-4.96c-0.74-4.88-0.32-9.22,5.06-11.37
		c2.08,0.27,3.61,1.41,4.84,3.03c2.4,4.19,2.45,9.71,7.16,12.59c10.29,9.19,11.71,22.05,14.24,34.46c0.41,2.03-0.13,4.28-2.05,4.44
		c-7.42,0.63-8.08-6.25-11.04-10.57c-0.24-0.35-0.78-0.71-1.15-0.69c-0.36,0.02-0.69,0.54-1.06,0.94
		C337.09,579.48,332.35,580.1,327.08,579.13z"/>
	<path class="st172" d="M914.75,604.39c-7.75,3.86-14.48,5.42-15.18-7.09c-4.44,1.65-5.47,12.14-9.81,7.66
		c-5.36-5.54-11.75-13.58-6.39-23.33c1.85-1.13,5.69,1.5,5.61-3.41c-0.23-14.05,7.93-15.36,18.91-12.04
		c6.42,2.59,4.85,8.51,5.52,13.49c0.33,1.81,2.9-0.86,1.25,0c-0.65,0.34-1.07,0.08-1.09-0.79c-0.08-3.86-1.79-7.89,1.11-11.46
		c5.15,8.19,1.32,17.58,3.53,26.17C920.34,598.24,917.98,601.46,914.75,604.39z"/>
	<path class="st20" d="M702.01,640.04c-13.37,0.89-7.71-8.05-6.99-14.51c-4.77,3.44-11.78-2.91-15.09,4.29
		c-3.34-5.97-2.89-5.73,0.15-11.44c1.82-3.42,8.84-4.4,5.22-10.45c-2.11-1.42-3.92-3.04-4.72-5.53c-0.77-6.62,0.53-12.08,7.94-14.07
		c3.81,0.48,7.35,4.11,11.51,1.04c4.44-1.82,8.92-1.8,9.77,3.69c1.01,6.56,5.41,11.71,6.34,18.16
		C718.81,624.44,709.2,631.65,702.01,640.04z"/>
	<path class="st198" d="M328.94,530.66c-1.49,3.68-2.98,7.37-4.47,11.05l-0.41,0.27l-1.18-0.2c0,0-1.2,0.06-1.2,0.06
		c-10.42-13.4-18.23-28.1-22.26-44.68c1.4-2.99-1.21-11.84,6.94-5.15c8.59,7.05,19.86,7.04,29.25,11.86
		c5.65,7.74,5.65,7.74-8.32,13.96c0.4,4.36,6.3,7.08,3.88,12.29c-0.14,0.3-0.53,0.62-0.85,0.68
		C329.88,530.89,329.4,530.72,328.94,530.66z"/>
	<path class="st107" d="M316.39,429.9c1.18-0.85,2.35-1.7,3.53-2.55c16,5.92,33.65,9.31,47.56,18.42
		c15.91,10.42,32.34,12.59,49.98,14.22c11,1.02,18.91,9.19,27.63,15.17c-0.97,0.65-1.93,1.3-2.9,1.95
		c-6.31,3.53-10.03-2.46-14.84-4.21c-5.25-1.91-10.61-3.51-15.82-5.45c-9.32-3.46-9.48,1.42-8.21,8.16
		c-1.64,1.3-3.52,1.61-5.54,1.33c-4.16-0.92-7.29-3.52-10.22-6.46c-1.25,4.7,6.63,11.93-1.81,13.74c-6.84,1.46-9.71-5.65-10.86-12
		c-0.65-3.61-0.05-7.5-2.49-10.68c-3.35-3.59-6.81-7.02-11.15-9.44c-10.6-3.09-21.07-6.56-31.4-10.43
		C324.09,439.21,317.7,437.44,316.39,429.9z"/>
	<path class="st148" d="M682.89,510.95c1.56,0.76,4.52,1.65,4.47,2.27c-1.8,20.27,7.34,38.2,11.93,57.08
		c-9.01,5.34-15.38,4.97-17.55-7.18c-0.64-3.59-3.21,1.31-4.98,0.08c-3.25-2.77-4.49-2.88-8.19-0.74
		c-8.13-7.87-1.03-14.63,1.13-21.95c0.3-1.02,8.66-3.79,0.21-5.5c-5.85-5.42,0.25-8.93,1.99-13.16
		C675.03,517.67,676.95,512.27,682.89,510.95z"/>
	<path class="st142" d="M338.71,695.9c2.23,10.93-4.61,13.74-12.38,10.75c-7.84-3.02-15.19-2.09-22.84-1.94
		c-0.79,0.02-1.57,0.74-2.36,1.13c-6.57-14.45-3.73,8.56-9.36,0.58c-0.08-5.15-3.63-12.53,6.24-15.91
		c6.01-3.79,9.86-9.77,14.84-14.61c13.93-0.8,13.93-0.8,13.77,17.3c0.09,1.86,2.59,0.29,0.75,0.59c-0.37,0.06-0.37-0.27-0.55-0.8
		c-1.79-5.26,0.08-9.28,4.67-11.72c3.26-1.74,6.33,0.3,9,2.21C347.77,688.68,347.01,692.85,338.71,695.9z"/>
	<path class="st111" d="M732.86,519.95c0.16-0.84,0.01-1.63-0.44-2.36c-2.03-7.1,0.76-8.39,5.85-4.06c4.71,4,9.44,7.84,15.1,10.43
		c-1.26-3.35-11.71-3.83-4.45-10.73c2.24-1.72,4.68-2.83,7.59-2.54c6.07,3.7,0.55,10.57,4.09,14.97
		c5.69,16.23,11.85,32.31,14.57,49.42c0.75,2.86,2.52,6.19-2.85,6.28C763.8,557.91,744.65,541.3,732.86,519.95z"/>
	<path class="st30" d="M338.71,695.9c-3.88-4.16,10.11-3.28,2.39-8.08c-2.83-1.76-5.55-6.93-9.24-4.14
		c-7.3,5.52-1.21,12.24-0.02,18.64c-4.61-5.78-10.21-9.97-7.28-19.38c2.39-7.69-7.33-3.29-10.47-6.31
		c-0.51-0.37-1.01-0.75-1.52-1.12c0.07-0.62,0.13-1.24,0.19-1.87c3.88-5.92,5.82-13.51,13.69-16.06c3.28,0.19,5.8,2,8.27,3.9
		c2.79,3.05,6.65,5.36,7.01,10.1c2.77,1,4.28,3.05,5.13,5.79c0.4,1.29-0.22,2.95,1.29,3.86c-0.28-1.92,0.38-3.49,1.8-4.78
		c5.7,11.89,8.1,23.63-1.67,35.02C341.75,708.24,346.4,698.21,338.71,695.9z"/>
	<path class="st97" d="M445.09,575.66c-2.3-3.47-8.97,10.46-9.32-2.5c-0.11-4.22-3.79-2.57-5.83-0.52
		c-3.31,3.31-6.45,2.49-9.71,0.09c1.01-3.55,2.02-7.1,3.03-10.64c5.42-16.94,10.91-20.14,24.96-14.53
		c3.35-2.75,8.47,0.69,11.47-3.28c3.35,4.98,6.7,9.96,10.05,14.93c-3.71,3.12-7.81,5.31-12.82,5.29c-2.02,0.13-4.05,0.26-6.07,0.38
		C446.2,567.02,445.81,571.43,445.09,575.66z"/>
	<path class="st66" d="M456.93,564.51c2.82-5.27,7.33-6.47,12.82-5.29c2.14,1.75,4.27,3.5,6.41,5.25
		c12.32,6.82,26.17,11.97,30.44,27.68c0.12,3.11-0.32,6.03-2.93,8.15c-6.42-7.77-11.15-17.26-22.99-22.04
		c2.43,6.52,4.4,11.81,6.37,17.1c-10.75-1.43-7.45-12.75-12.68-18.11c-1.82-1.87-1.6-6.36-4.78-6.05c-3.52,0.34-3.94,4.49-5.09,7.39
		c-6.94,5.17-4.55,12.93-5.49,19.77c-2.26,1.44-5.51,1.75-5.97,5.23c-0.76,0.32-1.56,0.47-2.39,0.47
		c-4.52-8.78-2.69-21.55,3.53-30.06C456.01,571.5,456.06,567.71,456.93,564.51z"/>
	<path class="st172" d="M542.86,586.94c12.34,1.8,19.88,12.31,30.7,16.88c2.24,2.9,6.5,4,7.3,8.19c-0.89,9.36,0.01,18.97-3.98,27.9
		c-8.23,4.41-12.49-1.03-16.66-6.71c-1.23-8.58-11.03-15.39-5.36-25.43c-2.93-0.86-6.21-1-8.14-3.94
		C543.93,598.55,538.69,593.81,542.86,586.94z"/>
	<path class="st199" d="M528.33,477.76c7.01,8.25,3.74,19.54,8.43,28.48c5.16,5.82-3.67,8.24-3.09,12.95
		c-0.15,1.21-0.46,2.38-0.88,3.52c-0.93,1.64-2.23,2.8-4.17,3.1c-14.28-10.94-26.05-23.55-28.12-42.56
		c3.22,1.85,19.77-2.27,22.81-5.42C524.68,476.4,526.63,476.51,528.33,477.76z"/>
	<path class="st33" d="M618.2,377.14c-0.78-0.83-1.57-1.66-2.35-2.49c4.82-9.49,12.35-17.14,22.84-17.05
		c9.57,0.08,19.15,4.29,18.91,17.18c-2.25,0.72-3.38-0.95-4.42-2.33c-2.48-3.3-4.82-8.1-9.65-5.25c-4.37,2.58-0.48,7.02,0.51,9.92
		c6.77,19.8-1.55,39.19-0.93,58.77c-5.77,0.51-6.22-4.95-8.9-7.91c-0.32-1.21-0.27-2.43,0.06-3.63c2.48-3.65,3.1-7.76,2.88-12.07
		c-0.01-3.86,0.1-7.7,0.98-11.48c4.09-9.97-2.09-18.87-2.41-26.33c1.1,3.73-0.77,8.42-4.77,12.5c-2.11,1.72-4.36,2.98-7.23,2.16
		C619.85,386.05,621.08,380.65,618.2,377.14z"/>
	<path class="st164" d="M334.72,661.48c-3.21,1.88-4.86-0.63-6.76-2.41c-9.46-0.55-9.77-9.3-13.5-14.99
		c-1.54-2.84-3.63-5.36-5.2-8.14c-4.18-7.43-8.27-5.06-12.57-0.29c-2.02,0.64-3.87,0.44-5.46-1.08c0.09-0.94,0.17-1.88,0.26-2.82
		c-0.54-3.09-0.22-6.1,0.75-9.07c1.44-12.03,3.34-24.07-2.33-35.64c1.21-3.56,0.71-8.53,6.68-8.22c6.03,5.56,9.03,12.62,9.56,20.64
		C307.74,623.81,323.78,641.46,334.72,661.48z"/>
	<path class="st151" d="M906.55,567.29c-7.12,0.83-16.65-1.96-14.17,11.63c0.54,2.96-3.85,8.58-9,2.72
		c-3.6-8.56-6.01-16.81,5.31-21.78c0.74-0.32,1.51-1.29,1.67-2.08c4.32-20.66,16.29-17.75,29.93-9.77c1.72,1.1,3.17,2.37,3.15,4.65
		c-2.52,1.52-4.29,3.68-8.24,2.35c-12.3-4.13-8.64,2.95-5.89,9.08C909.39,566.01,907.73,566.44,906.55,567.29z"/>
	<path class="st200" d="M503.99,589.6c-6.58-11.37-20.41-14.71-27.84-25.14c5.6,0.57,11.25-6.17,16.8,0.12
		c8.08,0.88,16.94-0.14,21.76,8.81c4.33,12.62,14.22,23.44,12.34,38.08c-4.94,3.27-6.61-0.69-7.6-4.03
		c-1.13-3.83-2.72-6.71-6.7-7.86C507.49,598.32,506.15,593.6,503.99,589.6z"/>
	<path class="st55" d="M579.62,611.84c-2.87-2.03-6.6-3.41-6.06-8.02c11.91,2.22,18.1,11.91,24.97,20.14
		c4.86,5.82,9.84,10.72,16.89,13.43c5.88,1.71-6.1,1.96-0.23,6.29c6.32,4.66,15.02,10.9,11.93,21.95c-0.52,2.4-1.04,4.81-1.66,7.7
		c-2.8-2.5-6.32-11.11-7.93,0.28c-0.41-0.14-0.94-0.16-1.19-0.44c-0.56-0.63-0.98-1.38-1.45-2.08c-8.26-5.78-7-16.54-12.49-23.76
		c-5.12-7.84-8.56-16.73-17.68-21.74C580.24,623.13,581.62,616.38,579.62,611.84z"/>
	<path class="st42" d="M627.1,665.63c-8.74-6.76-7.46-21.2-20.24-24.42c2.54-4.15,7.95,2.68,8.54-3.83
		c14.14,4.97,25.2,13.86,33.03,26.59c1.2,1.95,4.26,4.43,1.23,7.04c-1.23,1.06-4.97,1.53-5.09,1.24
		C641.06,663.72,629.1,677.55,627.1,665.63z"/>
	<path class="st44" d="M327.08,579.13c3.21-3.48,9.81-0.65,11.82-6.37c9.12,4.96,10.75,16.91,20.19,21.6
		c6.54,5.18,7.6,13.1,9.6,20.33c1.07,3.85,2.22,9.62-5.55,8.71c-3.7-1.51-5.2-4.86-7.05-8.05c-5.27-9.1-9.32-19.04-20.95-22.77
		C329.62,590.8,327.8,584.82,327.08,579.13z"/>
	<path class="st7" d="M775.27,456.06c-9.96,6.73-11.73,17.5-13.88,28.09c-1.44,0.52-1.69,1.71-2.02,3.05
		c-0.88,3.53,2.41,9.68-2.97,10.1c-5.38,0.42-8.3-4.76-8.37-10.35c-0.04-3.24-0.06-6.32-2.51-8.8c-4.89-7.67-0.32-15.29,0.6-22.77
		c0.67-5.41,5.34-5.46,9.7-3.07c2.2,0.37-0.19,11.85,6.47,2.24C767.52,447.02,768.4,447.63,775.27,456.06z"/>
	<path class="st54" d="M682.89,510.95c-2.75,3.91-5.5,7.81-8.25,11.72c-4.15-2.88-4.47-7.94-2.52-10.89c4.04-6.1-3-3.74-3.65-5.93
		c0.12-4.7,0.23-9.4,0.35-14.1c2.55-6.38,4.21-12.98,5.02-19.8c0.17-1.74,0.34-3.48,0.51-5.22c10.34-1.17,14.07,2.92,11.39,13.53
		c-1.14,4.52-3.41,8.55,2.11,11.56C688.89,498.89,690.01,505.98,682.89,510.95z"/>
	<path class="st201" d="M339.02,547.51c-7.31-1.91-6.36-7.91-6.6-13.32c1.81-15.71,15.77-19.01,26.32-25.79
		c0.83,0.06,1.65,0.19,2.46,0.37c1.67,6.76-1.45,14.69,6.41,20.4c-5.94,2.11-6.99-6.81-11.88-3.35c-5.7,3.78-0.71,10.73-4.45,15.09
		C349.2,546.81,345.71,550.12,339.02,547.51z"/>
	<path class="st187" d="M315.56,642.8c6.82,3.38,4.55,13.68,12.41,16.27c-7.2,2.41-5.21,13.86-14.24,14.47
		c-0.8-0.6-1.56-1.45-1.32-2.26c4.11-13.93-3.24-18.88-15.55-20.01c-0.52-4.69-2.85-7.64-7.79-8.06c0.6,1.76,1.4-0.38,0.68,1.29
		c-0.27,0.63-0.07,1.11-1.25,0.19c-1.79-1.4-1.13-3.06-0.23-4.67c-0.06-1.83-0.12-3.67-0.19-5.5c1.05,0.01,2.1,0.02,3.15,0.04
		c1.67-0.02,3.34-0.03,5-0.05C306.59,628.16,311.02,635.6,315.56,642.8z"/>
	<path class="st125" d="M339.02,547.51c3.17-2.76,8.69-0.56,10.97-5.19c0.94-1.37,1.88-1.3,2.8,0.01
		c-6.58,8.54-0.45,16.31,2.03,23.93c2.52,7.77,5.28,15.4,6.38,23.52c-0.83,3.48-1.02,7.66-6.56,6.02
		c-6.62-6.75-12.21-14.2-15.76-23.04c-0.29-3.55-1.42-7.17,1.03-10.88c6.92,5.81,6.17,15.92,13.17,21.58
		C351.51,570.26,349.35,557.35,339.02,547.51z"/>
	<path class="st55" d="M354.66,595.8c2.19-2.01,4.37-4.01,6.56-6.02c8.58,8.59,9.22,21.1,15.07,31.29
		c5.05,8.79,12.98,16.45,14.79,27.5c-8.84-9.08-20.73-14.45-27.95-25.18C368.61,614.88,364.96,602.99,354.66,595.8z"/>
	<path class="st172" d="M634.81,603.77c5.62,7.5,11.23,15,16.85,22.5c-0.94,1.02-1.84,1.04-2.7-0.09
		c-8.27,8.47,3.06,15.98,1.6,25.99c-13.68-14.75-21.97-29.49-17.91-48.84C633.57,602.47,634.3,602.57,634.81,603.77z"/>
	<path class="st38" d="M512.06,598.49c6.03-1.95,8.27,1.75,8.94,6.59c0.48,3.5,1.9,5.8,4.96,7.27c4.42-0.45,8.18,1.88,12.26,2.92
		c1.18,0.41,2.28,0.96,3.35,1.6c6.05,6.1,16.36,6.8,20.14,15.79c3.69,4.42,7.19,9.38,14.1,5.41c1.13,0.53,2.15,1.21,3.07,2.06
		c2.23,3.47,6.61,6.37,3.09,11.4c-19.16-11.19-38.04-22.9-57.62-33.3c-7.7-4.09-4.8-14.1-12.31-17.36
		C511.13,600.07,511.14,599.28,512.06,598.49z"/>
	<path class="st183" d="M528.33,477.76c-4.47-0.05-5.62,2.7-4.93,6.4c1.67,8.89-4.48,12.58-10.92,14.14
		c-7.55,1.82-4.76-6.88-7.78-10.08c-1.44-1.53-1.59-4.28-4.21-4.97c-0.79-1.56-1.58-3.12-2.37-4.68
		c10.46-6.26,10.53,5.29,16.37,9.75c-1.36-6.7,1.47-11.37,4.82-15.74c1.83-2.39,4.81-3.49,7.39-2.15
		C529.49,471.89,529.15,475,528.33,477.76z"/>
	<path class="st64" d="M745.92,479.23c3.11-1.62,7.53-4.83,6.08,2.53c-1.13,5.77-1.8,10.57,5.23,13.58
		c3.39-2.27-3.06-9.87,4.17-11.18c-0.27,13.83-0.53,27.67-0.8,41.5c-5.98-2.75,1.21-10.86-5.43-13.34
		c-5.09-9.28-17.55-13.02-18.93-25.12C737.38,482.01,740.12,478.76,745.92,479.23z"/>
	<path class="st165" d="M676.72,561.82c4.01-0.35,3.03-7,9-6.22c-4.01,12.64,2.09,16.33,13.56,14.69c0.84,1.87,1.68,3.73,2.53,5.6
		c0.08,5.9,1.01,11.92-2.24,17.39c-5.26,4.6-7.36,1.44-8.72-3.55c-5.62-2.78-6.19-10.57-13.8-12.52
		C674.23,576.48,670.43,567.26,676.72,561.82z"/>
	<path class="st23" d="M813.91,505.97c0.3,5.54,4.4,10.53,2.38,16.41c-6.73-8.68-9.24-18.53-8.17-29.38c0.6-6.11-0.82-11.88-3-17.52
		c-0.64-2.93,0.67-3.86,3.41-3.32c9.91,5.46,23.23,3.06,31,13.46c0.82,1.95,1.29,3.92,0.41,5.99c-3.36,2.65-6.35,0.71-9.38-0.74
		c-0.77-0.48-1.47-1.08-2.26-1.55c-3.39-1.99-6.86-6.46-10.74-3.54c-3.03,2.28-0.2,6.86,0.16,10.42
		C817.82,499.99,814.65,502.51,813.91,505.97z"/>
	<path class="st202" d="M296.6,578.81c-4.27,1.05-1.4,7.26-5.89,8.15c-2.92,1.01-4.83-0.55-6.59-2.55c-1.18-2.75-3.93-5.4-0.62-8.49
		c-0.91-12.25,5.79-24.21,1.41-36.62c-0.04-0.12,1.42-1.15,2.01-1.02c0.66,0.15,1.13,1.15,1.68,1.77c7.09,2.99,6.87,9.17,6.4,15.24
		c-0.39,5.09-1,10.11,1.64,14.82C296.62,573.01,296.61,575.91,296.6,578.81z"/>
	<path class="st8" d="M288.28,640.02c0.27,1.07,0.53,2.13,0.8,3.19c2.82,7.16,5.65,14.33,8.74,22.18
		c-8.49-2.16-21.88,5.52-17.91-14.2c-5.21,4.84-0.41,10.47-5.69,13.26c-4.04-6.25-4.19-12.25,0.1-18.43l0.4-0.39
		C282.32,651.19,283,640.06,288.28,640.02z"/>
	<path class="st20" d="M775.27,456.06c-3.52-2.79-6.66-8.91-11.2-0.86c-1.1,1.95,2.98,6.94-3.75,5.88c-6.67-1.05-4.66-5.18-4.2-9.03
		c-2.95-3.38-1.63-7.36-1.6-11.17c0.58-6.11,0.82-12.49,9.29-12.93c7.88-0.21,5.53,6.66,7.35,10.66c3.71,2.83,0.12,9.57,6.01,11.23
		C777.5,452.22,777.09,454.36,775.27,456.06z"/>
	<path class="st38" d="M839.1,491.18c0.14-1.85,0.29-3.7,0.43-5.56c15.32,7.39,23.12,22.5,36.04,34.59
		c-12.97-0.48-16.79-10.02-22.47-17.25c-0.71-0.91-2.02-1.35-3.05-2c0.2,1.61,0.4,3.22,0.6,4.83c-0.83,1.77,0.28,5.75-2.8,4.88
		c-6.2-1.75-10.03-6-8.69-13.18C837.26,495.41,837.31,493.3,839.1,491.18z"/>
	<path class="st15" d="M648.95,626.18c0.9,0.09,1.8,0.12,2.7,0.09c5.63-2.84,2.05-7.57,2.36-11.5c6.6-1.04,6.94,4.86,9.39,8.4
		c4.35,3.87,2.14-4.8,5.45-2.9c3.15-1.21,7.65-2.4,8.1,1.6c0.53,4.72-3.58,8.18-8.03,10.28c-8.64,5.22-9.36,14.33-11.67,23.79
		C659.73,643.91,653.49,635.3,648.95,626.18z"/>
	<path class="st87" d="M687.85,491.81c-9.2,2.39-12.36,0.29-6.67-8.75c5.4-8.58,3.95-14.44-6.83-16.33
		c1.63-6.61-5.48-18.64,10.24-16.48c3.4,4.4,0.64,9.17,0.85,13.77c1.76,3.75,3.53,7.51,5.29,11.26
		C689.77,480.79,688.81,486.3,687.85,491.81z"/>
	<path class="st22" d="M702.01,640.04c0.08-10.8,14.91-15.63,11.29-27.92c1.94-1.6,3.89-1.58,5.84,0l-0.15-0.15
		c2.7,7.39,11.38,13.35,5.47,22.81l0.24-0.22c-1.55,1.4-2.54,3.87-5.42,2.76c-0.47-0.18-2.45-5.47-1.6,0.42
		c0.38,2.65-0.14,5.45-3.71,6.02C712.61,634.05,704.23,647,702.01,640.04z"/>
	<path class="st203" d="M554.41,541.7c14.48,6.87,20.1,20.84,27.03,33.76c-10.14-5.99-19.46-12.97-26.96-22.17
		C555.95,549.42,549.07,545.6,554.41,541.7z"/>
	<path class="st42" d="M173.68,500.58c4.79,0.33,9.95-1.31,14.07,2.63c-6.67,14.48-0.81,29.81-3.3,48.01
		c-7.8-14.33-8.53-26.9-7.91-39.78c0.43-0.12,0.88-0.39,1.28-0.34c2.16,0.27,2.75,1.79,2.79,3.7c-0.05-2.64-0.23-5.12-3.96-3.16
		C172.27,508.87,173.97,504.46,173.68,500.58z"/>
	<path class="st30" d="M296.86,651.27c20.85-3.31,22.42-1.24,16.86,22.27c0,0-0.18,0.18-0.18,0.18c-1.09,1.51-2.07,1.43-2.94-0.21
		c0.43-3.67,0.42-9.28-3.11-9.19C297.29,664.57,299.46,656.28,296.86,651.27z"/>
	<path class="st38" d="M719.14,612.12c-1.95,0-3.89,0-5.84,0c0.81-7.24-8.53-10.83-6.23-19.59c0.93-3.53-4.79,0.47-7.5,0.74
		c-0.07-5.9-3.77-12.27,2.24-17.39C711.04,586.31,718.08,597.79,719.14,612.12z"/>
	<path class="st60" d="M844.36,575.39c-4.32-10.22-0.49-28.64,9.68-29.59c15.24-1.42,8.03-8.63,7.74-14.87
		c9.65,5.97,11.25,9.74,0.33,18.25C854.54,555.08,842.29,561.44,844.36,575.39z"/>
	<path class="st19" d="M817.54,582.83c3.43-25.33-18.27-45.75-13.17-71.4C804.57,536.04,825.41,556.63,817.54,582.83z"/>
	<path class="st92" d="M668.92,632.16c0.06-4.75,5.3-6.17,6.62-10.23c-3.26-2.67-4.62,2.27-7.26,1.76
		c-3.26-5.79,0.65-8.97,4.43-12.19c5.19-2.14,11.26-1.25,16.1-4.65c1.72-0.28,4.52-6.08,4.83,0.28c0.24,4.78-5.91,6.65-7.92,10.29
		c-2.15,3.89-10.55,5.35-5.79,12.4C677.29,635.43,673.28,634.64,668.92,632.16z"/>
	<path class="st204" d="M828.51,614.76c5.67-0.65,9.03-5.12,13.32-8.05c0.86-1.32,1.79-1.37,2.79-0.16
		c1.51,6.63-2.81,13.21-0.2,19.85c-4.3,1.68-4.89,6.28-7.39,9.4c-2.59,2.37-5.26,4.23-8.73,1.57c-0.16-1.83-0.32-3.65-0.48-5.48
		C832.03,626.34,825.85,620.37,828.51,614.76z"/>
	<path class="st205" d="M581.95,651.53c1.37-5.48-8.45-5.39-5.75-11.54c9.61-2.24,16.94,3.64,24.99,7
		c4.14,12.03,4.14,12.03-10.65,12.59C585.08,659.67,582.31,656.89,581.95,651.53z"/>
	<path class="st171" d="M554.41,541.7c-2.01,3.87,4.26,7.7,0.07,11.59c-10.28-7.6-19.05-16.63-25.87-27.48
		c0.15-1.97,1.25-3.09,3.12-3.53c10.76,1.47,13.98,12.56,22.14,17.34C554.21,540.27,554.39,540.97,554.41,541.7z"/>
	<path class="st205" d="M151.38,500.68c3.67-0.21,7.34-0.43,11.01-0.64c5.51,16.89,11.02,33.78,16.53,50.68
		c-0.83,1.47-1.73,1.44-2.69,0.13c-8.04-10.73-8.58-24.21-12.94-36.29C160.89,507.94,157.85,503.18,151.38,500.68z"/>
	<path class="st171" d="M512.06,572.98c-5.11-5.65-13.15-4.65-19.11-8.39c0.38-4.92-5.14-6.2-7.04-12.37
		c17.5,10.18,33.53,19.52,49.57,28.85c-0.79,1.15-1.83,1.97-3.16,2.42C523.43,584.12,516.32,581.3,512.06,572.98z"/>
	<path class="st148" d="M828.3,637.37c2.58-0.93,5.15-1.86,7.73-2.79c2.85,0.87,6.26,0.24,8.39,3.08
		c-0.96,6.47-4.11,11.86-8.14,16.89C824.24,641.06,824.08,640.7,828.3,637.37z"/>
	<path class="st25" d="M751.14,591.86c-7.75-6.12,4.48-13.01-3.02-19.07c-4.69-3.79-12.73-7.29-9.1-16.48
		C757.42,571.6,758.67,575.15,751.14,591.86z"/>
	<path class="st11" d="M772.32,581.36c0.95-2.09,1.9-4.19,2.85-6.28c1.09,17.04,15.79,26.92,21.91,41.42
		C788.56,604.88,773.95,597.67,772.32,581.36z"/>
	<path class="st206" d="M385.37,509.29c1.17-0.93,2.34-1.87,3.51-2.8c4.17-3.19,9.88-0.57,14.04-3.77
		c14.8-3.48,14.8-3.48,19.67,6.18c-5.01,1.24-10.97,0.19-14.18,5.81C400.01,515.97,393.25,510.27,385.37,509.29z"/>
	<path class="st118" d="M436.81,615.4c8.14,0.4,4.16-13.95,13.98-11.5c-3.2,9.14-3.16,19.31-8.74,27.7
		C437.76,627.02,437.87,621.02,436.81,615.4z"/>
	<path class="st171" d="M495.84,645.55c-5.66,1.94-5.06-2.89-5.89-5.72c-2.82-9.64,2.52-19,1.22-28.62
		c1.18,0.53,2.37,1.06,3.55,1.59C498.64,623.59,492.33,634.74,495.84,645.55z"/>
	<path class="st61" d="M824.52,567.71c0.28-2.63,0.56-5.26,0.84-7.88c3.06,11.05,6.52,22.06-0.26,32.86
		C819.86,584.48,821.44,576.11,824.52,567.71z"/>
	<path class="st117" d="M860.76,569.48c1.47,16.57,7.84,27.48,17.69,36.64C864.18,600.29,855.14,583.58,860.76,569.48z"/>
	<path class="st143" d="M517.88,539.41c-20.14,5.53-22.82-10.75-29.2-22.41C498.58,524.27,501.75,539.94,517.88,539.41z"/>
	<path class="st207" d="M542.86,586.94c1.83,5.63,3.66,11.26,5.49,16.89c-0.54,0.46-1.09,0.91-1.63,1.37
		c-4.79,1.62-8.28-0.23-11.01-4.12c-1.74-5.91-4.34-11.77-1.32-18.04c-0.36-1.06,0-1.72,1.1-1.98
		C537.31,583.82,541.89,583.12,542.86,586.94z"/>
	<path class="st205" d="M604.29,645.68c10.17,5.7,4.37,18.06,10.59,25.41c-5.26-0.09-9.93-1.53-13.37-5.8
		c2.81-5.25,1.32-10.88,1.4-16.36C602.81,647.61,603.27,646.52,604.29,645.68z"/>
	<path class="st1" d="M296.63,570.11c-5.16-2.57-4.48-7.16-3.49-11.41c1.66-7.1-0.57-13.03-4.55-18.64
		c2.78-1.17,2.05-3.93,2.73-6.05c9.91,4.11,4.75,12.77,5.57,19.44C297.57,558.9,296.77,564.55,296.63,570.11z"/>
	<path class="st9" d="M914.75,604.39c1.15-3.59,2.3-7.19,3.46-10.79c7.56-0.03,8.06,6.65,9.36,11.26c0.96,3.41-3.68,3.28-6.36,4.57
		C914.26,612.77,918.54,603.71,914.75,604.39z"/>
	<path class="st111" d="M763.03,586.75c4.17,9.74,8.34,19.47,12.51,29.21C762.7,602.2,761.2,598.82,763.03,586.75z"/>
	<path class="st27" d="M532.85,637.42c-12.28-2.88-19.22-10.41-20.33-26.16c8.1,10.94,12.38,22.68,24.52,26.18
		C535.64,638.29,534.24,638.29,532.85,637.42z"/>
	<path class="st65" d="M606.4,598.45c0.45-9.23,0.9-18.45,1.35-27.68c-0.26,13.87,5.74,27.09,4.38,40.96
		C608.73,607.95,606.8,603.53,606.4,598.45z"/>
	<path class="st44" d="M400.43,677.8c-1.73-2.67-3.96-5.15-5.05-8.06c-1.05-2.83-5.41-5.85-0.96-8.85c0.47-0.32,4.29-5.52,5.83-0.61
		c0.98,3.11,9.82,5.87,1.28,10.45c-0.51,0.27,0.81,3.94,1.28,6.03C402.01,677.11,401.22,677.45,400.43,677.8z"/>
	<path class="st206" d="M425.86,671.31c3.71-5.9,2.95-14.28,10.2-18.27c1.13-0.62,1.26-4.11,3.28-1.48
		c0.83,1.08-0.03,3.46-0.12,5.25c-7.88,6.01-7.58,15.28-9.61,24.29C428.25,677.54,427.05,674.42,425.86,671.31z"/>
	<path class="st199" d="M785.97,427.72c1.01-0.01,2.02-0.02,3.03-0.03c10.61,6.39,2.76,16.89,5.58,25.02
		c-0.46,2.03-1.58,3.39-3.75,3.67C785.41,447.48,793.03,436.36,785.97,427.72z"/>
	<path class="st51" d="M713.97,643.75c2.49-4.33,1.56-12.65,10.73-9.2c-0.7,4.45,4.98,9.23-0.34,13.29
		c-2.95,2.24-4.98-10.34-9.19-0.97c-0.01,0.02-1.02-0.23-1.06-0.43C713.96,645.56,714,644.65,713.97,643.75z"/>
	<path class="st176" d="M352.8,542.33c-0.93,0-1.87-0.01-2.8-0.01c0.06-5.41-0.5-10.93,0.37-16.2c0.72-4.37,3.39-2.89,5.38-0.31
		C354.7,531.3,363.75,538.6,352.8,542.33z"/>
	<path class="st208" d="M176.22,550.85c0.9-0.08,1.8-0.12,2.7-0.13c5.59,7.61,11.55,15.06,11.63,29.2
		C184.67,567.99,180.44,559.42,176.22,550.85z"/>
	<path class="st45" d="M844.42,637.66c-2.89-0.77-8.37,5.52-8.39-3.08c1.09-4.47-2.83-14.01,8.37-8.2
		C844.42,630.15,844.42,633.91,844.42,637.66z"/>
	<path class="st79" d="M724.46,634.77c2.19-8.56-5.9-14.66-5.47-22.81c7.57,4.41,9.76,12.03,11.38,19.76
		C731.83,638.71,727.42,635.64,724.46,634.77z"/>
	<path class="st60" d="M844.62,606.55c-0.93,0.05-1.86,0.11-2.79,0.16c-0.55-8.6-1.27-17.19-1.54-25.79
		c-0.07-2.17,2.22-2.37,4.13-1.93C844.49,588.17,844.55,597.36,844.62,606.55z"/>
	<path class="st111" d="M828.51,614.76c7.65,6.02,2.88,11.55-0.69,17.12c-0.97-2.8-1.93-5.6-2.9-8.41
		c-0.12-3.24-1.19-6.84-0.15-9.65C826.54,609.09,827.43,613.48,828.51,614.76z"/>
	<path class="st32" d="M274.32,646.02c-6.82-2.77-7.81-9.38-9.78-15.42c11.53-0.66,10.83,7.2,10.18,15.03
		C274.73,645.63,274.32,646.02,274.32,646.02z"/>
	<path class="st27" d="M512.06,598.49c0.1,0.8,0.09,1.59-0.03,2.39c-0.06,2.19,0.05,6.28-0.21,6.3c-4.84,0.45-5.68-4.2-8.15-6.88
		c0.11-3.56,0.22-7.13,0.33-10.69C507.12,592.16,510.56,594.45,512.06,598.49z"/>
	<path class="st149" d="M604.12,648.67c-0.82,5.55,4.83,12.12-2.62,16.62c-2.77-3.59-6.96-4.48-10.96-5.71
		c1.62-1.28,3.76-3.98,4.78-3.61c9.87,3.59,5.17-4.08,5.99-7.43C602.29,647.6,603.23,647.64,604.12,648.67z"/>
	<path class="st38" d="M634.81,603.77c-0.67-0.4-1.39-0.55-2.16-0.44c-0.17-0.67-0.38-1.33-0.64-1.97
		c-1.11-1.84-4.12-1.03-4.81-3.45c-1.33-3.62-2.67-7.24-4-10.87C631.86,589.29,636.48,594.34,634.81,603.77z"/>
	<path class="st34" d="M618.61,584.28c0.66,0.3,1.34,0.42,2.06,0.36c0.11,0.84,0.34,1.64,0.71,2.4c0,9.54,0,19.09,0,28.63
		c-0.92,0.02-1.84,0.04-2.77,0.06C618.61,605.25,618.61,594.76,618.61,584.28z"/>
	<path class="st145" d="M532.85,637.42c1.4,0.01,2.79,0.01,4.19,0.02c6.2,3.53,13.49,5.71,16.78,14.47
		C544.64,649.3,538.44,643.84,532.85,637.42z"/>
	<path class="st35" d="M923.43,552.65c-1.05-1.55-2.1-3.1-3.15-4.65c8.72,0.71,16.19,3.33,20.82,13.59
		C934.14,558.07,928.78,555.36,923.43,552.65z"/>
	<path class="st84" d="M500.28,685.14c0.19-1.09,0.37-2.19,0.56-3.28c6.6,4.73,8.04,11.32,7.61,20.19
		C500.8,697.63,502.53,690.44,500.28,685.14z"/>
	<path class="st57" d="M342.72,644.2c2.37,7.63,10.38,11.98,14.05,23.25C348.16,659.19,341.47,654.22,342.72,644.2z"/>
	<path class="st53" d="M808.53,472.17c-1.14,1.11-2.28,2.21-3.41,3.32c-4.33-4.57-5.14-10.38-5.7-16.27c0.01-2.2,2.02-2.52,3.3-3.52
		C804.66,461.19,806.6,466.68,808.53,472.17z"/>
	<path class="st24" d="M310.61,673.51c0.98,0.07,1.96,0.14,2.94,0.21c0.18,0.97,0.37,1.93,0.55,2.9
		c-4.63,5.48-6.98,13.59-16.09,13.89C302.21,684.84,306.41,679.18,310.61,673.51z"/>
	<path class="st77" d="M323.66,605.83c7.23,1.84,11.87,6.16,15.87,14.01C333.17,614.23,328.41,610.03,323.66,605.83z"/>
	<path class="st112" d="M802.73,455.7c-1.1,1.17-2.2,2.34-3.3,3.52c-2.83,0.45-1.23,5.76-4.69,4.81c-3.49-0.96-3.32-4.7-3.91-7.64
		c1.25-1.23,2.5-2.45,3.75-3.67C797.29,453.71,800.01,454.71,802.73,455.7z"/>
	<path class="st208" d="M286.56,703.74c0.63,7.94-2.36,13.59-12.13,18.67C279.62,714.43,283.09,709.09,286.56,703.74z"/>
	<path class="st84" d="M501.06,682.18c-9.63-4.4-3.29-12.25-4.02-18.58c1.11,0.71,2.23,1.42,3.34,2.12
		C503.4,671.09,499.67,676.74,501.06,682.18z"/>
	<path class="st37" d="M349.96,676.46c0,3.15,0,6.31,0,13.06c-3.67-8-5.95-12.97-8.22-17.94
		C347.42,668.24,347.54,674.28,349.96,676.46z"/>
	<path class="st60" d="M861.78,530.98c-8.92-1.65-9.09-9.95-12.13-16.05c-0.05-0.11,0.57-0.79,0.89-0.81
		c0.84-0.04,1.7,0.14,2.55,0.23C855.12,520.34,862.4,523.6,861.78,530.98z"/>
	<path class="st139" d="M627.2,597.91c2.2,0.32,4.55,0.43,4.81,3.45c-5.16,5.67-0.24,13.2-4.81,21.54
		C627.2,613.07,627.2,605.49,627.2,597.91z"/>
	<path class="st173" d="M906.55,567.29c-0.29-2.1,1.27-2.62,2.75-3.21c1.79,1.11,3.59,2.23,5.38,3.34c0,5.34,0,10.67,0,17.49
		C908.42,579.17,915.24,569.95,906.55,567.29z"/>
	<path class="st209" d="M551.31,470.16c-0.1-2.3-0.17-4.59-0.29-6.89c-0.41-7.27-7.54-14.45-2.41-21.5
		c8.15-11.21,19.26-17.41,33.87-14.22c7.26,5.3,7.09,14.64,11.67,21.4c0.45,1.2,0.7,2.44,0.84,3.71c0.13,8.24,5.66,15.41,4.81,23.86
		c-0.92,12.47,0.58,24.51,4.28,36.57c2.11,6.89,6.24,14.86-1.22,21.61c-11.83-4.21-18.45-14.45-26.59-22.97
		c-1.57-7.84-15.27-10.05-9.8-21.13c-8.14,0.11-5.01-5.75-5.22-9.83c-1.6,2.93,2.31,8.93-4.88,8.76c-3.22-5.45-3.42-11.78-5.2-17.65
		C551.11,471.29,551.16,470.72,551.31,470.16z"/>
	<path class="st74" d="M620.52,495.36c-6.5-2.67-7.24-9.59-10.72-14.49c-3.13-3.43,8.34-3.58,1.48-9.4
		c-5.48-4.65-4.54-10.87,5.55-10.84c3.15,0.01,7.32-1.28,9.08-5.91c-5.92,5.2-11.55,8.58-17.48,0.89
		c-2.18-6.15,1.02-10.19,5.38-13.79c6.93,2.25,7.6-4.51,10.83-7.58c1.39-1.41,3.04-2.31,5.04-2.43c4.66,3.29,12.35,3.97,10.88,12.57
		c-8.11,8.5-8.64,20.29-7.01,29.69c3.16,18.2,3.83,37.39,13.5,54.08c0.14,2.7-1.04,3.85-3.75,3.19
		c-5.76-10.25-8.1-22.32-16.47-31.19C626.43,496.32,625.84,492.73,620.52,495.36z"/>
	<path class="st140" d="M601.94,533.57c5.38-12.32-4.25-22.56-5.06-34.21c-0.6-8.69-1.25-17.14-0.08-25.74
		c1.16-0.26,2.31-0.18,3.42,0.23c0.43,0.4,0.86,0.79,1.29,1.19c-0.01,1.8-0.03,3.6-0.04,5.4c6.12,8.46,2.77,20.9,11.85,28.11
		c2.2,0.17,3.88,1.13,4.85,3.17c3.61,10.27,6.38,20.8,9.59,31.2c0.17,1.99,0.65,4.07-1.71,5.24c-12,5.06-15.7-8.03-24.02-11
		C600.27,536.01,600.24,534.81,601.94,533.57z"/>
	<path class="st206" d="M738.48,486.36c1.13,2.89,2.1,8.2,3.41,8.28c11.77,0.75,10,11.03,13.28,17.69
		c-1.63,0.72-3.26,1.44-4.89,2.15c-4.04-7.09-8.46-12.17-16.53-4.23c-1.36,1.34-3.83,2.36-6.18,1.13c-2.84-6.16-10.12-9-11.88-15.95
		c0.23-0.56,0.45-1.12,0.66-1.68c1.77-10.83,3.74-21.64,3.6-32.7c0.01-0.95-0.04-1.91,0.19-2.79c1.33-4.98-0.45-13.46,6.55-13.07
		c4.98,0.28,3.95,8.35,4.3,13.33c0.09,1.35,0.08,2.72,0.06,4.07C731.77,471.05,735.12,478.7,738.48,486.36z"/>
	<path class="st92" d="M662.97,626.07c-2.98-3.76-5.96-7.53-8.94-11.29c-3.38-2.48-2.51-5.77-1.74-9.04
		c0.82-16.11,4.69-31.79,6.64-47.74c5.57-7.31,3.08-18.84,12.62-24.07c1.56,0.18,5.9-4.65,3.83,2.07
		c-2.64,8.59-10.26,15.81-7.12,25.99c5.54,3.51,4.47,7.67,2.38,13.04c-3.11,8-4.06,15.88-1.67,25.17
		C671.05,608.31,667.74,618.04,662.97,626.07z"/>
	<path class="st21" d="M610.42,455.57c8.34,3.95,13.32,0.69,15.61-8.94c4.16,14.67,2.5,16.32-15.37,16.47
		c0.17,4.15,1.53,7.89,5.18,9.6c2.71,1.27,6.63,0.5,4.85,5.44c-2.38,6.6-5.27,0.98-8.05,0.48c-0.79-0.14-1.88,1.45-2.83,2.25
		c-3.2-1.32-3.24-7.14-8.29-5.84c0,0,0.16,0.21,0.16,0.21c-3.12-3.06-3.02-6.82-2.34-10.72
		C601.63,459.82,603.09,454.06,610.42,455.57z"/>
	<path class="st64" d="M727.56,511.37c2.03-1.08,5.27-1.71,5.88-3.33c2.35-6.25,5.75-8.53,12.38-6.15
		c7.02,2.52,2.82,8.47,4.45,12.59c-0.88,7.27,9.03,9.44,7.4,18.63c-7.34-6.05-14.52-11.39-20.99-17.5c-4.34-4.1-3.74-0.55-4.27,1.99
		C730.8,515.52,729.18,513.44,727.56,511.37z"/>
	<path class="st41" d="M557.05,489.05c5.75-3.33,0.69-9.56,4.29-14.62c0.52,5.49,0.95,10.09,1.38,14.72
		c4.34,0.16,0.85-4.9,4.85-5.62c-3.36,12.39,7.19,18.82,11.54,28.02c1.29,3.13-0.28,4.8-2.99,5.89
		c-6.92-8.04-16.89-13.26-21.58-23.35C555.22,492.32,554.67,489.95,557.05,489.05z"/>
	<path class="st123" d="M671.55,533.93c-3.59,7.94-7.19,15.87-10.78,23.81c-1.64-1.47-1.97-3.19-1-5.16
		c3.27-15.51,7.51-30.84,8.7-46.74c2.48,1.06,10.48-5.57,6.38,4.9c-1.36,3.47-0.21,7.92-0.21,11.92
		C678.37,527.73,663.09,527.58,671.55,533.93z"/>
	<path class="st78" d="M553.88,539.61c-12.31,0.51-14.64-11.71-22.14-17.34c-0.06-0.7-0.08-1.41-0.07-2.12
		c1.33-7.12,4.12-10.37,10.53-3.95c2.15,2.15,3.1,5.64,6.79,6.08c1.67,5.65,5.67,9.07,10.9,11.29c-0.07,1.76-1.6,2.08-2.74,2.79
		C556.05,537.45,554.96,538.53,553.88,539.61z"/>
	<path class="st145" d="M659.77,552.58c0.33,1.72,0.66,3.44,1,5.16c-1.94,16.15-3.41,32.39-8.48,47.99
		C650.06,587.35,652.68,569.65,659.77,552.58z"/>
	<path class="st164" d="M626.05,548.15c0.11-1.67,0.22-3.33,0.33-5c-1.23-2.51-1.55-4.94,0.62-7.16
		c4.19,11.58,7.98,23.23,6.75,36.86C625.91,565.28,623.04,557.56,626.05,548.15z"/>
	<path class="st206" d="M557.14,536.37c0.91-0.93,1.83-1.86,2.74-2.79c12.2,4.14,21.75,12.52,31.89,19.97
		C576.87,554.58,569.33,540.78,557.14,536.37z"/>
	<path class="st64" d="M576.13,517.43c1-1.96,1.99-3.93,2.99-5.89c7.61,7.34,15.21,14.69,22.82,22.03c0.03,1.19,0.06,2.39,0.09,3.59
		C591.96,532.47,583.17,526.1,576.13,517.43z"/>
	<path class="st171" d="M548.98,522.29c-5.1,8.59-6.14,0.33-7.36-2.17c-3.65-7.49-6.67-5.08-9.96,0.04
		c-8.59-8.41,7.41-7.81,5.1-13.92c1.91-0.1,3.82-0.2,5.74-0.31C542.75,512.14,547.03,516.75,548.98,522.29z"/>
	<path class="st23" d="M715.68,495.42c-4.75-4.62-6.88-10.57-8.57-16.75c-1.02-4.56,1.64-6.48,5.42-7.61
		c12.71,6.24,4.09,15.58,3.43,23.77L715.68,495.42z"/>
	<path class="st210" d="M557.05,489.05c-0.83,1.68-1.67,3.35-2.5,5.03c-3.65-7.02-7.42-14.02-3.4-22.21
		C557.41,476.12,556.98,482.67,557.05,489.05z"/>
	<path class="st211" d="M640.57,444.38c-3.7-3.69-7.4-7.38-11.11-11.07c-1.27-4.32,0.97-5.6,4.79-5.5c6.89-1.64,6.21,5.04,8.86,8.07
		C643.82,439.18,644.24,442.4,640.57,444.38z"/>
	<path class="st212" d="M713.43,472.22c-3.32,0.97-5.07,3.46-6.33,6.45c-3-2.41-3.25-6.05-4.22-9.38c2.37-3.66,4.74-7.33,7.1-10.99
		c2.04,0.04,3.61,1.01,4.93,2.48C719,465.18,713.58,468.36,713.43,472.22z"/>
	<path class="st105" d="M613.32,508.55c-0.97,2.9-3.28,3.89-4.4,0.91c-3.51-9.37-8.24-18.52-7.45-29.02
		C610.97,487.47,607.17,500.11,613.32,508.55z"/>
	<path class="st193" d="M643.3,531.35c2.83,0.79,3.22-1.28,3.75-3.19c4.14,5.74,5.36,11.85,2.79,19.84
		C644.12,542.81,642.65,537.5,643.3,531.35z"/>
	<path class="st111" d="M627.01,535.99c-0.21,2.39-0.41,4.77-0.62,7.16c-4.28-8.99-4.05-19.68-10.73-27.84
		c-1.26-1.53,0.3-3.33,2.52-3.6C625.13,518.35,625.27,527.46,627.01,535.99z"/>
	<path class="st100" d="M685.45,464.01c-3.45-4.39-4.81-8.92-0.85-13.77C694.2,454.26,694.67,458.83,685.45,464.01z"/>
	<path class="st87" d="M615.69,564.7c-4.5,2.28-7.74-9.35-13.73-1.05c-0.96,1.33-0.06-5.05-1.19-7.61
		C607.41,553.1,607.41,553.1,615.69,564.7z"/>
	<path class="st154" d="M620.52,495.36c1.64-3.66,3.21-9.77,7.95-6.89c4.75,2.89-0.19,7.79-1.65,11.68
		C624.73,498.56,622.62,496.96,620.52,495.36z"/>
	<path class="st126" d="M673.84,471.95c2.47,7.65,0.75,14.24-5.02,19.8C667.06,484.27,669.86,477.96,673.84,471.95z"/>
	<path class="st4" d="M610.42,455.57c-5.31,0.38-5.6,6.54-9.65,8.37c-6.98-0.07-6.59-6.4-8.88-10.46c0.43-0.82,0.85-1.65,1.28-2.47
		c-1.2-2.32-2.31-4.67-1.98-7.4c2.52-4.16,2.89-9.05,4.44-13.54c-3.48-14.35,3.37-25.17,12.1-35.35c5.3,6.16,7.32,18.95,2.38,20.61
		c-9.03,3.03-5.96,4.58-1.16,8.68c5.22,4.46,6.31,11.01,6.39,17.64C616.03,447.13,607.52,449.33,610.42,455.57z"/>
	<path class="st209" d="M403.57,475.09c-2.37-3.3-4.73-6.6-7.76-10.82c18.54-4.86,31.69,6.92,46.39,12.86
		c1.9,1.17,3.79,2.33,5.69,3.5c-0.83,12.81-2.76,23.02-18.34,10.25c-2.8-2.3-8,0.55-12.07-0.47c-5.55-2.46-7.53-8.49-12.01-12.03
		C404.6,477.4,403.97,476.31,403.57,475.09z"/>
	<path class="st12" d="M417.56,488.86c13.97-3.62,13.97-3.62,26.83,7.49c-7.76-8.13-2.54-12.07,3.5-15.74
		c1.79,0.26,3.59,0.51,5.38,0.77c-2.87,8.53-4.35,17.95-9.09,25.26c-3.05,4.7-10.7,3.03-16.02-0.6
		c-6.66-2.61-14.79-3.57-14.96-13.42C413.92,490.52,415.37,489.26,417.56,488.86z"/>
	<path class="st213" d="M448.23,547.56c-0.27,0.38-0.65,1.12-0.81,1.08c-12.62-3.69-17.56,6.37-24.16,13.45
		c-3.75-7.94-6.13-15.66,2.36-22.43c1.22-0.97,2.42-3.58,1.96-4.79c-3.8-10.02,4.21-8.1,9.11-9.33
		C448.22,528.85,444.92,539.94,448.23,547.56z"/>
	<path class="st182" d="M615.34,441.67c-3.82,0.21-5.84-0.34-5.11-5.39c0.8-5.53-0.03-11.28-8.09-11.38
		c-1.67-0.02-2.31-9.77-0.37-12.21c3.25-4.08,3.95,3.64,7.4,1.5c-1.03-6.29,1.28-13-1.43-19.46c2.37-2.23,4.74-4.46,7.1-6.68
		c3.68,10.26,2.35,21.06,3.42,31.6c0.43,4.23-2.51,9.15,2.6,12.39c2.25,0.7,3.99,2.06,5.33,3.96
		C622.8,438.32,625.32,451.94,615.34,441.67z"/>
	<path class="st142" d="M621.16,433.74c-2.5,1.53-5.7,6.5-6.12-1.43c-0.78-14.75-2.29-29.5-0.21-44.26
		c1.12-3.64,2.24-7.27,3.37-10.91c11.13-0.67,2.9,8.03,5.55,11.47c-0.49,9.92-1.95,19.71,1.87,29.61
		C627.66,423.48,628.22,430.19,621.16,433.74z"/>
	<path class="st214" d="M414.86,492.07c0.94,7.97,9.88,8.34,13.28,13.97c-1.85,0.96-3.7,1.91-5.55,2.87
		c-4.03-10.57-14.2-0.19-19.7-5.77c-0.64-0.18-1.28-0.35-1.93-0.52c-3.1-1.78-5.01-4.42-5.66-7.96c-0.11-1.38,0-2.73,0.35-4.07
		c3.78-7.7,9.43-6.77,15.63-3.4C413.05,488.38,414.21,490.04,414.86,492.07z"/>
	<path class="st54" d="M595.63,430.08c1.27,4.27,8.05,9.53-2.11,11.76c-6.68-2.32-6.49-9.68-10.32-14.1
		c2.75-4.31,1.8-11.2,8.88-12.64C595.71,419.51,590.69,426.02,595.63,430.08z"/>
	<path class="st174" d="M583.21,427.74c5.18,3.42,6.91,9.37,10.32,14.1c-0.12,3.06-0.24,6.12-0.35,9.18
		c-8.59-5.53-6.87-15.77-10.7-23.47L583.21,427.74z"/>
	<path class="st147" d="M839.1,491.18c0.02,2.11,0.04,4.21,0.06,6.32c-2.97,3.28-6.37,5.74-3.41,11.55
		c4.82,9.46-6.28,6.11-9.21,8.54c-4.76,3.94-2.02-3.11-3.08-5.07c-2.11-3.88-4.82-6.61-9.55-6.54c-6.72-4.78,0.47-5.92,2.22-8.49
		c1.48-3.41,6.14,6.83,7-1.8c0.32-3.21,3.77-6.21,7.88-6.78C833.71,489.67,836.41,490.42,839.1,491.18z"/>
	<path class="st48" d="M459.01,598.36c-3.63-8.11-9.24-16.76,5.49-19.77c0.78,13.92,9.51,24.26,17.01,37.15
		C466.77,617.84,467.87,601.33,459.01,598.36z"/>
	<path class="st58" d="M713.3,461.26c-1.1-0.99-2.21-1.97-3.31-2.96c1.12-3.67,2.25-7.34,3.37-11.02c2.49-10.4,6.18-20.2,13.9-28
		c3.57-17.79,21.4-11.16,31.71-20.41c1.06,7.33,1.82,12.59,2.58,17.86c1.95,6.24-1.42,11-5.07,15.1
		c-9.18,10.32-16.93,22.12-29.19,29.39c0-4.7,0-9.4,0-16.72c-4.45,7.68-0.23,14.3-4.74,19.06C720.63,467.11,720,466.95,713.3,461.26
		z"/>
	<path class="st21" d="M707.35,429.36c1.17,7.88,0.68,14.13-7.01,15.69c-7.08,1.44-4.92-6.98-7.37-8.56
		c-7.57-4.88-7.84-11.6-8.58-19.05c-0.37-3.73-4.78-7.67,0.3-10.75c7.05-4.27,14.03-2,20.63,1.71c7.2,4.04-1.37,5.91-1.11,8.39
		C704.68,421.47,710.42,425.04,707.35,429.36z"/>
	<path class="st176" d="M727.29,461.23c6.74-18.44,29.17-24.79,34.26-44.49c0.67,1.75,1.35,3.51,2.02,5.26
		c2.33,2.37,4.99,4.63,2.55,8.44c-10.1-0.42-8.91,6.31-8.12,12.79c-7.57,5.27-14.08,9.51-15.28,21.29
		c-1.25,12.2-9.8,1.57-15.17,0.55C727.47,463.79,727.38,462.51,727.29,461.23z"/>
	<path class="st32" d="M727.27,419.29c-2.76,10.26-8,19.29-13.9,28c-3.05-11.44,2.73-22.89-0.04-34.4
		c-0.66-2.76,1.51-4.34,4.24-3.55c2.69,0.78,7.43,0.21,5.82,5.37C722.07,418.87,723.83,419.58,727.27,419.29z"/>
	<path class="st47" d="M766.12,430.44c-0.12-3.03-4.15-4.89-2.55-8.44c3.32-1.37,5.54-6.34,10.42-2.51
		c5.76,4.51-2.31,5.24-2.02,8.43c0.32,3.52-0.49,7.14-0.81,10.71c-1.31-0.06-4.64,3.9-3.34-1.21
		C768.61,434.32,770.63,431.89,766.12,430.44z"/>
	<path class="st119" d="M287.18,584.27c1.18,0.9,2.35,1.79,3.53,2.69c11.38,11.59,6.57,24.74,3.64,37.71
		c-4.04-0.77-8.81-0.6-8.7-6.73c-5.54-8.06-5.51-19.26-14.17-25.48c-2.13-1.53-6.18-9.35-6.86,1.49c-0.16,2.52-4.64-0.73-5.95-2.54
		c-4.28-5.93-8.09-12.2-12.08-18.34c2.25-1.47,4.49-2.94,6.74-4.41c-3.23-4.04-7.89-12.05-9.46-11.48
		c-13.45,4.84-12.25-8.46-18.56-13.2c9.35-2.33,10.98,10.14,19.36,8.46c2.81-5.53-4.71-10.93-0.55-16.55
		c3.25-2.8-2.63-10.68,5.13-10.4c4.48,0.16,7.48,4.75,6.76,9.04c-3.13,18.47,9.84,28.22,20.56,39.16
		C280.03,577.26,282.82,581.58,287.18,584.27z"/>
	<path class="st91" d="M287.18,584.27c-13.98-6.17-20.25-21.03-32.88-29.05c-5.22-3.32,0.5-11.14-1.29-16.84
		c-1.12-3.55,2.27-9.18-3.32-10.48c-6.7-1.56-0.41,7.54-5.59,8.01c2.22-13.15-4.39-20.97-15.66-25.97c-1.55-0.89-2.41-2.05-1.53-3.9
		c2.81-2.77,5.62-5.54,8.43-8.31c5.55,0.13,11.09,0.27,16.64,0.4c3.4,3.74,6.99,7.33,10.17,11.25c4.77,5.89,6.64,11.23,5.92,20.28
		c-1.3,16.36-4.76,36.02,15.42,46.26C284.72,578.71,285.95,581.49,287.18,584.27z"/>
	<path class="st85" d="M226.9,506.03c0.52,1.31,1.05,2.63,1.55,3.92c-13.43,12.52-24.64,13.9-31.18,3.53
		c-3.24-5.14-5.76-10.59,4.63-10.18c7.39,0.29,14.81-0.06,22.22-0.12C225.04,504.13,225.97,505.08,226.9,506.03z"/>
	<path class="st152" d="M350.27,495.16c-8.48,6.65-13.23-0.63-18.51-5.15c-3.19-2.73-5.68-7.03-7.32,1.07
		c-1.16,5.71-4.17,2.04-7.02,1.1c-7.03-2.34-14.39-4.7-14.43-13.45c-0.01-3.01-1.12-6.13-0.21-9.17c5.43-1,7.54-3.74,3.74-8.51
		c-4.32-5.42-8.7-10.91-15.18-14.04c-3.5-1.7-2.09-5.46-3.38-8.08c0.03-0.93,0.24-1.89,0.07-2.77c-1.05-5.25-9.42-10.16-2.2-15.64
		c6.27-4.77,11.34,1.43,16.46,4.47c7.23,9.8,18.68,15.5,25.28,25.91c8.39,7.7,15.91,16.23,23.49,24.7c0.7,2.89,0.04,5.17-2.87,6.45
		c-9.99-0.82-13.69-11.3-22.35-14.24c6.84,4.49,12.92,9.91,19.34,14.91C349.28,485.91,353.51,488.99,350.27,495.16z"/>
	<path class="st202" d="M280.06,459.52c-4.87,0.48-4.9,3.34-4.71,7.51c0.25,5.52,0.63,12.04-8.6,11.25
		c-2.34-0.2-2.33,2.78-1.04,7.27c0.54,1.85,0.02,5.32-1.26,6.14c-3.57,2.3-6.89,0.53-9.45-2.58c-9.22-8.55-8.1-14.82,4.66-26.07
		c2.26,0.01,4.27,0.99,6.34,1.72c-0.85-2.14-3.13-2.87-4.49-4.52c-0.34-0.55-0.66-1.1-0.98-1.66c0.7-7.64,1.4-15.33,5.09-22.23
		c1.97-3.68,4.36-7.36,9.69-4.57c6.09,3.19,1.3,5.7-0.39,8.47c-3.67,6.02-1.88,9.28,5.08,9.84
		C282.51,453.23,282.7,456.37,280.06,459.52z"/>
	<path class="st47" d="M260.8,464.18c-5.62,7.45-13.53,14.37-5.79,24.93c-1.02,0-2.04,0-3.05,0.01c-2.35,1.1-5.43,0.39-5.8-1.41
		c-1.68-8.19-7.79-2.54-11.48-4.12c-0.6-2.5-2.33-2.94-4.55-2.49c-4.35,1.29-8.81,2.83-9.63-4.12
		c10.15-8.09,23.42-11.09,31.06-23.94c5.05-8.5,3.09,7.93,8.98,5.54c0,0-0.24-0.16-0.24-0.16
		C262.11,460.2,262.04,462.14,260.8,464.18z"/>
	<path class="st127" d="M220.5,476.98c1.61,5.12,7.08,1.21,9.63,4.12c-6.56,16.71-8.91,17.75-35.21,14.48
		C204.21,488.82,212.36,482.9,220.5,476.98z"/>
	<path class="st215" d="M280.06,459.52c-0.02-3.14-0.04-6.28-0.06-9.42c0.94-0.99,1.87-1.97,2.81-2.96c7.43,5.95,0.89,17.19,8.69,23
		c-3.07,0.33,1.4,9.75-6.43,5.01c-3.47-2.11-1.94,2.55-2.69,3.96c-3.22,6.07,1.74,6.23,5.81,8.73c-4.97,0.75-9.95,1.5-15.35,2.32
		C271.92,478.65,286.68,471.57,280.06,459.52z"/>
	<path class="st216" d="M324.83,451.37c-5.98-10.11-19.53-13.76-22.55-26.39c4.3,2.8,8.08,7.09,14.11,4.91
		c4.58,3.16,9.16,6.31,13.75,9.47c3.74,1.84,7.99,3.31,6.6,8.94C336.7,448.42,325.06,451.42,324.83,451.37z"/>
	<path class="st202" d="M234.68,483.59c6.09-0.92,6.2-9.12,13.5-10.13c-0.55,5.57-5.52,12.91,3.78,15.66
		c-3.96,9.13-12.12-2.59-16.73,3.36C234.28,489.56,232.4,486.7,234.68,483.59z"/>
	<path class="st32" d="M346.85,481.03c2.78-1.26,3.24-3.63,3.04-6.32c-2.7-6.54,1.37-6.88,6.07-6.64
		c6.46,7.43,13.36,14.34,22.56,18.43c2.29,1,4.44,2.27,6.53,3.62c6.87,3.2,11.95,8.85,18,13.18c0,0-0.15-0.17-0.15-0.17
		c-2.4,10.56-9.01,3.61-14.01,3.36c-5.55-2.11-11.09-4.22-16.64-6.33C361.68,496.57,352.53,491.1,346.85,481.03z"/>
	<path class="st130" d="M358.75,508.39c-4.96,12.49-21.7,12.96-26.32,25.79c-1.16-1.18-2.32-2.35-3.48-3.53
		c-2.56-10.57-2.44-10.43,8.73-20.06c3.18-2.74-1.28-4.47-2.07-6.71C343.83,502.79,351.57,504.11,358.75,508.39z"/>
	<path class="st217" d="M346.85,481.03c8.47,6.38,16.93,12.76,25.4,19.13c-9.01,5.72-13.95-6.44-21.98-5
		c-2.62-13.05-14.84-16.23-24.03-21.77c-2.71-1.63-6.45-0.27-5.47-5.34c0.49-2.53-1.6-5.91,1.76-7.46c3.9-1.8,6.03,1.69,7.86,3.94
		C335.34,470.6,339.93,476.95,346.85,481.03z"/>
	<path class="st218" d="M291.34,447.01c0.16-0.9,0.32-1.8,0.48-2.7c9.64,4.56,17.55,11.04,20.47,21.6c0.46,1.68,3.34,7.05-1.41,7.85
		c-2.39,0.4-5.37-2.69-8.09-4.2C299.18,461.93,289.48,457.41,291.34,447.01z"/>
	<path class="st133" d="M285.64,617.94c1.89,3.54,7.47,2.33,8.7,6.73c0.09,2.78,0.82,5.81-2.85,7.07c-2.98-1.2-5.43-3.05-8.02-5.02
		C276.45,621.4,280.89,619.84,285.64,617.94z"/>
	<path class="st75" d="M409.17,539.75c-0.1,2.9-2.03,6.38-3.25,5.57c-2.99-1.97-5.53-5.21-7.15-8.48c-1.19-2.41,1.58-4.69,3.79-4.43
		C406.7,532.9,408.03,536.65,409.17,539.75z"/>
	<path class="st173" d="M445.09,575.66c-5.09-5.65,0.4-9.8,2.07-14.48c1.23,1.24,2.47,2.48,3.7,3.71
		C450.05,569.08,449.06,573.17,445.09,575.66z"/>
	<path class="st79" d="M324.47,541.71c8.54,0.04,5.86,9.3,10.07,12.95c-5.51-2.48-10.11-5.73-10.48-12.68L324.47,541.71z"/>
	<path class="st117" d="M662.97,626.07c3.63-7.07-5.6-17.1,5.19-22.51c-11.79-4.5-2.12-13.19-3.73-19.69
		c-0.49-1.98-0.18-4.9,1.01-6.42c3.76-4.8,4.95-9.74,2.81-15.45c2.78-2.18,5.52-6.25,8.46-0.17c-3.41,5.08,5.05,9,1.45,14.95
		c-0.74,1.22,3.45-6.33,7.02-1.78c3.42,4.36,5.23,9.27,5.67,14.74c-8.02,1.35-7.76,7.95-8.75,13.77c0.37,5.78-6.19,6.07-8.02,10.1
		c-2.18,3.22-6.04,5.48-5.8,10.1C665.95,623.23,666.56,629.34,662.97,626.07z"/>
	<path class="st211" d="M674.08,613.59c0.42-5.16,5.87-6.32,8.02-10.1c2.24,1.12,4.47,2.23,6.71,3.35
		C687.17,616.23,680.02,613.59,674.08,613.59z"/>
	<path class="st207" d="M382.15,492.04c-1.43-0.95-2.87-1.9-4.3-2.85c-2.51-3.27-7.76-4.4-7.6-9.73
		c-0.11-6.84-5.44-8.31-10.45-10.08c-0.61,0.05-1.23,0.08-1.84,0.12c-3.71,0.16-7.65-0.02-8.07,5.22
		c-13.36-2.41-15.68-16.66-25.05-23.34c3.09-1.97,3.02-2.86-1.99-10.77c4.83,3.7,7.93,6.08,11.48,8.8
		c3.14-5.72-3.59-6.59-4.19-10.04c11.27,3.56,22.53,7.11,33.8,10.67c2.2,4.75,4.88,8.89,11.02,8.61c5.78,7.1-2.42,20.72,12.11,24.19
		c-1.8-5.96-3.55-11.72-5.4-17.85c7.01,1.12,10.63,6.99,15.94,10.15c6.53,5.93-2.6,11.69-0.18,17.58c-0.06,0.64-0.06,1.27,0.02,1.91
		C391.4,499.34,387.81,489.55,382.15,492.04z"/>
	<path class="st90" d="M397.42,492.71c-9.14-5.95,4.72-11.67,0.18-17.58c1.99-0.02,3.98-0.03,5.97-0.05
		c0.74-0.19,1.44-0.08,2.09,0.31c0.35,5.33,7.75,7.69,5.88,13.96C406.65,489.71,400.24,483.69,397.42,492.71z"/>
	<path class="st190" d="M374.95,458.65c-7.85,6.61-9.91-3.3-14.07-5.7c-3.12-1.8,1.56-2.18,3.06-2.91
		C367.6,452.91,371.27,455.78,374.95,458.65z"/>
	<path class="st120" d="M604.12,648.67c-0.94-0.04-1.87-0.09-2.81-0.13c-8.85-1.43-17.13-4.54-25.1-8.55
		c-0.34-0.6-0.47-1.24-0.4-1.92c1.27-8.74,2.55-17.49,3.82-26.23c5.13,13.53,21.79,18.66,24.66,33.84
		C604.23,646.67,604.17,647.67,604.12,648.67z"/>
	<path class="st207" d="M561.7,632.66c-7.76-4.21-17.24-5.87-21.87-14.72c-1.5-7.4,1.5-12.05,8.64-14.18c0,0-0.12,0.08-0.12,0.08
		c4.48,3.73,8.56-2.1,14.6-0.06C546.18,613.29,565.45,622.82,561.7,632.66z"/>
	<path class="st211" d="M629.5,386.1c4.81-5.59,2.4-13.69,6.88-19.65c-0.95,11.69,12.8,21.04,4.74,33.58
		c-5.23,4.14-2.12,8.83-0.86,13.39c-0.65,4.3,3.44,10.91-5.46,11.18c-11.18-4.72-12.7-13.69-9.91-23.96
		C626.22,395.76,627.96,390.94,629.5,386.1z"/>
	<path class="st116" d="M629.5,386.1c2.67,3.66,3.25,7.45,1.11,11.64c-4.37,8.56-8.88,17.2,4.06,22.83
		c0.53,0.23,0.11,2.64,0.13,4.03c-0.18,1.07-0.36,2.15-0.55,3.22c-3.06,0.56-3.96,3-4.79,5.5c-1.09,0.89-2.18,1.78-3.27,2.67
		c-2.01,0-3.93-0.23-5.03-2.25c3.86-6.74,4.57-14.86,0.52-20.41c-7.1-9.72-2.86-16.88,2.07-24.73
		C625.67,387.77,627.59,386.93,629.5,386.1z"/>
	<path class="st63" d="M640.26,413.41c-2.85-0.4-7.37,1.61-7.71-2.84c-0.28-3.68,5.26,2.68,5.29-1.58
		c0.03-4.53-1.38-9.07-2.35-14.75c2.5,2.57,4.07,4.17,5.64,5.78C640.83,404.48,640.55,408.95,640.26,413.41z"/>
	<path class="st119" d="M315.56,642.8c-5.68-4.52-10.91-10.12-19.31-8.29c2.98-12.14,7.55-12.88,13.98-2.05
		C312.22,635.81,316.77,637.8,315.56,642.8z"/>
	<path class="st101" d="M534.39,583.05c2.08,5.83,3.54,11.75,2.5,18.02c0.12,5.28,4.13,10.54,0.13,15.85
		c-4.69,0.91-8-1.56-11.08-4.56c-1.44-14.25-11.56-25.44-13.89-39.38C518.85,577.78,526.32,581.08,534.39,583.05z"/>
	<path class="st71" d="M727.56,465.08c4.71,0.15,9.83-1.21,13.27,4.48c0.35-19.12-1.71-24.74,17.18-26.31
		c-0.63,2.94-1.26,5.88-1.88,8.82c-8.97-0.43-9.03,7.39-8.5,12.01c0.63,5.51-3.06,9.97-1.7,15.14c-3.01,1.84-6.23,3.44-7.44,7.14
		C728.46,482.54,731.71,471.91,727.56,465.08z"/>
	<path class="st200" d="M537.03,616.92c-0.38-5.28-6.52-10.52-0.13-15.86c3.72,1.49,7.31,3.53,11.58,2.69
		c-7.02,2.2-4.26,10.37-8.64,14.18C538.9,617.6,537.96,617.26,537.03,616.92z"/>
	<path class="st47" d="M831.01,488.91c-5,2.79-3.5,16.84-14.88,8.58c-7.06-4.84,1.24-12.9-3.97-18.68
		C818.6,482.44,826.89,481.6,831.01,488.91z"/>
	<path class="st158" d="M176.65,511.65c0.37-2.59-0.86-6.66,2.18-7.19c3.65-0.63,3.4,3.37,3.5,5.96c0.16,4.09,0.04,8.19,0.04,12.98
		c-4.9-3.29-0.89-9.69-5.84-11.96C176.54,511.45,176.65,511.65,176.65,511.65z"/>
	<path class="st169" d="M591.89,453.49c2.96,3.49,5.92,6.97,8.88,10.46c0.3,3.77,0.6,7.53,0.9,11.3c-1.61-0.53-3.23-1.05-4.86-1.61
		C597.5,466.34,590.5,460.94,591.89,453.49z"/>
	<path class="st88" d="M713.3,461.26c3.92-2.58,4.98,6.27,9.24,2.3c4.03,10.02-5.36,19.78-0.6,30.08c0.62,1.33-3.89,0.74-5.99,1.19
		c-1.57-7.45,3.37-15.64-2.52-22.61C709.07,468.62,718.3,464.85,713.3,461.26z"/>
	<path class="st207" d="M411.54,489.35c-0.97-5.07-11.35-6.18-5.88-13.96c6.56,2.2,9.17,7.89,11.9,13.47
		c-0.9,1.07-1.8,2.14-2.7,3.21C413.75,491.16,412.65,490.26,411.54,489.35z"/>
	<path class="st90" d="M382.15,492.04c6.72-8.74,9.53,5.66,15.29,2.58c1.87,2.89,3.73,5.78,5.6,8.68
		C396.08,499.55,389.11,495.8,382.15,492.04z"/>
	<path class="st123" d="M260.8,464.18c-0.16-1.92-0.33-3.84-0.49-5.75c8.3-0.45,11.37,4.06,11.9,14
		C267.41,468.96,264.1,466.57,260.8,464.18z"/>
	<path class="st196" d="M369.04,477.42c0.51,5.74,9.81,4.9,8.81,11.78c-7.1-6.09-20.82-5.5-19.89-19.7c0,0,0.9,0.43,0.9,0.43
		C364.85,468.89,367.31,472.66,369.04,477.42z"/>
	<path class="st96" d="M369.04,477.42c-3.4-2.5-6.79-5-10.19-7.5c-0.05-2.01-1.16-5.73,2.08-4.81c5.63,1.6,10.46,5.46,12.38,11.24
		C373.92,478.19,370.51,476.88,369.04,477.42z"/>
	<path class="st145" d="M341.1,455.15c4.81,3.12,9.63,6.23,16.12,10.44C346.9,467.49,343.11,462.36,341.1,455.15z"/>
</g>
</svg>
