<?xml version="1.0" encoding="utf-8"?>
<!-- Generator: Adobe Illustrator 24.1.2, SVG Export Plug-In . SVG Version: 6.00 Build 0)  -->
<svg version="1.1" id="Layer_1" xmlns="http://www.w3.org/2000/svg" xmlns:xlink="http://www.w3.org/1999/xlink" x="0px" y="0px"
	 viewBox="0 0 1080 1080" style="enable-background:new 0 0 1080 1080;" xml:space="preserve">
<style type="text/css">
	.st0{fill:#0D0D0D;}
	.st1{fill:#0B0B0B;}
	.st2{fill:#151515;}
	.st3{fill:#F6F6F6;}
	.st4{fill:#C2C2C2;}
	.st5{fill:#161616;}
	.st6{fill:#BBBBBB;}
	.st7{fill:#141414;}
	.st8{fill:#AFAFAF;}
	.st9{fill:#B5B5B5;}
	.st10{fill:#1C1C1C;}
	.st11{fill:#363636;}
	.st12{fill:#C5C5C5;}
	.st13{fill:#1F1F1F;}
	.st14{fill:#ADADAD;}
	.st15{fill:#9D9D9D;}
	.st16{fill:#ABABAB;}
	.st17{fill:#464646;}
	.st18{fill:#393939;}
	.st19{fill:#8E8E8E;}
	.st20{fill:#6C6C6C;}
	.st21{fill:#808080;}
	.st22{fill:#D3D3D3;}
	.st23{fill:#0C0C0C;}
	.st24{fill:#606060;}
	.st25{fill:#565656;}
	.st26{fill:#E6E6E6;}
	.st27{fill:#6B6B6B;}
	.st28{fill:#EFEFEF;}
	.st29{fill:#9A9A9A;}
	.st30{fill:#AEAEAE;}
	.st31{fill:#5B5B5B;}
	.st32{fill:#989898;}
	.st33{fill:#131313;}
	.st34{fill:#797979;}
	.st35{fill:#353535;}
	.st36{fill:#1B1B1B;}
	.st37{fill:#232323;}
	.st38{fill:#2F2F2F;}
	.st39{fill:#5C5C5C;}
	.st40{fill:#373737;}
	.st41{fill:#9E9E9E;}
	.st42{fill:#B1B1B1;}
	.st43{fill:#9F9F9F;}
	.st44{fill:#A6A6A6;}
	.st45{fill:#CECECE;}
	.st46{fill:#A8A8A8;}
	.st47{fill:#9C9C9C;}
	.st48{fill:#DBDBDB;}
	.st49{fill:#A0A0A0;}
	.st50{fill:#B9B9B9;}
	.st51{fill:#3F3F3F;}
	.st52{fill:#2B2B2B;}
	.st53{fill:#878787;}
	.st54{fill:#949494;}
	.st55{fill:#292929;}
	.st56{fill:#E8E8E8;}
	.st57{fill:#909090;}
	.st58{fill:#C9C9C9;}
	.st59{fill:#2A2A2A;}
	.st60{fill:#262626;}
	.st61{fill:#1A1A1A;}
	.st62{fill:#333333;}
	.st63{fill:#AAAAAA;}
	.st64{fill:#787878;}
	.st65{fill:#434343;}
	.st66{fill:#181818;}
	.st67{fill:#8C8C8C;}
	.st68{fill:#727272;}
	.st69{fill:#676767;}
	.st70{fill:#8F8F8F;}
	.st71{fill:#9B9B9B;}
	.st72{fill:#484848;}
	.st73{fill:#3E3E3E;}
	.st74{fill:#0E0E0E;}
	.st75{fill:#737373;}
	.st76{fill:#A1A1A1;}
	.st77{fill:#A2A2A2;}
	.st78{fill:#818181;}
	.st79{fill:#3B3B3B;}
	.st80{fill:#717171;}
	.st81{fill:#898989;}
	.st82{fill:#959595;}
	.st83{fill:#E5E5E5;}
	.st84{fill:#555555;}
	.st85{fill:#FAFAFA;}
	.st86{fill:#F9F9F9;}
	.st87{fill:#4E4E4E;}
	.st88{fill:#8A8A8A;}
	.st89{fill:#DDDDDD;}
	.st90{fill:#414141;}
	.st91{fill:#EBEBEB;}
	.st92{fill:#CFCFCF;}
	.st93{fill:#EEEEEE;}
	.st94{fill:#242424;}
	.st95{fill:#C1C1C1;}
	.st96{fill:#E3E3E3;}
	.st97{fill:#525252;}
	.st98{fill:#E9E9E9;}
	.st99{fill:#202020;}
	.st100{fill:#FEFEFE;}
	.st101{fill:#DEDEDE;}
	.st102{fill:#FBFBFB;}
	.st103{fill:#BCBCBC;}
	.st104{fill:#BEBEBE;}
	.st105{fill:#101010;}
	.st106{fill:#B3B3B3;}
	.st107{fill:#171717;}
	.st108{fill:#2D2D2D;}
	.st109{fill:#C0C0C0;}
	.st110{fill:#B0B0B0;}
	.st111{fill:#212121;}
	.st112{fill:#323232;}
	.st113{fill:#CBCBCB;}
	.st114{fill:#E1E1E1;}
	.st115{fill:#121212;}
	.st116{fill:#8D8D8D;}
	.st117{fill:#B2B2B2;}
	.st118{fill:#1D1D1D;}
	.st119{fill:#A9A9A9;}
	.st120{fill:#7C7C7C;}
	.st121{fill:#BABABA;}
	.st122{fill:#595959;}
	.st123{fill:#1E1E1E;}
	.st124{fill:#929292;}
	.st125{fill:#2E2E2E;}
	.st126{fill:#282828;}
	.st127{fill:#848484;}
	.st128{fill:#4F4F4F;}
	.st129{fill:#A3A3A3;}
	.st130{fill:#919191;}
	.st131{fill:#7D7D7D;}
	.st132{fill:#979797;}
	.st133{fill:#767676;}
	.st134{fill:#090909;}
	.st135{fill:#F0F0F0;}
	.st136{fill:#4A4A4A;}
	.st137{fill:#585858;}
	.st138{fill:#A4A4A4;}
	.st139{fill:#828282;}
	.st140{fill:#B4B4B4;}
	.st141{fill:#E7E7E7;}
	.st142{fill:#C3C3C3;}
	.st143{fill:#494949;}
	.st144{fill:#D9D9D9;}
	.st145{fill:#313131;}
	.st146{fill:#636363;}
	.st147{fill:#696969;}
	.st148{fill:#838383;}
	.st149{fill:#383838;}
	.st150{fill:#505050;}
	.st151{fill:#999999;}
	.st152{fill:#ACACAC;}
	.st153{fill:#454545;}
	.st154{fill:#616161;}
	.st155{fill:#252525;}
	.st156{fill:#6A6A6A;}
	.st157{fill:#747474;}
	.st158{fill:#EAEAEA;}
	.st159{fill:#BDBDBD;}
	.st160{fill:#D0D0D0;}
	.st161{fill:#D5D5D5;}
	.st162{fill:#686868;}
	.st163{fill:#646464;}
	.st164{fill:#2C2C2C;}
	.st165{fill:#3C3C3C;}
	.st166{fill:#545454;}
	.st167{fill:#F1F1F1;}
	.st168{fill:#FDFDFD;}
	.st169{fill:#FCFCFC;}
	.st170{fill:#A7A7A7;}
	.st171{fill:#272727;}
	.st172{fill:#B8B8B8;}
	.st173{fill:#0F0F0F;}
	.st174{fill:#191919;}
	.st175{fill:#707070;}
	.st176{fill:#111111;}
	.st177{fill:#F3F3F3;}
	.st178{fill:#4C4C4C;}
	.st179{fill:#4D4D4D;}
	.st180{fill:#222222;}
	.st181{fill:#626262;}
	.st182{fill:#777777;}
	.st183{fill:#A5A5A5;}
	.st184{fill:#868686;}
	.st185{fill:#C6C6C6;}
	.st186{fill:#EDEDED;}
	.st187{fill:#757575;}
	.st188{fill:#CACACA;}
	.st189{fill:#5E5E5E;}
	.st190{fill:#E0E0E0;}
	.st191{fill:#575757;}
	.st192{fill:#7F7F7F;}
	.st193{fill:#B6B6B6;}
	.st194{fill:#F8F8F8;}
	.st195{fill:#D1D1D1;}
	.st196{fill:#D8D8D8;}
	.st197{fill:#C4C4C4;}
	.st198{fill:#F4F4F4;}
	.st199{fill:#6E6E6E;}
	.st200{fill:#BFBFBF;}
	.st201{fill:#5D5D5D;}
	.st202{fill:#7E7E7E;}
	.st203{fill:#4B4B4B;}
	.st204{fill:#888888;}
	.st205{fill:#C8C8C8;}
	.st206{fill:#303030;}
	.st207{fill:#939393;}
	.st208{fill:#C7C7C7;}
	.st209{fill:#F7F7F7;}
	.st210{fill:#070707;}
	.st211{fill:#5A5A5A;}
	.st212{fill:#515151;}
	.st213{fill:#858585;}
	.st214{fill:#7A7A7A;}
	.st215{fill:#535353;}
	.st216{fill:#E2E2E2;}
	.st217{fill:#666666;}
	.st218{fill:#DFDFDF;}
	.st219{fill:#060606;}
	.st220{fill:#DCDCDC;}
	.st221{fill:#DADADA;}
	.st222{fill:#F2F2F2;}
	.st223{fill:#3D3D3D;}
	.st224{fill:#D4D4D4;}
	.st225{fill:#424242;}
	.st226{fill:#3A3A3A;}
	.st227{fill:#404040;}
	.st228{fill:#7B7B7B;}
	.st229{fill:#969696;}
	.st230{fill:#6F6F6F;}
	.st231{fill:#D2D2D2;}
	.st232{fill:#D6D6D6;}
	.st233{fill:#D7D7D7;}
	.st234{fill:#F5F5F5;}
	.st235{fill:#5F5F5F;}
	.st236{fill:#080808;}
	.st237{fill:#8B8B8B;}
	.st238{fill:#ECECEC;}
	.st239{fill:#343434;}
	.st240{fill:#CCCCCC;}
	.st241{fill:#0A0A0A;}
	.st242{fill:#B7B7B7;}
	.st243{fill:#040404;}
	.st244{fill:#E4E4E4;}
	.st245{fill:#CDCDCD;}
	.st246{fill:#6D6D6D;}
	.st247{fill:#444444;}
</style>
<g>
	<path class="st100" d="M465.18,339.77c3.15,6.01,11.72,5.41,14.48,11.88c-0.97,6.56-6.43,6.95-11.25,8.13
		c-11.04,2.71-21.88,5.89-31.46,12.32c-14.32,2.56-25.46,12.42-38.87,17.4c16.07-1.56,31-8.15,46.79-10.41
		c-4.2-0.08-4.87-2.49-4.17-5.93c0.77-0.97,1.78-1.53,2.98-1.75c11.47,0.32,21.82-3.74,32.04-8.29c2.22-1.24,4.5-2.26,7.13-2.11
		c5.79,1.32,8.05,5.74,9.51,10.85c-0.15,7.85-3.11,14.58-7.9,20.57c5.06-5.27,6.65-12.25,8.75-19c5.7-7.92,11.69-6.3,18.12-0.82
		c13.69,11.69,27.81,22.86,41.52,34.54c8.58,7.31,5.14,14.92,3.22,22.96c-3.59,5.44-14.8,6.09-10.42,16.58
		c-0.22,2.43-1.12,4.56-2.82,6.33c-6.77,6.22-12.2,13.46-16.41,21.62c-4.71,6.08-3.31,14.19-6.9,20.65
		c-7.39,1.68-8.66-4.66-9.76-8.86c-1.77-6.79-4.74-13.57-3.54-19.32c-0.15-3.3-2-1.58-0.36-2.03
		c-0.45,19.76,13.28,35.72,14.68,55.02c-0.56-8.14-7.75-15.79-1.58-24.33c4.9-6.53,3.3-15.56,8.48-22c1.44-2.26,3.47-3.43,6.18-3.35
		c1.32,0.22,2.38,0.86,3.21,1.91c1.37,2.27,1.75,4.78,1.78,7.37c-0.11,5.63-2.12,10.88-3.17,16.33c-0.72,3.62-2.82,7.04-1.53,11.44
		c5.38-2.86,10.77-5.35,16.92-3.48c6.38,3.03-1.28,9.99,3.75,13.44c-0.04,1.86-0.89,3.28-2.2,4.48c-4.17,3.16-9.12,4.94-13.55,7.64
		c-7.4,2.7-5.38,12.9-12.5,15.81c-6.55,2.48-5.11,8.94-6.82,13.83c-1.12,3.57-2.39,7.2-1.89,10.94c1.4,10.49-3.8,17.3-12.01,22.59
		c-26.25-3.45-45.23,14.26-67.21,23.24c-3.12,1.27-5.94,3.26-9.49,3.22c-15.44,0.37-22.55-12.53-32.77-20.49
		c-11.39-10.19-17.09-24.16-24.62-36.92c-2.16-1.8-3.61-4.61-7.22-4.8c-3.75,8.88-2.02,17.76,0.11,26.56c0.59-2.56-0.14-5.44,1-7.97
		c1.22-2.71,1.68-7.4,6.51-3.33c3.19,8.47,1.9,16.63-1.62,24.63c-3.75,2.45-6.82,5.72-10.27,8.58c-4.44,1.73-8.41,0.19-12.33-1.75
		c-1.6-0.8-3.11-1.77-4.53-2.85c-3.86-3.68-7.48-7.56-9.64-12.89c-0.46,3.89,0.93,6.79,3.64,9.18c4.8,4.17,6.01,9.09,5.99,15.66
		c-0.02,6.7,6.23,12.56,5.42,20.06c-10.96,6.15-17.1-0.49-22.73-8.53c-3.43-5.43-6.78-10.93-10.68-16.05
		c-4.4-6.2-11.56-8.6-17.5-12.68c-7.81-6.76-18.19-9.94-25.16-17.9c-2.67-3.02-4.36-6.69-6.69-9.94c-3.24-4.66-7.4-8.78-8.76-14.58
		c1.11-8.24,8.25-9.62,14.15-12.38c4.15-1.94,8.26-3.94,12.29-6.1c0.99-0.61,2.01-1.15,3.03-1.7c6.62-2.85,8.82-10.76,15.46-13.6
		c5.2-2.5,10.75-2.57,16.34-2.32c1.8,0.11,3.56,0.46,5.27,1.04c4.09,2.93,8.3,2.18,12.56,0.38c2.4,0.59,4.93,0.03,6.7,0.58
		c-10.15,0.1-14.76-7.3-18.42-15.85c-2.76-5.99-5.38-12.04-7.34-18.35c-4.28-8.79-7.41-17.97-9.7-27.46
		c-0.98-3.48-2.05-6.95-1.94-10.62c0.93-17.21,13.59-28.31,23.28-40.02c6.19-7.48,10.66,2.47,13.84,8.09
		c1.6,7.34,6.34,13,10.23,19.07c3.54,2.36,2.95-0.28,2.84-2.35c-0.49-9.2-4.2-17.67-6.15-26.55c0.17-5.61-2.32-11.09-0.86-16.76
		c3.13-11.15,8.31-20.14,21.65-20.5c13.13-4.53,27.99-5.87,36.1-19.66c1.21-1.31,2.64-2.3,4.29-2.98c7.03-2.21,14-4.6,20.72-7.68
		c0.96-0.63,1.99-1.08,3.09-1.42c6.28,0.7,12.2-1.06,18.15-2.73C457.76,333.62,460.8,338,465.18,339.77z"/>
	<path class="st102" d="M716.06,545.4c6.45,8.48,12.89,16.97,19.34,25.45c4.79,2.43,9.72,4.67,14.04,7.84
		c3.31,2.42,10.64,3.22,7.82,9.02c-2.72,5.62-8.67,7.43-14.51,2.5c-5.39-3.66-11.17-6.67-19.11-11.57
		c7.61,5.08,13.61,7.44,18.37,11.73c-9.14,6.14-18.64,6.04-28.4,1.72c-3.16-0.7-6.07-1.98-8.83-3.63c-5.99-3.94-12.4-6.43-19.68-7.1
		c-6.71-0.62-12.94-3.01-17.89-7.96c-1.33-1.27-2.47-2.7-3.47-4.24c-5.07-6.7-1.91-17.75-11.64-21.97c-2.7-0.61-5.61,0.12-8.19-1.28
		c-4.47-7.6-0.92-15.61-0.94-23.4c-0.01-2.85,0.75-5.7-0.26-8.55c-0.64-4.04-3.41-8.99,0.52-11.79c3.99-2.85,7.66,1.58,11.14,3.55
		c6.25,3.54,11.42,8.49,16.48,13.51c3.82,5.89,5.27,13.52,10.84,17.96c5.39,4.3,0.88-1.61,1.72-2.25c-0.49-2.45-0.32-4.83,0.41-7.19
		c7.58-11.76,9.91-11.91,18.95-1.81C708.08,531.87,711.07,539.3,716.06,545.4z"/>
	<path class="st102" d="M576.4,446.78c1.63,1.1,3.25,2.2,4.88,3.3c2.42,4.86,8.55,5.06,11.55,9.21c3.12,8.09-2.18,17.23,3.13,25.05
		c1.38,5.8,0.62,11.95,2.81,17.62c0.58,1.02,0.99,2.12,1.27,3.25c-0.64,4.87-1.16,9.71,2.59,14.49c1.65-6.14-1.26-11.22-1.17-16.51
		c-1-4.75,0.17-10.02-3.45-14.15c-0.41-1.13-0.58-2.29-0.57-3.49c1.02-4.77,0.97-10.08,6.29-12.72c1.26-0.33,2.53-0.33,3.79-0.04
		c7.45,2.94,13.72,7,14.98,15.8c0.29,2.49-0.04,5,0.13,8.1c3.19-0.41,4.84-4.15,8.12-3.86c5.93,1.11,9.1,4.39,8.43,10.69
		c-4.09,7.02-8.17,13.94-17.59,14.85c-2.82,0.27-0.75,3.1-1.35,4.64c-0.6,11.01,3.12,22.97-6.98,31.87
		c-5.16,7.35-4.11,16.13-5.03,24.3c-0.61,5.36-0.43,10.95-6.49,12.09c-6.95,1.31-9.13-4.44-10.75-9.95
		c-0.79-5.75-3.12-11.35-1.79-17.32c3.03-10.82,1.27-20.67-5.87-29.51c-4.87-6.03-6.05-13.73-9.09-20.59
		c-1.71-5.82-8.49-9.54-7.03-16.69c2.42-5,3.6-10.26,3.21-15.84c0-3.8-0.01-7.59-0.07-11.39c-0.07-1.3-0.06-2.6-0.03-3.9
		c0.36-5.93-0.39-11.86-0.15-17.79C571.69,445.41,573.5,443.85,576.4,446.78z"/>
	<path class="st50" d="M372.71,702.98c-2.51,12.05-10.04,21.59-15.7,32.13c-0.9-0.35-2.12-0.81-2.11-0.83
		c4.55-12.65-7.37-25.55,0.58-38.1c1.48-2.33,2.67-3.31-1.52-4.88c-3.63-1.36-4.18-6.07-0.01-9.03c5.72-4.05,5.77-10.75,4.36-15.59
		c-2.94-10.11,1.87-18.29,4.01-27.19c1.57,0.38,1.38,2.21,2.46,2.99c-0.09-0.85,0.1-1.64,0.56-2.4c3.39-5.5,8.75-9.85,9.68-16.79
		c2.26-3.68,5.2-8.27,9.61-6.14c4.56,2.2,1.92,7.31,0.9,11.25c-2.54,14.78-5.07,29.56-7.61,44.34
		C376.97,682.96,369.53,692.05,372.71,702.98z"/>
	<path class="st103" d="M716.46,710.89c-5.68-0.07-4.04,7.29-8.65,8.35c-8.04-12.76,5.13-20.81,7.42-32.41
		c-7.03,1.89-11.19,4.43-13.85-7.42c-2.51-11.18-3.57-23.57-8.78-34.4c0.61-0.93,1.38-1.69,2.32-2.29
		c3.72-2.45,3.97-6.93,6.05-10.32c1.68-2.75,3.41-5.91,7.39-2.77c4.99,3.74,8.08,8.48,7.84,14.96c-0.49,7.5,2.93,13.91,5.67,20.52
		c3.8,6.16,7.01,13.1,3.49,19.77c-3.68,6.97,6.2,9.99,3.15,16.01C724.76,704.57,722.34,709.82,716.46,710.89z"/>
	<path class="st33" d="M340.22,415.64c-8.5-11.9-8.7-11.83-15.98-0.21c-6.49,10.37-14.84,19.7-17.21,32.26
		c-4.68,18.81-16.26,35.65-15.87,55.89c-0.87,2.84-0.33,5.96-1.2,8.7c-1.65,5.16-5.17,8.48-9.86,3.54
		c-3.18-3.35-4.66-4.14-7.43-0.13c-3.04,4.4-4.83,8.24,2.2,10.39c1.05,0.63,1.7,1.56,2.01,2.73c-12.24,9.57-27.45,10.26-41.72,13
		c-6.13,1.18-13.04,1.72-19.63,0.9c-2.56-1.81-1.46-3.55,0.31-4.95c3.15-2.48,7.12-2.2,10.79-3.06
		c16.43-3.86,31.73-6.43,41.55-25.15c10.57-20.14,20.49-40.19,29.25-61.23c8.01-19.23,21.98-35.65,36.64-50.88
		c1.07,0.26,2.08,0.67,3.04,1.22c3.72,2.36,7.82,4.28,10.05,8.43c1.38,3.02,3.01,6.05-0.04,9.04
		C344.84,415.85,342.45,416.87,340.22,415.64z"/>
	<path class="st104" d="M274.39,575.88c8.29,5.93,16.58,11.86,24.87,17.79c-1.23,3.35-0.59,9.22-5.56,8.59
		c-10.96-1.4,0.23,4.75-2.3,5.92c0.65,2.91,0.92,5.86,0.21,8.75c-1.43,5.87-4.57,7.77-9.99,4.06c-3.49-2.39-6.13-5.72-9.42-8.34
		c-4.87-3.88-7.51-9.62-11.54-14.22c-0.32-5.49-3.04-9.93-6.28-14.14c-5.28-7.18,1.56-16.14-3.44-23.37
		c0.79-1.68,1.57-3.36,2.36-5.05c1.16-1.87,2.22-3.88,5.03-2.86c3.33,4.46,6.66,8.92,9.99,13.39
		C267.92,571.11,267.64,575.74,274.39,575.88z"/>
	<path class="st105" d="M713.52,588.76c9.39,2.79,18.79,7.02,28.14-0.11l-0.2,0.26c4.71-1.33,10.58,4.05,14.6-2.63
		c-5.41-7.16-16.47-6.78-20.65-15.44c7.45-1.02,13.3,3.08,18.1,7.44c10,9.11,21.55,13.9,34.49,17.1
		c11.41,2.82,22.39,7.48,33.47,11.55c4.5,1.65,8.95,2.42,13.66,1.41c0.32,0.39,0.65,0.79,0.97,1.18c0.18,0.77,0,1.45-0.54,2.03
		c-5.06,5.55-11.97,1-17.64,3.22c-13.94-10.72-30.77-14.07-47.2-18.38c-18.98-4.98-19-4.9-16.77,13.64
		c-5.27-3.72-2.04-14.14-11.84-13.28c-6.67,0.59-13.67-0.82-19.81,2.62c-5.12,2.87-10.04,3.38-15.24,0.49
		c-2.57,9.45,1.04,18.01,1.3,26.75c-8.3,0.9-6.79-6.4-8.95-10.64c-0.39-1.08-0.67-2.19-0.92-3.31c0.4-7.34-5.77-8.11-10.44-10.39
		c-0.73-0.93-1.16-1.97-1.28-3.15c0.69-4.22,3.34-7.34,5.88-10.53c5.4-0.82,10.24,1.69,15.28,2.81
		C710.93,592.09,712.52,591.47,713.52,588.76z"/>
	<path class="st77" d="M411.08,695.49c-5.78-15.9-5.86-32.74-6.9-49.23c-0.48-7.54,0.48-14.94-3.35-21.85
		c6.16-10.21,10.66-10.65,20.64-2.01c1.81,8.12,5.37,15.87,5.12,24.42c-3.02,3.96-0.9,9.37-3.75,13.39
		c-0.89,1.91-2.39,3.47-3.27,5.36c-2.13,4.59-12.36,7.16-2.63,15.06C419.37,682.61,422.24,694.05,411.08,695.49z"/>
	<path class="st106" d="M835.31,623.97c9.45,15.37,9.02,33.17,12.51,50.03c1.27,6.12-1.34,8.09-6.47,9.72
		c-6.78,2.15-7.65-1.97-8.82-6.83c-3.17-13.13-7.44-25.99-8.57-39.6c-0.21-2.49-2.81-4.78-4.31-7.16c0.18-0.53,0.35-1.07,0.52-1.61
		c2.11-3.64,5.69-5.78,8.83-8.29C833.83,616.37,833.77,621.73,835.31,623.97z"/>
	<path class="st107" d="M421.46,622.4c-7.27-3.31-14.46-5.82-20.64,2.01c-0.65-5.63-6.28-6.08-9.34-9.28
		c-5.09,3.19-1.36,10.09-5.94,13.27c0.66-3.63-2.05-6.86,1.43-13c-6.84,4.3-9.89,7.17-11.36,11.56c-4.08,4.83-6.72,3.85-6.22-2.23
		c0.8-9.9,17.06-19.55,27.47-16.81c-5.7-7.36-5.7-7.36,1.27-11.28c10.17,6.75,16.32,19.52,30.45,20.35
		c12.25-0.03,24.64,2.31,36.62-2.18c3.45-1.03,6.89-1.22,10.31,0.1c3.35,2.36,4.45,7.46,9.49,7.79c1.07,0.3,2.02,0.81,2.89,1.49
		c0.57,1.02,0.53,2.03-0.12,3c-0.07,3.32-0.15,6.63-0.22,9.95c-7.61-3.22-3.99,9.02-10.35,7.52c-0.31-15.4-8.81-20.77-23.28-19.45
		C442.96,626.2,432.53,620.44,421.46,622.4z"/>
	<path class="st108" d="M650.37,608.76c-0.45,1.08-0.59,2.71-1.39,3.15c-12.44,6.91-12.46,6.88-15.26,18.59
		c-4.52-18.95-4.52-18.95-19.38-11.27c-1.39,4.64-3.64,7.82-8.76,4.11c-2.83-2.05-6.01-2.72-9.24-3.47
		c-16.81-4.14-16.81-4.14-16.95,18.95c-4.52-0.33-2.86-4.2-3.79-6.53c-2.15-4.33-3.11-9.38-7.51-12.37
		c-0.57-1.07-0.84-2.2-0.84-3.41c4.32-8.21,9.24-15.83,18.75-18.89c1.92,0.19,3.34,1.12,4.2,2.84c3.93,9.48,13.3,4.51,19.71,7.37
		c7.41,3.32,12.15-3.91,18.51-4.7c3.06,0.71,5.94,2.2,9.19,2.16c1.63,0.19,3.24,0.46,4.86,0.67
		C645.31,606.33,648.19,606.57,650.37,608.76z"/>
	<path class="st109" d="M695.68,644.75c-1.03,0.09-2.05,0.18-3.08,0.28c-5.55-0.15-7.79,10.47-12.98,5.93
		c-3.79-3.31-6.03-10.25-4.66-16.68c1.75-8.23-4.67-14.91-4.44-22.87c1.42-9.58,6.88-12.29,15.71-9.25
		c13.83,2.79,10.56,11.17,6.2,19.75c3.51-2.09-0.05-11.6,8.73-7.84l-0.13-0.16C698.86,624.12,705.09,635.79,695.68,644.75z"/>
	<path class="st88" d="M215.52,542.72c9.62-7.84,21.98,0.26,32.12-5.66c8.88-5.18,20.06-3.42,29.05-8.69
		c7.74,4.85,2.59,8.06-1.4,11.53c-4.02,3.48-9.38,3.42-14.02,4.99c-10.02,3.38-20.07,7.02-30.69,8.39c-0.1-3.33-1.25-4.22-4.47-2.47
		C216.78,555.89,214.66,551.17,215.52,542.72z"/>
	<path class="st110" d="M309.32,667.57c-0.12,23.7-2.99,46.96-11.86,72.15c-0.52-11.86-6.05-20.44-2.76-30.19
		c-1.08-3.41,1.46-6.49,0.86-9.84C287.05,685,291.8,673.96,309.32,667.57z"/>
	<path class="st55" d="M263.7,596.1c5.92,9.95,14.69,17.29,24.69,27.15c0-6.66,0-11.38,0-16.09c0.38-7.51,6.9-5.11,8.95-3.66
		c4.92,3.5-1.98,5.93-2.19,9.28c0.49,1.9-3.26,5.84,2.57,5.1c1.62-0.3,3.11-0.03,4.52,0.78c3.43,5.13,9.67,4.76,14.39,7.36
		c0.62,0.63,0.87,1.3,0.76,2.01c-0.11,0.72-0.26,1.09-0.43,1.09c-1.69,1.83-3.38,3.66-5.07,5.5c-5.36,0.21-11.55-2.97-15.15,4.19
		c-0.96,1.9-2.65,5.08-5.5,2.55c-1.92-1.71-0.97-4.61-0.37-7.02c-8.18-12.35-21.04-18.96-32.45-27.57c-3.6,3.8-2.44,8.28-4.66,13.71
		c1.43-8.78-2.67-14.89-2.77-21.69c0.4-0.4,0.81-0.8,1.21-1.22C255.9,596.04,259.59,594.46,263.7,596.1z"/>
	<path class="st111" d="M230.58,553.27c10.78-10.17,25.54-8.96,38.34-13.33c5.77-1.97,11.88-3.2,7.77-11.57c0,0-0.6-0.95-0.6-0.95
		c1.59-5.55,4.72-3.43,7.12-1.05c2.43,2.41,2.69,6.06,3.65,9.26c-4.7,5.71-11.8,6.8-18.1,9.48c-4.1,1.75-8.75,2.92-10.44,7.91
		c-1.68,0.95-3.35,1.91-5.03,2.86c-3.71-5.43-8.2-4.92-10.4,0.43c-4.26,10.34-13.51,12.48-22.35,15.68
		c-0.27-0.45-0.55-0.89-0.82-1.34C220.01,562.77,227.74,559.55,230.58,553.27z"/>
	<path class="st42" d="M290.88,634.35c0.38,1.98,0.76,3.97,1.26,6.58c5.91-12.57,9.22-13.53,19.75-6.3
		c-0.28,1.62-1.04,2.69-2.87,2.57c-1.98,5.9-0.74,12.11-1.78,18.11c-6.95,4.93-9.43,14.13-17.34,18.15c-1.95-0.3-3.1-1.46-3.58-3.33
		C285.43,657.89,287.88,646.09,290.88,634.35z"/>
	<path class="st77" d="M596.35,619.87c4.01-0.04,8.56-1.56,11.63,1.92c5.12,5.82,3.65-3.3,6.36-2.56c1.13,14,1.38,28.14,7.62,41.21
		c1.78,3.73,1.73,7.3-2.41,9.7c-0.53,5.01-4.52,4.76-8.01,5.29c-2.55-8.92-6.93-17.61-2.4-27.28c0.54-1.14-1.49-3.49-2.33-5.27
		c-1.92-6.09-1.56-12.8-5.07-18.45C599.94,622.91,598.15,621.39,596.35,619.87z"/>
	<path class="st112" d="M553.66,430.99c5.7-14.8-2.26-23.85-13.05-32.13c-10.67-8.2-21.04-16.81-31.28-25.55
		c-5.84-4.98-10.4-4.61-14.45,1.89c-2.9,1.63-3.63-1.19-5.09-2.5c0.08-5.3-3.44-7.96-7.49-10.24c-2.24-3.25-0.97-5.33,2.26-6.75
		c5.63,4.93,10.17,9.1,19.18,10.92c11.1,2.24,20.45,13.65,30.29,21.44c7.9,6.25,15.4,13.01,23.07,19.55
		c6.64,5.67,4.95,13.76,6.06,21.04c-0.61,0.82-1.36,1.48-2.27,1.97C558.52,431.37,556.17,432.78,553.66,430.99z"/>
	<path class="st54" d="M220.15,606.39c-0.05-1.45-0.11-2.9-0.16-4.35c9.41-2.55,18.76-5.71,28.66-2.43
		c-4.3,8.82-2.15,20.09-10.44,27.39c-5.59-4.87-10.41,0.14-15.53,1.22C215.42,621.69,220.86,613.68,220.15,606.39z"/>
	<path class="st94" d="M716.06,545.4c-7.41-3.83-10.9-11.29-14.79-17.78c-5.76-9.61-10.24-7.52-15.62-0.39
		c-2.06-0.26-3.71-1.65-7.16-2.45c2.51,4.24,3.76,7.95,7.6,10c2.16,3.2,6.5,5.4,4.42,11.45c-12.42-4.16-18.13-13.32-20.45-25.37
		c-0.97-1.61-0.76-3.05,0.62-4.32c1.65-0.27,3.37-0.97,4.95-0.74c7.03,1.04,14.62-8.71,19.79-2.32
		C703.31,523.2,715.29,530.9,716.06,545.4z"/>
	<path class="st95" d="M221.95,626.94c5.29-0.99,7.34-6.3,12.16-8.97c1.3,3.02-1.54,8.29,4.1,9.03c4.24,13.01-3.62,20.34-13.6,24.55
		c-5.65,2.38-12.49-0.02-9.35-9.41C218.82,637.66,214.39,629.66,221.95,626.94z"/>
	<path class="st113" d="M411.08,695.49c6.84-5.4,5.32-10.97,0.65-16.95c-2.58-3.3-4.58-7.07-2.65-11.56
		c2.01,3.44,3.89,6.69,6.21,0.11c1.11-3.13,2.66-6.16,6.21-7.37c5.78,5.48,3.34,13.71,6.69,20.01c0.19,1.92,0.38,3.84,0.57,5.75
		c-3.56,7.98-1,19.3-12.5,22.97C412.94,704.77,412.78,699.82,411.08,695.49z"/>
	<path class="st43" d="M477.18,644.65c2.69-0.36,3.24-2.48,2.96-4.48c-1.54-10.97,4.17-3.91,7.39-3.04
		c1.35,13.34,0.05,26.84,2.64,40.14c0.88,4.51-0.52,9.14-2.99,13.23l0.18-0.13c-5.4-4.08-5.02-10.08-5.26-15.87
		C481.69,664.35,481.67,654.13,477.18,644.65z"/>
	<path class="st114" d="M288.69,672.05c7.53-3.96,7.53-15.74,17.64-17.03c2.03,2.54-0.21,5.35,0.5,7.98
		c0.83,1.52,1.66,3.05,2.5,4.57c-0.68,0.46-1.43,0.83-2.01,1.38c-9.24,8.72-20.43,16.94-8.34,31.34
		c-8.19,4.05-13.59,0.89-13.87-8.83C284.9,684.87,286.09,678.27,288.69,672.05z"/>
	<path class="st81" d="M250.95,560.92c7.13-0.8,5.24,4.61,5.39,8.22c0.2,4.79-0.15,9.6-0.27,14.4c1.09,2.18-0.39,3.08-1.95,3.96
		c-7,1.77-12.75,5.97-18.79,9.64c-3.67,1.25-7.39,2.79-10.33-1.36c3.51-3.85,7.02-7.7,10.53-11.55c1.17-7.92,7-12.77,11.95-18.21
		C250.16,565.37,250.9,563.38,250.95,560.92z"/>
	<path class="st105" d="M568.66,616.81c-0.02,0.71-0.04,1.42-0.07,2.14c-0.47,1.21-1.34,1.95-2.61,2.23
		c-4.38,7.84-11.19,4.87-17.63,4.08c-15.36-1.88-19.23,0.48-20.12,11.89c-6.1,0.49-5.55-4-5.88-7.84c0.22-0.7,0.26-1.42,0.12-2.14
		c-11.51-4.18-23.78,0.96-35.32-2.9l0.25,0.22c2.86-14,12.72-5.4,19.69-6.14c6.89-1.22,13.82-0.46,20.73-0.54
		c8.95,0.99,17.83,0.13,26.69-0.97C559.22,614.03,563.95,610.98,568.66,616.81z"/>
	<path class="st115" d="M410.77,347.09c-0.88,0.82-1.76,1.63-2.63,2.45c-6.98,4.19-15.41,3.39-22.67,6.6
		c-1.84-0.58-3.27-1.43-2.41-3.74c10.39-11.41,20.97-22.66,31.08-34.32c5.08-5.86,10.21-8.23,17.16-3.57
		c0.55,0.62,0.76,1.26,0.62,1.92c-0.14,0.67-0.3,1-0.46,1c-3.49,2.43-7.09,4.76-9.93,8.01c-4.37,2.17-8.1,5.18-11.45,8.7
		c-0.37,3.01-9.62,2.82-2.91,8.32C409.28,343.3,411.72,343.89,410.77,347.09z"/>
	<path class="st116" d="M429.3,713.04c0.44-2.86,0.92-5.72,1.31-8.59c0.39-2.83,0.68-5.68,3.7-8.54c0,7.41,0.52,14.87-0.11,22.22
		c-1.17,13.55,1.8,26.74,2.53,40.11c0.15,2.84,0.44,6.35-3.92,6.39c-4.2,0.03-4.13-3.3-4.34-6.27c-0.64-9.15-1.3-18.29-1.95-27.44
		C429.61,725.29,425.18,718.5,429.3,713.04z"/>
	<path class="st117" d="M288.69,672.05c-0.13,4.65,1.84,8.74-1.44,14.03c-3.83,6.17,4.15,14.82,11.73,14.22
		c0.67,4.06-2.44,6.36-4.28,9.24c-3.41,1.61-6.03,9.64-10.68,1.31c-2.86,1.15-3.83-0.58-3.66-2.86c0.31-4.11,0.25-8.12-1.18-12.04
		c5.45-7.76,2.8-17.77,7.15-25.83C287.11,670.76,287.9,671.41,288.69,672.05z"/>
	<path class="st10" d="M316.96,629.13c-0.01-0.65,0-1.3,0.02-1.94c-0.43-9,3.49-9.95,10.29-5.55c5.38,6.27,9.31,15.31,20.4,10.67
		c3.69-3.96,8.33-3.8,13.12-3.06c7.27,2.23,7.56,7.06,4.83,13.01c-1.51,2.59-2.45,2.95-2.57-0.6c-0.02-0.72-0.46-1.44-0.71-2.15
		c-6.49-5.19-14.14-1.71-21.07-2.12C332.03,636.83,323.95,635.23,316.96,629.13z"/>
	<path class="st96" d="M484.57,355.72c-2.62,1.62-2.74,4.09-2.26,6.75c-1.72,0.86-3.43,1.73-5.15,2.59
		c-11.92,0.36-22.88,4.96-34.24,7.78l-0.14-0.06c-4.06,2.09-5.52-0.45-6.57-3.7c8.8-6.8,19.47-8.87,29.83-11.7
		c4.81-1.31,10.08-1.42,13.63-5.72C481.3,353.01,482.93,354.36,484.57,355.72z"/>
	<path class="st63" d="M650.37,608.76c-3.39-0.15-6.79-0.29-10.18-0.44c-3.13-9.72,5.2-12.9,10.67-16.43
		c5.32-3.44,10.1-6.94,13.69-12.1c3.07-2.39,6.16-4.39,9.29-0.08c0.05,10.83-10.67,15.5-13.94,24.43c-0.45,1.54-1,3.04-1.75,4.47
		C655.6,610.53,652.98,609.55,650.37,608.76z"/>
	<path class="st33" d="M224.99,595.77c4.66,1.09,8.9-0.02,12.88-2.49c4.68-0.38,9.39-0.86,13.32,2.62c0.63,1.14,0.47,2.16-0.49,3.05
		c0,0,0.3-0.15,0.3-0.15c-0.73,0.44-1.51,0.71-2.35,0.81c-9.39,2.68-18.98,3.12-28.66,2.43c-5.89-4.04-11.97-7.52-21.12-5.63
		C208.7,586.11,216.81,595.19,224.99,595.77z"/>
	<path class="st15" d="M716.46,710.89c3.31-4.17,4.97-10.34,12.03-10c-0.75,7.39,3.53,15.33-2.45,22.14
		c-3.19,0.71-3.8,4.94-7.24,5.3c-1.6-0.56-4.76,3.3-4.41,0.15C715.03,722.65,712.17,716.27,716.46,710.89z"/>
	<path class="st118" d="M658.15,608.61c-0.11-1.48-0.21-2.96-0.32-4.44c6.3-7.11,10.2-17.64,22.69-15.95
		c1.38,1.38,1.76,3.08,1.59,4.95c-6.23,10.32,6.06,2.08,6.12,6.09c-0.01,0.76-0.04,1.52-0.08,2.28c0.63,0.57,0.78,1.04,0.45,1.4
		c-0.28,0.3-0.57,0.45-0.86,0.45c-6.34,1.37-14.79-1.78-17.23,8C669.16,598.23,662.18,609.94,658.15,608.61z"/>
	<path class="st119" d="M522.35,629.3c3.1,1.76,1.39,7.13,5.88,7.84c5.02,8.86,5.03,18.57,4.88,28.32
		c-7.59-3.53-2.24-12.19-6.48-16.31c-0.82-2.23-3.03-0.22-1.48-0.88c0.32-0.14,0.56-0.01,0.72,0.39
		c4.76,11.66,4.73,12.84-0.45,18.98C524.99,654.81,515.98,642.68,522.35,629.3z"/>
	<path class="st108" d="M670.68,516.52c-0.21,1.44-0.42,2.88-0.62,4.32c-6.23-9.01-16.64-12.09-26.6-21.04
		c1.33,7.41,2.05,11.43,2.77,15.45c-7.94,0.8-7.65-5.39-8.8-10.36c0.44-6.18-0.6-10.94-8.63-9.02c-1.32-1.42-1.24-3.08-0.8-4.79
		c0.44-1.11,1.27-1.8,2.41-2.13C644.27,497.5,659.25,504.42,670.68,516.52z"/>
	<path class="st119" d="M544.85,746.64c-1.78-22.62-14.83-43.65-7.43-67.01C536.92,702.45,547.41,723.89,544.85,746.64z"/>
	<path class="st120" d="M416.26,708.45c6.15-6.58,7.39-15.83,12.5-22.97c0.03,6.74,0.06,13.48,0.1,20.22
		c-2.7,2.04,0.11,6.12-2.96,8.02c-3.38,1.27-4.25,4.27-5.06,7.31c-0.84,2.24-1.96,3.94-4.74,2.52
		C415.09,718.5,414.89,713.47,416.26,708.45z"/>
	<path class="st10" d="M383.06,352.39c1,0.9,2,1.81,3,2.71c-1.33,7.72-10.66,8.49-13.19,15.18c-13.6-1.86-19.18,6.64-22.81,17.66
		c-1.17,0.97-2.25,0.87-3.23-0.29C350.06,366.8,371.39,364.56,383.06,352.39z"/>
	<path class="st121" d="M487.18,690.5c7.98,3.39,4.72,11.76,7.49,17.48c0.98,2.02,1.31,6.67-2.87,6.87
		c-2.59,0.13-5.43-1.7-6.94-4.64c-3.7-7.24,1.99-13.2,2.49-19.85C487.36,690.37,487.18,690.5,487.18,690.5z"/>
	<path class="st122" d="M428.2,679.73c-1.49,0.42-4.1,3.82-3.73,1.96c1.59-7.91-4.12-14.44-2.96-21.96c-0.5-5.16,1.33-9.4,5.06-12.9
		C428.1,657.74,430.76,668.61,428.2,679.73z"/>
	<path class="st43" d="M718.8,728.35c2.67-1.42,0.74-9.12,7.24-5.3c0,9.76,0,19.51,0,29.27c-1.57,0.19-3.15,0.38-4.72,0.58
		C728.46,742.89,715.26,737.52,718.8,728.35z"/>
	<path class="st40" d="M431.33,316.65c0.02-0.72,0.01-1.44-0.04-2.16c14.85,3.66,23.83,15.19,33.89,25.27
		c-5.69,0.2-10.02-2.28-13.35-6.73c-2.57,0.64-4.48-0.71-6.37-2.1C441.24,325.69,434.4,323.03,431.33,316.65z"/>
	<path class="st106" d="M817.91,614.78c0.11-1.7-6.26-5.69,0.59-4.63c5.73,0.89,11.28,1.78,17.05,1.41c-0.1,1.87-0.2,3.74-0.3,5.62
		c-4.84,0.27-6.22,5.27-9.81,7.15c-1.96,1.02-4.68,3.17-4.92,4.98c0,0-0.86,0.81-0.86,0.81
		C817.19,625.23,818.42,619.91,817.91,614.78z"/>
	<path class="st114" d="M695.68,644.75c5.77-9.59-0.79-21.32,5.36-30.84c4.49,3.06,0.33,11.1,7.32,12.72c0,1.01,0,2.01-0.01,3.02
		c-6.16,0.75-5.02,6.63-7.17,10.2C699.85,642.05,701.17,647.22,695.68,644.75z"/>
	<path class="st112" d="M221.95,626.94c-7.45,2.77,2.12,13.03-6.68,15.2c0.66-12.05-0.96-24.41,4.88-35.75
		C225.21,612.85,218.37,620.35,221.95,626.94z"/>
	<path class="st13" d="M835.12,608.36c9.63-5.26,19.66-8.69,30.86-6.66c0.59,2.24,0.23,3.5-2.45,2.42
		c-10.09,1.42-2.16,9.84-6.13,14.85c-1.71-16.5-11.68-12.51-21.31-9.43C835.55,609.32,835.23,608.93,835.12,608.36z"/>
	<path class="st49" d="M652.34,718.48c-7.93-12.29-6.61-26.61-7.72-40.45c3.26,13.55,6.52,27.11,9.77,40.66
		C653.6,719.63,652.92,719.56,652.34,718.48z"/>
	<path class="st123" d="M611.54,675.44c0.9-4.45,7.37-0.46,8.01-5.29c3.6,7.07,5.28,14.09-0.66,21.25
		C614.62,686.7,613.86,680.7,611.54,675.44z"/>
	<path class="st33" d="M346.83,387.64c1.08,0.1,2.16,0.19,3.23,0.29c0.84,5.96,1.68,11.91,2.52,17.87
		c-0.96,0.81-2.03,1.04-3.24,0.68c-3.96-4.42-7.76-9.12-14.66-8.44l-0.61-0.6C337.59,393.23,339.71,387.18,346.83,387.64z"/>
	<path class="st13" d="M561.57,428.55c0.53,0.13,1.06,0.16,1.59,0.12c4.41,6.04,8.82,12.08,13.23,18.12
		c-1.7,0.48-4.01-0.84-5.02,1.69c1.1,1.72,1.14,3.54,0.48,5.41c-2.02,1.23-3.46,0.23-4.79-1.22
		C563.96,444.92,554.95,438.51,561.57,428.55z"/>
	<path class="st124" d="M528.56,717.89c-1.76-11.01-5.4-21.79-4.71-33.09c1.12-0.21,2.23-0.42,3.35-0.62
		c1.23,10.51,2.46,21.03,3.69,31.54C531.79,718.23,530.81,718.74,528.56,717.89z"/>
	<path class="st125" d="M591.21,459.79c-3.8-2.74-10.29-2.72-9.93-9.71c3.33,1.69,6.49,4.18,10.02,4.93
		c9.55,2.04,16.24,6.7,18.38,16.67c-0.27,1.59-1.71,1.74-2.83,2.28l-1.17,0.19l-1.19-0.01
		C600.69,468.77,596.56,463.71,591.21,459.79z"/>
	<path class="st126" d="M606.84,473.95c0.94-0.76,1.89-1.52,2.83-2.28c9.2,3,13.97,11.33,20.73,17.27c-0.52,0.45-1,0.93-1.46,1.44
		c-3.35,2.22-6.42,1.8-9.25-0.96C618.94,481.34,613.31,477.3,606.84,473.95z"/>
	<path class="st92" d="M565.97,621.17c0.87-0.74,1.74-1.48,2.61-2.23c11.61-0.43,6.13,8.13,7.02,13.34c-0.6,1.58-1.2,3.16-1.81,4.75
		c-1.7,1.57-3.42,1.57-5.16,0.06C574.96,630.58,566.12,626.6,565.97,621.17z"/>
	<path class="st72" d="M372.71,702.98c-7.31-11.64,1.49-20.5,5.22-30.24C379.82,683.45,374.19,692.86,372.71,702.98z"/>
	<path class="st16" d="M632.78,767.97c-1.99-7.84-5.44-15.33-6.37-23.43C633.59,751.08,633.22,759.51,632.78,767.97z"/>
	<path class="st127" d="M733.22,673.29c-6.8-10.49-11.33-21.72-10.14-34.82c3.83,11.22,7.65,22.44,11.48,33.66
		C734.11,672.52,733.67,672.91,733.22,673.29z"/>
	<path class="st128" d="M652.92,695.23c-1.23-10.6-4.57-21.06-2.16-31.96c3.57,10.45,5.9,21.04,4.2,32.19
		C654.13,696.77,653.45,696.69,652.92,695.23z"/>
	<path class="st8" d="M416.1,723.55c1.58-0.84,3.16-1.68,4.74-2.52c3.97,6.72,0.42,13.56,0.31,20.35l0.12-0.08
		C413.28,737.2,416.58,729.82,416.1,723.55z"/>
	<path class="st109" d="M528.79,730.64c-1.87,8.43,5.46,13.67-0.09,18.94c-3.1,2.94-9.36-3.88-6.34-7.25
		C524.9,739.5,524.07,735.96,528.79,730.64z"/>
	<path class="st121" d="M627.52,713.23c3.28,9.32,4.45,19.27,8.44,28.45c-8.01-6.87-7.92-17.19-11.16-26.07
		C625.72,714.85,625.89,713.21,627.52,713.23z"/>
	<path class="st94" d="M247.47,566.02c-1.93,7.42-7.49,12.45-11.95,18.21c-1.01-5.73,7.65-22.24,11.98-22.87
		C247.5,562.92,247.48,564.47,247.47,566.02z"/>
	<path class="st129" d="M225.07,698.94c-0.23-9.16,0.24-18.15,4.53-28.02C231.86,681.91,229.13,690.56,225.07,698.94z"/>
	<path class="st120" d="M652.34,718.48c0.67,0.23,1.35,0.3,2.06,0.21c3.69,8.89,7.75,17.68,7.22,27.81
		C656.22,737.95,654.56,728.12,652.34,718.48z"/>
	<path class="st130" d="M359.23,740.61c2.84-6.84,3.96-12.69,9.48-16.56C374.59,734.49,365.46,735.73,359.23,740.61z"/>
	<path class="st131" d="M863.53,604.12c0.82-0.81,1.63-1.61,2.45-2.42c1.68,0.02,3.37,0.1,5.05,0.04c3.3-0.11,6.76-1.45,9.74,0.77
		c0.55,0.41,0.46,3.06-0.08,3.36c-3.29,1.85-6.66,3.26-10.68,1.48C867.79,606.36,864.93,606.77,863.53,604.12z"/>
	<path class="st94" d="M820.52,629.31c0-3.94,0-7.88,0-11.93c3.24-0.19,2.54,10.61,7.41,1.99c1.65-2.91,4.19-3.78,7.32-2.19
		c0.02,2.26,0.04,4.52,0.06,6.78c-1.74-0.55-1.98-5.39-5.3-1.61C827.41,625.33,825.41,629.37,820.52,629.31z"/>
	<path class="st132" d="M588.01,683.73c-2.36-10.2-5.85-17.03,0-24.33C588.01,666.41,588.01,673.43,588.01,683.73z"/>
	<path class="st133" d="M250.22,652.69c-1.07,11.12-1.85,19.15-2.62,27.18C246.41,671.69,242.95,663.34,250.22,652.69z"/>
	<path class="st119" d="M487.15,624.27c11.73,1.54,23.99-3.5,35.32,2.9c-11.57,0.01-23.14,0.01-34.72,0.02
		C487.55,626.21,487.35,625.24,487.15,624.27z"/>
	<path class="st134" d="M306.83,663c-5.51-2.32-0.45-5.31-0.5-7.98c-1.65-6.33,0-12.16,2.69-17.83
		C308.27,645.8,312.66,654.83,306.83,663z"/>
	<path class="st135" d="M525.42,667.64c7.51-6.32-1.77-13.28,1.09-19.63c5.99,4.13,1.58,12.64,6.59,17.45
		C531.04,667.96,529.51,672.33,525.42,667.64z"/>
	<path class="st109" d="M528.56,717.89c0.78-0.72,1.55-1.45,2.33-2.17c2.32,6.19,6.15,12.18,1.68,23.04
		C530.79,729.45,529.68,723.67,528.56,717.89z"/>
	<path class="st127" d="M734.56,672.13c2.22,8.23,4.44,16.47,6.66,24.7c-6.97-6.7-6.34-15.44-8-23.54
		C733.67,672.91,734.12,672.52,734.56,672.13z"/>
	<path class="st36" d="M627.52,713.23c-0.91,0.79-1.82,1.59-2.72,2.38c-3.04-7.63-3.58-15.6-3.09-23.77
		C626.87,698.15,624.46,706.44,627.52,713.23z"/>
	<path class="st132" d="M568.64,637.09c1.72-0.02,3.44-0.04,5.16-0.06c0.78,6.88,1.55,13.77,2.72,24.18
		C571.23,651.46,569.95,644.27,568.64,637.09z"/>
	<path class="st136" d="M220.55,571.98c-6.41,5.7-10.87-0.59-16.68-2.43c6.46-8.44,10.57,3.3,15.86,1.09l0.81,0.42L220.55,571.98z"
		/>
	<path class="st46" d="M252.38,710.1c-2.26-8.37-1.25-12.86,1.58-17.19C255.98,697.61,257.26,702.24,252.38,710.1z"/>
	<path class="st8" d="M421.14,741.37c4.03,5,6.35,10.13,1.23,16.64c-2.23-6.01-5.62-11.1-1.11-16.73
		C421.26,741.29,421.14,741.37,421.14,741.37z"/>
	<path class="st137" d="M763.97,643.64c-3.92-9.72-8.1-16.36-7.04-27.36C761.51,625.66,765.38,632.39,763.97,643.64z"/>
	<path class="st126" d="M721.85,665.12c-4.82-6.03-10.43-11.84-5.67-20.52C718.68,651.28,722.23,657.66,721.85,665.12z"/>
	<path class="st29" d="M235.13,649.2c1.39,5.38,0.53,9.04-3.5,11.12c-0.34,0.18-3.78-1.2-5.93-1.27
		C225.92,653.57,230.35,652.01,235.13,649.2z"/>
	<path class="st27" d="M279.17,695.95c5.38,3.74,0.42,10.84,4.84,14.9c-0.44,1.43-0.44,3.5-1.41,4.17
		c-1.83,1.27-3.16-0.67-3.23-2.11C279.11,707.27,279.21,701.61,279.17,695.95z"/>
	<path class="st108" d="M601.74,624.44c7.23,4.62,5.54,11.7,5.07,18.45C602.8,637.37,600.47,631.4,601.74,624.44z"/>
	<path class="st138" d="M325.99,672.03c-4.63-5.02-4.23-9.06-3.16-14.14C328.22,661.79,328.1,665.93,325.99,672.03z"/>
	<path class="st139" d="M686.81,681.86c-1.12-6.78-6.04-13-2.25-21.94C686.46,668.28,690.06,674.63,686.81,681.86z"/>
	<path class="st32" d="M572.99,694.25c3.74,5.96,4.15,10.16,2.49,15.34C570.71,705.46,570.31,701.1,572.99,694.25z"/>
	<path class="st140" d="M652.92,695.23c0.68,0.09,1.36,0.17,2.05,0.23c2.85,5.59,5.13,11.31,4.97,20.95
		C656.17,707.6,653.15,701.91,652.92,695.23z"/>
	<path class="st66" d="M425.89,713.71c0.9-2.7-0.62-6.3,2.96-8.02c0.15,2.45,0.29,4.9,0.44,7.34c-2.45,5.72,1.59,12.45-2.79,17.87
		C426.31,725.18,426.1,719.45,425.89,713.71z"/>
	<path class="st47" d="M619.02,723.56c-4.08-4.72-3.07-10.51-4.95-18.46c7.11,6.45,5.24,13.37,7.94,18.48
		C621.01,724.95,620.01,724.95,619.02,723.56z"/>
	<path class="st108" d="M619.02,723.56c1,0.01,1.99,0.01,2.99,0.02c0.92,5.86,4.8,11.09,4.07,19
		C620.73,736.2,620.27,729.73,619.02,723.56z"/>
	<path class="st16" d="M507.66,621.62c-6.49,2.82-14.7-6.48-20.27,2.87c-7.34,2.97-10.35-0.28-10.66-7.42
		c0.53-1.65,1.77-2.7,3.12-3.65c-1.25-1.13-2.13,0.34-3.13,0.57c-4.05,0.92-8.89-1.32-12.12,2.92c-12,7.24-24.02,3.61-36.04,0.09
		c15.08-9.33,34.01-11.31,46.89-25.35c2.57-2.8,10.14-2.68,14.77-1.48c4.68,1.22,9.1,0.08,13.54,0.95
		c8.17-2.31,15.59-6.6,23.72-9.02c6.45-0.13,7.97,3.16,6.08,8.8c-1.98,4.23-5.73,6.71-9.53,8.94c-4.05,2.38-1.12,4.7-0.37,7.11
		C521.98,615.81,513.67,617.46,507.66,621.62z"/>
	<path class="st82" d="M538.38,527.79c3.19-4.38,7.86-6.12,12.89-7.21c3.43,1.09,4.69,4.01,5.93,8.57
		c0.19-5.21-2.02-8.01-3.22-11.15c-1.1-4.2-5.18-0.57-7.2-2.72c-0.35-4,9.55-4.2,3.87-10.14c-4.43-6.23,4.06-7.7,4.47-12.17
		c0.44-1.07,1.22-1.75,2.3-2.12c3.3-0.39,7.23,1.73,6.55,3.9c-2.42,7.83,5.7,11.23,6.27,17.52c-3.43,13.65-1.55,27.44-0.98,41.2
		c-4.21,5.02-7.85,10.76-15,12.15c-7.58-6.39-11.54,5.04-18.1,3.71c-5.81-3.32-8.12-8.15-6.34-14.74c1.35-3.02,2.94-6.09,5.4-8.15
		C541.73,540.98,541.73,534.75,538.38,527.79z"/>
	<path class="st53" d="M286.87,535.62c-2.59-0.84-5.4-0.78-4.84-5.28c0.54-4.33-1.13-7.66-5.93-2.92
		c-4.03-0.19-8.06-0.38-12.06-0.57c-0.16-6.56,3.8-10.37,7.08-14.43c3.68-4.55,8.03-12.14,9.9,1.09c0.21,1.48,0.15,4.2,2.22,3.07
		c1.59-0.87,5.46,0.02,4.75-4.16c-0.41-2.45,0.18-5.06,0.32-7.6c3.28-2.84,7.18,0.89,10.56-1.01c13.8,0.93,11.89-10.31,14.19-18.29
		c0.57-1.1,1.44-1.86,2.59-2.32c1.93-0.43,3.52,0.41,5.08,1.35c2.09,5.97,4.17,11.94,6.26,17.91c1.82,7.68,1.58,14.5-7.43,17.62
		c-6.05,0.47-12.36-0.94-18,2.5c-9.11-0.31-8.1,10.96-15.04,13.13L286.87,535.62z"/>
	<path class="st124" d="M365.61,642.25c-1.9-3.41,3.01-10.43-5.48-10.34c-2.89-6.06,2.52-10.03,3.9-14.99
		c1.66-5.95,4.45-11.62,3.43-18.06c2.14-8.96,3.59-17.98,2.45-27.24c-5.64-5.65-1.03-8.59,3.08-11.67c5.59,0.4,5.81,5.47,7.03,8.98
		c3.75,10.81,12.21,18.39,18.08,27.72c-0.83,1.88-8.83,3.2-0.19,5.94c2.5,0.79,5.65,4.2,3.17,8.1c-2.53,3.98-5.73,1.12-6.9-0.72
		c-1.78-2.79-2.76-3.02-5.57-1.5c-7.77,4.2-13.44,10.34-17.73,17.88c-0.6,1.06-0.37,1.2,4.72,0.61
		C375.28,634.03,370.72,638.32,365.61,642.25z"/>
	<path class="st138" d="M554.78,563.33c5.86-1.68,7.36-9.33,13.86-10.13c0.38,0.4,0.75,0.8,1.14,1.2c3.42,4.9-5.11,7.81-2.06,12.66
		c1.43,7.11,9.69,16.23-5.41,18.46c-1.74-0.44-3.23-1.34-4.59-2.46c-2.83-2.11-4.9-5.96-9.46-4.07c-5.94,5.16-14.19-0.17-20.23,4.53
		c-6.79,6.67-14.9,9.11-24.26,7.58c5.8-6.66,13.25-12.35,9.27-23.38c-0.82-2.26,1.09-7.24,4.32-9.73c2.54-0.09,3.46-2.41,5.11-3.73
		c3.36-2.17,6.38-2.83,8.2,1.85c1.7,4.19,3.4,8.39,5.11,12.58C543.5,571.84,548.56,565.53,554.78,563.33z"/>
	<path class="st129" d="M568.16,451.6c1.02,0.78,2.05,1.55,3.07,2.33c2.44,2.84,0.8,5.89-0.44,8.19c-2.1,3.91-2.33,5.6,2.82,4.5
		c0.04,0.89,0.09,1.78,0.13,2.67c-2.53,5.79-1.49,13.58-9.19,16.5c-5.7,3.93-8.25,0.62-10.05-4.31c-4.86-2.05-6.7,6.23-11.75,3.47
		c-2.34-2.14-3.41-4.75-2.98-7.93c0.97-2.81,3.78-4.5,4.9-7.85c-3.79-1.05-5.91,2.84-9.07,2.58c-0.86,0.02-1.73,0.05-2.59,0.07
		c-4.16-2.17-3.59-4.97-0.81-7.75c3.76-3.75,6.72-8.01,8.93-12.82c0.47-1.42,0.95-2.85,1.42-4.27
		C551.22,447.77,562.02,436.8,568.16,451.6z"/>
	<path class="st50" d="M298.96,504.8c-3.55,6.11-7.09-1.23-10.64,0c-3.2-21.84,12.04-38.47,16.49-58.15c0.07-0.3,0.6-0.49,0.91-0.73
		c0.44,0.59,0.88,1.18,1.31,1.77c4.92,1.64,3.67,5.03,2.4,8.43c-0.64,9.85,7.11,18.29,4.78,28.42l0.11-0.15
		C307.73,490.08,307.5,500.57,298.96,504.8z"/>
	<path class="st109" d="M367.47,598.85c8.47,5.05,1.57,11.24,0.51,16.35c-1.22,5.86-5.11,11.16-7.84,16.71
		c-4.16,0.13-8.31,0.27-12.47,0.4c-5.13-5.66-7.45-13.07-7.36-19.94c0.09-6.32-1.66-10.27-6.02-13.89c3.99-9.68,6.88,4.01,10.58,0.5
		c0.86,0.81,1.71,1.62,2.57,2.43c3.79,3.08,7.3,7.59,12.72,2.53C362.01,601.4,361.51,595.49,367.47,598.85z"/>
	<path class="st103" d="M436.2,369.07c2.19,1.23,4.38,2.47,6.57,3.7c-2.11,6.93,5.99,2.66,6.93,6.49
		c-14.95,6.84-31.56,8.53-46.76,14.53c-5.49,2.17-8.99-0.88-10.27-3.99c-1.22-2.96,3.96-5.28,6.44-5.81
		C412.4,381.16,422.45,370.51,436.2,369.07z"/>
	<path class="st4" d="M543.45,484.69c3.72-3.38,7.39-6.81,11.19-10.09c1.1-0.95,3-2.4,2.96,0.81c-0.01,1.12-1.08,2.22-1.67,3.33
		c-1.03,5.18-3.08,10.35-0.3,15.61c1.36,5-6.29,5.83-4.99,10.8c-3.15,0.5-6.47,0.52-9.39,1.62c-3.83,1.44-6.96,8.66-11.04,3.94
		c-2.26-2.62-1.06-9.46,2.25-13.7C537.53,494.14,531.91,481.76,543.45,484.69z"/>
	<path class="st70" d="M327.26,621.64c-5.88-2.7-8.29,1.04-10.29,5.54c-5.29-2.29-15.17,4.36-15.36-7.88
		c-0.23-1.23-0.62-2.48-0.59-3.71c0.12-4.96-1.17-10.95,3.24-14.12c5.67-4.07,8.13,4.17,12.84,4.92
		C320.49,611.48,323.88,616.56,327.26,621.64z"/>
	<path class="st103" d="M530.66,556.12c-3.2-2.28-6.24-1.53-9.21,0.48c-5.73-6.72-0.46-10.1,4.16-13.67
		c6.75-2.94,1.19-16.26,12.76-15.14c7.79,3.5,8.39,9.53,4.26,15.7C539.46,548.24,534.71,551.95,530.66,556.12z"/>
	<path class="st131" d="M568.16,451.6c-3.41-2.06-4.76-9.99-11.33-2.39c-3.87,4.47-8.89-4.49-14.28-2.24
		c-1.04-4.59-1.37-8.57,0.49-13.66c3.03-8.3,8.91,5.45,10.62-2.32c2.63-0.81,5.27-1.63,7.9-2.44
		C558.58,437.71,567.58,443.45,568.16,451.6z"/>
	<path class="st42" d="M393.64,455.36c3.63,8.63,11.27,16.73,3.93,26.59c-7.28,9.77-14.14-1.92-21.93-0.47
		c-0.03,10,5.04,19.08,5.37,29.15c-7.03-8.99-7.99-20.16-9.98-30.78c-0.61-3.28,2.18-5.94,6.92-4.07c4.68,1.84,9.73,9.8,14.7,1.21
		c2.88-4.97,3.91-10.99,0.78-16.85C392.8,458.92,393.54,456.97,393.64,455.36z"/>
	<path class="st141" d="M431.33,316.65c6.62,2.56,11.1,7.8,15.87,12.67c-2.34,6.17-8.15,6.3-13.27,7.64
		c-0.04,0.92-0.08,1.85-0.13,2.77c-12.89,1.55-12.82,1.57-9.47-11.18c0.15-0.56-4.41-0.92-3.18-4.23
		C420.99,317.06,426.09,316.76,431.33,316.65z"/>
	<path class="st142" d="M372.99,559.95c0.04,4.17-5.6,6.84-3.08,11.67c-3.95,6.04-0.26,14.21-5.85,20.09
		c-5.93-13.61-6.59-27.45-2.34-43.23C363.99,554.61,372.05,552.96,372.99,559.95z"/>
	<path class="st133" d="M372.87,370.27c0.62-8.34,8.52-10.35,13.19-15.18c5.69-8.5,14.11-6.13,22.08-5.56
		c-3.53,9.44-11.12,14.44-20.26,16.42c-5.24,1.13-10.13,1.84-13.78,6.08c-0.04,0.05-0.69-0.28-0.88-0.56
		C373.01,371.14,372.98,370.68,372.87,370.27z"/>
	<path class="st143" d="M317.11,606.4c-5.1,5.33-7.48-8.58-12-1.97c-2.83,4.14,0.79,10.57-3.49,14.87c-1.52,0.05-3.04,0.1-4.57,0.15
		c-3.27-1.23-3.23-4.8-5.01-7.07c-2.1-5.42,4.43-3.42,5.77-7.21c-3.71-1.31-6.77-1.46-9.42,2c-2.56-3.73-2.62-7.83-1.54-13.95
		c5.36,13.24,7.93-1.45,12.41,0.45C306.03,596.76,312.67,600.04,317.11,606.4z"/>
	<path class="st16" d="M421.15,324.34c1.93,1.33,3.86,2.66,5.79,4c-10.03,11.22,0.61,9.99,6.87,11.41
		c-7.39,3.36-14.57,7.37-23.03,7.35c-0.43-2.94-3.24-1.52-4.7-2.57c-1.66-4.62,1.76-8.18,2.57-12.29
		C411.54,327.56,414.44,322.92,421.15,324.34z"/>
	<path class="st140" d="M360.64,543.5c-0.78,1.49-1.84,2.9-2.29,4.48c-1.41,4.91,0.64,12.89-5.59,13.71
		c-7.92,1.04-8.73-8.23-9.99-13.23c-1.16-4.58-5.14-4.7-6.78-7.77c6.43-5.42,12.69,0.69,18.9-0.15
		C358.06,539.08,359.57,540.88,360.64,543.5z"/>
	<path class="st142" d="M350.18,405.27c0.8,0.18,1.59,0.36,2.39,0.54c4.4,8.31,4.52,17.71,6.75,26.58c0.7,2.77,1.91,6.27-1.56,7.79
		c-3.7,1.62-6.41-0.31-7.61-4.16c0.95-3.99-0.75-6.9-3.44-9.73c-2.84-2.98-5.41-6.36-1.81-10.6c5.42-1.82,0.42-4.63,0.66-6.94
		C346.08,406.23,347.16,404.45,350.18,405.27z"/>
	<path class="st132" d="M520.41,494.78c-5.83,13.23,4.56,23.41,5.37,35.62c-11.54-22.84-18.24-47.32-25.15-74.37
		c7.67,5.16,6.39,11.22,7.96,16.42c2.39,7.9-1.83,19.82,11.53,22.09L520.41,494.78z"/>
	<path class="st43" d="M442.92,372.83c9.78-9.8,21.39-11.5,34.24-7.78C466.22,369.73,456.07,377.88,442.92,372.83z"/>
	<path class="st34" d="M437.1,503.62c-16.02-11.84-17.24-31-23.23-47.9C423.49,470.68,424.61,489.93,437.1,503.62z"/>
	<path class="st5" d="M319.57,520.06c2.37-5.14,11.55-8.35,3.15-16.56c-2.46-2.4,2.4-1.59,4.27-1.06
		c4.81,10.24,10.99,18.48,24.7,15.91c-5.74,2.91-11.17,2.03-16.5,2.2c-3.71,0.67-7.43,0.75-11.15,0.02
		C322.55,520.4,321.06,520.23,319.57,520.06z"/>
	<path class="st120" d="M489.8,372.7c1.7,0.83,3.39,1.67,5.09,2.5c-2.46,6.56-4.25,13.48-7.6,19.55c-2.55,4.63-7.6,3.46-14.36,1.37
		C484.7,391.14,489.62,383.38,489.8,372.7z"/>
	<path class="st71" d="M360.64,543.5c-1.92-0.99-3.83-1.97-5.75-2.96c8.27-5.2,14.82-0.15,21.38,3.82
		c4.6,2.79,8.85,6.16,15.05,10.54C378.69,553.43,371.56,543.21,360.64,543.5z"/>
	<path class="st144" d="M535.6,471.74c3.43-4,8.49-11.48,12.16-7.54c4.63,4.96-2.19,10-7.29,13.14c-1.08,1.99-2.28,3.72-4.9,2.09
		C535.58,476.86,535.59,474.3,535.6,471.74z"/>
	<path class="st32" d="M425.83,351.83c10.18-6.52,21.48-8.97,36.72-9.54c-12.44,9.27-25.2,6.62-35.89,10.52
		C426.38,352.48,426.11,352.16,425.83,351.83z"/>
	<path class="st59" d="M541.12,451.24c0.49,4.95,0.08,9.28-5.17,12.03c-3.15,1.65-6.12,4.27-2.95,8.54
		c-1.54,1.03-3.08,2.06-4.62,3.09c-1.53,0.66-2.97,0.52-4.34-0.42C527.26,464.91,533.08,457.25,541.12,451.24z"/>
	<path class="st143" d="M344.88,598.98c-1.94,3.69-3.64,1.96-5.08-0.34c-1.83-2.92-3.59-2.74-5.5-0.16
		c-7.83-4.74-3.51-10.18-0.79-16.53C334.4,590.34,341.54,593.3,344.88,598.98z"/>
	<path class="st6" d="M433.93,336.97c3.47-4.2,8.97-4.89,13.27-7.64c2.08,0.57,3.9,1.45,4.63,3.71
		C447.3,340.9,441.15,341.35,433.93,336.97z"/>
	<path class="st132" d="M524.05,474.47c1.45,0.14,2.89,0.28,4.34,0.42c-0.82,7.36-1.95,14.61-7.98,19.88c0,0-0.28-0.23-0.28-0.23
		C518.95,487.36,517.46,480.13,524.05,474.47z"/>
	<path class="st5" d="M314.22,484.54c-2.52-9.32-7.15-18.28-4.78-28.42c4.89,9.02,4.65,20.08,11.29,28.41
		C318.56,484.53,316.39,484.53,314.22,484.54z"/>
	<path class="st18" d="M553.98,518c8.9,5.39,9.14,7.58,1.49,16.92c-3.02-4.46,0.92-10.88-4.2-14.34
		C552.17,519.72,553.08,518.86,553.98,518z"/>
	<path class="st145" d="M387.41,530.75c-14.08,7.78-19.04-8.82-30.13-9.01C371.04,514.78,374.03,536.65,387.41,530.75z"/>
	<path class="st27" d="M344.9,415.68c-1.26,4.73,0.4,7.67,4.67,10.33c3.94,2.45,5.34,6.38,0.59,10c-2.38-7.24-10.8-11.54-9.94-20.37
		C341.77,415.96,343.37,411.59,344.9,415.68z"/>
	<path class="st68" d="M535.57,479.43c1.63-0.7,3.27-1.39,4.9-2.09c1.86,2.1,3.23,4.4,2.98,7.35c-8.25,1.17-6.15,9.16-9.15,13.79
		c-0.02,0.03-0.72-0.3-1.03-0.54c-0.31-0.25-0.54-0.61-0.8-0.93C533.51,491.14,534.54,485.28,535.57,479.43z"/>
	<path class="st146" d="M329.64,484.46c9.5,6.96,8.03,18.29,17.28,25.19C337.21,506.35,337.21,506.35,329.64,484.46z"/>
	<path class="st147" d="M417.03,577.47c11.38-4.02,19.14,0.24,24.16,10.78C435.03,580.32,426.18,578.54,417.03,577.47z"/>
	<path class="st52" d="M286.52,535.69c2.6-4.53,5.15-9.09,7.8-13.59c2.66-4.51,5.17-5.2,7.24,0.46
		C296.06,526.37,294.04,534.18,286.52,535.69z"/>
	<path class="st148" d="M296.38,545.98c8.1,1.01,16.2,2.01,24.7,3.07c-6.9,4.58-14.86-0.45-21.36,3.59
		C292.53,553.47,295.09,549.4,296.38,545.98z"/>
	<path class="st149" d="M296.38,545.98c0.19,2.69-0.82,5.97,3.35,6.66c2.16,6.92-2.26,3.27-3.96,2.19
		c-4.43-2.8-4.35-10.22-11.79-10.25C289.16,541.83,292.46,545.56,296.38,545.98z"/>
	<path class="st150" d="M360.16,603.94c0.18,2.34,3.6,4.39,1.42,6.73c-2.57,2.76-4.72,0.16-5.76-1.92
		c-1.86-3.7-10.77,0.88-8.37-7.34C351.68,602.25,355.92,603.1,360.16,603.94z"/>
	<path class="st6" d="M463.18,390.94c2.06-6.16,3.08-13.58,13.11-12.42C472.61,384.21,465.95,385.72,463.18,390.94z"/>
	<path class="st111" d="M274.39,575.88c-1.43,4.7-3.94,3.95-6.78,1.32c-4.2-3.88-2.41-7.39,0.71-10.8
		C270.34,569.56,272.37,572.72,274.39,575.88z"/>
	<path class="st62" d="M447.92,405.06c4.03-4.8,8.73-6.07,14.55-7.47C457.82,405.82,457.82,405.82,447.92,405.06z"/>
	<path class="st90" d="M525.62,542.93c-2.88,4.1-5.61,8.24-4.15,13.66c0.18,1.39,1.31,3.09-0.98,3.75
		c-1.95,0.56-2.83-0.55-3.12-2.34C519.23,552.5,513.58,542.87,525.62,542.93z"/>
	<path class="st151" d="M426.66,352.81c1.94,2.02-18.27,4.36,3.56,5.53c-7.82,2.06-14.26,3.71-14.92-1.44
		c-0.76-5.86,6.3-4.53,10.54-5.07C426.11,352.16,426.38,352.48,426.66,352.81z"/>
	<path class="st147" d="M438.77,530.22c3.77,8.12,6.56,13.61,4.19,20.49C442.86,544.49,436.92,539.85,438.77,530.22z"/>
	<path class="st97" d="M324.04,520.57c3.71-5.45,7.42-5.65,11.15-0.02C331.48,523.33,327.78,529.64,324.04,520.57z"/>
	<path class="st54" d="M609.08,607.95c-4.65,9.12-9.83-1.92-15.08,0.46c-10.86,4.93-6.64-2.08-4.98-6.82
		c2.22-5.58-3.01-7.93-5.11-11.6c-2.05-3.6-2.71-7.09,0.5-10.2c3.62-3.51,6.76-1.56,9.64,1.35c1.86,3.25,1.76,9.63,7.2,7.87
		c4.26-1.38,2.19-7.01,2.92-10.3c1.87-8.47-0.07-17.91,5.04-25.66c1.91,1.89,4.22,3.14,6.77,3.97c1.06,0.48,1.83,1.24,2.41,2.23
		c0.9,2.42,0.85,4.81,0.02,7.46c5.51-6.99,13.48-11.09,19.65-17.3c2.05-2.09,4.3-3.91,7.12-4.89c2.49-0.47,4.98-0.94,7.47-1.41
		c1.27,1.99,2.65,3.92,3.39,6.21c-0.14,1.21-0.6,2.27-1.41,3.17c-14.59,12.8-25.82,28.8-39.92,42.09
		c-2.78,2.62-4.23,6.26-4.26,10.26C610.32,606.02,609.86,607.06,609.08,607.95z"/>
	<path class="st152" d="M645.16,544.51c-1.09,3.36-3.07,5.74-6.83,6.14c-7.98-0.63-13.04,6.46-20.33,7.65
		c-1.27,0.02-2.55,0.04-3.82,0.06c2.89-10.34,6.2-20.59,4.79-31.6c-0.26-2.05-0.03-4.16-1.24-5.99
		c7.33-4.34,11.64-12.44,19.69-15.88c5.67,1.13,2.37,9.88,8.8,10.36c2.91,0.98,4.35,2.58,2.12,5.48c-1.27,1.64-4.19,4.02-3.85,4.59
		C648.25,531.7,645.83,538.11,645.16,544.51z"/>
	<path class="st135" d="M637.14,605.63c-3.05,1.58-6.38,4.81-8.07-1.4c2.62-6.83,7.24-12.2,12.76-16.77
		c7.05-5.83,15.44-10.5,12.98-22.17c-0.62-2.93,2.79-3.54,5.55-2.85c2.42,1.71,3.42,4.9,6.34,6.1c0.55,0.13,0.89,0.48,1.03,1.03
		c0.79,2.27,2.21,4.51,0.31,6.9C657.94,586.4,646.59,595.01,637.14,605.63z"/>
	<path class="st10" d="M665.59,576.45c0.71-2.29,1.43-4.59,2.14-6.88c4.33,6.69,11.34,8.01,18.38,8.54
		c8.08,0.6,15.29,2.85,21.35,8.35c-5.5,6.26-10.64,0.53-15.92-0.45c-5.84-2.88-13.94,1.82-18.49-5.44
		c-2.87-5.66-5.19-0.28-7.74,0.39C663.74,579.35,663.74,577.84,665.59,576.45z"/>
	<path class="st152" d="M690.56,583.75c6.09-1.96,10.45,6.91,16.9,2.7c2.02,0.77,4.04,1.53,6.05,2.3c-0.32,2.85,4.84,4.67,1.92,7.69
		c-2.81,2.9-3.81-1.78-6.03-2.21c-5.44-1.04-11.33-0.83-15.76-5.06c-0.92,0.71-1.91,0.83-2.97,0.36c-1.26-1.27-1.54-2.79-1.11-4.48
		C689.9,584.62,690.23,584.19,690.56,583.75z"/>
	<path class="st54" d="M686.09,534.77c-9.63,0.49-8.61-8.55-14.79-15.8c7.21,3,13.16,0.99,14.34,8.26
		C685.8,529.74,685.95,532.25,686.09,534.77z"/>
	<path class="st36" d="M666.7,568.54c-3.99,0.71-5.37-2.21-6.89-4.94c-4.09-3.54-3.86-8.53-4.46-13.25
		c-1.2-2.31-3.95-4.03-2.72-7.25C664.06,547.85,661.81,560.17,666.7,568.54z"/>
	<path class="st153" d="M741.66,588.65c-9.94,0.09-16.23-6.01-21.88-13.18c7.63,3.81,15.89,6.59,21.67,13.45
		C741.46,588.91,741.66,588.65,741.66,588.65z"/>
	<path class="st66" d="M594.05,581.13c-2.83,1.7-6.39-3.78-8.67,0.56c-2.07,3.92,0.08,6.79,3.4,9.24c4.44,3.28,6.08,6.97,0.25,10.66
		c-0.8-0.87-1.61-1.74-2.41-2.61c-5.22-1.46-10.44-3.28-15.07-5.87c-6.1-3.42-9.32-1.41-11.9,4.03c-1.68,2-3.74,3.36-6.36,3.78
		c-4.42,0.1-7.5-1.59-8.34-6.27c3.56-6.23,8.3-10.81,15.98-11.18c6.07,0.06,9.91-2.01,6.18-8.48c-1.92-3.33-1.98-5.96-0.43-9.06
		c4.44-3.42,9.35-5.07,15.06-5.01c5.57,0.05,0.79-9.8,7.89-8.81c5.56,3.17,2.65,7.95,2.35,12.24
		C592.66,569.94,593.35,575.54,594.05,581.13z"/>
	<path class="st112" d="M591.97,564.34c-1.98-3.48,2.22-9.75-4.92-10.9c-5.96-3.17-12.08,0.23-18.1-0.45l-0.29,0.21
		c-3.84-13.63-5.69-27.22,0.65-40.68c2.15-5.87,4.7-1.26,7.12-0.27c4.03,13.16,15.42,23.05,16.86,37.28
		C593.77,554.42,594.56,559.6,591.97,564.34z"/>
	<path class="st8" d="M591.21,459.79c7.38,2.05,14.6,4.25,13.28,14.35c-1.9,4.39-3.8,8.78-5.7,13.17c-2.71,0.97-3.5-1.52-4.98-2.76
		C584.92,477.14,592.81,467.97,591.21,459.79z"/>
	<path class="st154" d="M555.64,494.34c-5.07-4.91-4.96-10.38,0.3-15.6c1.46,3.46,0.72,9.89,7.8,5.79c2.3-3.88,5.44-4.88,9.48-2.73
		c-0.22,5.37,2.98,11.39-3.03,15.64c-2.9,1.83-4.08-0.05-5.63-2.2c-2.06-2.86-4.33-6.34-8.65-2.82
		C555.98,493.08,555.89,493.72,555.64,494.34z"/>
	<path class="st127" d="M605.3,499.99c-0.76,4.96-0.39,9.64,1.47,14.5c1.65,4.31,0.32,8.69-4.36,12.43
		c-2.56-7.37-10.97-12.78-4.38-21.77C599.31,501.81,601.78,500.16,605.3,499.99z"/>
	<path class="st37" d="M555.91,492.42c7.93-7.37,9.08,4.58,14.28,5.01c-1.76,6.55,6.64,8.83,6.23,14.82
		c-2.28,2.66-4.9-3.66-7.12,0.27c-4.96-3.75-9.26-7.3-6.76-14.99C563.69,493.98,559.86,491.96,555.91,492.42z"/>
	<path class="st65" d="M617.73,520.76c3.79,4.64,3.86,26.26,0.04,31.4c-1.44,1.94-3.86,3.27-3.58,6.19
		c-0.97,1.23-1.95,3.12-3.73,2.12c-3.2-1.81-1.78-4.78-1.26-7.44c6.07-2.55,8.59-6.79,8-13.63
		C616.67,533.26,617.5,526.98,617.73,520.76z"/>
	<path class="st76" d="M619.7,489.43c3.09,0.32,6.17,0.64,9.25,0.96c-0.05,1.83-0.1,3.65-0.15,5.48c-0.02,4.9-5.74,4.12-6.88,8.53
		C617.61,499.06,620.19,494.05,619.7,489.43z"/>
	<path class="st103" d="M605.3,499.99c-2.42,1.72-4.84,3.44-7.27,5.16c0,0-0.61,0.24-0.61,0.24l-0.58-0.32
		c-1.46-5.5-3.22-11.05,2.42-15.44C608.68,488.77,600.89,497.93,605.3,499.99z"/>
	<path class="st155" d="M573.61,466.61c-2.25,0.47-4.51,0.94-7.17,1.5c1.71-5.07,3.25-9.63,4.79-14.19c0.05-1.82,0.1-3.64,0.15-5.45
		C574.66,454.21,574.39,460.38,573.61,466.61z"/>
	<path class="st156" d="M599.27,489.63c-0.81,5.14-1.62,10.29-2.42,15.43c-6.02-6.1-1.14-13.81-3.04-20.52
		c1.66,0.92,3.32,1.84,4.98,2.76C599.13,488.04,599.29,488.82,599.27,489.63z"/>
	<path class="st61" d="M573.21,481.79c-3.34,0.28-6.72,0.44-9.48,2.73c7.18-2.55,1.69-13.43,10.01-15.24
		C573.57,473.45,573.39,477.62,573.21,481.79z"/>
	<path class="st137" d="M350.18,405.27c-1.54,1.16-3.09,2.32-4.63,3.47c-0.96-6.28-11.59-2.72-10.88-10.7
		c4.54,1.46,6.26-3.48,11.16-4.78C343.81,398.85,347.55,401.78,350.18,405.27z"/>
	<path class="st54" d="M250.69,598.96c0.11-0.75,0.13-1.49,0.08-2.24c-3.14-4.36-0.48-7.39,2.38-10.37c0.97-0.93,1.94-1.86,2.91-2.8
		c5.19,2.58,7.66,6.81,7.63,12.56C259.68,598.48,255.73,601.18,250.69,598.96z"/>
	<path class="st114" d="M687.75,603.4c0.1-0.63,0.24-1.24,0.42-1.85c10.67-2.41,14.29,2.51,13.01,12.52
		c-7.01,0.27-4.9,8.22-9.95,11.33C691.15,617.62,699.14,608.57,687.75,603.4z"/>
	<path class="st157" d="M690.38,588.79c1.09,0.13,2.18,0.26,3.27,0.38c-0.9,3.84-2.35,7.39-5.4,10.08
		c-3.61,1.76-7.53,4.4-11.03,0.88c-1.04-1.05,0.87-4.48,3.2-5.82C684.01,592.99,685.18,587.27,690.38,588.79z"/>
	<path class="st158" d="M464.6,616.9c-0.4-0.13-0.87-0.17-1.18-0.41c-0.56-0.43-1.02-0.99-1.52-1.49
		c7.47-2.07,14.93-4.14,23.65-6.56c-2.03,5.32-4.51,7.93-8.82,8.63C472.69,617.01,468.65,616.96,464.6,616.9z"/>
	<path class="st43" d="M655.35,550.35c7,2.56,2.37,9.03,4.46,13.25c-0.42,0.03-0.84,0.05-1.27,0.08c3.1,15.28-9.49,20.9-17.93,29.05
		c-3.91,3.78-6.17,9.2-11.55,11.49c-2.87,1.53-6.82,2.34-8.4,4.72c-4.94,7.46-7.98,1.93-11.59-0.98c-0.02-0.91-0.04-1.81-0.06-2.71
		c1.07-5.41,2.77-10.39,7.08-14.34c13.63-12.5,25.37-26.84,38.59-39.74L655.35,550.35z"/>
	<path class="st77" d="M557.51,596.48c5.56-11.97,9.06-12.31,23.63-2.17c1.96,1.36,3.65,3.1,5.47,4.67
		c-5.98,5.94-11.97,11.89-17.95,17.83c-4.84-1.92-8.46,0.79-12.16,3.19c-2.99,0.39-6.1,1.57-8.63-1.24
		c5.07-6.57,6.78-16.13,16.85-17.99C563.4,596.48,557.5,601.95,557.51,596.48z"/>
	<path class="st78" d="M665.59,576.45c-0.09,1.5-0.19,3-0.28,4.49c-1.62,5.77-4.48,9.54-10.85,11.81
		c-6.8,2.43-12.5,7.65-14.27,15.57c-1.02-0.9-2.03-1.8-3.05-2.7C644.94,594.27,654.5,584.62,665.59,576.45z"/>
	<path class="st127" d="M683,629.48c8.75,3.59,8.99,5.82,1.33,15.41c-1.07-5.37-2.09-10.47-3.11-15.58
		C681.92,628.28,682.51,628.39,683,629.48z"/>
	<path class="st80" d="M683,629.48c-0.6-0.03-1.19-0.09-1.79-0.17c1.02-6.08-7.09-13.51,3.15-19.92
		C683.84,617.19,683.42,623.34,683,629.48z"/>
	<path class="st43" d="M292.04,612.38c3.91,0.77,4.16,4.13,5.01,7.07c-1.21,2.4,1.1,7.12-2.72,7.25c-4.46,0.14-2.22-4.34-2.49-6.84
		C291.58,617.4,291.95,614.88,292.04,612.38z"/>
	<path class="st159" d="M253.16,586.34c-0.8,3.46-1.59,6.91-2.39,10.37c-4.44-0.78-8.83-3.14-13.4-0.47
		c-0.17-0.36-0.55-0.79-0.47-1.07c0.2-0.66,0.63-1.26,0.97-1.88C242.17,589.22,246.36,584.91,253.16,586.34z"/>
	<path class="st20" d="M548.32,618.19c2.72,0.6,5.45,1.21,8.17,1.81c-9.59,1.33-19.19,3.21-28.7-0.49
		c8.59-5.04,6.95-13.55,7.24-21.41c2.98-3.3,5.97-6.6,11.04-3.78c0.92,3.79,4.04,4.27,7.16,4.76
		C558.64,607.26,552.27,612.41,548.32,618.19z"/>
	<path class="st14" d="M536.24,599.62c2.17,4.42-2.46,11.38,7.03,13.22c-6.35,2.74-10.92,4.71-15.48,6.67
		c-6.33,4.29-13.63-0.64-20.13,2.1c5.08-4.97,10.16-9.94,15.23-14.91C524.45,598.9,529.21,597.13,536.24,599.62z"/>
	<path class="st133" d="M408.65,332.22c3.73,5.06-0.45,8.46-2.57,12.29c-2.19-1.01-8.99,2.85-4.94-4.72
		C402.9,336.51,404.83,333.44,408.65,332.22z"/>
	<path class="st160" d="M673.05,580.56c5.38,3.56,11.99,0.4,17.51,3.19c0,0,0.14-0.23,0.14-0.23c-2.36,3.94-5.51,6.18-10.34,4.79
		c-9.51,2.44-15.26,10.22-22.52,15.85C658.28,593.31,670.23,589.88,673.05,580.56z"/>
	<path class="st10" d="M680.36,588.31c1.99-4.73,7.73-1.38,10.34-4.79c-0.11,1.76-0.22,3.52-0.33,5.28
		c-4.77-0.77-2.49,11.18-9.97,5.53C680.39,592.32,680.38,590.32,680.36,588.31z"/>
	<path class="st161" d="M536.24,599.62c-4.99,1.33-9.62,3.35-13.34,7.09c-2.18-1.16-4.36-2.31-7.43-3.94
		c5.58-3.91,10.32-7.23,15.05-10.54c6.14-5.65,13.94-7.77,21.61-10.18c2.08-1.1,4.16-2.29,6.55-0.78c0.74,0.73,1.48,1.47,2.23,2.2
		c-4.94,3.62-9.89,7.24-14.83,10.86C542.79,596.09,539.52,597.86,536.24,599.62z"/>
	<path class="st162" d="M553.48,584.22c-0.14,0.39-0.2,1.05-0.44,1.13c-7.49,2.33-15,4.6-22.51,6.87c-1.13-2.81,5.17-7.76-2.5-8.69
		c0.98-4.11,0.54-9.9,7.82-5.49c4.37,2.65,8.33-0.1,12.14-2.21C551.16,577.75,555.21,579.09,553.48,584.22z"/>
	<path class="st163" d="M497.18,596.07c3.55-0.19,7.96,2.25,6.26,4.57c-2.52,3.44-7.82,6.33-12.08,6.53
		c-3.31,0.16-3.45-4.62-1.13-7.75C491.59,596.31,494.17,595.75,497.18,596.07z"/>
	<path class="st101" d="M497.18,596.07c-2.32,1.12-4.63,2.23-6.95,3.35c-4.55-0.67-9.04-0.27-13.57,0.71
		C483.22,597.11,489.07,590.94,497.18,596.07z"/>
	<path class="st136" d="M554.78,563.33c-1.49,8.18-11.18,6.19-14.69,11.85c-1.44-2.16-2.88-4.32-4.32-6.49
		c6.64-2.43,9.91-7.65,10.78-14.17C553.66,554.38,545.9,565.82,554.78,563.33z"/>
	<path class="st164" d="M298.96,504.8c5.4-6.59,3.92-18.37,15.37-20.41c4.8,9.81-1.47,16.28-7.41,22.32
		C305.41,508.25,301.12,507.69,298.96,504.8z"/>
	<path class="st165" d="M386.98,596.49c-0.49,2.75-1.7,7.24-5.81,10.14c-1.96,1.38-3.03-0.03-3.61-1.69
		c-1.62-4.65-3.17-9.34-4.6-14.05c-0.1-0.33,0.99-1.02,1.53-1.55c3.11,3.86,5.84,3.99,8.08-0.81
		C383.89,590.82,388.8,590.24,386.98,596.49z"/>
	<path class="st166" d="M568.94,552.99c6.11-3.06,12.3-9.27,18.1,0.44c-0.35,4.46-0.7,8.92-1.18,14.98
		c-6.32-10.7-13.11,1.19-19.2-2.49c-3.38-0.67-4.47-2.75-1.41-4.6C568.79,559.19,569.29,556.47,568.94,552.99z"/>
	<path class="st55" d="M553.48,584.22c-0.91-3.4-6.37-3.82-5.51-8.39c5.92-3.39,6.23-3.24,10.7,5.43
		C556.95,582.25,555.22,583.24,553.48,584.22z"/>
	<path class="st122" d="M356.26,616.16c1.84,4.59,3.75,8.93,0.39,13.02c-0.38,0.46-2.76,0.2-3.06-0.35
		C350.98,624.01,355.58,620.35,356.26,616.16z"/>
	<path class="st167" d="M654.69,551.18c-5.92,11.36-16.34,18.77-24.7,27.98c-7.53,8.3-16.28,15.54-20.97,26.1
		c-3.46-3.02-2.16-5.92,0.33-8.64c13.89-15.2,27.8-30.39,41.83-45.47C651.71,550.57,653.48,551.14,654.69,551.18z"/>
	<path class="st160" d="M618,558.3c6.53-3.25,9.55-15.83,20.35-7.65c-6.68,9.92-18.25,14.68-25.83,24
		C614.35,569.2,616.18,563.75,618,558.3z"/>
	<path class="st125" d="M548.32,618.19c1.81-6.32,6.35-11.95,4.91-19.11c1.42-0.86,2.85-1.73,4.27-2.6
		c4.62,3.87,5.45-11.52,9.98-2.31c1.54,3.13,2.91,12.11-7.19,10.76c-1.27-0.17-4.32,1.86-3.49,4.33
		C559.72,617.92,551.44,615.53,548.32,618.19z"/>
</g>
</svg>
