    <?xml version="1.0" standalone="no"?>
<svg xmlns:xlink="http://www.w3.org/1999/xlink" id="wave" style="transform:rotate(0deg); transition: 0.3s" viewBox="0 0 1440 290" version="1.1" xmlns="http://www.w3.org/2000/svg"><defs><linearGradient id="sw-gradient-0" x1="0" x2="0" y1="1" y2="0"><stop stop-color="rgba(243, 106, 62, 1)" offset="0%"/><stop stop-color="rgba(255, 179, 11, 1)" offset="100%"/></linearGradient></defs><path style="transform:translate(0, 0px); opacity:1" fill="url(#sw-gradient-0)" d="M0,145L21.8,140.2C43.6,135,87,126,131,106.3C174.5,87,218,58,262,38.7C305.5,19,349,10,393,33.8C436.4,58,480,116,524,135.3C567.3,155,611,135,655,106.3C698.2,77,742,39,785,58C829.1,77,873,155,916,188.5C960,222,1004,213,1047,178.8C1090.9,145,1135,87,1178,82.2C1221.8,77,1265,126,1309,145C1352.7,164,1396,155,1440,130.5C1483.6,106,1527,68,1571,82.2C1614.5,97,1658,164,1702,203C1745.5,242,1789,251,1833,251.3C1876.4,251,1920,242,1964,241.7C2007.3,242,2051,251,2095,251.3C2138.2,251,2182,242,2225,212.7C2269.1,184,2313,135,2356,135.3C2400,135,2444,184,2487,212.7C2530.9,242,2575,251,2618,212.7C2661.8,174,2705,87,2749,67.7C2792.7,48,2836,97,2880,106.3C2923.6,116,2967,87,3011,87C3054.5,87,3098,116,3120,130.5L3141.8,145L3141.8,290L3120,290C3098.2,290,3055,290,3011,290C2967.3,290,2924,290,2880,290C2836.4,290,2793,290,2749,290C2705.5,290,2662,290,2618,290C2574.5,290,2531,290,2487,290C2443.6,290,2400,290,2356,290C2312.7,290,2269,290,2225,290C2181.8,290,2138,290,2095,290C2050.9,290,2007,290,1964,290C1920,290,1876,290,1833,290C1789.1,290,1745,290,1702,290C1658.2,290,1615,290,1571,290C1527.3,290,1484,290,1440,290C1396.4,290,1353,290,1309,290C1265.5,290,1222,290,1178,290C1134.5,290,1091,290,1047,290C1003.6,290,960,290,916,290C872.7,290,829,290,785,290C741.8,290,698,290,655,290C610.9,290,567,290,524,290C480,290,436,290,393,290C349.1,290,305,290,262,290C218.2,290,175,290,131,290C87.3,290,44,290,22,290L0,290Z"/></svg>