<svg width="100%" height="100%" id="svg" viewBox="0 0 1440 590" xmlns="http://www.w3.org/2000/svg" class="transition duration-300 ease-in-out delay-150"><path d="M 0,600 C 0,600 0,300 0,300 C 47.17963447307423,291.66003977199284 94.35926894614846,283.3200795439856 138,313 C 181.64073105385154,342.6799204560144 221.74255868848041,410.37972159605044 270,391 C 318.2574413115196,371.62027840394956 374.67049629992965,265.1610340718127 416,267 C 457.32950370007035,268.8389659281873 483.5754561118008,378.9761421166988 522,381 C 560.4245438881992,383.0238578833012 611.0276792528673,276.93439746139234 662,276 C 712.9723207471327,275.06560253860766 764.3138268767298,379.28626803773204 801,399 C 837.6861731232702,418.71373196226796 859.7170132402132,353.92053038767955 903,355 C 946.2829867597868,356.07946961232045 1010.818120162417,423.03161041154976 1052,401 C 1093.181879837583,378.96838958845024 1111.0105061101183,267.9530279661212 1155,258 C 1198.9894938898817,248.04697203387877 1269.139855397109,339.1562777239654 1321,363 C 1372.860144602891,386.8437222760346 1406.4300723014455,343.42186113801733 1440,300 C 1440,300 1440,600 1440,600 Z" stroke="none" stroke-width="0" fill="#abb8c3" fill-opacity="1" class="transition-all duration-300 ease-in-out delay-150 path-0"></path></svg>